<?xml version="1.0" encoding="UTF-8"?>
<svg id="Layer_1" data-name="Layer 1" xmlns="http://www.w3.org/2000/svg" viewBox="0 0 283.46 283.46">
  <defs>
    <style>
      .cls-1 {
        fill: none;
        stroke: #010101;
        stroke-miterlimit: 1;
        stroke-width: .75px;
      }
    </style>
  </defs>
  <path id="west-midlands" class="cls-1" d="M156.11,77.54l-1.49,1.24-.76,2-1.04,.45-1.66-.37-.73,1.64-1.18,.56-2.11,.14-1.72-1.83,.11,3.04-.87-.31-3.3,4.34-2.11,2.48-.39-.37-1.66,1.35-.79,.17-1.3-.25-1.86,2.42-2.11,.73-.08,2.26,.82,1.13-.73,.7,.28,.9-3.52,1.13,.14,1.69-2.79,1.01-2.4-1.52-.51,2.65-1.83-1.75-1.55,.9-.62-.73,.17-1.66-.68,.06-.08-.9-.85,.17-.65-.99-2.51,1.04-1.47-.96-1.66,1.1-.48,1.38,.68,1.32-.34,3.1-1.58,.06-2.73,2.82-2.34-4.68-2.54-.39-.23-.59-2.48,1.3-1.86-1.27-.85-1.75-.45,.96-1.66,.48-1.64,2.48-2.34,.28-1.18-.51-.85,1.18-.28,2.4-1.83,.08,.54,.82-1.04,.56,1.49,1.18-2.17,1.89,.73,.51-1.04,2.28-.06,1.18h.11l.79,.08-.48,1.04,2.51,1.27,1.92-1.18-.14,1.8,.85,.76,.37-.45,.31,.51,.37-.45,.62,.68,.45-.31,.23,.62,1.1-.37,.37,.96-.68,.62,1.75,.82-.28,.76,.65,.28,.76-.23,.51,.37,.23,1.58-1.04,.08,.03-1.13-1.38,.62-1.21-.45-.11,1.78-1.47,1.49,.03,1.58h.45l-.39,.93-.42,1.8-1.92,.59,1.38,1.04-.82,.17-1.24,1.89,.25,1.01-1.72,1.3h-1.35l1.64,4.37-1.52,.73,.31,.68,2.79-.68,.28-.45-.79-.59,.42-.62,1.61-.42,1.47-1.52,1.3-.37,1.21,2.2-.48,3.04-1.86-.14,.17,2.2-4.96,.14-4.17,2.42-1.04-.23-2.11,2.23-.23,1.04,.9,2.11,2.42,1.16,1.44,2.17,2.68,1.1,2.96,2.93,1.18,.39,4-.99,1.21,.54v.06l-.76,1.89-2.06,.76-.79,4.14,3.81,1.04-1.66,.96-1.72-.51-1.86,.73-.76,.62,.23,1.21-1.72,.2v2.26l-1.8,.99,.42,1.89-1.72,1.95,1.38,.9,.9-.82,.73,.73-1.3,1.13-2.59,.56-.39,1.01,2.26,1.13-.06,1.13-1.07,.17-.23,2.42,2.11,2.82,.28,1.01-.82,1.72,1.86,3.92,2.48,2.59,1.01,2.96h1.95l.28,2.23,1.16-.11,4.62-2.65,1.97,1.18-1.07,.76,1.24-.31,.34,1.13,.93,.08,1.18,1.49,1.97,.99-.62,1.44,2.4,2.88,1.16-1.16,.37,.9,1.04-.51,.23,1.1,1.66-.2,.96,.96,.85-1.66,.68,.45,1.49-1.72,1.13,.68,.14-1.21,2.96,.11,1.44-2.37,1.27,.45,1.32-1.18,1.61-.39-.48-2.17-1.1-.9,.06-2.34-2.17-.9,.54-.37-.14-1.66,1.47-1.32-1.24-1.58,.79-1.16,.79-.11,.14,.9,1.72,.14-.14,1.58,1.44,.31,.87-.23,.31-1.52,2.62-.9-.08,.76,1.61,.76-.03,2.93,.85-.03,.73,.93,1.8-.17,1.16,.23,1.89-2.85,2.17,.51,.28-.9,.99,.31-1.44-2.26,.68-.31-.23-1.95,.59-.54,.56-.28,1.69,.42,1.07,.79-1.44,1.04-.68,2.09,.54,.68,1.86-1.55,1.61,.45,1.49-.39,.68,1.07,.68-.08,3.3-3.07,1.97-.17,1.21,.76,1.1-1.44,3.16,3.16,1.38,.54,.87-2.4-.59-1.24-1.75-.96v-.99l-.68-.65,1.24-.23,.42-.7,.9,.68,.76-1.27,.39,.68,1.41-2.71,1.3-.62,1.1,1.69,.7,.37,.59-.85-.14,2.62,1.1,.68,.68-.65-.2,1.32,1.01,.76-.34,1.21,1.86,.82,2.4-.76,.37,.93-3.13,3.58,.23,.54,3.3,3.16,1.27-1.49-.54-.62,1.21,.39,1.83-.82-.45-1.04,.96-.48,.85,.45,.28-.51,1.52-6.12-.25-1.27,1.44-2.93,1.86,.37-.42-1.49,1.72-.54,2.42,2.34,1.69-.73-.82-1.58-1.35-.14,1.61-1.69,1.1,.08,1.04-3.3,1.01-2.17,1.95-.17,1.64-.73-.42-1.66-.85-.59-.59-1.61,1.1,.31,.7-1.21,1.32-.59,.99-1.32-.45-1.97-.65-.37,1.47-2.42-3.38-1.27,.17-.59,2.42-1.58,2.82-.68,.17-.48-1.86-3.5-2.14-3.83-.23-.39-3.97-5.24-1.18-.7-5.58-3.24-2.54-1.72-3.83-1.8-.25-1.21-2.03-1.32,.34-1.8-.7-.59-.28-1.44,1.44-.68,.28-1.13-.62-1.49-2.23-1.83,.14-.68-.62-.59-.37,.37-1.89-.59-1.18,.39-.14-2.28-3.02-.87,.9-1.3-.28-.85,1.86-3.21,.96,.54,.68-.7,.68,.68,.45-.51,.48,.37-.17-.68,1.49-1.18-.2-.93-1.07-.59,1.44-1.58-2.42-2.26-3.83-.96-.73,.31-.08-.54-1.27,.68-1.18-.85-1.92-1.49-.65,.37-.82-.59-.56,.54-1.27-.62,.14-.96-1.49-2.34,.03-1.04,1.47-1.44,.23-3.16,3.78-2.2,.31-3.07-1.3-1.35-.37-.51,.54-.93-.59-.37-.48-2.54,.62-.45-.03-.93-2.26-3.27,.31-2.26-3.44-3.61-1.75-.31-3.16-1.49-.31-1.24-.12,.02Z"/>
</svg>