<?xml version="1.0" encoding="UTF-8"?>
<svg id="Layer_1" data-name="Layer 1" xmlns="http://www.w3.org/2000/svg" viewBox="0 0 532.78 957.26">
  <defs>
    <style>
      .cls-1 {
        fill: none;
        stroke: #010101;
        stroke-miterlimit: 1;
        stroke-width: .75px;
      }
    </style>
  </defs>
  <path id="south-east" class="cls-1" d="M386.65,740.22l-2.26,.37-2.68,2.48-.7,.37-.23-.79-1.1,.56-.48,1.44-.96-.54-.37,1.44-1.07-.08,.23,1.07-3.16,.68-.42,1.18,1.01,.23,.08,1.16,1.38,.82,1.01,1.89-.51,.82-1.41,.31,.65,.99-1.13,1.1-.54,1.13-.59-.28-1.1,.96-1.35-2.09-.68-3.19-.7-.56-.96,1.04-4.51-.23,.96,.96-2.17,.17-3.61,1.78-.85,2.28,1.3,.54-1.13,1.92-1.8,.39-.73,1.13-1.24,.51-2.76-.87-2.48,.73-.39-1.04,.62-2.42-2.11-3.66,.9-2.62-1.27-.17-.17-.68,2.93-1.13,1.47,.08-5.07-6.99-1.04,3.3-1.1-.08-1.61,1.69,1.35,.14,.82,1.58-1.69,.73-2.42-2.34-1.72,.48,.42,1.55-1.86-.37-1.44,2.93,.25,1.27-1.47,6.12-.34,.51-.85-.45-.96,.48,.51,1.04-1.89,.82-1.21-.39,.54,.62-1.27,1.49-3.3-3.16,.23,2.34,.45,.62,1.41,.2,1.07,1.75-1.83,1.55,.76,2.26-1.58,.25-.51,1.95-1.21,1.13,.68,1.52-.62,1.55,.56,1.72-.25,1.3-2.31,2.03,1.18,1.27,.82,3.02-.56,1.64,.65,1.3,1.75,1.35,.59,1.21-.85,.37-1.49-.85-.87,1.66,.45,1.83,2.03,1.8-.79,1.24,.39,.62-1.44,1.07v2.09l-.06,.08,.9,1.35,1.32-.68,.48,.45,2.76,5.27,1.13-.68,.08,2.9,1.52,2.65,2.17,2.09-.14,2.28-2.37,.23-.37,.68,.54,.68,.59-.17-.2,1.44,2.62,2.31,1.13,.23-.31,1.3,.96,.87-.79,1.8-1.8-.9-.34,2.2,.85,1.97-.17,.9-1.24,.56,.14,2.03,.65,.03-.37,1.18-.54,.31-2.03-.99-1.86,.25-1.58,3.5-3.52,.31-.23,1.07,1.55,1.27-.2,1.21,.96,1.89,.17,.34-.54,2.82,2.31,.96-.68,2.48,.56,1.41-.39,3.61,.14,.85,2.06,.9-.34,.62,.48,.9-.7-.17-.37,.31,.54,.45-1.44,.31,.59,1.58,1.01,.45-1.01,1.95h.03l-.23,.42-.76-.45-1.64,1.38-.93-.45-.82-.48-1.89-2.17-2.11-.08-2.9-1.35-.93,.54-1.27-2.31-1.1,.51-1.3,1.97v-2.17l-.76,.68-2.57,.2-1.35,1.52-.45-.76,.08,1.18,2.17,1.61,2.93,4.37,1.97-1.44,1.95,.45-.37,2.31-.51,.82-1.07-.14-.39,.68,.25,.31-.59,2.03,.2,.76,1.3,.31,1.35-.9,.37,2.14,.73,.62-.82,.62,.03,1.64-.54,.51,.59,1.16-.17,.42,1.13,1.35,.11,1.38,2.31-1.44,.59,1.52-.31,1.58,3.92-.39-.68,1.44,3.16,.51,4.65,1.97-.73-.62,1.49-.45,1.52-1.44-.68-.28,.99-.51-.56-1.89,.99,.96h1.13l6.34-2.09,.42-.25-.51-.51,3.02-.17,2.45-3.13-.2-.54,.11,.54-.73-.08-.08-.73,.48-.08-1.24-.17,.25-1.1-.45-.68-1.16,.2,.48-.54-1.49-.56-2.82-4.06-3.75-1.47,.48-.42-.23-1.35,.65,1.66,.99,.73,.73-.39-.28-.42,.06,.03,.23,.39,2.42,1.75,.08-.45,.28,1.13,.39-2.34,1.04-.54-.82,.79,.08,1.47,1.13,.9,3.27,3.04-.23-2.65,1.01-.37-.34,3.83,3.86,2.26,1.89,.73,1.69,2.03,2.96,1.49,1.8-1.58-1.8,.48,1.49-1.16-.45-.79-.82,.23,.82-.45-1.41-1.89-.7,.23,.25-1.21-1.44-.31,1.35-.59,1.66,.76,.9,.08-.31-.79,.9-.23-.17,.85,1.07,.9,.45-.96,2.4,.42-2.03-.28-.51,1.18-.99-.2,.51,1.1,.17,.59-1.35,.31,.14,1.49,1.3,1.35,3.66-1.01-.06-.9-.79,.59-.06-1.89v-2.2l.45-.34,.76,.9,.06-2.59,.23,.93,1.16-.08,1.24,.85,.45-.7,2.59-.14-.11,1.27,.9-.31,.48,.54-.08-1.21,1.18,.11,.17,2,.99,.68,.68-1.55-.37-1.3,.73,.06-.08,1.16h.62l-1.07,1.41,1.61,.85,1.47-1.27,.31-1.61,.39,.31-1.07,2.57-1.18,.54-2.11-.76-1.64,2.54-.68,.17,.2-.85-.28,.85,4.71,2.57,3.61,2.99,1.92-3.44-.48,.65-.68-1.04-.9,.17,.31-.85,1.3-.14,.56,1.13,3.16-1.97,9.92-2.4,1.21-.23,5.41-.23,4.68-.9,5.1-1.64,1.89,.14,2-.31,3.64,.45,1.32,.28,1.92,1.01,.87-.39,3.38,1.13,4.31,1.52,1.8,.65-.03-.65,4.06,2.26,1.66-.11,4.23,1.8,2.82,.03,4.74-6.12,2.34-2.17,7.75-2.54,6.54-1.83,2.31-1.24,1.24-.11,3.81-4.2,2.73-1.55-.17-.34,5.19,.56,7.44,.9,.45-.68-1.27-4.85,1.66-5.47,4.85-4.23,7.39-1.55-.59-.37,2.09-2.03,2.93-.34,2.03-1.24,1.61,.11-.76-1.01,3.89-2.14,1.21-2.37-.14-6.85-.14-.39-2.28-7.08-1.27,1.07-.23-.08-.06-.59,1.1-.59,.08-1.13,.73-.48,2.26,.45,.54-.79,.14,.56,.99-3.21,.31-1.89-.54-.99-.45-.2-.65-.39-6.71,1.61-5.58,.37-8.71,1.49-3.02,.37-1.27,1.44-3.75,.73-2.85,.39-.48,.59,.08-.73-2.03-1.04-3.16-.11-2.99-.34-.62,.9,.37-2.88-2.4-1.58-.65-1.3,.9-.59-1.01-.06,.79-.39-1.92,.45,.62,1.07-.59,.14,.42,1.13,1.01,.59-.25,.54-1.13,.45,.45-1.27-.99,.08-1.01,1.92-.7-1.8-1.21-.28-.34,.59-.93,.08-.42,.96-1.07-.68-2.11-.79-1.55-1.47-.03,.06-.96,1.24,.87-1.58,4.62-.59,.9-.62-.45-.51,1.01-1.75,1.3-.37,.62,.54,.2-.48,.54,1.47,2.17-.31,.59-.76-.23-1.64-1.32-1.21-1.75,.08-.73-.48-2.73,.37-1.86-.87-.17,.51-.51-.45-1.27,.31-.45-.54-4.82,.62-.59,1.55,.59,.25-.82,.08,.31,.82-4.68,1.32-3.52-.59-.62-1.41-2.54,1.18-3.55-2.54-.82,2.62-1.86,1.13-.45,1.49-.54-.23-.37,2.17,.87,1.61-.9,.06,.37,2.2-.87,2.54-1.16,.03,.03,1.47-2.03,1.38,.14,2.26-2.71,.08-.59-1.44-1.07,1.58-.9-3.64-.82-.42-.17,.37-.56-.76-.93-.06-.76,.65-.06,.99-1.66,.31-.73,1.8-2.03,1.49-.82-1.35h-1.13l-.11-2-2-1.89-.59-.23-1.38,1.41-.59-.68,.76-.68-.37-1.35-1.44-.96v-1.27l-.99,.06-1.64,1.75-1.01,2.71-1.1,.87-.39-.08-.06-2.03,1.35-3.04-.68-1.47-.62,.23-2-1.95-1.89,.25,.2-1.01-.37-.34-1.66-.85-1.27,.17-.42-.9-.62,.2-.17-1.78-3.16-1.21,.34-1.16,.82-1.35,.42-1.24-.59-.99-.28-2.11,1.13-1.95-.82-1.95-.7-2.14-1.35-.51-1.27,1.3,1.21-1.3-1.07-3.21,.48-1.13-.39-1.13,.9,.23,.08-.93,.37,.23,.59-.76-.37-.68-.85,.11,.03-.31-1.35,.2,.08-1.64-1.21-1.44,.76-1.13-.23-1.1-.56-.54-.56,.42-.9-1.58-1.58,.48-3.72-2.03-1.1-2.34,.28-.76-1.49-2-.9,.28-1.35-2.34,1.72-1.55,1.27-.08,.56,.87-.48,.79,1.75,2.45,1.21,.23,.87-.65,3.16,1.24,1.49-2.45,.23,.45,.56,.2,.37-.68-2.88-3.81-1.55-.48-.7-.96-1.95-.08-1.3-1.44-1.18,.17-.62-.9,1.13-3.24,.76-.2-.14-1.21,.62,.06,.51-1.35,.45-.31-1.04-2.71,1.1-1.13-.45-.73,.62-.51-.17-1.35-1.58-1.13,2.2-3.19,1.52-1.13,.82-1.86-.99-2.26-1.66-.39-.42-1.44,.65-.23,.14-2.62-.96-.68-1.52-.59h.12Zm-37.8,136.52l.08,.2,.17-.14,.06-.14,.06-.37-.2,.54-.17-.08h0Zm-15.87,10.36l.93,.42-.39-.28-.54-.14h0Zm141.97-75.58l.34,.99-.79,1.35,.79,.76-.9,.62-.68-.48,.62,1.27,2.11,1.21,.2,1.83,2.28-.17h.06l2.2,.59,1.13-.14,2.45,.9,3.24-2.03-3.21-4.12-4.76-.7-2.14-1.27-2.93-.62h-.01Zm-4.76,2.49l-.31,.48,1.8,.28-.34-.76h-1.15Zm1.61,1.07l-1.52,.51,.45,.9h1.44l-.37-1.41h0Zm-7.78,.68l-.2,.51,1.35-.11-1.16-.39h.01Zm-93.73,58.85l-1.1,.76-.45,2.85-1.89,.23,.23,.96,5.27,.79v-.93l-1.35,.59,.45-.59-.93-.06,.85-1.3-1.04-.2-.25-.56,.62-.06,.42,.17,.34-1.61-1.16-1.04h0Zm1.83,.39l-.11,1.47,1.92,1.16,.23-1.35-.25-1.04-1.78-.23h-.01Zm-9.78,1.03l-.25,.73,.45-.14-.2-.59h0Zm-12.66,5.47l-1.27,.23-2.03,2.57-3.52,1.35,1.49,.28-1.1,.17-.68,1.07,.14-1.07-.54-.37,.31-.03-.62-.2-2.76,1.72-1.95,.37-.23,.25,.06-.34h-1.13l-1.64,2.82-2.37,1.55,6.34-.42,2.34,2.26,3.72,1.64,5.95,5.1,6.85-2.31,1.58-5.22,1.58-1.18,2.26-.37,1.72-1.83-.76-1.04-1.64,.08,.31-.59,.28,.14-.73-2.31-3.16-1.13-3.19-.11-.56,.39,.37-.68-1.58-.54-.54-.82-1.8-1.41-.99,.2,.59,3.41-1.13-3.64h.03Zm-15.79,5.45l.11,.59,.14,.06-.25-.65Z"/>
  <path id="scotland" class="cls-1" d="M235.21,101.08l-1.38,.99-.54,1.8,3.24,2.48-.2,1.04-.93,1.41-4.57-1.92-3.41,1.49-1.35-1.16,.9-1.47-6.54-.08-3.27,2.4-3.72,2.03-5.07,.59-3.16-.96-2.26,.68-.93-3.19-1.32,.99-2.71,2.88-3.02-.31-1.16,1.8-2.03-.68-1.69,2.11-1.13,.37-.17-1.3-4.12-.2-1.75,2.71-3.55,.9,1.47-3.16-.11-2.11-1.41,.59,.28-1.27-2.71-1.8-4.4-.17-.34,3.64-1.35,2.26-1.13-.08-.59-3.33-2.57-.79-1.86-2.65-1.52-2.03-2.59,4-.03-3.41-6.17-1.72-3.13-1.52-.54,4.74-2.31,3.19-3.1,2.09-.28,4.28,1.47,.93,1.47,.37-1.13,1.44-2.06,2.17,.37,1.13,.9,.9,1.16,.06,2.31,3.24-1.35,.28-2.23-2.14-2.59-1.92-.56,2.28-1.24,2.03,.9,1.27-1.49,.37,.48,1.3,.06,1.58,1.18-.45,.34,1.58-.08,2,1.49,1.69,4.34,2.68-2.14,.08-2.48-2.03-1.47,.59-2.09,.7-2.42-.17-1.72-1.64-.99,1.01,1.35,1.07-3.07,2.17-.42-1.58-.93-1.21-1.1-.06-.76-1.35-1.38,3.16,1.69,2.71,1.35,.99,.79,2.26,.68,1.58,2.71,1.58-2.45,.51,1.86,1.72-2.17,.03,1.44,.96-.85,2.71-.54,1.52-1.69-1.58-1.13,.31-.68,1.86-1.35-3.61-1.75-1.18-1.52,1.49,.23,2.48,1.8,1.35-.73,1.21,1.52,.96,2.14,.9,1.35,1.66,.9,2.93,4.14,2.17,2.4,.31-1.35,2.17,1.58,2.93-3.58-1.49-3.3,.59-2.93-2.99-2.34,.65,2.79,4.45-3.83-2.34-1.21,3.83-1.49,1.64-3.69-1.86-.85-4.82-2.99-.82-2.11,3.38,.39,3.02,2.03,.9,.9,1.49-.56,2.71,.9,1.58-1.8-.68-.65,.85,1.1,2.09-3.5-3.21-.68-3.47,.28-3.02-4.06-.73-2.85,1.04-.82,10.74,2.93,1.95,3.35,.31,.14,1.58,.34,2.11-2.79-1.66-2.73,.9-2.14,5.5,3.5,1.89,1.24,3.83,2.23,1.01,.7,2.51-3.86,.65-2-3.21-2.82-.62-2.26,10.32,.56,3.1,2.59,.14-.9,4.43-.56,2.79,1.58,1.95,3.5-.68,6.26-3.69,.85,1.07-2.26,1.49,2.71,1.58,4.57-3.3,3.21-2.71,.11,1.95-4.96,4.51-2.71,.23-3.95,1.21-2.71,1.27-1.35,3.16,2.26,.9,1.89-.39,2.17,1.07,3.5-.37,1.92-1.13,.79-.31-.68,2.26,5.64,4.68-2.26,1.78-4.74-6-2.93,.9-2.93,.76-1.24,2.17,1.69,1.13-2.71,2.79-1.35,2.26,1.47,2.17,2.93-.08,2.93,3.41,3.47,1.32-1.44,1.52-2.9-1.27-4-3.33-3.92,.9-4.4,4.51,3.07,3.83,1.89-.45,1.8,.99-1.16,.87,.82,2.51,2.82,.23,5.16-1.16,.54,1.3-6.82,1.8-3.95-2.03-1.24-2.85-5.27,.76-.82,3.97-3.27,3.97,2.26,1.44-.56,1.04-1.58-.54-1.58,.99-.08,1.35,1.78,.45,3.72-.59,4.57-.7,.59,1.07-3.13,1.89,2.82,1.35-1.58,.59-3.5,1.13-2.71-.45,.14,2.42,6.4,2.54-7.75-.08,.2,1.52,1.75,1.04,.06,1.8-1.64-.45,.28-1.27-1.01-.45-1.01,.82-2.59-3.3-3.27,1.04-3.83,.08-4.28,1.44-2.26,1.27-1.24,1.8,2.03,3.24,1.92,.59,2.37-.99,2.26,.45,1.8,.99,2.54,.06,.59,1.16,2.4-.99,.23,.82,4.96,.23,3.38-2.4,1.58,.14-4.12,3.21-2.99,1.07,.11,1.21h-1.47l-.79-1.44-4.74,.54-.23,2.26,5.19,7.58,6.09,1.66,1.13,1.35,3.55,1.41,.73,1.44,7.22-5.1,4.09-6.12,7.3-5.38,3.61-3.69,2.71-.45,6.54-10.6,1.58-.45v1.21l-7.33,11.5,2.48,.59,1.16,.76-3.97,.59-1.24,1.75-1.24-.76-2.59,2.17,1.35,1.13-1.69,1.72-3.47,4.14,.76,.99-1.07,.68-1.04-.23-.59,1.27,1.47,.68,2.03,1.75-1.8,1.13-1.92-1.58-1.35,.96-1.35,2.99,.82,.79,1.72-1.66,1.07,1.58-.45,1.58,2.14,.14,1.13-.82,3.55,1.32,1.64-.2,1.24,1.35,1.8-.54,2.4-4.12,1.21-.54,2.09-2.73,1.13-2.37,.73-.25-1.8,3.38-2.62,4.28-2.31,2.88-2.11,.9h-1.64l-1.21-.9-2.26-.9-1.21,.28-2.54-.14-3.78,.31-1.49,1.64v1.97l-2.11,1.64-1.35,3.61,2.71,1.21-1.95,.76-2.11-.76-1.49,3.16-.14,2.4-.62,3.47,2.57-.76,2.26-.45,.9,.76-4.37,1.95,1.07,1.8-1.35,1.97-3.47,6.15,1.21,.17,1.49-2.26,3.02-2.71,.73,.59-3.61,6.62,.31,2.26-2.11,.73-2.26,4.82-4.96,7.08,1.35,1.49,1.52-3.92,1.95-1.18,1.35-2.88,2.4-1.04-.45,1.8-4.51,5.55-2.26,4.96,.45,1.97,5.86-4.82-2.99,5.1-1.35,2.26-1.66,5.72,2.57,1.95,.45,2.26,5.55-2.4-1.95,2.57-3.02,1.64-1.04,3.47-3.61,2.57,.9,2.71-2.26,6.91-1.35,1.21,.14,4.34-1.21,10.09-1.35,.28-2.85,3.33-.31,5.24-.45,2.42,2.26,1.8,2.71-.45,4.68-.76,3.44-1.21,2.42-3.16v-4.06l-2.42-2.4,1.21-1.04,.76-3.92,1.8-1.04,.73-4.51,1.52-4.82,1.49,.45-.76-6.31,1.35-4.2,3.16-6.17,3.47-2.11,1.49-1.04-3.16-8.12-1.49-.59,.31-2.26-1.07-6.17-1.18-3.16,.9-5.27,1.64,3.02,3.33-1.66,.28-2.71,4.96-4.2,5.41-5.72,2.26-.73,5.41-8.57,.62,1.95,5.55-2.85-7.36,5.55-1.52,3.61-5.55,3.47-4.2,5.24-3.02,4.96-2.4,3.16,.14,3.47-.76,4.51,1.66,3.47,.31,2.09,1.49,.62,2.26,1.64,1.35,1.21,.45-2.11-2.11-4.79,2.71-4.51,.45-3.02,1.07,4.06,3.3,2.57,1.66,.28-1.52-9.92,2.88,5.27,.59,7.81,3.16,.76,3.3-7.08,1.35-2.54-2.54-3.02,3.16,.76-.31-6.48,1.66-3.44-1.52-2.26,.17-5.41,1.8,5.1,1.18,.76,3.33-6.48,3.3-3.16-.14,1.66-5.72,8.43-2.4,4.79,2.4,7.08,3.02-.59-.45-2.26-2.57-3.47,.14-2.11,3.02,4.06,1.49,1.97,2.42,1.64,.28,2.57,1.8,2.71,2.42-.14,.96-1.27v1.24l-.45,.23-.37,.56,.06,.73-1.04-.28-2.11-.11-1.27-.65-.59-1.8-1.21-.45-1.35-.59-1.8-1.21-.68,1.49-.23,.54-.96-.54-3.27,1.75-.37,2.76,.59,.54-1.58,1.66,.39,1.78-.14,5.5,1.66,4.43-.08,1.61-.14,1.13-.54-.11-.54-.82-.31,.45,.7,.82-.31,1.24-.59,.2-1.07,.59-.08,2.48,2.2,1.35,2.45,3.64-.37,1.04,1.3-.08,.45,.93,1.18-.23,.68,.14,.31,.82,2.85,1.8,.14,.17,.08,.14,1.21,1.44,.62,1.86-.11,2.17-1.32-.31-.17,.39,1.21,.54,1.86,2.31,.34,2.48-.31,1.07-.17,.65-.99,.68-.45,1.61-.59,.76-2.85,1.1-2.34,1.52-.96,1.49-.45,4-4.09,3.27,.31,4.17-1.41,2.99,.2,.82-.56-.14,.2,1.86-2.99,2.65-1.83,3.33-2.9,1.92-1.35,5.22-2.51,3.69-.56,2.54,1.04,2.79,.42,2.34,.68,.45,1.3,4.12-.14,1.44-1.04,.68-.79-.39-.28,.45-1.86-2.26-.45-3.52,.87-.37-1.95-5.1-2.26,1.01-1.07-.2-.68,.73-1.1,2.28,.42,1.04-.73,3.44,.17,2.11,1.95,3.92-.03,1.44,3.69,4.28,1.3,.59,.54,1.78,1.78,.93,.62,1.89-.37,.9,1.01,.59-.42,1.44,2,.73-.59,1.04,.99,1.8-1.44,.93,.31,2.54,2.54,2.31,3.27,.99,.51-.37-1.41-.23-.31-1.44,.2-1.58,.9-1.21-2.17-2-.51-4.14-2.2-6.09,1.75-2.93,4.57-2.11,1.13,.39h2.03l.85,2.26,4.12,.99,1.97,2.45,4.03,2.42,1.52,3.89,1.49,.54,.03,.9,1.58,1.3,6.77,3.61,1.78-1.3-.06-.9,.42,.45,.54-1.21-.06-.9-.9-.54,.87-4.4-.9-.56,.62-.45-.51-1.55,1.32,.31,.31-.85v-1.58l-.73-1.04-.45-.93-.11-1.41-.87-1.18-.48-1.13,.54-.56,2.88,2.65,3.69,1.75,2.48,.73,.65,1.52,1.61,.56,.06,1.61,1.07,1.21,1.18,.45,.96-1.16-.14,.99,.7,.08,.11,.87,.79,.34,.34-.93-.9-.37,.93-.31v-2.17l1.1,.62,.48,1.47,.99,.85,2.17,.08,2.57-.37,1.18-1.35,6.77-2.82,.23-.79,.99-1.13,1.95-1.35,1.35-.23,.39,.37,1.27-.03,.68-.42,1.95,.31,.62,.23,.59,.68,1.04-.08,1.35-1.49,.76-.56,2.4-2.59,.96-.93,.62-.59,.99-.59,.99-.37,1.24-.23,1.92-.25,.87-.14,.7-1.04,.34-.7,1.8-1.49,2.14,.08,1.01-.54,2.37,.23,3.66,.03,2.03,.11,.96,.62,.48-.08,1.78-1.21,1.52,.08,.9-.54,1.07-1.04,.79-.68-.34-1.04,1.41-2.65-1.58-1.1,.14-.59,5.27,.45,1.27-.99-.2-.99,1.47-.9,1.01,.06,.59-1.58,1.95-1.32,.62-1.38,.82-.37,.08-1.18,2.31-.31,2.99-2.54,1.66-.54,.76-1.52,.37-1.35,.99-1.86,1.97-.23,.11-2.06,1.01-.23-1.92-1.27,1.13-.23,.99-2.09,2.03-1.3,.82-2.09,2.2-.48,1.8-2.85,2.48-.68h1.64l.85,1.07,1.18-.08,2.34-1.75-.51-.59,.9-.82-.82-1.75,.73-1.1,1.07,.31,2.93-2.51,1.69,.45,2.03-1.64,.31-1.61,1.95-.79-2.62-.62-.06-1.41-1.49-1.97,.28-1.3-.9-3.27-2.65-2.42-.06-2.31-1.49-1.66,.45-.82-.9,.28-.62-.59,.59-1.07,1.21-.42,3.86,.59-.76-1.07,1.64-1.18v-1.16l2.88-2.93-.48-1.32,1.35-.31,.31-1.52,1.49-.06,.62-2.17,1.27-.23-.06-2.96,2.9-1.8-1.95-3.13-.23-1.35-.45-1.89-.42,.54-.11-.76-.68,.23-1.27-.85-.73-3.3-1.97,.14-2.68-1.69-1.97,.9-3.92-.62-2-1.41-1.47-1.21-.56-1.52-.9,.14-1.44-1.72h-1.07l-2.62-1.78-.28-.17-1.35,.17-.56,.82-1.24-1.52-.25,1.3-1.04,.14-.73-.9,.87,.23,.23-.99,.48,.7-.45-.9,.51-.7-1.75-.96-.34-1.44-1.83-1.18-8.8-.45-1.41,2.17-1.52,.31-1.58,1.32-.59,.82-.31,1.24-.2,1.1-.11,1.04-.28,.31-2.79,.25-2.23,2.17h-2.03l-.17,.37-1.52,.17-2.14-1.01-1.58-1.49-.25-.28-1.78-1.72-.9,1.1-1.13-.06v.06l-.48-.73-1.35,.54-.23-.08-.51-.23-1.07-.59-.9-.9-.73-.11-2.06-.14-2.09,1.13-1.41-.31,.11-.45-.68,.31-.51-.08-4.45-1.24-4.43-1.52-1.95-1.18-1.8-.56-1.21,.03-.76-.25-.28-.11-.59-1.01-.9-1.41-1.95-1.21-1.8-3.02,2.26,2.34,1.24,.68,2.82,2.93,3.13,.14,1.21,.17h.73l.85,.51,.82,.08,.93,.08,1.41-.17,.9,.76,2.34,.45,.37,.99,.73,.23-.37-.31,.59-.23,1.44,.7,1.16,1.1,.2-1.64-.14-.23,1.04-.03,.82-.06,.99-1.3,.93,.56,1.55-1.89,.62,.28-.03-.59,.9-.23,.93-.17,.82,.7,1.07-.99,2.37,.17,1.47-5.44,1.41-.31,.54-.56,3.83-3.92,1.1-.39,.48-.28,1.18-1.44-.99-.51,.99,.2,1.35-1.27,1.58-.76,2.79,.68,.99,.9-.39,.48h.85l-.17,.59,1.66,.37,1.13-.59,.31,.65,1.72-1.72,3.78-1.32,3.72-2.73,.93-1.44,1.49-.59,.96-1.55-2.45-1.35-1.66-2.57h-1.07l-.51-.76-4.82-.73-1.55-1.13-.76-2.26-.17-1.24,2.03-4.85,2.26-1.92-4.96-.45h-2.45l-2.11,.08-3.78,2.96-2.71,.45-1.35,1.24-8.99,4.6-1.61,.82-3.35-.28,.87-.45-.08-.45,2.71-1.04,1.38,.08,6-3.38,1.8-.45,.59-1.66,1.66-1.35,.59-.59h.76l1.8-.54,.76-.37,.76-.39h.06l2.48-.76,2.48,.54,1.72-1.13,2.4-.62,3.27,1.66,1.04-3.07,1.49-1.07,.08,.08,2.76-2.09,1.72-2.28,3.72-1.64v-.9l.9-.51,.2-1.13,2.06-2.79-.11-.7-1.04-.2-.51-2.11,1.55-1.95,.79,.08,1.1-1.13,.62-1.97-1.04-.14,.14-.17,1.64-4.88,1.3-1.86h1.35l.96-1.3,2.28-1.44,1.47-2.54,.68-.23,.11-1.58,.68,.14,1.58-1.8,1.1-2.09-.2-1.07,1.1-1.41-.2-3.92,.51-.17-.99-1.66,1.72-1.18,.9-3.83,3.72-4.91,.37-1.78,.31-.68h.06l.28-.59,.7-.11,.42-.42,.25-.45,.9-.62,.28-1.27v-1.04l-.42-.54-.11-.17-.34-.37-.7-.82-.08-.9-.51-.28-.54-.68,.14-.56,.68-2.9,3.78-9.27-.23-1.35,.37,.93,4.14-5.5,1.86-1.52,.9-.87-.37-1.04,.85-1.58,.54,.65,1.24-1.72-.23-.76,2.26-3.16,.08-.76-1.1-.9,.68-.79-.45-.93,1.13-.54-.08,.93,.28-.93-1.64-1.04-.37-3.83-1.16-1.13,.08-4.43-3.33-2.57-.2,.39-1.58-3.97-1.16-.56-.59,.56-2.17-.56-.39-1.78-2.14,.68-.76-.59-3.24-.34-3.83,2.93-1.13-.82h-2.76l-1.75-1.66-1.58,.99,.08,.85-1.07,.76-.87-.62-1.83,.76-1.64-.59-1.04,.51-2.65-.39-1.21,1.83-.06-1.61h-1.66l-1.13-1.24-.51,.51-2.88-.28-1.52-1.01-.87,.7-1.58-.99-1.38,1.07-.9-1.21-1.1,.14-.85-.76-.68,.31-1.1,.39-.99-.56-.08-.79-1.52,.06-2.4,.76-.54,1.04-4.62,2.2-4.28-1.24-.34,.39,.03-.51-3.55-1.16-5.24-2.85,.42,.85-.9-1.01,.23-.68-1.27,.34-2.09-.45-5.1,1.18-1.07,.76-2.09-.08,.45,.82-.45,1.66-1.69,1.41-5.07,.03,2,1.64,.25,1.04-.48,.54-1.66-.76-.14-.65,.25-1.04-1.24-.79-3.81,.7-.39,.28,1.72-.37-.68,.96-2.14,1.07,1.13-.9-.62-.06-1.58,1.35-1.89,.65-1.64,1.58,2.62-1.72-1.13,1.49-3.69,1.89-3.35,.28-3.86-1.8,2.62,1.52-.87,.23-2.11-1.58-.28,.82-2.2,.14-.99,.76,1.52,.62,.31,1.66-3.33,2.37-.62,1.89-1.86-.31-.14,1.69-1.58,1.55-.76,.08-1.52-1.27-.82,.06-2.76,1.3-2.2-.39-2.4,.45-1.89-1.8,2.06,.14,2.37,.17,4.99-.39,2.31-3.52,.31-.82,.76-1.97,1.86-1.1,2.62,.45-1.13-1.61,.62-1.72,5.47-5.84,.03-.45-2.03-.45-2.57,1.72-2.79-.37-.99-.93-3.61,.54h-.51l-.17,.23-.51,.28-.96,.9-1.3,.99-.37,.48-1.83,1.27-2.31,1.72-1.35,1.3,3.69-5.41,2.9-1.07,.23-1.21,3.78-1.55,2.42,.37,3.13-2.62,2.17-.08,1.69,2.48,1.69,.37,1.8-2.17,2.82-4.74,6.43-7.84,1.47-3.07-2.48,.68-.68,2.11-1.83,1.35-2.34-.9-3.16-1.13-3.3,1.78-4.03-1.32-2.82,.45-2-2.17-4.51,.34-2.51-2.68,2.93,1.72,4.62-.59,5.98,1.8,2.82-.08,.56-4.43,.9-1.13-.65-2.65,1.21-3.75,7.41-3.21,1.61-4.37,3.89-1.58,12.63-9.92,5.02-7.16,1.8-2.4,8.37-3.3,6-6.4,2.62-6.93,.62-3.52-3.97-.28-.23-3.92,2.48-2.93,.65-4.2,1.52-.59,1.04-4.51-6.85,.59-1.64-2.28-1.95,.7-4.28,.87-1.69-.42-1.69-2.57-.04-.1Zm-148.96,10.2l-.79,.68,.56,1.01-1.69,1.32-1.58,.39-.99,1.49-7.75,5.72-1.52-.08-1.55,3.02-3.86,1.95-1.58-.96-2.14,2.17-2.37,.65-3.81,1.58-1.13,1.69,2.68,.65-2.09,.85,1.41,3.92,1.83,2.14,.14,.79-1.04-.48v1.3l1.32,.08,1.38,1.1-1.75,1.49-1.21-1.78-3.38-1.75-1.95,.68-.82,.37,.31,1.44-.99,1.16-.17-2.42-2.09-.06-1.13-1.61,1.89-.23,.37-1.27-1.35-.14-.73-1.66-.99,1.18-2.2-1.55-.28-1.04-1.75,2.93-.23,1.78,.82,.7,.93,.23-1.21,1.78-.37-1.49-1.61-.51-1.1,.51,.65,2.42-1.49,1.78-1.44,1.38,1.75,4.93,1.3,1.38,2.14-1.16,.62,.68-1.8,1.35-.51,1.49,1.47,.62-.68,.9-.87,1.3-1.04-.56-.85,1.66-1.18,.54,.56,.68,.7-.76,.37,2.79,1.13-.28,1.75,1.95h2.31l2.93,1.27,2.26,1.44,.96,.9,.08,1.89-1.18-.08-2.57-.93-1.41,.79-.25,1.18,1.3,1.18-.37,.45h-.79l-1.64,.48-.73-.48-.7,1.89-1.64,1.3-1.89,1.04-.76-.82-1.1-.9-1.47,.31,.54,2.09,1.83,1.07,2.03,3.3,3.13,4.82,1.8-1.38,2.34-2.11,1.3-1.69,.51-1.16,1.13-.82,.59-1.04,.9,.54,1.35,.65,.17-2.68,1.8,.79,1.32,.23-.11-1.55-.85-1.04-.73-1.61-1.52-.65,.51-1.24-.37-1.24h1.66l2.2,1.69,3.04,.23,.17-1.58-2.17-1.72,1.89-.68-2.82-6.68,4.45,7.44,2.11,.14,1.32,.14,1.52-.11,.68-1.07,1.18,.14,1.52-1.18,.82,.23,.48-1.97,1.04-.37,.06-2.31-6.85-1.92,7.7-.82,2.54,1.66,1.27-1.52,.56-2.48-4.23-.79,3.33-.54,.68-1.61-.48-1.86-1.27-.59-1.58,.59-1.66-.76-.99,.62-4.71-.59,5.86-1.16,1.55-1.78,1.83-.68,1.64,.42,.17-1.41-1.07-.45,.93-.48-.56-2.82,1.3-.93,1.18,.14,1.16-1.1h1.58l1.72,2.34,1.89-.34,.9-1.41,2-1.49,1.75-3.83-1.27-.9-1.52,1.55-2,2.2-1.3,.23-1.41,1.07-1.16-.45-1.64-1.3-1.3,.82-1.27-.68,.9-1.21,2.34-.51,.2-2.54,1.47-.11,1.18-2.23,1.49,.08,2.51-4.06,1.92-.31-1.58-1.49-.82-1.47,1.35-3.61,1.16-.82-.17-1.58-.59-1.55,.31-2.03-1.38-1.24-.45-2.03-2.34-1.58h.05Zm-33.83,23.09l.7,3.3,.96,.11-1.18,.51,.45,1.04,2.11-.28,2.14,.96v-1.86l-2.4-1.61-.65-1.78-2.14-.39h.01Zm24.53,16.1l-2.11,.82,2.26,.37-.14-1.18h-.01Zm-38.85,4.67l-2.26,1.04,.96,1.55,1.41,.23,.48,.85,1.18-1.18-.51-1.89-1.27-.59h0Zm89.31,6.14l-.62,1.8,1.18,.59,.9-.54-1.1-.45,.37-.96-.73-.45h0Zm-83.08,6.1l-1.75,.08-1.44,1.78h-1.64l.14,1.52,2.34-1.04,1.18,.96,1.38-1.66-.23-1.64h.02Zm15.25,5.27l-.45,1.27,1.97,1.3,1.55-.34-.82-1.55-2.26-.68h0Zm-28.05,6l-2.48,1.18,1.66,1.47,2.11-1.16-1.3-1.49h0Zm2.93,5.13l-2.23,.37-1.66,2.71,1.89,.37,2-1.18,.82-1.44-.82-.82h0Zm-8.43,3.65l-1.55,1.04v1.07l-1.16,.59-.59,1.27-.73,1.89-1.16-.59-2-2.34h-2.71l.37,.45-.85,2.26-1.18,2.2-1.41,.14,1.78,2.23,1.3,1.44,2.48,.31,2.68,4.74-.11,2.65,1.27-.23,1.1-1.52,.7,1.66,1.41,1.18,1.38,.59,2.71,1.01,.96-.45-1.52-2.34-.37-1.16,1.89,.23,2.79,.7,1.18-2.71v-1.66l-1.64-.37-6.93-.08,5.86-.82,2.48,.59,1.04-.51,.85-2.57-2.48,.14-.14-1.44v-1.04l-1.75-.59,.25-1.16-.93-1.1,.93-.9,1.27-1.16,.59-1.47-1.64-1.83-1.52,.68-.96,1.3-1.52,.59,1.07,1.18-1.07,.79-1.52,.37-.45-.82-1.41-.48,.08-1.04,.73-1.66,.14-1.27v.02Zm-5.52,2.09l-.48,.7,1.16,.87,1.27-1.41-1.95-.17h0Zm55.85,.26l-.14,2.57-1.38,1.55-1.66,.25-1.18,1.78,1.3,3.07,.23,2.2h1.55l-.96,2.48-1.16,.59,1.07,2.11-.14,1.66-1.07-.82-.68,1.78-1.44,1.16,.11-1.97-1.89,1.41-4-5.07-1.41-4-2.93-2.03-1.44,5.47,1.44,.79,3.38,3.75-.23,1.32-1.38-1.32-2.48-.08,.7,4.37,2,2.93-.59,.82-1.18-1.75-.93,.56-1.32-2.11-2.79-5.78-1.8,1.04,.85,4.6-2.82-.31-.51,3.16,2.26,.73,.45,2.48-.68,.68,1.04,1.52,1.16,.14,3.44,1.97,2.4,2.17,1.27-.62-.23-4.48,2.11-1.38,.59,2.79,1.75-2.57,.59,2.34,.62,3.66,3.02-.96,.65,2.03-2.85,.37-1.75,1.27-.59,2.11,.9,.62,5.33,10.01,3.04-1.44-1.52,3.81,5.78-.73h2.03l.23-1.97,2.71,.56,.37,5.55,1.3,.68,2.93-4.82,.14-4.34,1.83,2.82,.51,2.71,4.45-.11-3.64,3.16-2.11,4.17-1.92,3.27,.59,4.4,4.14-1.47,2.48-2.57,3.3-4.6,2.11-.45,.59-3.92-.23-1.89,2,.7,4.96-3.07,.93-3.16v-2.82l-2.85-.14-1.38-.96-6.51,2.71h-2.11l-1.07-2.2-3.52-.59-1.3-1.89-3.07,1.52,1.8-2.48-.51-1.89-2.93-.59,.08-2.11-1.52-3.3,1.18-1.75-.59-1.44-3.38,.7,.31-1.89,2.62-1.04,.82-9.47,.7-6.23-2.71-4.96-2.03-.45-1.97-5.3-1.89-1.18-1.78-.59h0Zm-39.72,1.79l-.73,.28,.17,.85-2.03-.48-.99,.93v.82l.23,.9,1.27,.28,1.27-.56-.28,1.04,1.1,1.35,2.28-3.19-.76-.68-.9,.11-.62-1.66h0Zm58.95,11.43l-1.89,5.05,1.16,1.66,1.55-5.19s-.82-1.52-.82-1.52Zm-64.73,3.78l.23,.96,.25,.76-.25,1.27,.76,.28,1.04-1.01-.68-.76,.59-.59-.42-.85-1.52-.06h0Zm-7.58,.28l-2.2,.51-.2,1.21-1.61,.25-.2,1.01,.08,1.21,.56,2.48,4.96,2.93,1.61,.23,1.21-.42,.73-.48,1.64-.59,.25-1.04-.7-.93-1.78-.42,.2,.99-1.86-.99,.76-1.3,.9,.23,1.49,.14,.54-.65,.73-.45-2.09-1.44-1.3-.39-1.58-.51-2.17-1.58h.03Zm70.65,3.69l-2.14,1.32,.59,2.26-.31,.9-1.66-.45-1.78,4.14-.11,6.71,1.3,2.34,3.52-2.59-1.18-2.71-.37-4.62,2.71-5.64-.56-1.66h0Zm-73.49,4.2l-.08,1.13-2.79,1.3,1.35,3.95-.06,4.51-1.49,1.13-.62,3.64-1.72,1.18,1.13,.62,.73,10.23,.54,.42-.17,1.27,1.13,1.35,2.82,.08,1.13-.59,3.61,1.64,.28-.96,.85-1.21-.68-.87-.99,.45,.08-1.21-1.58-.93-2.82,.39-.65-.62,.06-1.1,2.06-.25,1.8,.79,1.49-1.35-.23-1.69-.85-1.04,.37-1.35-.45-.68-1.1-.37-.17-.96,1.52,.2,1.41-2.26-.23-1.1,1.44-1.83,1.3-.08,.73-1.55-.17-.7-1.18,.08-.39-2.11-1.32-.65,1.32-.93-1.69-1.01,1.41-.31-3.02-2.11,1.58-.28-2.4-1.21,1.86-.45-1.58-.48-3.58-2.09v-.03Zm10.16,1.18l-1.61,.31-.82,1.21,2.17-.06,.25-1.47h.01Zm61.93,12.44l-1.18,2,1.92,2.37h2.93l.34-1.89-2.11-2.11-1.89-.37h0Zm-12.63,15.03l-2.31,1.35,2.31,2.17,.76-1.44,.87-.51,.48-.82-.68-.68-1.44-.08h0Zm-55.87,3.67l-2.4,.17-.06,2.65,.9,.9,.76-.9,.79-2.82h0Zm-10.6,2.34l-.06,3.24-1.49,1.21-2.51-.14,.93,2.45h-.9l.06,1.27-1.58,.31-.68,1.3,2.57,1.41,.59-1.35,.62,.17,.45,1.04,1.66,.17,1.1-.56-.73-.68,.9-.37,.45-1.13,.76-.14-.23-1.3-.9-1.24,1.69-.08-2.17-1.95,1.04-.76,.39-1.07-.96-.65-.08-1.07-.93-.08h0Zm3.95,0l-1.01,1.66,1.01,.14,.82-.82-.82-.99h0Zm44.99,2.21l-3.21,.87-.06,1.69,1.49,.37,2.17-.93,2.31,1.61,1.13-1.21-.73-1.64s-3.1-.76-3.1-.76Zm-43.3,2.26l-.59,.23,1.38,1.18,.28-.73-1.07-.68Zm55.06,.06l-2.73,.59-3.75,2.93,.14,2.51,3.16,2.57,2.11,3.3,2.85,.2,1.69-2.71,.9-4.03-.79-2.42-3.58-2.93h0Zm-57.54,1.71l-.59,.31,.17,1.21,.87,.28,.08-1.1-.54-.7h.01Zm-9.98,4.17l-.37,1.35,1.64,.65-.31,.68-.87-.2,.9,1.32,2.34-.87-1.44-.34,.54-.65h2l-2.79-.85,.23-.59-1.86-.51h0Zm2.76,4.86l-1.32,.34,.9,1.86,1.41-.73-.99-1.47h0Zm74.23,.99l-2.06,.59,.7,1.35-1.61,.34-.96,2.59,1.64,1.8,2.42,.62,1.21-4.37-1.35-2.93h.01Zm-80.91,5.59l-1.66,.54-.65,2.03,1.18,.79,1.07-.79,.42-1.44-.37-1.13h0Zm75.1,3.07l-1.89,.45h-.73l.51,1.44,1.61,1.32,1.58-1.47-1.07-1.75h-.01Zm-76.59,.83l-.82,.39,1.13,.59,1.44-.31-1.75-.68h0Zm61.2,13.94l-3.61,2.54-1.95,1.66-2.26,2.26-3.02,1.95-3.3,3.61h2.26l2.09-1.49,2.11,.59,3.02-1.49,1.8-3.16,1.18,.31,3.16-4.68,.62-1.64-2.11-.45h0Zm18.04,4.5l-3.92,2.09,1.21,4.23-3.47-2.26-3.61,.59,1.8,2.85-2.85,2.11,2.11,3.16,3.75-.31,4.51,3.47,.76,2.11,6.46-2.26,.59,1.95-3.16,2.57-4.2,.28-1.66,3.92-2.71,2.26,.62,1.95,2.09-.14,5.41-.76,2.57-1.35,.31,1.66-3.16,1.8-6.03,1.49-4.51-.73,.45,2.4-1.95-.31,.59-.9-1.64-1.35-2.88-.45-1.35,2.26,1.07,1.66,.9,3.3,3.3,.9,1.21-1.8,5.55,.31,1.04-1.04,2.88-.45,1.49,1.04,3.47-2.71,3.3-.59,3.02-2.42,1.64,.62-2.54,2.54,3.16,1.52,7.05-5.13,.31-1.35-1.49-.28-3.16,.9,2.4-2.57-.14-1.21,1.8-.14-.31,1.49,1.95,1.35,1.52-1.18-.17-2.11,.62-.76-.31-2.71-2.57-2.09-3.3-1.97-3.61-2.26-4.2-.73-2.42-.9-.28-1.35-1.35-4.82-2.26-3.02-1.35-2.09-2.42-1.8-1.95-.45,.02-.03Zm-33.24,8.12l-1.8,1.04-2.85,.14-2.85,1.07-4.06-.62-1.97,1.97,.31,5.41,1.35-.76,1.8,1.95,1.66-.28,1.18-3.92,3.33,.59,1.49-3.75,1.8,.45,1.95-2.11-1.35-1.18h0Zm71.94,3.47l-2.2,.37-2.54,3.97-3.38,1.52-1.41,3.66,5.02-3.21,4.51-6.31Zm-43.61,3.66l-1.27,.51-1.64-.23-1.47-.11-.28,1.72,3.75,1.35,3.16,.28,1.52,.14,.06-1.58-1.78-.34-2.06-1.75h0Zm39.1,9.65l-1.41,1.27-1.97,.2-1.18,2.73,1.35,.9,3.72-4.76s-.51-.34-.51-.34ZM296.66,.27l-.35,.34,.1,.46-.5,.6-.62,.14,.1,1.81-.4,1.38,.31,.79-.62,.14,.24,1.38,.6,.63,.7-.79,1.08,.56,.56-.31-.7-.67,.49-1.41,.65-.84-1.04-.26,1.17-.1-.67-1.31,.9,.31,.16-.84-.26-.44,.63-.38-.79-.87-.5,.21-.1-.44-.68,1.63h-.46l.16-1.24-.18-.5,.02,.02Zm-3.97,5l-1.2,.38-.14,4.42-.36,.19-.15-1.63-.77,1.23-.03,2.42,.53,2.41,.77,1.61,.6,.03-.19-.46,.03-.78,1.14,.82,.74,.05,.03-1.73-.36-.87,.67-.08,.28-1.13-.68-.6-.36-.51,.54-.73-.2-.93,.9,.1-.1-1.98-.24-1.68-1.43-.53-.02-.02Zm4.52,4.44l-.64,.44-.18-.4h-.83l-.16,.6,.19,.62,1.12,1.87,.75-.41-.87-.93,.84-.23,.28,.53,.36-.24,.5,.8,.84-1.49-.34-.6-.41,.3-.15,.4-.44-1.05-.87-.2h.01Zm-9.78,.29l-.6,.08,.06,.98-.74-.14-.99-.3-.24,.6-.06,1.13-1.05,1.07v.75l-.6-.08-.23-.9-.68,.6-.63,1.51h-.44l-.39,.84,.09,.6,1.2-.16,.98-.08,.6,.77,.69-1.07,.3,1.74,.6,1.74,.9,.23,.31-.9,.83-1.37-.3-3.02-.46-.23v-.68l1.07-.39-.53-1.28,.6-.6-.3-1.44h0Zm6.92,.24l-.36,.88,.34,.1,.7-.64-.68-.34h0Zm-6.89,5.5l.18,.63,.39-.43-.56-.2h-.01Zm1.97,.2l-.67,.63-.54-.36-.25,.73,.4,1.1-.74,.18-.62,1.27-.49,.68h-.82l.1,.43,.3,.26,.6-.45,.34,.45-.36,.51h1.28l.56,.89-1.27-.26-.04,.82-.48-.28-.33,1.14,1,.6-.94,.8-.46-.94-.54-.6-.94,.08,.34,.53-.74,.08-.73-.6-.68,.53-.26,.68-1.14-.6-1.61,.06-.53,.87,.4,1.48,.73,1.13,.94,.48,1-.74,.14,1.2,.73-1.07,.6-.2-.06,.8-.8,.46-.14,.8h.6l.28,.74,1,.87,.33-2.21,.48,1.2,.4-.4v-1.54l.26,.4,.6-.4,.6,.14,.8-1.47v4.62l.74,1.53-1.08,3.95-.6,1-.6,2.21-.4,1.41,.88,.74h.6l.93,1.67,.14-1.34-.34-1.53,.6-1.81-.33-1.41,1.47,.53-.26-1.27-.2-1.2,.67-.94-.46-1.73,.6-1.34,1.07-1.07v-1.68l-1.54,.48,.88-2.08-.6-.2-.2-1.07v-.54l.8,1,.46-.26,.74-.67-.8-.34,.26-.87,.87-.34,.2-1-1.27-.14-.4,.14-.4-1.2,1.14,.2,1.2-.6-.08-1.27-1.2,.53v-.93l-.67,.2-.14-.6-1.47-.4,1-.6,.2-.94-.6-1.07-.48-.64,.04-.03Zm3.83,1.81l-.92,1.41-.49-.58-.21,.67,.35,.35,.79-.14,.74-1.41s-.26-.3-.26-.3Zm3.31,2.81l-.51,.13-.79,.08-1.18,1.54-.16,.69h1.08l1.37-1.87,.2-.56h0Zm-11.55,.12l-.94,.74,.9,1.04,.93-.3-.09-1.04-.8-.44Zm-6.66,1.81l.38,.98,1.13-.08,.08-.77-1.58-.14h-.01Zm5.72,.09l.08,.87,.9-.23-.98-.64h0Zm1.64,0l-.18,.53,.36,.08,.38-.51-.56-.09h0Zm7.05,6.6l-.93,.38v.88l.23,1.76,1,.78,.56-2.84-.87-.95h0Zm1.78,1.51l-.74,.26,.34,.64,.54-.3-.14-.6Zm-6.6,1.31l-.34,.56-.56,.23,.34,.44-.63,1-.24,1.52,.9-1.26-.04,1.04,.83-2.84-.26-.7h0Zm2.28,3.51l-.06,.4,.67,.08-.6-.48h-.01Zm-24.94,38.46l-1.08,.28-.35,.98,.63,.63,.46-.28-.13-.65,.59-.4-.13-.55h.01Zm-11.35,.03l-.68,2.71,.92-.06-.06-1.37,.29-.82-.46-.46h0Zm-1.77,.98l-.36,.8-.62,.8-.64,.19-.87-.35,.8,1.09,.06,1.22,1.22,.97,.56-.68-.28-.69,1.26,.63,.53,.98-.06,1.15,1.14-.87-.85-1.09-.16-.75-1.17-.75-1.03-.58,.5-.34,.46-1.14-.5-.59h0Zm12.25,2.37l-.74,.23-.18,.8-1.61,.7-1.05,.55,.06-.9,.3-.05,.56-.87-.4-.06-.8,.63-.74-.23,.51,.98-.24,.5-2.12,2.37,.4,.87,1.32-1.97,.53,.06,.46-.28,.05,.64,1.03-.59,.46,.4,.46-1.26,.8-.8,1.15,.1-.35-1.15,.11-.68h.03Zm-7.77,2.88l-.56,.46,.04,1.95-.45,.3-.5-.34,.05,.95,.56,.59,.24,.74,1.15-.34-.53-1.95,.46-1.17-.46-1.2h0Zm-7.13,2.08l-.98,.85,.64,1.17,1.37,1.2,1.44-.4-.19-1.44,.53-.4-.34-.34-.69,.16-.75,.11-.56-.74-.46-.18h0Zm3.05,1.45l.5,1.61,.24-1.54-.74-.06h0Zm6.92,.33l-.93,.18,1.03,1.61-.87,.46-.63,1.27,.87,.24,.06-.87,.68-.18,.4,.93h.4l.46-.35,.58,.35,.35-.75-.59-.58,.24-.7-1.1,.36-.28-.7,.46-.46-.99-.23-.15-.58h.01Zm-12.74,.18l-2.99,.87-.53,1.33v1.67l-.11,.62-.23,1.79-.13,1.1,1.2,1.38,.87-.43,.4-.74,.64,1.57,.93,1.37,1.44-.04,.5-.53,.99-.4,1.54-1.04h.41l.4,1.85,.63,1.27,.58-.19-.05,.7-.53,.4,.06,.53-.46-.18-.74,.51,.74,.34-.46,.59-1.02-.19-.46,.4,.97,.35-.8,.34,.75,.98-.18,1.33,.63,.87,.92-.13,.19-.87-.46-.62,.4-.99,.8-1.14-.4-.8-.59-.24,1.39-.23-.4-.92,.11-.7v-.5l1.2,.95,.87-1.42,.74-.24,.93-.35,.18-1.04,.06-1.02-2.25,.92,.4,.56,.13,.46-.35,.24-.7-.13-.15-.98-.06-.74,1.14-.13-.23-1.2-.85,.24-1.1,1.03-.75-.34,.53-1.61-.77-.24-.74,1.04-.8-.93-1.2,.53-1.2-.46,.4-.58,.5-.06,.06-1.03,1.27,.29,.18-1.49-1.27-1.1,.4-.4-.87-.74-.45,.1-2.2-1.43v.02Zm8.47,2.94l-.64,.64-.21,.56-.99-.8-.46,2.07,2.01,.4,.46-.29-.06-1.08,.53-1.38-.63-.13h0Zm-12.15,6.74l-.98,.46-.8,2.18,1.08,.24,.65,1.67,.95,2.25,1.97,.35-.68-.87,.9-.74,.98-.7-.8-.8-.21-.99v-.56l-1.51-1.22-.59-.16-.16-.74-.8-.36h0Zm5.12,3.97l-.4,.46,.06,.45,.69,.13,.64,.06-.13-.46-.34-.3,.63-.34h-1.15Zm-.75,1.72l-.97,.06-.06,.8,.4,.24,1.33-.34-.7-.77h0ZM65.98,323.68l-2.4,.31-1.35,2.09,1.8,1.21,1.95-3.61Zm.23,4.51l-.82,1.58,.9,.51,.73-1.47-.82-.62h0Zm41.47,.23l-1.92,2.54,.82,1.61,.76,1.21,1.24-1.3-.68-1.35,.85-.23,.39-2.17-1.47-.31h.01Zm-1.35,5.41l-.87,.9-.76,3.92,1.44,2.68,.9-5.41-.54-.73-.17-1.35h0Zm1.38,.3l-.48,.68,.56,.76,.34-.79s-.42-.65-.42-.65Zm-.08,3.58l-.45,2.14,.28,.9,1.07-.85,.08-1.49-.99-.7h0Zm-4.88,.11l-1.04,1.24,.9,.7,.79,.14-.65-2.09h0Zm-.08,2.55l-1.72,1.07-1.13,1.69,1.44,.85,2.37-.39,.03-2.48-.99-.73h0Zm-.59,4.81l-1.83,.76-3.81,2.82-5.22,4.17-3.21,2.59-3.21,5.89,3.27,1.49-1.58,.73-1.92,.03-2.26,1.13-3.16,4.74,.34,6.31,.85,2.11,3.21,1.27,2.14,.31,1.41-3.02,.51-3.75,1.3-.54,.99-1.89h1.13l-.37,.85,.9-.9,.45-2.37,1.27-2.54,.31-2.88,1.13-.34,2.48-3.95,5.78-9.3-.23-1.75-.68-2v.03Zm-24.71,.14l-2.26,1.89-.79,.82-2.14,.68-1.01,2.79-1.69,2.62,1.01,2.11,.56,1.8,1.8-1.58,.9-.45,1.58-3.16,.56-1.66,2.59-4.74-1.13-1.13h.02Zm0,19.49l-4.06,.68-4.85,4.51-2.37,4.74-1.01-.45,.79-4.6-1.8,.23-1.92,1.89-2.48-.08-1.01,1.44-.23,3.38-1.47,1.58,.9,1.13,.11,2.62-2.37,1.58,.23,2.03-1.69,1.66,2.37,2.48,3.38-2.79,3.95-6.09,.56-1.8,5.07,.45-.34,1.44-3.95,2.71-.56,1.95,1.58,.45,2.26,5.5-2.26,1.49-2.48,4.82,3.5,1.58,2.37-1.35,1.35-3.16,1.13-.08,1.47,.31,4.17-1.35,1.13,.37,1.35-2.26,2.26-1.8-.68-3.61-1.47-2.26,.45-2.26-1.92-1.95-.68-4.6-.79-10.52h0Zm52.32,4.19l-2.14,2.03,2.82,5.19,2.03,.99,.34,6.54,2.37,.45,2.14,4.65,1.58-.59-1.13-2.34,1.58-1.35-1.24-7.13-1.58-.31-1.58-2.03,.23-1.8-2.14-1.58-3.27-2.71h0Zm.45,11.49l-.56,1.58,.45,2.03,1.24-1.04-1.13-2.57h0Zm13.81,2.17l-1.95,3.3v1.38l1.72-1.04,.31,.87,1.1-1.89-.2-2.59-.99-.03h0Zm-45.16,3.55l-1.01,1.04,.56,1.21,1.24-1.44-.79-.82h0Zm25.94,2.63l-1.69,.08-.51,.59,.62,.9-1.8-.31-.79,1.61-2.03,1.01-2.14,5.89,2.54,4.96,.51,1.89-.96,1.58-.28,2.59,1.55,.93,.82,3.47,3.16,2.54,2.82,.68,3.58-.85,1.38,.48,1.58-1.27,.42-1.16-.76-2.68,.93-1.75-2.71-1.95,.73-1.16,1.97-1.13-1.38-1.95-2.82-1.32,1.86-2.2-.37-3.69-1.13-3.47-2.11-2.4-2.99-1.95v.04Zm-27.51,.08l-1.69,3.07,.68,2.48,2.48-4.06-1.47-1.49h0Z"/>
  <path id="wales" class="cls-1" d="M163.04,616.71l-1.47,.65v.99l-1.58-.96-.9,1.04-.9,.17-.14-.76-1.21,1.04-2.09-.17-.62,.68,1.13,2.71-1.01,3.5-.9,.56,1.27,1.47-.31,1.55,1.72-.59-.54,.73-.79-.14-.93,1.27-1.18-1.8-.82,.25-.54-1.16-.25-.51-.28,.45-1.13-.59-.82,.08-1.13-.48-.14,.99-1.07,.62,1.3,.87-.62,.93,.31,.68,1.86-.54,1.97,.96-.54,.93,.96,1.32-.28,.93,.9,.68,2.54-.45-.87-1.44,.96-.76-.37,.85,.68,.51-.39,.45,1.89,1.86-.06,.93,1.44,1.55-.48,1.92,.93,.11,.11,.93,1.16-.45,1.27,2.71,3.52-3.19,.68-.65-.76,2.54-2,.48,.68,1.95-.54,.9,1.07-.93,4.12,1.92-1.41-.79,.9-1.8,.87,.9,1.13-.23,3.61-3.07,1.58-.59,1.04-2.93,1.92-.9,.68-.85,3.58-1.92,1.8-3.5,1.89-1.92-4.65-.99-1.49,1.35-3.61,1.13-.56-.62,.62-1.49-.82-.54-.31-1.89-.51-.23,.28-1.72-2.03-.37-.68-1.04-1.13,.65,1.64-2.54-1.01-2.65-.34,.56-1.95-.76-.51,.51-.17-.65-1.1,.51-.62-.99-1.66-.28-.42,.51-.11-.65-1.24-.31h-.02Zm65.6,9.09l-3.16,.31-6.99,2.17-1.72,1.44-5.95,2.11-5.78-.45-1.41-.68-.45-1.38-1.52-.51-.54-.9-2.57,.45-.82-1.52-2.71-.2,1.97,2.09,1.18,3.78-1.1-1.44-2.48,.59-2.26,1.58-4.85,1.8-.11,.48-4.91,2-.28-1.1-.93,.37-.37-.45-.08,.54-.45-.56-4.65,2.51-.68,2.09-.14,.59-1.95,1.16-2.11,2.62-2.03,1.52-.17,2.03,.45-.11-.87,1.47-.11-.62-.06-.06-.59-1.44,.87-.7-1.01-.2-.62,.87,.37,5.44-1.04,2.54-3.47,3.33-1.64-.14-2.17,3.13-2.93,2.48-2.59,.08-.2-.99-.23,.93-2.85,1.49-.93,1.64-1.1-.06-1.21,2.68-1.27,.34-.45,1.49-1.8,.51,.2,1.66-2.9,3.78,2.09,1.58,.76-2.03,1.66,.37,.23,.65,1.69-1.18,.99,.68,2.65-2.4,3.81,2.54-.42,1.35,.87,.9,.79-1.44,1.72-.14,.08-1.35-.76-.28,.14-1.44-.54,.06,.85-1.41,1.35-.76-.31-.99,1.18-1.32,3.69-.99-1.04-.14,.54-.17v.17l.2-.25,.68-.82,3.78,.45,.68-1.64,3.16-.14,2.71-.7,3.92,1.35,1.27-.99,.08-.42,1.21,.06,.37,1.16,2.34-1.24-.9,.93,.14,.76-.39,.65-2.4,.23-.82-.2,.28-.34-.96,.45,1.55,4.51-.65,2.34,.76-.45,.51,.54-.62-.39-1.27,1.16,.39-.76-1.16,1.04,.08,.68,3.52,5.33,1.69,3.72,3.07-.79-2.65,2.2,.14-1.13-.59,.68,.03,2.09-2.28,1.8-2.23,5.58,1.69,.73-1.55-.37,3.44,6.77,6.4-1.89,1.13,.31-.51,.59-.25-.45-1.8,1.97-1.89,.85-1.49-.08-.08,.68-.79-1.44-.03,5.19-1.95,3.97-.68,2.65,.08,1.55-3.24,7.39-4.23,5.64-3.52,1.8-3.75,2.93-1.58,.31-.62-.9-1.01,.28-4.17,4.37-.9,.23-.37-.62-.37,1.3-2.99,2.4-1.66,.08-1.27-1.13-.93,.62-3.52-.17-2.76,.73-.25,2.57,.76,.82-.85-.73-1.04,.51v-.06l1.04-.45-2.4-1.58-3.07,4.96-1.3,.96-1.86,.23-1.04,1.01,.14,1.78,1.64,.68-2.71-.54-1.24,.34-1.8-1.66-.68,2.45-3.19,.7,.08,.65-1.21-.59,.59-.42-.79,.06,.65-.96,.82,.2-1.04-.45-.23-.96-1.8,.51-3.24-1.18,.17,.51-1.13,.99,.99,1.13-1.44,.99,.9,.87-.39,1.66-1.13-.14-.23,.82-2.4-.2-.51,1.32-2.57-.37-.17,.85-.9,.34,.11,.62-1.58,.17-1.47,1.41-1.8-.06-1.58,1.1,.62-.08,.45,.9-1.3,.99,.54,.7-.82,1.13,.23,.59,2.09-.45v-.48l3.95-.14,.9,.7,.82-.68-.37,.65,.96,.03-.17,.59,2.93-.03,.93,1.92-.03,1.58,.76,1.78-.45,3.52-.65,.56-2.57-.48-1.66,1.75-1.04-.25-.59,2.11-2.59-.54,1.52,1.58-.31,.54,1.13-.59,.82,.68-.2,.54,.99,.31-.11,1.92,.7,.93,.42-.7,.76,.03v-1.35l.48-.03-1.13-.51-.25-.82,.62-.82,.42,1.04,1.97-.37,.51,.73,.62-.62,.08-.65,1.1,1.72,1.16,.06,.2,.7,.56-.17-.48-.82,2.42,.28,.37-.68,.14,1.07,1.8,.54,2.34-.39,.08-1.44,.23,.99,1.27,.45,1.64-.54,.48-1.35-.03-.82-1.49-1.41,.9-.08-.96-1.58,.99,.14-.9-.96-1.44,.59-.62-.39,.82-1.58-.34,1.8,1.13-.73,.87,.17,.7,.56,2.76-1.8-1.21,1.75-1.04,.17,.45,.68-.85,.59-.23,1.35,1.58,.82-.79,.06-.11,1.24,3.27-.45-1.38,.79-.45-.34,.9,.82-.06,1.04,1.13,.28-.99-.11,.28,.56-.42-.68-.45,.54,.28-.73-1.44-1.49-2.85,1.72,1.75,.59-1.83,.06-.06-.87-.73-.39-.56,.85-1.13-.45-2.93,1.13-1.24-.82-1.44,.06-.37,.59,.87,.7-.54,.45-1.69-.39-.48-.51,.45-.54-2.09-.31,.42,.59-1.13,.37,.03,1.07,.65-.28,2.93,1.24,.79,2.26-.68,1.97,3.16,1.3,2-.08,1.58,1.35,1.35,.14,.25-1.49,1.64,.2-.45-.68,.39-1.01,2.31-1.01,.08-.82,2.93,.25,1.89,1.1,.28-.73,1.3-.08v-.96l2.76,.28-.14-.68,1.32-1.27-.51-.25,.31-1.18,1.1-1.04-1.04-1.38,1.38-1.55,2.85-.54,1.21-.39,1.95,.45,1.21-.73,6.96,1.07,1.72-1.07-2.48-1.58-.23-1.95,.9,.99,2.71,1.35,1.69-1.75,.68-1.13,2.71-1.44-2.59,1.49-.82,3.24,.59,1.58,2.42,.31,.37-.28-.28,.96-1.07-.23-2.34-.23-.2,.51,3.75,5.19,2.54,.85,1.24-.51-1.24-.34,1.66,.03-.14-.62,.54,.48,2.9-.45,3.02,2.93,.7-.68,3.07,.11,.65-2.82,.45,2.14-.87,.68,.73,.9-.73-.51-1.35,.39-.85,.68,.37,.28-2.99,.85-.37,1.01-.17-.51-1.58,.51,.23-.56-1.58-.7,.31,.85-.96-.31,.51,.73-1.49-.87,.76-1.07-.76-.68-1.27,2.26-3.38,1.52h.59l.99,2.79-.08,1.13-1.13,.65,1.8,.17,2.31,1.89,2.06,.68-.08-.7,.87-.37,2.57,.76,.39-.39-.9-.99,.31-.65,2.99-1.27,.37,1.01,2.28,.85,1.92-1.21,.56,.7,.87-.45,1.8,.37,.45-.23-1.64-1.3,.23-1.13,.31-.68,2.37-1.32,1.61-.03,.08,.68,2.26-1.44,.87,.48,2.48-.62-.9,.9,2.28,3.1,.79-.17-1.1,.54,.9-.17,.28,1.07,.48,.14,1.58,3.41,.73,3.13,.9,.54,.82,1.89,2.51,.73,1.1-.73,1.27,1.27,.45,1.07,2.48,2,.68,1.16,1.3,2.45,8.88,1.52,.59,.65,3.97,.08,1.89-1.1,1.27,.68,.37-.76,.31,.82,3.38-1.72,2.26,.37,1.13-.59-.08-1.35,.25-2.48-1.04-.25h.37l.23,.03,.06-1.8,.76,.31,.17,1.13,1.47-1.52-.28-.59,1.66-1.95,1.95-.85,.62-.14,4.79-3.19,.31-1.18,.08-.08,1.18-.59-.59,1.21,1.72,.82,2.42-.68-.68,.68,1.1,.31,5.13-2.06,3.83-2.31,2.11-.39,.87-.11,.99-2.03,1.75-.7,.56-1.1-.51-.85-.14-1.41-.62-.17,.85-1.75-1.21,.11,.17-.54,1.64-.48-.96-.73,.14-1.35-.85-.62,.93-.45-1.16-2.54,.93-.51,.65-1.69-1.1-1.49,.68-2.54-.48-.85,1.13-.73-.08-1.16,.68-.37-.96-.96-1.66,.2-.28-1.1-.99,.51-.37-.9-1.16,1.16-2.4-2.88,.62-1.44-2.03-.99-1.13-1.49-.93-.08-.34-1.13-1.24,.31,1.07-.76-2.03-1.18-4.57,2.65-1.16,.11-.28-2.23h-1.95l-1.01-2.96-2.48-2.59v-.03l-1.92-3.92,.82-1.72-.23-.99-2.11-2.82,.23-2.42,1.07-.23,.06-1.07-2.26-1.13,.39-1.01,2.59-.56,1.3-1.13-.73-.73-.9,.82-1.38-.9,1.72-2-.42-1.83,1.8-.99v-2.26l1.72-.2-.23-1.21,.76-.62,1.86-.73,1.72,.51,1.66-.96-3.81-1.04,.79-4.14,2.06-.76,.76-1.95-1.16-.54-4.03,.99-1.21-.39-2.96-2.93-2.68-1.1-1.44-2.17-2.4-1.16-.93-2.11,.25-1.04h-.03l2.11-2.23,1.04,.23,4.17-2.37,4.93-.2-.14-2.2,1.86,.14,.48-2.99-1.21-2.26-1.3,.37-1.47,1.58-1.61,.37-.42,.62,.79,.59-.28,.45-2.79,.68-.31-.68,1.52-.73-1.64-4.37h1.35l1.72-1.3-.25-1.01,1.24-1.89,.82-.17-1.38-1.04,1.92-.59,.42-1.8,.39-.93h-.45l-.03-1.58,1.47-1.49,.11-1.72,1.21,.39,1.38-.62-.03,1.13,1.04-.08-.23-1.58-.51-.37-.76,.23-.65-.28,.28-.76-1.75-.82,.68-.62-.37-.9-1.1,.31-.23-.62-.45,.31-.62-.62-.37,.39-.31-.51-.37,.45-.85-.76,.14-1.8-1.92,1.18-2.51-1.27,.48-1.04-.79-.08h-.11l.06-1.18,1.04-2.28-.73-.51,2.17-1.95-1.49-1.13,1.04-.62-.54-.76,1.83-.08,.28-2.4,.85-1.18,1.18,.51,2.34-.28,1.64-2.48,1.66-.48,.45-.96,.85,1.75,1.86,1.27,2.48-1.3,.23,.54,2.54,.45,2.34,4.68,2.73-2.82,1.58-.06,.34-3.16-.68-1.27,.48-1.38-1.95-.23-.39-.87-1.35-.08-.82,.59-1.95-.76-.45-2.03-.99-.56,.31-1.38-.85-.82,.68-.85-.76-.34,.62-.31-1.16-1.38,.34-.68-1.52-1.04,.85-1.27,.42-1.66-1.35,.93-2.34-.99-1.24-1.13-1.61-2.34,2.85-.82,1.38-1.16-.08-1.24-1.52-2.14-4.51-3.75-2.23-.31-2.06-.28,1.24,1.04,1.13-.2-.93,.34,.37,.31-.79-.28-.76-.25,.65,.54,.54,.48,.99,1.04,2.57,1.35-2.62-1.07-1.92-1.41-2.62-1.89,.23-.51-4.14-3.61-3.27-2.03-.17-1.13-.37,.65-.7-.31-1.69-1.55-.03-1.75,.13-.14Zm-33.15,175.32l-.14-.23-1.04-.14,1.18,.37Zm-25.23,2.65l-.03,.06,.08,.06-.06-.11h0Zm-27.91-128.36l-.06,.03v.06l.11-.06-.06-.03h0Zm-3.55,5.78l-.56,2.2,1.47-1.95-.9-.25h-.01Zm-36.06,86.4l-1.13,.08,.37,.73-.73,.51,.65,.99,.59-.06,.25-2.26h0Zm26.98,11.74v.06l.08-.06h-.08Zm-.37,.96h0Zm-25.4,.45l-.9,.7,1.27,.96,.76-.76,.06,.48,.73-.34-1.92-1.04Zm35.77,11.64l.31,1.01,1.24,.23,.56-.7-2.11-.54Z"/>
  <path id="south-west" class="cls-1" d="M320.01,749.07l-1.3,.62-1.41,2.71-.39-.68-.76,1.27-.9-.65-.42,.68-1.24,.23,.68,.68v.96l1.75,.99,.54,1.27-.82,2.34-1.38-.54-3.16-3.16-1.1,1.44-1.21-.76-1.97,.17-3.3,3.07-.68,.08-.68-1.07-1.49,.39-1.61-.45-1.86,1.55-.54-.68,.68-2.11,1.44-1.01-1.07-.79-1.69-.42-.56,.28-.59,.54,.23,1.95-.65,.31,1.41,2.26-.99-.31-.28,.9-2.17-.51-1.89,2.85-1.16-.23-1.8,.17-.73-.93-.85,.03,.03-2.93-1.61-.76,.08-.76-2.62,.9-.31,1.52-.87,.23-1.44-.31,.14-1.58-1.72-.14-.14-.9-.79,.11-.79,1.16,1.24,1.58-1.47,1.32,.14,1.69-.54,.34,2.17,.9-.06,2.34,1.1,.9,.45,2.17-1.58,.39-1.32,1.21-1.27-.48-1.44,2.37-2.96-.08-.14,1.18-1.13-.68-1.49,1.72-.68-.42-.85,1.66-.68,.34,.08,1.16-1.13,.73,.48,.9-.68,2.48,1.1,1.49-.65,1.69-.93,.51,1.16,2.54-.93,.45,.85,.62-.14,1.35,.96,.73-1.64,.48-.17,.59,1.21-.17-.85,1.75,.62,.17,.14,1.47,.51,.79-.56,1.13,2.4,.56-2.2,3.1-.68,2.88-2.76,3.52,1.18,1.64-1.86-1.1-.23,1.04-2.51-.25-1.64,.93-4.96,5.19-.45,1.89-1.95,1.64-1.35,.45,.14-.68-2.71,.9,1.07,.54,.06,.82-.31,1.07-1.72,.73,.73,.68-.23,3.66-.51-.87-2.54-.82,1.49,.87-.7,5.36,1.16,2.09,.23,1.95h0l-1.07,1.61-.76,1.58-1.49,.54,1.35-1.07,.68-1.97-.59-.06-1.44,1.49-1.49,.17-3.47-.99-3.02,1.04-1.35-.2-4.65,2.09-7.89-.39-2.45-2.54-1.61-.08-1.58-1.58-2.9-.9-2.2-.06-2.65,1.49-.65-.73-5.55-1.07-2.96-.51-1.04-.85-1.66,1.44-2.23-.45-2.65,1.04-2.09-.85-2.03,1.21-4.37,.17-.62,.9-3.02-1.13-.59,.65-1.55-.23-3.5,1.38-1.47-.37-.68,1.04-1.16,.2,1.16,.99-.39,2.62-.39,.68-2.45,.08,1.41,.99-.14,1.27,1.07,.31,.37,4.14,1.49,1.1,.59-.14,.03,1.75-1.16,1.47,.48-2.06-1.21,.23,.14-.93-.59-.37-1.3,2.31-1.27,.31-2.76,3.75-2.42,.85-2.2-.14-3.07-2.42-2.79-.87-3.44-.17-.62,1.3v4.28l-1.24,2.54,.28,1.07-.54,.23-.99,2.17,.56,6.6,.59,.7-.76,.11-.37,4.62-4.54,2.99-.14,.85-1.18,.11-.14,2.28-1.69,1.13v.82l-2.9,1.07-.59,1.24-.45-.56-1.38,.65-.23,1.49,.48,.17-.85,2.99-1.66,2.34-2.31,.48-1.04-.68-1.3,.28,.14,.62-1.18,.65-1.44-.28-.59-1.04-1.07,.73,1.21,1.13-1.04,1.07,.23,1.95-.54-.45-.9-.7,.08-1.27-2.26,2.57-3.3-.85-.23,.39,.96,.68-.45,2.34,.54,.59-.7-.06-.96,1.1,.73,.39-.14,1.41-.51,3.41-.9,1.64-.68,.06,.73,.23-1.89,.93-.96-1.13-.17,1.21-1.55,.11,1.04,.34-1.07,.45-.56-.48-.08,.7-.7-.39,.17,1.64-.85-.11,.62,1.41-.59,2.88-1.75,.45-1.32,1.95-2.2,.08-.06,1.8-1.13,1.78h-.25l-1.44,.7-.79,1.24-.85-.14-2.17,2.11-2.34,.08-.39-.62-1.04,.31-.14,1.8-2.54,2.79-.11-.14-2.03-.68-.34-1.92-.62,.39-.82-.54-2.57,.23-3.44,2.57-.56-.51-1.95,2.45h-2.76l-2.57,3.75,1.21,3.69-1.89,1.97,.31,1.13,1.13,.45,.42,1.64,.76,.37,1.61-.87,.68,.42,1.18-1.04,2.65,.08,.96-1.04,.54,.31,1.49-2.79-.96-1.8,1.18-.68,.54-1.16,3.83,.45,2.09,1.89-.06,.82,.9-.28-.17-.37,2.17,.31,1.24,1.27,1.55-.23,1.07,1.04,.31-.28,2.23,2.9-.2,1.3,1.27,1.04-.37,.39,.65,.79-.76,2.06,.76,.42,.45,2.11,1.66,.48,.17,1.13,1.95-.25v-1.58l1.64-2.57,2.57-.23,1.3,.56,.68-1.13-.25-1.07,1.75-.76,.82-1.72-.59-1.49-.7-.14,.25-1.66-2.34-.39-.45-.76-.96,.48-.31-.54-.68,.17,.2,.9-.42-.79-1.58,.62-1.72-.45,3.04-.23-.65-.62,.42-1.27v1.58l1.21-.2,.45-1.21,.45,.14-.68,.99,1.83-.31,.73,.45,1.18-.9-.87-1.95,1.86-1.44,.9-.39,.76,.45,1.18-2.03,.34,1.66,.51,.93,1.8-1.16,.68-3.3,1.07-1.64,1.55-.39,.9,1.07,3.69-3.72,2.93,.62,.68,1.21,.39-1.13,1.13-.68-.25-.82,1.16-.76-1.13-.85v-.82l.59-.85-.17-1.1,1.13-.99,.7,.17-.79-2.14,.68-1.01,1.92-.56,.03-.06,1.24-.17,.08-.82,.65,.08,.82,.99-.28,1.78,.76,.62,.37-.9h.9l1.41-1.44,.08,.39,.48,.06-1.01,.39,.31,.54,1.66-.34,.51,.48,1.3-.82,2.48,.96,2.34-.59,.28-.68,1.49,.51,1.52-1.41-.82-1.04,.31-.7,.51,1.44,.9-.96,3.16-.34,6.54,1.01,3.52,2.68,.03,1.95,.9-.65,1.41,.08-.76-1.52,1.97-.9-.03-1.58-2.4,1.07,.76-1.21-.54-.48,.7-.79-.17-1.01-.68-.28,.45-.28-1.97-.39,.45-.14,1.35-1.38-.59-.73,.37-1.04h-.79l1.49-.93,.06-1.01,.85,1.18,.96,1.13,.37-.45,.54-.85-.51,.85-.39,.54,.23,.23-1.72-.45-.85,2.4,.68,.73,.76,1.52-.2,.51-.08,.45,1.1,.34,.03,.42,.9-.59,1.21,.31,.14-.7,.99,.85,1.04-2.09,1.04-.31-1.64,2-.23,.85,.68,.31-2.11-.54,.51,1.49,.39,2.48,5.38,.76-2.59,.54,1.47,1.32h1.89l.45-.79,1.38-.45,2,.37,.9-.76-.14,.76,.28,.87,1.3-.06,1.75,1.52,.9,.06-.11,.76,1.47,1.32-.11,1.8-.79,.03,3.04,2.54,2.03,.7,.62-.54-.06-1.35,1.32-.62-.54,1.44,1.97,.73,.99,1.24,2.62-1.92,1.52,.48,1.04-.39-1.16-1.44,1.3-5.47,1.86-2.57,2.11-.68,.99-.96-.54-1.3,1.75,1.35,1.66-1.1-.17-1.16,.9-2.03,.73-.2-.45-.76,1.35-1.07-1.95-.59,.48,.59-.39,.39-.51-.7-2.2-.42-.06-3.52,1.41-1.97,1.21,.9,2.23-.9-2.14-1.86,.45-3.41,.87-2.09-.87-.48,.87,.11,1.75-2.06,.31-1.78,2.59-2.93-1.24,.9-.39-4.51-1.04-1.66v-1.75h.06l.7,.7,.42-.93,.08,.54-.06,.59,2.03,4.31-.7,1.13,4.06,1.24,.82-1.35,3.04-1.1,1.58-2.96,1.32-1.13,4.54-1.04,5.47,.03,1.04-1.61,3.97,.37,3.95-1.47,.37-.39,2.34-1.49,9.3,2.34,8.34,5.16,7.72,6.26-6.74-5.67,3.21,1.47,.14,.82h.79l-.23,.59,1.95,.73,1.86,2.59v.06l.99,.73,1.35-1.72,1.13,.48-1.18-.76,.65-.59-.73-.31,.65-1.21,1.01-.96,1.01,.2,4.51,.14,.9,.68,5.5,.93,2.4-.68,.68,.82,1.83-.08,.73,.7,.7-.39,1.27,1.3,3.21,.59,.54,1.66,1.8-1.24,4.68-.51,.45-1.3-.76-.2v-.85l2.03-2.4-1.58-.37,.45-2.79-.48-.59-1.55,1.49-.68-.45,.45-.73-1.07,1.01-.2-.96-.34-.14-.45-.48-.68,.08-.28,.39,.08-.68-1.38,1.04-.34-.37,1.78-.93-.54-1.47,.93,.06-.54-.59-1.75,.76-.73,1.32-.99-.06,.59-1.75,.93-.08-.9-.23,.54-.82,1.35,.23-.03-1.21-.37,.34-.31-.56,1.75-.06-.9,1.04,3.3,1.04-1.52-1.8,.03-.68,.9-.42,.76,1.78-.48,.68,2.06-.28,.68,.62-.25,.45,1.16,.59-.85,1.58,2.88-2.65,3.58-.99,.82-.14,5.13,.93,.51-1.01,.08-.34,1.83-1.16,1.1-.06,.68-1.44-3.92,.39,.31-1.58-.59-1.52-2.31,1.44-.11-1.38-1.13-1.35,.17-.42-.59-1.16,.54-.51-.03-1.64,.82-.62-.73-.62-.37-2.14-1.35,.9-1.3-.31-.2-.76,.59-2.03-.25-.28v-.03l.39-.68,1.07,.14,.51-.82,.37-2.31-1.95-.45-1.97,1.44-2.93-4.37-2.17-1.66-.08-1.13,.45,.76,1.35-1.52,2.57-.2,.76-.68v2.17l1.3-1.97,1.1-.51,1.27,2.34,.93-.54,2.9,1.32,2.14,.08,1.86,2.17,.82,.48,.93,.45,1.69-1.38,.7,.45,.23-.42,.99-1.95-1.01-.45-.59-1.58,1.44-.31-.54-.45,.37-.31,.7,.17-.48-.9,.34-.62-2.06-.9-.14-.85,.39-3.61-.56-1.41,.68-2.48-2.31-.96,.54-2.82-.17-.34-.96-1.89,.23-1.21-1.58-1.27,.28-1.07,3.47-.31,1.58-3.5,1.86-.25,1.97,1.04,.59-.37,.37-1.18-.65-.03-.14-2,1.24-.59,.17-.9-.9-1.97,.37-2.2,1.83,.9,.73-1.8-.9-.87,.31-1.3-1.13-.23-2.62-2.31,.2-1.44-.59,.17-.54-.68,.37-.68,2.34-.23,.17-2.28-2.17-2.09-1.52-2.65-.08-2.9-1.13,.68-2.76-5.27-.48-.45-1.32,.68-.9-1.35,.06-.08v-2.09l1.44-1.07-.39-.62,.79-1.24-2.03-1.8-.45-1.83,.87-1.64,1.49,.82,.79-.37-.54-1.21-1.75-1.35-.65-1.3,.56-1.64-.87-3.02-1.13-1.21,2.26-2.09,.31-1.3-.56-1.72,.62-1.55-.68-1.47,1.21-1.18,.51-1.95,1.58-.25-.76-2.26,1.8-1.55-1.04-1.75-1.41-.2-.45-.62-.23-2.34-.23-.51,3.13-3.61-.37-.93-2.4,.76-1.86-.82,.34-1.21-1.01-.76,.2-1.32-.68,.65-1.1-.68,.14-2.62-.59,.85-.7-.37-1.1-1.69,.08,.1Zm-14.77,140.95h.11l-.03-.06-.06-.06-.08,.06,.06,.06Zm15.11-4.71l.34,.68,.45-.68,.9,.68v.2l-.23,.56-1.07-.25-.39-1.18h0Zm-12.83,3.29l-.85,.45,1.3,.62,.73-.45-1.18-.62Zm-2.96,.31l.23,.9,.39-.31-.62-.59h0Zm-4.28,.51l-.51,.85-.03-.03,.54-.82h0Zm-25.82,8.94l3.3,3.69-.59,4.6,1.78-2.2,.9-1.32-.82-1.72,.39-.25-2.37-.23-2.59-2.57Z"/>
  <path id="west-midlands" class="cls-1" d="M308.17,639.24l-1.49,1.24-.76,2-1.04,.45-1.66-.37-.73,1.64-1.18,.56-2.11,.14-1.72-1.83,.11,3.04-.87-.31-3.3,4.34-2.11,2.48-.39-.37-1.66,1.35-.79,.17-1.3-.25-1.86,2.42-2.11,.73-.08,2.26,.82,1.13-.73,.7,.28,.9-3.52,1.13,.14,1.69-2.79,1.01-2.4-1.52-.51,2.65-1.83-1.75-1.55,.9-.62-.73,.17-1.66-.68,.06-.08-.9-.85,.17-.65-.99-2.51,1.04-1.47-.96-1.66,1.1-.48,1.38,.68,1.32-.34,3.1-1.58,.06-2.73,2.82-2.34-4.68-2.54-.39-.23-.59-2.48,1.3-1.86-1.27-.85-1.75-.45,.96-1.66,.48-1.64,2.48-2.34,.28-1.18-.51-.85,1.18-.28,2.4-1.83,.08,.54,.82-1.04,.56,1.49,1.18-2.17,1.89,.73,.51-1.04,2.28-.06,1.18h.11l.79,.08-.48,1.04,2.51,1.27,1.92-1.18-.14,1.8,.85,.76,.37-.45,.31,.51,.37-.45,.62,.68,.45-.31,.23,.62,1.1-.37,.37,.96-.68,.62,1.75,.82-.28,.76,.65,.28,.76-.23,.51,.37,.23,1.58-1.04,.08,.03-1.13-1.38,.62-1.21-.45-.11,1.78-1.47,1.49,.03,1.58h.45l-.39,.93-.42,1.8-1.92,.59,1.38,1.04-.82,.17-1.24,1.89,.25,1.01-1.72,1.3h-1.35l1.64,4.37-1.52,.73,.31,.68,2.79-.68,.28-.45-.79-.59,.42-.62,1.61-.42,1.47-1.52,1.3-.37,1.21,2.2-.48,3.04-1.86-.14,.17,2.2-4.96,.14-4.17,2.42-1.04-.23-2.11,2.23-.23,1.04,.9,2.11,2.42,1.16,1.44,2.17,2.68,1.1,2.96,2.93,1.18,.39,4-.99,1.21,.54v.06l-.76,1.89-2.06,.76-.79,4.14,3.81,1.04-1.66,.96-1.72-.51-1.86,.73-.76,.62,.23,1.21-1.72,.2v2.26l-1.8,.99,.42,1.89-1.72,1.95,1.38,.9,.9-.82,.73,.73-1.3,1.13-2.59,.56-.39,1.01,2.26,1.13-.06,1.13-1.07,.17-.23,2.42,2.11,2.82,.28,1.01-.82,1.72,1.86,3.92,2.48,2.59,1.01,2.96h1.95l.28,2.23,1.16-.11,4.62-2.65,1.97,1.18-1.07,.76,1.24-.31,.34,1.13,.93,.08,1.18,1.49,1.97,.99-.62,1.44,2.4,2.88,1.16-1.16,.37,.9,1.04-.51,.23,1.1,1.66-.2,.96,.96,.85-1.66,.68,.45,1.49-1.72,1.13,.68,.14-1.21,2.96,.11,1.44-2.37,1.27,.45,1.32-1.18,1.61-.39-.48-2.17-1.1-.9,.06-2.34-2.17-.9,.54-.37-.14-1.66,1.47-1.32-1.24-1.58,.79-1.16,.79-.11,.14,.9,1.72,.14-.14,1.58,1.44,.31,.87-.23,.31-1.52,2.62-.9-.08,.76,1.61,.76-.03,2.93,.85-.03,.73,.93,1.8-.17,1.16,.23,1.89-2.85,2.17,.51,.28-.9,.99,.31-1.44-2.26,.68-.31-.23-1.95,.59-.54,.56-.28,1.69,.42,1.07,.79-1.44,1.04-.68,2.09,.54,.68,1.86-1.55,1.61,.45,1.49-.39,.68,1.07,.68-.08,3.3-3.07,1.97-.17,1.21,.76,1.1-1.44,3.16,3.16,1.38,.54,.87-2.4-.59-1.24-1.75-.96v-.99l-.68-.65,1.24-.23,.42-.7,.9,.68,.76-1.27,.39,.68,1.41-2.71,1.3-.62,1.1,1.69,.7,.37,.59-.85-.14,2.62,1.1,.68,.68-.65-.2,1.32,1.01,.76-.34,1.21,1.86,.82,2.4-.76,.37,.93-3.13,3.58,.23,.54,3.3,3.16,1.27-1.49-.54-.62,1.21,.39,1.83-.82-.45-1.04,.96-.48,.85,.45,.28-.51,1.52-6.12-.25-1.27,1.44-2.93,1.86,.37-.42-1.49,1.72-.54,2.42,2.34,1.69-.73-.82-1.58-1.35-.14,1.61-1.69,1.1,.08,1.04-3.3,1.01-2.17,1.95-.17,1.64-.73-.42-1.66-.85-.59-.59-1.61,1.1,.31,.7-1.21,1.32-.59,.99-1.32-.45-1.97-.65-.37,1.47-2.42-3.38-1.27,.17-.59,2.42-1.58,2.82-.68,.17-.48-1.86-3.5-2.14-3.83-.23-.39-3.97-5.24-1.18-.7-5.58-3.24-2.54-1.72-3.83-1.8-.25-1.21-2.03-1.32,.34-1.8-.7-.59-.28-1.44,1.44-.68,.28-1.13-.62-1.49-2.23-1.83,.14-.68-.62-.59-.37,.37-1.89-.59-1.18,.39-.14-2.28-3.02-.87,.9-1.3-.28-.85,1.86-3.21,.96,.54,.68-.7,.68,.68,.45-.51,.48,.37-.17-.68,1.49-1.18-.2-.93-1.07-.59,1.44-1.58-2.42-2.26-3.83-.96-.73,.31-.08-.54-1.27,.68-1.18-.85-1.92-1.49-.65,.37-.82-.59-.56,.54-1.27-.62,.14-.96-1.49-2.34,.03-1.04,1.47-1.44,.23-3.16,3.78-2.2,.31-3.07-1.3-1.35-.37-.51,.54-.93-.59-.37-.48-2.54,.62-.45-.03-.93-2.26-3.27,.31-2.26-3.44-3.61-1.75-.31-3.16-1.49-.31-1.24-.12,.02Z"/>
  <path id="north-west" class="cls-1" d="M266.98,445.46l-.76,1.52-1.69,.59-2.96,2.48-2.31,.31-.08,1.24-.82,.34-.62,1.35-1.95,1.35-.59,1.58-1.04-.03-1.44,.9,.2,.99-1.27,.99-5.24-.45-.14,.54,1.55,1.13-1.41,2.62,.31,1.1-.76,.68v.85l-1.21,1.21-1.52-.08,.56,.51-1.21,.54,.73,.59-.59,.11,.28,.42-1.32,.17,.2,.9,.7,.06-.82,.31,3.21-.28-2.57,.96-2.09-.51-1.72-1.8-2.59-.34-.9,.85-2.17,.28-1.64,2.2,.23,.68,1.95,.9,1.18-.76,.25,.9-.82,1.04-1.38-.14,.31,1.72-3.24-2.14v-.03l.03-.37-1.61,.82-1.8,2.2-2.4,6.6-.14,4.43-3.97,3.78h-.17l-.59,2.42-3.07,4.06-.48-.11,.7,3.95-.45,1.18-2.48,7.36-1.44,.68,.14,1.04,.85,1.58,1.55,.93,4.65,6.68,4.14,7.22,.7,.37-.03,5.44,5.78,9.53,1.07,.08,.73-.82,1.92,.56,.87-1.1-.68-1.3,1.07-1.21-.31-.45,.85-1.41-.39-.28,.51-.11-.37-.82,.85,.31,.9,2.76,.54-.51-.99,1.64-.59,3.1-.48-.23,.31,1.04-2.31,.93,.42,1.27h.7l-.34,4.51,1.21,1.95,1.52-1.41,1.18,2.09-.28,.82,.37-.45,1.21,1.49-1.27-1.72,1.78-1.49,2.26-2.2,1.58-3.35,.99-.76v-1.8l.28-1.52,1.44-1.49-.37,1.38,1.64,2,.25-.31-.08,.79,.82-.08-.54,.65,.31,1.47-.23-.08v1.27l-.54-.08-.73,1.3,1.27-.14,1.8-1.66,1.38-1.49,.73,1.01-.14-1.58,1.72-2.68,3.69-1.04-1.3,1.32,.39,1.27-.7,.23,.34,2.11,1.55,.48,.85,2.71,.99,.06v-.85l.73,.17-.99,2.11-1.1,.82-.11,.99,.54,.08-1.64,1.13-1.8,.28-1.66,3.44-1.04,.79,1.18,1.04,.31,2.93,.82-.37,.17,.51,.31-1.72,.87,.31,.45-.11,1.38,.9-1.58-.34-1.35,2,.42,.9,1.49,.45-.68,.48-.23-.39-.59,.82-.9-.2,.93,.68-.7,.42,.39,.62-.54,.42,.17-.9-.7-.06,.45,.45-1.1,.31-.93-.76,.39-.54-4.76,1.95-.06,2.2,.37-.28,.31,.73-.62-.14,.11,.76,.93,1.69-1.72-2.03,.08-2.62-2.54,.68-.59,10.01-.08,4.2,.45,1.89,1.95,1.89,2.4,.51,2.06-.51-.7,.59,2.96,.06,2.45-.45,3.78-1.35-4.09,1.75-2.99,.73-.82,.08,.23,.48-.76-.48-.59,1.3,.76,.73-1.16-.08,.45,.62-.54,.14-.9,.48,.11-.56-4.37,6.03-2.62,4.79-.7,1.24-.45,2.71,1.61,2.37,.79-.06,.31-.68-.45,2.57,1.61,4.28,1.64,2.31,1.3,5.13,3.13,2.54,3.1,2.71,2.48,.76,.59-.45-.37-.59,2.79,1.41,.45-.68-.03-.23,1.13-1.66-.28-.56,1.78,.79,.34-.68,2.09-.68,1.07,.48,.68-1.04-.68,1.35-1.44-.31-1.16,1.13-.2,.06-1.83,.08-.59,1.21,.59,1.64-2.23,1.72-2.4-1.13-1.01,.17,.48,.76-.93,.45,.56,.28-1.8,.03-3.04-1.8-3.89-5.89-.99-3.38-1.55-4.06-6.4,3.19-3.1,2.17,.76,2.23,2.79,3.1,.31-.23,2.17,3.07-.54,1.66,.62,.37,.42-.42,.14,.9,.93,.42-1.38-.28,.54,.68-.51,.68-.54-.59,.39,1.01,3.95,1.21,4.51,3.75,1.52,2.2,.08,1.18-1.38,1.16-2.85,.82,1.61,2.34,1.18,1.13,2.4,.99,1.35-.93-.42,1.66-.85,1.27,1.52,1.04-.34,.68,1.16,1.38-.62,.31,.76,.34-.68,.85,.85,.82-.31,1.38,.99,.56,.45,2.03,1.95,.76,.82-.59,1.35,.08,.39,.87,1.95,.23,1.66-1.1,1.49,.96,2.48-1.04,.65,.99,.85-.17,.08,.9,.68-.06-.17,1.66,.62,.73,1.55-.9,1.83,1.75,.51-2.65,2.4,1.52,2.79-1.01-.14-1.64,3.52-1.18-.28-.9,.73-.7-.82-1.13,.08-2.26,2.11-.73,1.86-2.42,1.3,.25,.79-.17,1.66-1.35,.39,.37,2.11-2.48,3.3-4.34,.87,.28-.11-3.02,1.72,1.83,2.11-.14,1.18-.56,.73-1.64,1.66,.37,1.04-.45,.76-2-.14-.9,.9-.79-1.49-1.41-.59-1.52,.51-5.75-.73-1.35,.56-1.3-.28-1.58-1.07-.17-.2-.65-.17-.54,.7,.06,1.01-1.13,.7-2.85-1.27-.06-.76-1.38,.76-1.01,.56,.42-.23-.54,1.61-2.14-.45-1.69,.82-.82,.17-1.58,.45-.54,.73,.56,1.72-.56,.25-.34-.54-.76,.99-1.72-.17-1.3-1.75-.99-.34-1.1-3.61-4.31-.76,.08-.23-.85-.23-.51h-.03l.08-.68-.68-.45,.23-2.11-.99-1.04,.17-1.07-1.8,.54-.62,.82-1.49-.14-.9-1.41-.51,.76-.37-.39,.2-1.04-.99-.68-.65-2.34,1.64-1.27,.93-1.83-.39-2.54,.68-.76-.23-1.1,.96-.68,2.96-1.92,.87-.42,.03-2.03-2.03-1.95-.54,.2,.45-.96-1.18-1.3-1.24-3.21-2.26-.39-.51-.99-.62,.23,.17-1.1-.28-.59-.68-1.69-1.69,.79-.37-.99,.62-.68-.54-.31-3.75,.68-1.44-1.95-1.18,.45-.7-.54v-1.58l.7,.14-.23-.76-.76-.2-.25-2.11-.73-.85-2.99,1.07-1.92-.28-.65-.54,.37-1.49v-1.38l-2.62-2-.85,.06v-.73l-2.34-2.48,.25-2.57,1.55-.45,4.28-6.77,1.47,.37,1.8-.23,.42-1.35,1.38-.08,.06-.82,.59-.14,1.38,1.21,.68-.34,.42-1.58,.23-1.27-.59-.96,.51-.7-.34-2.4,.79-1.27-3.52-3.21,1.49-.31,1.61-1.61,1.13-.06,.31-1.41-.76-.62-.14-2.2,.87-1.95,1.27-.14,.17-.62,1.07-.45,3.44,.25,.73-1.21,.7,.51,.31-1.55-.76-5.95-1.44-.06-.68-1.83-5.41-4.43-1.18-3.52,2.14-1.83-.28-1.32-1.95-.68-1.38-1.49-.23-1.16,1.69-2.85-.34-.54,.56-3.16,.82-.96-.23-1.72-.62-.39-.23-1.04-1.21-.14-2.31-2.48-1.27-2.42-.62,1.35-2.17,.82-1.97,2.34-2.23,.37-1.89-1.66-.85-2.23,.54-.76-1.8-3.02,1.66-1.21,.59-2.26,1.21-.96-1.27-1.18-.03-1.69-1.55-.56-.31-.76,1.64-1.58,.03-2.85,2.62-1.61,2.48-.68-1.18-2.23,.68-.56-.48-.68,.82-.79-.9-.76-1.69,.76-1.38,.2-.65-1.55-.7,.11-.73-.96-.25-1.95-2.71-.68-1.72-2.4-.31-1.13,.48-.9-.85-1.3,.12-.04Zm-33.57,101.88l-1.38,.9,.39,3.44,3.24,5.95,2.17,.08,.06-.79-.08,.45-.28-.45-1.52,.31-.28-1.32-.76-.23,.17-1.3-1.61-1.66-.06-2.85-.82-1.8,.76-.73h0Zm6.23,81.86l.76,2.54,.79-.73-1.55-1.8h0Z"/>
  <path id="north-east" class="cls-1" d="M304,384.28l-2.88,1.78v3.02l-1.21,.23-.68,2.17-1.49,.03-.28,1.55-1.35,.31,.45,1.3-2.82,2.93v1.18l-1.69,1.18,.79,1.07-3.89-.59-1.18,.42-.62,1.07,.68,.59,.85-.28-.39,.82,1.49,1.66v2.31l2.71,2.42,.9,3.24-.28,1.32,1.44,1.97,.11,1.41,2.57,.62-1.95,.76-.28,1.64-2.06,1.64-1.64-.45-2.96,2.51-1.1-.25-.68,1.01,.82,1.78-.9,.82,.51,.56-2.37,1.78-1.16,.08-.87-1.07h-1.66l-2.48,.68-1.8,2.82-2.17,.51-.79,2.09-2.03,1.3-1.04,2.09-1.13,.23,1.97,1.24-1.04,.23-.08,2.09-2.03,.17-.93,1.92-.37,1.35,.85,1.24-.48,.9,.31,1.13,1.66,2.45,2.71,.62,.31,1.95,.73,.96,.68-.06,.62,1.49,1.41-.14,1.72-.82,.9,.76-.87,.79,.51,.7-.68,.54,1.16,2.23-2.48,.7-2.59,1.58-.06,2.85-1.58,1.64,.31,.76,1.55,.51v1.75l1.24,1.13-1.16,.99-.59,2.23-1.66,1.24,1.8,2.99-.54,.76,.79,2.23,1.95,1.66,2.17-.31,2.03-2.37,2.17-.85,.62-1.3,1.21,2.37,2.37,2.48,1.16,.2,.28,.99,.62,.39,.2,1.78-.82,.9-.59,3.16,.39,.54-1.75,2.85,.23,1.16,1.41,1.49,1.97,.68,.28,1.35-2.14,1.86,1.13,3.47,5.47,4.43,.68,1.89h1.44l.73,6-.31,1.49,2.71-.56,4.28-2.11-.11,.87,2.76,.79,1.52,1.55,1.58-.23,4.79-2.79,.08-2.14,1.04-.48,2.71,2.34,.96-2.2-.23-2.48,2.65,.39,.68-1.44,1.41,.62,.79,.28,1.47-.14,.17,.99,1.21-.08,.06,1.07,1.21-.56,.62,.31-.08,.62,1.21-.23-.03,.59-.59,.28,.76-.11-.23,.79,1.58,1.21,.59,1.35h1.44l-.59-.45,.23-.96,.73,.14,.14,.85,1.13-1.13-.42,1.04,1.35,.2,.45,1.3-.25,.17,.03,.34,.68,.45-.11-1.13,.48-.37-.54-.96,.28-1.66-.96-.82,.96-.25,1.24,1.21,.56,.62-.28,.54,1.13,.2,.28-1.58,.7,.76,.76-.85,.65,.76-.14,1.38,.51,.59,1.07-.62,.08,.82,1.78-1.32,.7,.14,1.1-1.44,1.38,.25v-1.35l.82-.03,.45-.87,.23-.17,4.82,.99,1.64,.28,1.35-.87,3.33,1.24,.73-.82,1.16-.08,2.09,.54,.9,.9,3.33-.96,2.9,.68-.59-1.27,.23-2.71,1.21-1.83,1.55-.28,.68-.99-1.18,.28-2.57-1.27-2.45,.03-1.75-1.44-1.95,.2-1.38-.42-1.04-.39-2.99-2.26-3.75-1.13-1.01-1.04,.08,.96-1.1,.23,.34,1.3-.65,.99-2.06,2.26,2.06-2.85-.14-1.21-.62,.14-1.58-.14,.68-.99,1.41,.06-.51-.11,.23-1.13,.62-.34-1.52-1.18-.85-1.97,.62-1.32-.51-.48,1.32,.68-.23-.73-3.69-2.26-3.44-4.65-1.21-6.68-1.55-2.26-.45-1.66-.34-2.03,.54-.7,.08-.06-.17-1.3-1.01,.7,.42-1.07,.62,.14-.82-.45,.14-1.78-.68,.73-1.58-.14,1.58,.08,1.27-2.03-.45-1.35-1.13-.85-1.8-2,.62-1.07-.99,.82-.31-.51-1.41,2.4h-.03l-4.6,.06,1.66-.45,2.73-.14,.51-1.44,.82-.9,1.52-.14-1.58-1.58-1.83-4.28-.56-1.1-1.47-2.26,.25-1.07-1.66-2.4,2.03,2.68-2.31-4.28-.76-.14,.87-.14,.56-1.86,.87-.39-1.1-2.11-.45-2-1.52-1.75-1.18-2.99,1.32-4.54-1.04-1.27-1.97-.96,1.8,.42-1.01-.54-1.13-3.81-.34,.42-.51-.96,.23-.45,.54,.82,1.64-2.09,.25-2.4-.99-.9,.08-5.13-1.3-.59,.17-2.28-1.52-1.92,.31-.93,.76-.2-1.52-2.14,.37-.42-4.71-3.78-1.07-.14-1.58,1.49-.85-1.27,1.16-.9-1.07-1.86-1.64,1.04-1.52-.9-1.64-2.28-.17-1.64-.73-.14,.08-1.04-4.23-3.83-1.8-2.73,.51-.37-2.82-4.57-.02-.07Zm14.12,12.32l-4.14,.06,.73,.68,1.47-.37,.73,1.41,1.35,.03-.14-1.8h0Zm-29.68,94.68l-.85,.34v-.03l.85-.31Z"/>
  <path id="yorkshire-and-humber" class="cls-1" d="M375.37,507.03l-.65,.99-1.52,.28-1.21,1.83-.23,2.68,.54,1.3-2.9-.68-3.33,.96-.85-.9-2.09-.54-1.18,.08-.7,.82-3.35-1.24-1.35,.87-1.61-.28-4.82-.99-.28,.14-.39,.85-.82,.08-.06,1.35-1.35-.31-1.07,1.49-.76-.14-1.72,1.32-.08-.82-1.13,.62-.45-.62,.08-1.35-.59-.76-.82,.79-.68-.76-.25,1.64-1.18-.23,.31-.51-.59-.62-1.21-1.21-.93,.25,.9,.82-.23,1.64,.54,.99-.54,.37,.11,1.07-.62-.39-.08-.34,.31-.23-.45-1.24-1.35-.2,.37-1.04-1.1,1.13-.17-.85-.68-.14-.23,.9,.59,.51-1.49-.06-.54-1.35-1.58-1.16,.17-.82-.7,.08,.56-.23,.06-.59-1.27,.23,.14-.62-.68-.31-1.21,.56v-1.07l-1.21,.06-.2-.96-1.44,.08-.82-.23-1.44-.62-.62,1.44-2.68-.39,.23,2.48-.99,2.2-2.65-2.34-1.04,.45-.08,2.17-4.79,2.79-1.58,.17-1.52-1.49-2.76-.85,.08-.82-4.31,2.11-2.68,.56-.7-.51-.73,1.27-3.44-.31-1.07,.45-.17,.62-1.27,.14-.87,1.95,.14,2.2,.76,.62-.31,1.41-1.13,.06-1.58,1.61-1.52,.31,3.52,3.21-.79,1.27,.34,2.4-.51,.7,.59,.96-.23,1.27-.37,1.58-.73,.34-1.38-1.21-.59,.2-.06,.76-1.38,.08-.42,1.35-1.8,.28-1.47-.42-4.28,6.77-1.55,.45-.25,2.57,2.34,2.48v.73l.85-.06,2.62,2v1.38l-.37,1.49,.65,.54,1.92,.28,2.99-1.07,.73,.85,.25,2.11,.76,.2,.23,.76-.7-.08v1.52l.7,.54,1.24-.45,1.38,1.95,3.75-.68,.54,.31-.62,.68,.37,.99,1.69-.79,.68,1.69,.28,.59-.17,1.1,.62-.23,.51,.99,2.26,.39,1.24,3.21,1.18,1.3-.45,.96,.54-.2,2.03,1.95-.03,2.03-.87,.42-2.96,1.92-.96,.68,.23,1.1-.68,.76,.39,2.54-.93,1.83-1.64,1.27,.65,2.34,.99,.73-.2,.99,.37,.39,.51-.76,.9,1.41,1.49,.14,.62-.82,1.8-.54-.17,1.07,.99,1.04-.23,2.11,.68,.45-.08,.68,.25,.54,.23,.82,.76-.08,3.61,4.31,.34,1.1,1.75,.99,.17,1.3,.96,.45,1.18-.68,1.89,2.03,1.13-.08,.17,.73,1.1,.23-.56,.48,.82,.34-.25,2.14,1.92,1.64,1.35,.23-.03,3.55,.93,1.01,1.49,.08v.99l2.99,1.18-.54,2.57,4.31,2.03-1.27,.25-1.21,2.26,.31,.42,1.13-.59,.42,.39,.17,.68,.82-.99,.28,.96,1.13-.42v.9l1.44,.2,2.06-1.27,1.18-.14,.82,.14,.76-.45-.28-.85,1.04-.68,1.27,.25,.54-.76,1.44,.73-.11,1.61,1.58,.31,.34-.45,1.13,.37,.79-1.3,.17,.31,.54-.85,.76,.11v.06l.65,.59-.42,1.13,.82,.54,2.31,.73,.7-.68,1.64,.39,.23-.73,3.55-2.96-.11-.51-.96,.14-.31-1.27,1.38,.2-.48-1.32,.9-.62-.23-1.41,1.07-.7v-1.04l.45,.14,1.21-1.95,3.3-.59,.06,.59,.93-.14,1.1-1.04,.54-3.41,1.89-1.32,.99-1.8,2.14,2.68-1.13,.99,.23,.48,2.48-.11,.08-.51,4.45,1.07,.76-.99-.03-1.16,.76-.34,.17-1.89,.96-.17,.68-1.95,6.71,.59-.48,2.71,.31,2.65,3.75-.03,5.5-1.78-.85-.54,.25-1.58-.45-.82,4.88-1.38-.23-1.47-.82-.17-.54-1.18-4.12,1.01,.59-.87,1.41-.37v-.62l.93-.28,1.24-1.66,.56,1.1,4.17,.31,.76,.03,1.97-3.64-.48-1.86,.93,.08,2.62,1.86-.14,.9,.96-.17,.76,1.75,1.58-.37,.51,.76-1.86,3.13,.59,.03,.39,2-.31,2.51,1.3,.14,.45,1.55,1.64,.25,.31,1.86,1.1,1.04,.68,.23,2.2-1.8-1.58-1.8,1.04-.82-.37-.82,1.18-.37,.54-2.88,1.07-.2,.42,.68,2.88-.85,.45-.45-1.18-1.64-3.02-3.27-.54-.56-.68-.11-.39,.68-.82-.37-1.13-.87-5.55-4.62-5.47-7.36-5.41,1.3-.34,.54-4.51-.03-1.04,.85-1.18,1.04-.9,.28-3.64-1.55-1.55-2.06-4.74,1.97,.54,2.31-.79-1.24-.06-1.3-1.58-.59,1.8-.08,1.3-1.72,2.76-.76-.37-.51,2.79,.68,1.78,1.69,4.68-.87h.59l.9,.28,6.68-2.54,2.65-.48,2.34,.08,.28-1.41-.08,2.4,.45,.39,.59,1.8,6.85,6.65,3.52,.9,5.07-2.14,2.82,.79,2.57,1.61,1.16,1.49,.06,.59,.08-.54-.23-1.58-1.8-4.06-16.38-22.98-2.11-5.64-1.49-4.68-.11-4.88,.76-2.03,.7-.17,1.01-1.92,3.64-.68,1.64-1.21-1.04-1.16-6.4-2.62-.54-.08-2.99-1.72-1.35-2.68,.45-1.38,1.04,.08-2.57-1.04-3.95-2.11,.23-.45-1.8-1.95,.65-1.38-1.32-.56-.62-3.69-.96-.82-1.89-4.82-1.58-1.75-1.83-.82-.65-1.66,.65-1.41-3.95-4.06-1.38-.45-3.35-.59-.68-1.83-1.97-1.44-1.66,.62-1.78-2.85-.79-.31-.04,.07Zm-40.79,122.18l.45,.65h-.03l-.42-.65Z"/>
  <path id="east-midlands" class="cls-1" d="M405.14,599.8l.48,1.86-1.97,3.64-.76-.03-4.17-.31-.56-1.1-1.24,1.66-.93,.28v.62l-1.41,.37-.59,.82,4.12-.96,.54,1.18,.82,.17,.23,1.47-4.88,1.35,.45,.85-.31,1.58,.9,.51-5.5,1.8-3.75,.03-.31-2.65,.48-2.76-6.71-.54-.68,1.89-.96,.2-.17,1.89-.76,.37,.03,1.16-.76,.96v.03l-4.45-1.07-.08,.45-2.48,.17-.28-.48,1.18-.99-2.14-2.68-.99,1.8-1.95,1.32-.48,3.41-1.1,1.04-.93,.14-.06-.59-3.3,.59-1.21,1.95-.45-.14v1.04l-1.07,.7,.23,1.41-.9,.62,.48,1.32-1.38-.2,.31,1.27,.96-.14,.11,.51-3.55,2.96-.23,.73-1.64-.39-.7,.7-2.31-.76-.82-.54,.42-1.13-.65-.59-.76-.17-.54,.85-.17-.31-.79,1.27-1.13-.34-.34,.45-1.58-.34,.11-1.58-1.44-.73-.54,.76-1.27-.25-1.04,.68,.28,.85-.76,.45-.82-.14-1.18,.14-2.06,1.27-1.44-.2v-.9l-1.13,.42-.28-.99-.82,1.01-.17-.68-.42-.39-1.13,.62-.31-.45,1.21-2.26,1.27-.25-4.31-2.03,.54-2.57-2.99-1.18v-.99l-1.49-.08-.93-1.01,.03-3.55-1.35-.23-1.92-1.64,.25-2.14-.82-.34,.56-.48-1.1-.23-.17-.73-1.13,.08-1.89-2.03-1.18,.68-.96-.45-.99,1.72,.54,.76-.25,.34-1.72,.56-.73-.54-.45,.51-.17,1.58-.82,.82,.45,1.69-1.61,2.14,.23,.54-.56-.42-.76,1.04,.76,1.35,1.27,.06-.7,2.88-1.01,1.1-.76-.06,.23,.54,.2,.65,1.07,.17,.28,1.58-.56,1.3,.73,1.35-.51,5.75,.59,1.52,1.49,1.41-.96,.79,.2,.9,1.49-1.21,.31,1.21,3.16,1.49,1.75,.31,3.44,3.61-.31,2.26,2.26,3.27,.03,.93-.62,.45,.48,2.54,.59,.37-.54,.93,.37,.51,1.3,1.35-.31,3.07-3.78,2.2-.23,3.16-1.47,1.44-.03,1.04,1.49,2.34-.14,.96,1.27,.62,.56-.54,.82,.59,.65-.37,1.92,1.49,1.18,.85,1.27-.68,.08,.54,.73-.31,3.83,.96,2.48,2.26-1.49,1.58,1.07,.59,.2,.93-1.49,1.18,.17,.68-.48-.37-.45,.51-.68-.68-.68,.7-.96-.54-1.86,3.21,.28,.85-.9,1.3,3.02,.87,.14,2.28,1.18-.39,1.89,.59,.37-.37,.62,.59-.14,.68,2.23,1.83,.62,1.47-.28,1.13-1.44,.7,.28,1.44,.7,.59-.34,1.8,2.03,1.32,.25,1.21,3.83,1.8,2.54,1.72,5.58,3.24,1.18,.7,3.97,5.24,.23,.39,2.14,3.83,1.86,3.5-.17,.48-2.82,.73-2.48,1.52-.17,.59,3.44,1.27-1.47,2.42,.59,.37,.51,1.97-.99,1.32-1.32,.59-.76,1.21-1.04-.31,.54,1.61,.9,.59,.37,1.66-1.58,.73-1.95,.17-1.01,2.23,5.07,6.93-1.47-.06-2.93,1.1,.17,.68,1.27,.17-.96,2.68,2.17,3.61-.62,2.42,.39,1.04,2.48-.73,2.76,.87,1.24-.51,.73-1.13,1.8-.39,1.13-1.92-1.3-.54,.85-2.26,3.61-1.8,2.17-.17-.96-.96,4.51,.28,.96-1.1,.7,.56,.68,3.19,1.35,2.09,1.1-.96,.59,.28,.54-1.13,1.13-1.1-.65-.99,1.41-.31,.51-.82-1.01-1.89-1.38-.82-.14-1.16-.96-.23,.37-1.18h.06l3.16-.68-.23-1.07,1.07,.08,.37-1.44,.96,.54,.48-1.44,1.1-.56,.23,.79,.7-.37,2.68-2.48,2.26-.37,1.8-3.24-1.1-4.03,2.62-1.07,1.44,.54,1.32,1.89,1.52-.39,.51-1.3-.68-1.92,1.61-2.48-.37-.25,3.3-.59-.08-1.58-1.04-.17,.37-.82-1.3-1.1,.56-1.35-.45-.54,3.38-.76,1.41-1.75-.08-.79,.37-.08,2.88-2.11-.59-.37,1.04-2.28,.73-.68-1.13-2.23,.25-1.66-3.64-1.89,.76-1.21-.08-.9-1.1-1.1,.73-.48-.51-1.47-.59-.34-3.19,.93-1.18-1.27,1.55-3.1-.2-.99-1.3-1.18h0l1.13-.85,1.35-.08,.03-.51,2.85,.54,3.3-1.44,.85-1.3,2.76,.39,1.8,1.8,3.21-1.72,.79,1.55,.79-.82,2.34,.82,2.26-2.09,.9,.51,1.38-.87,1.95,.9,.06,.37,3.16-.39,1.61-1.72-.39-3.21,1.13-1.27,1.52,.28,2.59-1.64,2.26-.11,.99,.45,4.99-3.89-1.66-1.07,1.18-2.59-3.02-.56-.51,3.24,.37-4.26-2.48-4.51-1.55-.79-1.58-.68h-1.89l-2.03-1.04-1.16,.37,.25-.73-.93,.62,1.07-1.66-.54-.85,.9,.54,1.52-1.35h-2.17l2.23-.17,.82-2.31-.45-.08,4-5.5,2.4-2.23,1.04-.68,4.37-4.14-.68-.08,1.89-.73-.9-.48,1.86,.45,.62-.79,.68-9.42-.54-1.58-.68-3.02-6.06-13-.93-3.24-1.89-1.1,.9-.39-1.49-1.58,.76,.14-.96-.68,.37-.59-2.11-2.88,.62,.23-.25-.56-.99-1.13-.14,1.18-.96-.23,.45-1.07-1.61-.82,.54,1.07-.28,.59-.68-.54-.48-.08-.87-.9,.51-1.13-.51-.23-.08,.56-2.34-1.44,.54,1.18,.54-.28-.08,.9-2.26-1.66-.45,.45-2.88,.85-.42-.68-1.07,.2-.54,2.88-1.18,.37,.37,.82-1.04,.82,1.58,1.8-2.2,1.8-.68-.23-1.1-1.04-.31-1.89-1.64-.23-.45-1.55-1.3-.17,.31-2.48-.39-2-.54-.08,1.8-3.07-.51-.79-1.58,.39-.76-1.75-.96,.17,.14-.9-2.62-1.89-.93-.06v.13Z"/>
  <path id="east-england" class="cls-1" d="M466.34,659.76l-.68,.08-.14,.93,.99-.68,.99,.68,2.17-.23-3.33-.79h0Zm-.68,.09l-1.32,.17,1.24-.03,.08-.14h0Zm17.51-.06l-.28,.28-.14,.7,1.49-.68-1.07-.31h0Zm1.07,.32l2.4,.87-.99,.37-.2,.85-1.95-.14,.06-.62-2.85,.62-.99-.62-.08,.48-2.45,.14,1.69-.37-.73-.62h-.14l.08,.06-.48,.45-.03-.03,.42-.48-1.44-.85-.82,2.11,.73-1.18,.62,.23v-.03l.25,.11-.25-.08v.68l-.25,.54-1.18-.23v-1.58l-1.86-.23,1.01-.25-1.47,.23,.06,.7-1.95-.62-1.8,.08,.59,.08-.17,.65-1.55,.9v-1.13l-1.38-.14-.82-.37-1.18,.73,.82,.03-1.27,.11,.37-.59-3.21,.37,.37,.23-.54,.25,.06-.48-1.64-.23,.85,.85-.79,.23-.28-.76-.82,.93-.62-1.21-1.27,.23-3.1,3.3-2.26,6.85,.17,2.99-.73,.48-.23-.68-.68,.65,.56,.25-1.01,.23,.06,.45h-.96l-1.16,1.55,.39,.7-.48,.06-.37,1.13,.48,1.75-.48-1.24-2.54-2.26-2.42,.03-1.13,.54-1.18,2.59,1.66,1.13-4.99,3.83-.99-.42v-.03l-2.23,.11-2.57,1.64-1.58-.28-1.07,1.27,.34,3.21-1.58,1.72-3.16,.39-.08-.37-1.89-.9-1.44,.87-.87-.51-2.28,2.09-2.34-.82-.79,.82-.79-1.55-3.21,1.72-1.8-1.8-2.76-.39-.85,1.3-3.3,1.44-2.85-.54v.51l-1.38,.08-1.13,.85,1.3,1.18,.2,.99-1.55,3.1,1.18,1.27,3.19-.93,.59,.34,.51,1.47-.73,.48,1.1,1.1,.08,.9-.76,1.21,3.64,1.89-.25,1.66,1.13,2.23-.73,.68-1.04,2.28,.59,.37-2.88,2.11-.37,.14,.08,.76-1.41,1.72-3.38,.76,.45,.54-.56,1.35,1.3,1.1-.37,.82,1.04,.17,.08,1.58-3.3,.59,.37,.25-1.61,2.48,.68,1.92-.51,1.3-1.52,.39-1.32-1.89-1.49-.54-2.57,1.07,1.1,4.03-1.8,3.24,1.52,.59,.96,.68-.14,2.62-.65,.23,.42,1.44,1.66,.39,.99,2.26-.82,1.86-1.52,1.13-2.2,3.19,1.58,1.13,.17,1.35-.62,.51,.45,.76-1.1,1.1,1.04,2.71-.45,.31-.51,1.35-.62-.06,.14,1.21-.76,.2-1.13,3.24,.62,.9,1.18-.17,1.3,1.44,1.95,.08,.7,.96,1.55,.48,2.88,3.81-.37,.68-.56-.2-.23-.45-1.49,2.45-3.13-1.27-.9,.68-1.21-.23-1.75-2.45,.48-.79-.56-.87-1.27,.08-1.72,1.55,1.35,2.34,.9-.28,1.49,2-.28,.76,1.1,2.34,3.72,2,1.58-.45,.9,1.58,.56-.42,.56,.54,.23,1.1-.7,1.13,1.16,1.44-.08,1.64,1.35-.2-.03,.31,.85-.11,.37,.68-.54,.76-.42-.23-.08,.93-.85-.23,.34,1.13-.48,1.13,1.13,3.21,1.35,.51v-3.04l2.62,1.78,.99-.82,2.26,.62,1.58-.48,.62-.28,.31-.31,2.82-1.72,.68,.31,.56,.14,2-.93,.39,.25,.37-1.38,2.34-.59,.51-.9,.76,.59,.54-.45,.59-.45,.54-1.49,2.76-.2,.76-.31,5.81,.96,.06,3.41,2.31,.82-.2,.87,1.21,1.24,2,1.01,.99-.06,.17-.85,2.23-.82,.54-.23,3.61-.31,.23,.03,1.44-.7,1.8,1.35,.73,.9-.59,.68,.96,.17,1.35,3.44,1.38-.2,1.41,2.45h-.73l-3.47,.93-.08,1.41-.59,.03-.31-1.07-.23,.99-.51-.03,.37,1.13-.96,.17,.23,.68-1.01,.51-.14,.48,4.43,2.68,.99-1.1,1.52-.17,1.18,2.03,1.13,.08,4.6-1.21,.59-3.58-.31-.34,.9-.56,3.24,.06,1.97-.82-1.16-.25-1.01-2.09-.08-.45-.85-.62,.9,.54,.7,1.27,.73,1.13,.68-.28,.85,1.04,1.24,.14,3.86-1.49-1.13,.23,.76-.54-2.03-.37,.2-.54-.99-.14-1.58-.73,4,.51,1.07-.37,2.76,.51,5.02,.76,1.21,.31,3.69-3.55-2.03-.45-.62-1.64-.79,.62,.59-1.35-1.8,.34,2.57-1.49-.85-1.1,.96,.96,2.79-.14-.08-1.61-5.07-.68-1.3-1.18-1.58,.68-.96-.45-.34-.73,1.8-.31,.93,.08,2.09,1.78,.48-.42,3.52,.68,2.76-.23,1.95-1.44-.2-2.42,.82-2.26-.76-1.86,.59-2.79-1.27-1.58-2.11,.39-2.59,2.9-2.03-.45-1.58,.37,.2,.99-1.78,.59-.54,1.21-1.16,.37v-.65l.62,.23,.14-.93,1.07-.82-3.55-.37-1.58-1.66,1.16,.68,.45-1.41,1.35,.76,1.04-.34,.23-.34,.23-.68,.9,.34,.08-.51,.79,.73,.17-.87,1.35,.59,2.09-.23-.11-.73,.59,.34,1.58-1.41-1.38-.62h-1.13l-.11-.51,.96,.17-1.27-.34,1.32-.37,.17,.59,2.11,.17-1.13-1.21-.59-1.27,1.64,1.66,.14-.76,.39-2.17,.45,.45,1.55-.68-.45-.17,2.42-.59-1.64-.85,1.24-.06-.73-1.07,1.86,1.47-.45-2.79,.93,.68-.48,.9,.76,1.32,1.97,1.01,2.03-.76-.23-.68,.68-.25-.08,.54-.68,.85-.28,.59-1.92,.08,1.24,1.1,.14,1.52-.62-1.41,.68,1.69,3.33-.51,2.31-.31,6.17-4.43,2.93-4.12,.17-1.44-1.44-.23,.08,1.1-.03-.11h-.08l.03-.03-.03-.06,.08,.06-.06-.14-.17-.31-.23-.06-.06,.06-.14-.08h-.08l-.14-.06-.03,.06-.06,.08v.03l-.03,.11v.11l.23,.06,.03,.06h.2l.17,.17v.14l.14,.08-.06,.06-.62,.03-.14,.76-.06-.62-.76,.08-.23,.68-.37-1.72-.93,.34,.68-1.1-.96,.99h-1.8l1.89-.76-.7-.59,.82-.56,.93-.06-.99-.54,.82-.76,.31,.17v-.06l.06,.11,.93,.45,.31-2.14,1.64-1.75,.9-.14-.39-1.35-.73,1.04-1.95-.82-1.16,.96h-.59l.08-.54-1.86,.54-.45-.08-.68-.59-3.04,.9-3.52-.42-.9-1.3,.99,1.04,1.3-1.1,2.71,.42,1.95-1.78,1.55,1.41,1.38-.08,.59,.25,1.35-.9,1.97,.45-.56-3.1-3.44-.73-2.48-1.61-1.21-1.89,1.58,1.16,2.28,1.35,2.59,.87,.03-.65,1.41,.96,.23,2.34,2.34,1.72,.06,1.8,1.44-2.48,2.57-2.26,.14-1.1-1.89-1.58,1.66,.59,.45,1.18,2.11-1.86,1.72-4-.68,.08,2.93-2.76,.39,.06,.54-.59,1.95-.62-3.64,2.34-1.47,1.95,1.47-1.72,5.64-3.47,1.89-9.75,.14-8.43,1.92-3.97,.51-.23,2.85-8.71v-4.4l1.27-2.76,.31-.9-1.64-4.96-.68-3.21,.37-.7-.28-.54,.37,.39-.54-7.3-2.4-6.68-1.8-2.54-5.89-5.58-9.53-7.58-5.24-3.33-4.51-1.66-8.23-.79-8.18-2.26h.01Zm18.77,105.43l-.06-.06,.08,1.41,.9-.42-.93-.93h.01Zm1.97,1.44l.51,.85,.39-.25-.9-.59h0Zm-.14,.38l-1.8,.08-.25,.65,1.16,.59,.9-1.32h-.01Zm.08,.08l-.03,.11-.08,.17,.03,.14-.03,.14-.14,.03-.14-.08v.08h.06l-.06,.06,.45,.08,.08,.06v-.45l-.03-.2-.11-.14Zm.45,1.55v.14h-.23l.2-.11,.03-.03Zm-18.13,6.34l-1.52,.68,.03-.45-2.59,2.82,.34,.54,2.85-.37,2.34-1.18,.96-1.21-2.4-.82h-.01Zm-14.74,8.25l-.76,1.13,1.3-.03-.54-1.1h0Zm2.09,.51l1.07,.59,.96-.42-2.03-.17h0Zm12.85,9.78l-5.07,.82-.45,1.95-1.69,.17,.54,1.21-.87,.59-.34,1.13,.9,.31-.23-.54,1.47,.9,3.97-3.52,1.78-3.02h0Zm-7.89,2.76l-1.13,.99,.79,2.03,.96-2-.08-.93-.54-.08h0Z"/>
  <path id="london" class="cls-1" d="M422,789.01l-.76,.31-2.76,.2,.9,.59v.03l-.9-.62-.54,1.49-.59,.45-.54,.45-.76-.59-.51,.9-2.34,.59-.37,1.38-.39-.25-2,.93-.56-.14-.68-.31-2.82,1.72-.31,.31-.62,.28-1.58,.48-2.26-.62-.99,.82-2.62-1.78v3.04l.7,2.14,.82,1.95-1.13,1.95,.28,2.11,.59,.99-.42,1.24-.82,1.35-.34,1.16,3.16,1.21,.17,1.78,.62-.2,.42,.9,1.27-.17,1.66,.85,.37,.34-.2,1.01,1.89-.25,2,1.95,.62-.23,.68,1.47-1.35,3.04,.06,2.03,.39,.08,1.1-.87,1.01-2.71,1.64-1.75,.99-.06v1.27l1.41,.96,.39,1.35-.76,.68,.59,.68,1.38-1.41,.59,.23,2,1.89,.11,2h1.13l.82,1.35,2.03-1.49,.73-1.8,1.66-.31,.06-.99,.76-.65,.93,.06,.51,.76,.23-.37,.82,.42,.9,3.64,1.04-1.58,.62,1.44,2.71-.08-.14-2.26,2.03-1.38-.03-1.47,1.16-.03,.87-2.54-.37-2.2,.9-.06-.87-1.61,.37-2.17,.54,.23,.45-1.49,1.86-1.13,.82-2.62-.45-.9,.14-.54,1.01-.45-.23-.68,.96-.17-.37-1.13,.51,.03,.23-.99,.31,1.07,.62-.03,.06-1.41,3.47-.93h.73l-1.41-2.45-1.35,.2-1.38-3.44-.96-.17,.62-.68-.76-.9-1.8-1.35-1.44,.7-.23-.03-3.55,.31-.59,.23-2.23,.82-.17,.85-.99,.06-2-1.04-1.21-1.21,.2-.87-2.31-.82-.06-3.41-5.81-.96h0Z"/>
</svg>