<?xml version="1.0" encoding="UTF-8"?>
<svg id="Layer_1" data-name="Layer 1" xmlns="http://www.w3.org/2000/svg" viewBox="0 0 283.46 283.46">
  <defs>
    <style>
      .cls-1 {
        fill: none;
        stroke: #010101;
        stroke-miterlimit: 1;
        stroke-width: .75px;
      }
    </style>
  </defs>
  <path id="scotland" class="cls-1" d="M184.04,59.27l-.77,.55-.3,1,1.81,1.38-.11,.58-.52,.79-2.55-1.07-1.9,.83-.75-.65,.5-.82-3.65-.04-1.83,1.34-2.08,1.13-2.83,.33-1.76-.54-1.26,.38-.52-1.78-.74,.55-1.51,1.61-1.69-.17-.65,1-1.13-.38-.94,1.18-.63,.21-.09-.73-2.3-.11-.98,1.51-1.98,.5,.82-1.76-.06-1.18-.79,.33,.16-.71-1.51-1-2.46-.09-.19,2.03-.75,1.26-.63-.04-.33-1.86-1.43-.44-1.04-1.48-.85-1.13-1.45,2.23-.02-1.9-3.44-.96-1.75-.85-.3,2.65-1.29,1.78-1.73,1.17-.16,2.39,.82,.52,.82,.21-.63,.8-1.15,1.21,.21,.63,.5,.5,.65,.03,1.29,1.81-.75,.16-1.24-1.19-1.45-1.07-.31,1.27-.69,1.13,.5,.71-.83,.21,.27,.73,.03,.88,.66-.25,.19,.88-.04,1.12,.83,.94,2.42,1.5-1.19,.04-1.38-1.13-.82,.33-1.17,.39-1.35-.09-.96-.92-.55,.56,.75,.6-1.71,1.21-.23-.88-.52-.68-.61-.03-.42-.75-.77,1.76,.94,1.51,.75,.55,.44,1.26,.38,.88,1.51,.88-1.37,.28,1.04,.96-1.21,.02,.8,.54-.47,1.51-.3,.85-.94-.88-.63,.17-.38,1.04-.75-2.02-.98-.66-.85,.83,.13,1.38,1,.75-.41,.68,.85,.54,1.19,.5,.75,.93,.5,1.64,2.31,1.21,1.34,.17-.75,1.21,.88,1.64-2-.83-1.84,.33-1.64-1.67-1.31,.36,1.56,2.48-2.14-1.31-.68,2.14-.83,.92-2.06-1.04-.47-2.69-1.67-.46-1.18,1.89,.22,1.69,1.13,.5,.5,.83-.31,1.51,.5,.88-1-.38-.36,.47,.61,1.17-1.95-1.79-.38-1.94,.16-1.69-2.27-.41-1.59,.58-.46,6,1.64,1.09,1.87,.17,.08,.88,.19,1.18-1.56-.93-1.52,.5-1.19,3.07,1.95,1.06,.69,2.14,1.24,.56,.39,1.4-2.15,.36-1.12-1.79-1.57-.35-1.26,5.76,.31,1.73,1.45,.08-.5,2.47-.31,1.56,.88,1.09,1.95-.38,3.49-2.06,.47,.6-1.26,.83,1.51,.88,2.55-1.84,1.79-1.51,.06,1.09-2.77,2.52-1.51,.13-2.21,.68-1.51,.71-.75,1.76,1.26,.5,1.06-.22,1.21,.6,1.95-.21,1.07-.63,.44-.17-.38,1.26,3.15,2.61-1.26,.99-2.65-3.35-1.64,.5-1.64,.42-.69,1.21,.94,.63-1.51,1.56-.75,1.26,.82,1.21,1.64-.04,1.64,1.9,1.94,.74-.8,.85-1.62-.71-2.23-1.86-2.19,.5-2.46,2.52,1.71,2.14,1.06-.25,1,.55-.65,.49,.46,1.4,1.57,.13,2.88-.65,.3,.73-3.81,1-2.21-1.13-.69-1.59-2.94,.42-.46,2.22-1.83,2.22,1.26,.8-.31,.58-.88-.3-.88,.55-.04,.75,.99,.25,2.08-.33,2.55-.39,.33,.6-1.75,1.06,1.57,.75-.88,.33-1.95,.63-1.51-.25,.08,1.35,3.57,1.42-4.33-.04,.11,.85,.98,.58,.03,1-.92-.25,.16-.71-.56-.25-.56,.46-1.45-1.84-1.83,.58-2.14,.04-2.39,.8-1.26,.71-.69,1,1.13,1.81,1.07,.33,1.32-.55,1.26,.25,1,.55,1.42,.03,.33,.65,1.34-.55,.13,.46,2.77,.13,1.89-1.34,.88,.08-2.3,1.79-1.67,.6,.06,.68h-.82l-.44-.8-2.65,.3-.13,1.26,2.9,4.23,3.4,.93,.63,.75,1.98,.79,.41,.8,4.03-2.85,2.28-3.42,4.08-3,2.02-2.06,1.51-.25,3.65-5.92,.88-.25v.68l-4.09,6.42,1.38,.33,.65,.42-2.22,.33-.69,.98-.69-.42-1.45,1.21,.75,.63-.94,.96-1.94,2.31,.42,.55-.6,.38-.58-.13-.33,.71,.82,.38,1.13,.98-1,.63-1.07-.88-.75,.54-.75,1.67,.46,.44,.96-.93,.6,.88-.25,.88,1.19,.08,.63-.46,1.98,.74,.92-.11,.69,.75,1-.3,1.34-2.3,.68-.3,1.17-1.52,.63-1.32,.41-.14-1,1.89-1.46,2.39-1.29,1.61-1.18,.5h-.92l-.68-.5-1.26-.5-.68,.16-1.42-.08-2.11,.17-.83,.92v1.1l-1.18,.92-.75,2.02,1.51,.68-1.09,.42-1.18-.42-.83,1.76-.08,1.34-.35,1.94,1.43-.42,1.26-.25,.5,.42-2.44,1.09,.6,1-.75,1.1-1.94,3.43,.68,.09,.83-1.26,1.69-1.51,.41,.33-2.02,3.7,.17,1.26-1.18,.41-1.26,2.69-2.77,3.95,.75,.83,.85-2.19,1.09-.66,.75-1.61,1.34-.58-.25,1-2.52,3.1-1.26,2.77,.25,1.1,3.27-2.69-1.67,2.85-.75,1.26-.93,3.19,1.43,1.09,.25,1.26,3.1-1.34-1.09,1.43-1.69,.92-.58,1.94-2.02,1.43,.5,1.51-1.26,3.86-.75,.68,.08,2.42-.68,5.63-.75,.16-1.59,1.86-.17,2.93-.25,1.35,1.26,1,1.51-.25,2.61-.42,1.92-.68,1.35-1.76v-2.27l-1.35-1.34,.68-.58,.42-2.19,1-.58,.41-2.52,.85-2.69,.83,.25-.42-3.52,.75-2.34,1.76-3.44,1.94-1.18,.83-.58-1.76-4.53-.83-.33,.17-1.26-.6-3.44-.66-1.76,.5-2.94,.92,1.69,1.86-.93,.16-1.51,2.77-2.34,3.02-3.19,1.26-.41,3.02-4.78,.35,1.09,3.1-1.59-4.11,3.1-.85,2.02-3.1,1.94-2.34,2.93-1.69,2.77-1.34,1.76,.08,1.94-.42,2.52,.93,1.94,.17,1.17,.83,.35,1.26,.92,.75,.68,.25-1.18-1.18-2.67,1.51-2.52,.25-1.69,.6,2.27,1.84,1.43,.93,.16-.85-5.54,1.61,2.94,.33,4.36,1.76,.42,1.84-3.95,.75-1.42-1.42-1.69,1.76,.42-.17-3.62,.93-1.92-.85-1.26,.09-3.02,1,2.85,.66,.42,1.86-3.62,1.84-1.76-.08,.93-3.19,4.71-1.34,2.67,1.34,3.95,1.69-.33-.25-1.26-1.43-1.94,.08-1.18,1.69,2.27,.83,1.1,1.35,.92,.16,1.43,1,1.51,1.35-.08,.54-.71v.69l-.25,.13-.21,.31,.03,.41-.58-.16-1.18-.06-.71-.36-.33-1-.68-.25-.75-.33-1-.68-.38,.83-.13,.3-.54-.3-1.83,.98-.21,1.54,.33,.3-.88,.93,.22,.99-.08,3.07,.93,2.47-.04,.9-.08,.63-.3-.06-.3-.46-.17,.25,.39,.46-.17,.69-.33,.11-.6,.33-.04,1.38,1.23,.75,1.37,2.03-.21,.58,.73-.04,.25,.52,.66-.13,.38,.08,.17,.46,1.59,1,.08,.09,.04,.08,.68,.8,.35,1.04-.06,1.21-.74-.17-.09,.22,.68,.3,1.04,1.29,.19,1.38-.17,.6-.09,.36-.55,.38-.25,.9-.33,.42-1.59,.61-1.31,.85-.54,.83-.25,2.23-2.28,1.83,.17,2.33-.79,1.67,.11,.46-.31-.08,.11,1.04-1.67,1.48-1.02,1.86-1.62,1.07-.75,2.91-1.4,2.06-.31,1.42,.58,1.56,.23,1.31,.38,.25,.73,2.3-.08,.8-.58,.38-.44-.22-.16,.25-1.04-1.26-.25-1.97,.49-.21-1.09-2.85-1.26,.56-.6-.11-.38,.41-.61,1.27,.23,.58-.41,1.92,.09,1.18,1.09,2.19-.02,.8,2.06,2.39,.73,.33,.3,.99,.99,.52,.35,1.06-.21,.5,.56,.33-.23,.8,1.12,.41-.33,.58,.55,1-.8,.52,.17,1.42,1.42,1.29,1.83,.55,.28-.21-.79-.13-.17-.8,.11-.88,.5-.68-1.21-1.12-.28-2.31-1.23-3.4,.98-1.64,2.55-1.18,.63,.22h1.13l.47,1.26,2.3,.55,1.1,1.37,2.25,1.35,.85,2.17,.83,.3,.02,.5,.88,.73,3.78,2.02,.99-.73-.03-.5,.23,.25,.3-.68-.03-.5-.5-.3,.49-2.46-.5-.31,.35-.25-.28-.87,.74,.17,.17-.47v-.88l-.41-.58-.25-.52-.06-.79-.49-.66-.27-.63,.3-.31,1.61,1.48,2.06,.98,1.38,.41,.36,.85,.9,.31,.03,.9,.6,.68,.66,.25,.54-.65-.08,.55,.39,.04,.06,.49,.44,.19,.19-.52-.5-.21,.52-.17v-1.21l.61,.35,.27,.82,.55,.47,1.21,.04,1.43-.21,.66-.75,3.78-1.57,.13-.44,.55-.63,1.09-.75,.75-.13,.22,.21,.71-.02,.38-.23,1.09,.17,.35,.13,.33,.38,.58-.04,.75-.83,.42-.31,1.34-1.45,.54-.52,.35-.33,.55-.33,.55-.21,.69-.13,1.07-.14,.49-.08,.39-.58,.19-.39,1-.83,1.19,.04,.56-.3,1.32,.13,2.04,.02,1.13,.06,.54,.35,.27-.04,.99-.68,.85,.04,.5-.3,.6-.58,.44-.38-.19-.58,.79-1.48-.88-.61,.08-.33,2.94,.25,.71-.55-.11-.55,.82-.5,.56,.03,.33-.88,1.09-.74,.35-.77,.46-.21,.04-.66,1.29-.17,1.67-1.42,.93-.3,.42-.85,.21-.75,.55-1.04,1.1-.13,.06-1.15,.56-.13-1.07-.71,.63-.13,.55-1.17,1.13-.73,.46-1.17,1.23-.27,1-1.59,1.38-.38h.92l.47,.6,.66-.04,1.31-.98-.28-.33,.5-.46-.46-.98,.41-.61,.6,.17,1.64-1.4,.94,.25,1.13-.92,.17-.9,1.09-.44-1.46-.35-.03-.79-.83-1.1,.16-.73-.5-1.83-1.48-1.35-.03-1.29-.83-.93,.25-.46-.5,.16-.35-.33,.33-.6,.68-.23,2.15,.33-.42-.6,.92-.66v-.65l1.61-1.64-.27-.74,.75-.17,.17-.85,.83-.03,.35-1.21,.71-.13-.03-1.65,1.62-1-1.09-1.75-.13-.75-.25-1.06-.23,.3-.06-.42-.38,.13-.71-.47-.41-1.84-1.1,.08-1.5-.94-1.1,.5-2.19-.35-1.12-.79-.82-.68-.31-.85-.5,.08-.8-.96h-.6l-1.46-.99-.16-.09-.75,.09-.31,.46-.69-.85-.14,.73-.58,.08-.41-.5,.49,.13,.13-.55,.27,.39-.25-.5,.28-.39-.98-.54-.19-.8-1.02-.66-4.91-.25-.79,1.21-.85,.17-.88,.74-.33,.46-.17,.69-.11,.61-.06,.58-.16,.17-1.56,.14-1.24,1.21h-1.13l-.09,.21-.85,.09-1.19-.56-.88-.83-.14-.16-.99-.96-.5,.61-.63-.03v.03l-.27-.41-.75,.3-.13-.04-.28-.13-.6-.33-.5-.5-.41-.06-1.15-.08-1.17,.63-.79-.17,.06-.25-.38,.17-.28-.04-2.48-.69-2.47-.85-1.09-.66-1-.31-.68,.02-.42-.14-.16-.06-.33-.56-.5-.79-1.09-.68-1-1.69,1.26,1.31,.69,.38,1.57,1.64,1.75,.08,.68,.09h.41l.47,.28,.46,.04,.52,.04,.79-.09,.5,.42,1.31,.25,.21,.55,.41,.13-.21-.17,.33-.13,.8,.39,.65,.61,.11-.92-.08-.13,.58-.02,.46-.03,.55-.73,.52,.31,.87-1.06,.35,.16-.02-.33,.5-.13,.52-.09,.46,.39,.6-.55,1.32,.09,.82-3.04,.79-.17,.3-.31,2.14-2.19,.61-.22,.27-.16,.66-.8-.55-.28,.55,.11,.75-.71,.88-.42,1.56,.38,.55,.5-.22,.27h.47l-.09,.33,.93,.21,.63-.33,.17,.36,.96-.96,2.11-.74,2.08-1.52,.52-.8,.83-.33,.54-.87-1.37-.75-.93-1.43h-.6l-.28-.42-2.69-.41-.87-.63-.42-1.26-.09-.69,1.13-2.71,1.26-1.07-2.77-.25h-1.37l-1.18,.04-2.11,1.65-1.51,.25-.75,.69-5.02,2.57-.9,.46-1.87-.16,.49-.25-.04-.25,1.51-.58,.77,.04,3.35-1.89,1-.25,.33-.93,.93-.75,.33-.33h.42l1-.3,.42-.21,.42-.22h.03l1.38-.42,1.38,.3,.96-.63,1.34-.35,1.83,.93,.58-1.71,.83-.6,.04,.04,1.54-1.17,.96-1.27,2.08-.92v-.5l.5-.28,.11-.63,1.15-1.56-.06-.39-.58-.11-.28-1.18,.87-1.09,.44,.04,.61-.63,.35-1.1-.58-.08,.08-.09,.92-2.72,.73-1.04h.75l.54-.73,1.27-.8,.82-1.42,.38-.13,.06-.88,.38,.08,.88-1,.61-1.17-.11-.6,.61-.79-.11-2.19,.28-.09-.55-.93,.96-.66,.5-2.14,2.08-2.74,.21-.99,.17-.38h.03l.16-.33,.39-.06,.23-.23,.14-.25,.5-.35,.16-.71v-.58l-.23-.3-.06-.09-.19-.21-.39-.46-.04-.5-.28-.16-.3-.38,.08-.31,.38-1.62,2.11-5.18-.13-.75,.21,.52,2.31-3.07,1.04-.85,.5-.49-.21-.58,.47-.88,.3,.36,.69-.96-.13-.42,1.26-1.76,.04-.42-.61-.5,.38-.44-.25-.52,.63-.3-.04,.52,.16-.52-.92-.58-.21-2.14-.65-.63,.04-2.47-1.86-1.43-.11,.22-.88-2.22-.65-.31-.33,.31-1.21-.31-.22-.99-1.19,.38-.42-.33-1.81-.19-2.14,1.64-.63-.46h-1.54l-.98-.93-.88,.55,.04,.47-.6,.42-.49-.35-1.02,.42-.92-.33-.58,.28-1.48-.22-.68,1.02-.03-.9h-.93l-.63-.69-.28,.28-1.61-.16-.85-.56-.49,.39-.88-.55-.77,.6-.5-.68-.61,.08-.47-.42-.38,.17-.61,.22-.55-.31-.04-.44-.85,.03-1.34,.42-.3,.58-2.58,1.23-2.39-.69-.19,.22,.02-.28-1.98-.65-2.93-1.59,.23,.47-.5-.56,.13-.38-.71,.19-1.17-.25-2.85,.66-.6,.42-1.17-.04,.25,.46-.25,.93-.94,.79-2.83,.02,1.12,.92,.14,.58-.27,.3-.93-.42-.08-.36,.14-.58-.69-.44-2.13,.39-.22,.16,.96-.21-.38,.54-1.19,.6,.63-.5-.35-.03-.88,.75-1.06,.36-.92,.88,1.46-.96-.63,.83-2.06,1.06-1.87,.16-2.15-1,1.46,.85-.49,.13-1.18-.88-.16,.46-1.23,.08-.55,.42,.85,.35,.17,.93-1.86,1.32-.35,1.06-1.04-.17-.08,.94-.88,.87-.42,.04-.85-.71-.46,.03-1.54,.73-1.23-.22-1.34,.25-1.06-1,1.15,.08,1.32,.09,2.79-.22,1.29-1.97,.17-.46,.42-1.1,1.04-.61,1.46,.25-.63-.9,.35-.96,3.05-3.26,.02-.25-1.13-.25-1.43,.96-1.56-.21-.55-.52-2.02,.3h-.28l-.09,.13-.28,.16-.54,.5-.73,.55-.21,.27-1.02,.71-1.29,.96-.75,.73,2.06-3.02,1.62-.6,.13-.68,2.11-.87,1.35,.21,1.75-1.46,1.21-.04,.94,1.38,.94,.21,1-1.21,1.57-2.65,3.59-4.38,.82-1.71-1.38,.38-.38,1.18-1.02,.75-1.31-.5-1.76-.63-1.84,.99-2.25-.74-1.57,.25-1.12-1.21-2.52,.19-1.4-1.5,1.64,.96,2.58-.33,3.34,1,1.57-.04,.31-2.47,.5-.63-.36-1.48,.68-2.09,4.14-1.79,.9-2.44,2.17-.88,7.05-5.54,2.8-4,1-1.34,4.67-1.84,3.35-3.57,1.46-3.87,.35-1.97-2.22-.16-.13-2.19,1.38-1.64,.36-2.34,.85-.33,.58-2.52-3.82,.33-.92-1.27-1.09,.39-2.39,.49-.94-.23-.94-1.43-.02-.06Zm-83.16,5.69l-.44,.38,.31,.56-.94,.74-.88,.22-.55,.83-4.33,3.19-.85-.04-.87,1.69-2.15,1.09-.88-.54-1.19,1.21-1.32,.36-2.13,.88-.63,.94,1.5,.36-1.17,.47,.79,2.19,1.02,1.19,.08,.44-.58-.27v.73l.74,.04,.77,.61-.98,.83-.68-.99-1.89-.98-1.09,.38-.46,.21,.17,.8-.55,.65-.09-1.35-1.17-.03-.63-.9,1.06-.13,.21-.71-.75-.08-.41-.93-.55,.66-1.23-.87-.16-.58-.98,1.64-.13,.99,.46,.39,.52,.13-.68,.99-.21-.83-.9-.28-.61,.28,.36,1.35-.83,.99-.8,.77,.98,2.75,.73,.77,1.19-.65,.35,.38-1,.75-.28,.83,.82,.35-.38,.5-.49,.73-.58-.31-.47,.93-.66,.3,.31,.38,.39-.42,.21,1.56,.63-.16,.98,1.09h1.29l1.64,.71,1.26,.8,.54,.5,.04,1.06-.66-.04-1.43-.52-.79,.44-.14,.66,.73,.66-.21,.25h-.44l-.92,.27-.41-.27-.39,1.06-.92,.73-1.06,.58-.42-.46-.61-.5-.82,.17,.3,1.17,1.02,.6,1.13,1.84,1.75,2.69,1-.77,1.31-1.18,.73-.94,.28-.65,.63-.46,.33-.58,.5,.3,.75,.36,.09-1.5,1,.44,.74,.13-.06-.87-.47-.58-.41-.9-.85-.36,.28-.69-.21-.69h.93l1.23,.94,1.7,.13,.09-.88-1.21-.96,1.06-.38-1.57-3.73,2.48,4.15,1.18,.08,.74,.08,.85-.06,.38-.6,.66,.08,.85-.66,.46,.13,.27-1.1,.58-.21,.03-1.29-3.82-1.07,4.3-.46,1.42,.93,.71-.85,.31-1.38-2.36-.44,1.86-.3,.38-.9-.27-1.04-.71-.33-.88,.33-.93-.42-.55,.35-2.63-.33,3.27-.65,.87-.99,1.02-.38,.92,.23,.09-.79-.6-.25,.52-.27-.31-1.57,.73-.52,.66,.08,.65-.61h.88l.96,1.31,1.06-.19,.5-.79,1.12-.83,.98-2.14-.71-.5-.85,.87-1.12,1.23-.73,.13-.79,.6-.65-.25-.92-.73-.73,.46-.71-.38,.5-.68,1.31-.28,.11-1.42,.82-.06,.66-1.24,.83,.04,1.4-2.27,1.07-.17-.88-.83-.46-.82,.75-2.02,.65-.46-.09-.88-.33-.87,.17-1.13-.77-.69-.25-1.13-1.31-.88h.03Zm-18.89,12.89l.39,1.84,.54,.06-.66,.28,.25,.58,1.18-.16,1.19,.54v-1.04l-1.34-.9-.36-.99-1.19-.22h0Zm13.69,8.99l-1.18,.46,1.26,.21-.08-.66h0Zm-21.69,2.61l-1.26,.58,.54,.87,.79,.13,.27,.47,.66-.66-.28-1.06-.71-.33h0Zm49.86,3.43l-.35,1,.66,.33,.5-.3-.61-.25,.21-.54-.41-.25h0Zm-46.38,3.41l-.98,.04-.8,.99h-.92l.08,.85,1.31-.58,.66,.54,.77-.93-.13-.92h.01Zm8.51,2.94l-.25,.71,1.1,.73,.87-.19-.46-.87-1.26-.38h0Zm-15.66,3.35l-1.38,.66,.93,.82,1.18-.65-.73-.83h0Zm1.64,2.86l-1.24,.21-.93,1.51,1.06,.21,1.12-.66,.46-.8-.46-.46h0Zm-4.71,2.04l-.87,.58v.6l-.65,.33-.33,.71-.41,1.06-.65-.33-1.12-1.31h-1.51l.21,.25-.47,1.26-.66,1.23-.79,.08,.99,1.24,.73,.8,1.38,.17,1.5,2.65-.06,1.48,.71-.13,.61-.85,.39,.93,.79,.66,.77,.33,1.51,.56,.54-.25-.85-1.31-.21-.65,1.06,.13,1.56,.39,.66-1.51v-.93l-.92-.21-3.87-.04,3.27-.46,1.38,.33,.58-.28,.47-1.43-1.38,.08-.08-.8v-.58l-.98-.33,.14-.65-.52-.61,.52-.5,.71-.65,.33-.82-.92-1.02-.85,.38-.54,.73-.85,.33,.6,.66-.6,.44-.85,.21-.25-.46-.79-.27,.04-.58,.41-.93,.08-.71h0Zm-3.09,1.18l-.27,.39,.65,.49,.71-.79-1.09-.09h0Zm31.18,.15l-.08,1.43-.77,.87-.93,.14-.66,.99,.73,1.71,.13,1.23h.87l-.54,1.38-.65,.33,.6,1.18-.08,.93-.6-.46-.38,.99-.8,.65,.06-1.1-1.06,.79-2.23-2.83-.79-2.23-1.64-1.13-.8,3.05,.8,.44,1.89,2.09-.13,.74-.77-.74-1.38-.04,.39,2.44,1.12,1.64-.33,.46-.66-.98-.52,.31-.74-1.18-1.56-3.23-1,.58,.47,2.57-1.57-.17-.28,1.76,1.26,.41,.25,1.38-.38,.38,.58,.85,.65,.08,1.92,1.1,1.34,1.21,.71-.35-.13-2.5,1.18-.77,.33,1.56,.98-1.43,.33,1.31,.35,2.04,1.69-.54,.36,1.13-1.59,.21-.98,.71-.33,1.18,.5,.35,2.98,5.59,1.7-.8-.85,2.13,3.23-.41h1.13l.13-1.1,1.51,.31,.21,3.1,.73,.38,1.64-2.69,.08-2.42,1.02,1.57,.28,1.51,2.48-.06-2.03,1.76-1.18,2.33-1.07,1.83,.33,2.46,2.31-.82,1.38-1.43,1.84-2.57,1.18-.25,.33-2.19-.13-1.06,1.12,.39,2.77-1.71,.52-1.76v-1.57l-1.59-.08-.77-.54-3.63,1.51h-1.18l-.6-1.23-1.97-.33-.73-1.06-1.71,.85,1-1.38-.28-1.06-1.64-.33,.04-1.18-.85-1.84,.66-.98-.33-.8-1.89,.39,.17-1.06,1.46-.58,.46-5.29,.39-3.48-1.51-2.77-1.13-.25-1.1-2.96-1.06-.66-.99-.33h0Zm-22.17,1l-.41,.16,.09,.47-1.13-.27-.55,.52v.46l.13,.5,.71,.16,.71-.31-.16,.58,.61,.75,1.27-1.78-.42-.38-.5,.06-.35-.93h0Zm32.91,6.38l-1.06,2.82,.65,.93,.87-2.9s-.46-.85-.46-.85Zm-36.14,2.11l.13,.54,.14,.42-.14,.71,.42,.16,.58-.56-.38-.42,.33-.33-.23-.47-.85-.03h0Zm-4.23,.16l-1.23,.28-.11,.68-.9,.14-.11,.56,.04,.68,.31,1.38,2.77,1.64,.9,.13,.68-.23,.41-.27,.92-.33,.14-.58-.39-.52-.99-.23,.11,.55-1.04-.55,.42-.73,.5,.13,.83,.08,.3-.36,.41-.25-1.17-.8-.73-.22-.88-.28-1.21-.88h.02Zm39.44,2.06l-1.19,.74,.33,1.26-.17,.5-.93-.25-.99,2.31-.06,3.75,.73,1.31,1.97-1.45-.66-1.51-.21-2.58,1.51-3.15-.31-.93h0Zm-41.03,2.34l-.04,.63-1.56,.73,.75,2.21-.03,2.52-.83,.63-.35,2.03-.96,.66,.63,.35,.41,5.71,.3,.23-.09,.71,.63,.75,1.57,.04,.63-.33,2.02,.92,.16-.54,.47-.68-.38-.49-.55,.25,.04-.68-.88-.52-1.57,.22-.36-.35,.03-.61,1.15-.14,1,.44,.83-.75-.13-.94-.47-.58,.21-.75-.25-.38-.61-.21-.09-.54,.85,.11,.79-1.26-.13-.61,.8-1.02,.73-.04,.41-.87-.09-.39-.66,.04-.22-1.18-.74-.36,.74-.52-.94-.56,.79-.17-1.69-1.18,.88-.16-1.34-.68,1.04-.25-.88-.27-2-1.17v-.02Zm5.67,.66l-.9,.17-.46,.68,1.21-.03,.14-.82h0Zm34.57,6.94l-.66,1.12,1.07,1.32h1.64l.19-1.06-1.18-1.18-1.06-.21h0Zm-7.05,8.39l-1.29,.75,1.29,1.21,.42-.8,.49-.28,.27-.46-.38-.38-.8-.04h0Zm-31.19,2.05l-1.34,.09-.03,1.48,.5,.5,.42-.5,.44-1.57h0Zm-5.92,1.31l-.03,1.81-.83,.68-1.4-.08,.52,1.37h-.5l.03,.71-.88,.17-.38,.73,1.43,.79,.33-.75,.35,.09,.25,.58,.93,.09,.61-.31-.41-.38,.5-.21,.25-.63,.42-.08-.13-.73-.5-.69,.94-.04-1.21-1.09,.58-.42,.22-.6-.54-.36-.04-.6-.52-.04h0Zm2.21,0l-.56,.93,.56,.08,.46-.46-.46-.55h0Zm25.12,1.23l-1.79,.49-.03,.94,.83,.21,1.21-.52,1.29,.9,.63-.68-.41-.92s-1.73-.42-1.73-.42Zm-24.17,1.26l-.33,.13,.77,.66,.16-.41-.6-.38Zm30.74,.03l-1.52,.33-2.09,1.64,.08,1.4,1.76,1.43,1.18,1.84,1.59,.11,.94-1.51,.5-2.25-.44-1.35-2-1.64h0Zm-32.12,.95l-.33,.17,.09,.68,.49,.16,.04-.61-.3-.39h0Zm-5.57,2.33l-.21,.75,.92,.36-.17,.38-.49-.11,.5,.74,1.31-.49-.8-.19,.3-.36h1.12l-1.56-.47,.13-.33-1.04-.28h0Zm1.54,2.71l-.74,.19,.5,1.04,.79-.41-.55-.82h0Zm41.44,.55l-1.15,.33,.39,.75-.9,.19-.54,1.45,.92,1,1.35,.35,.68-2.44-.75-1.64h0Zm-45.17,3.12l-.93,.3-.36,1.13,.66,.44,.6-.44,.23-.8-.21-.63h0Zm41.93,1.71l-1.06,.25h-.41l.28,.8,.9,.74,.88-.82-.6-.98h0Zm-42.76,.46l-.46,.22,.63,.33,.8-.17-.98-.38h0Zm34.17,7.78l-2.02,1.42-1.09,.93-1.26,1.26-1.69,1.09-1.84,2.02h1.26l1.17-.83,1.18,.33,1.69-.83,1-1.76,.66,.17,1.76-2.61,.35-.92-1.18-.25h0Zm10.07,2.51l-2.19,1.17,.68,2.36-1.94-1.26-2.02,.33,1,1.59-1.59,1.18,1.18,1.76,2.09-.17,2.52,1.94,.42,1.18,3.61-1.26,.33,1.09-1.76,1.43-2.34,.16-.93,2.19-1.51,1.26,.35,1.09,1.17-.08,3.02-.42,1.43-.75,.17,.93-1.76,1-3.37,.83-2.52-.41,.25,1.34-1.09-.17,.33-.5-.92-.75-1.61-.25-.75,1.26,.6,.93,.5,1.84,1.84,.5,.68-1,3.1,.17,.58-.58,1.61-.25,.83,.58,1.94-1.51,1.84-.33,1.69-1.35,.92,.35-1.42,1.42,1.76,.85,3.94-2.86,.17-.75-.83-.16-1.76,.5,1.34-1.43-.08-.68,1-.08-.17,.83,1.09,.75,.85-.66-.09-1.18,.35-.42-.17-1.51-1.43-1.17-1.84-1.1-2.02-1.26-2.34-.41-1.35-.5-.16-.75-.75-2.69-1.26-1.69-.75-1.17-1.35-1-1.09-.25v-.02Zm-18.55,4.53l-1,.58-1.59,.08-1.59,.6-2.27-.35-1.1,1.1,.17,3.02,.75-.42,1,1.09,.93-.16,.66-2.19,1.86,.33,.83-2.09,1,.25,1.09-1.18-.75-.66h0Zm40.16,1.94l-1.23,.21-1.42,2.22-1.89,.85-.79,2.04,2.8-1.79,2.52-3.52Zm-24.35,2.04l-.71,.28-.92-.13-.82-.06-.16,.96,2.09,.75,1.76,.16,.85,.08,.03-.88-.99-.19-1.15-.98h0Zm21.83,5.39l-.79,.71-1.1,.11-.66,1.52,.75,.5,2.08-2.66s-.28-.19-.28-.19ZM218.34,2.99l-.2,.19,.06,.26-.28,.33-.35,.08,.06,1.01-.22,.77,.17,.44-.35,.08,.13,.77,.33,.35,.39-.44,.6,.31,.31-.17-.39-.37,.27-.79,.36-.47-.58-.15,.65-.06-.37-.73,.5,.17,.09-.47-.15-.25,.35-.21-.44-.49-.28,.12-.06-.25-.38,.91h-.26l.09-.69-.1-.28h.01Zm-2.22,2.8l-.67,.21-.08,2.47-.2,.11-.08-.91-.43,.69-.02,1.35,.3,1.35,.43,.9,.33,.02-.11-.26,.02-.44,.64,.46,.41,.03,.02-.97-.2-.49,.37-.04,.16-.63-.38-.33-.2-.28,.3-.41-.11-.52,.5,.06-.06-1.11-.13-.94-.8-.3h-.01Zm2.52,2.47l-.36,.25-.1-.22h-.46l-.09,.33,.11,.35,.63,1.04,.42-.23-.49-.52,.47-.13,.16,.3,.2-.13,.28,.45,.47-.83-.19-.33-.23,.17-.08,.22-.25-.59-.49-.11h0Zm-5.46,.16l-.33,.04,.03,.55-.41-.08-.55-.17-.13,.33-.03,.63-.59,.6v.42l-.33-.04-.13-.5-.38,.33-.35,.84h-.25l-.22,.47,.05,.33,.67-.09,.55-.04,.33,.43,.39-.6,.17,.97,.33,.97,.5,.13,.17-.5,.46-.76-.17-1.69-.26-.13v-.38l.6-.22-.3-.71,.33-.33-.17-.8h0Zm3.86,.13l-.2,.49,.19,.06,.39-.36-.38-.19h0Zm-3.85,3.07l.1,.35,.22-.24-.31-.11h0Zm1.1,.11l-.37,.35-.3-.2-.14,.41,.22,.61-.41,.1-.35,.71-.27,.38h-.46l.06,.24,.17,.15,.33-.25,.19,.25-.2,.28h.71l.31,.5-.71-.15-.02,.46-.27-.16-.18,.64,.56,.33-.52,.45-.26-.52-.3-.33-.52,.04,.19,.3-.41,.04-.41-.33-.38,.3-.15,.38-.64-.33-.9,.03-.3,.49,.22,.83,.41,.63,.52,.27,.56-.41,.08,.67,.41-.6,.33-.11-.03,.45-.45,.26-.08,.45h.33l.16,.41,.56,.49,.18-1.23,.27,.67,.22-.22v-.86l.15,.22,.33-.22,.33,.08,.45-.82v2.58l.41,.85-.6,2.21-.33,.56-.33,1.23-.22,.79,.49,.41h.33l.52,.93,.08-.75-.19-.85,.33-1.01-.18-.79,.82,.3-.15-.71-.11-.67,.37-.52-.26-.97,.33-.75,.6-.6v-.94l-.86,.27,.49-1.16-.33-.11-.11-.6v-.3l.45,.56,.26-.15,.41-.37-.45-.19,.15-.49,.49-.19,.11-.56-.71-.08-.22,.08-.22-.67,.64,.11,.67-.33-.04-.71-.67,.3v-.52l-.37,.11-.08-.33-.82-.22,.56-.33,.11-.52-.33-.6-.27-.36,.02-.02Zm2.14,1.01l-.51,.79-.27-.32-.12,.37,.2,.2,.44-.08,.41-.79s-.15-.17-.15-.17Zm1.85,1.57l-.28,.07-.44,.04-.66,.86-.09,.39h.6l.76-1.04,.11-.31h0Zm-6.45,.07l-.52,.41,.5,.58,.52-.17-.05-.58-.45-.25Zm-3.72,1.01l.21,.55,.63-.04,.04-.43-.88-.08h0Zm3.19,.05l.04,.49,.5-.13-.55-.36h0Zm.92,0l-.1,.3,.2,.04,.21-.28-.31-.05h0Zm3.94,3.68l-.52,.21v.49l.13,.98,.56,.44,.31-1.59-.49-.53h0Zm.99,.84l-.41,.15,.19,.36,.3-.17-.08-.33Zm-3.68,.73l-.19,.31-.31,.13,.19,.25-.35,.56-.13,.85,.5-.7-.02,.58,.46-1.59-.15-.39h0Zm1.27,1.96l-.03,.22,.37,.04-.33-.27h0Zm-13.92,21.47l-.6,.16-.2,.55,.35,.35,.26-.16-.07-.36,.33-.22-.07-.31h0Zm-6.34,.02l-.38,1.51,.51-.03-.03-.76,.16-.46-.26-.26h0Zm-.99,.55l-.2,.45-.35,.45-.36,.11-.49-.2,.45,.61,.03,.68,.68,.54,.31-.38-.16-.39,.7,.35,.3,.55-.03,.64,.64-.49-.47-.61-.09-.42-.65-.42-.58-.32,.28-.19,.26-.64-.28-.33h0Zm6.84,1.32l-.41,.13-.1,.45-.9,.39-.59,.31,.03-.5,.17-.03,.31-.49-.22-.03-.45,.35-.41-.13,.28,.55-.13,.28-1.18,1.32,.22,.49,.74-1.1,.3,.03,.26-.16,.03,.36,.58-.33,.26,.22,.26-.7,.45-.45,.64,.06-.2-.64,.06-.38h.02Zm-4.34,1.61l-.31,.26,.02,1.09-.25,.17-.28-.19,.03,.53,.31,.33,.13,.41,.64-.19-.3-1.09,.26-.65-.26-.67h0Zm-3.98,1.16l-.55,.47,.36,.65,.76,.67,.8-.22-.11-.8,.3-.22-.19-.19-.39,.09-.42,.06-.31-.41-.26-.1h0Zm1.7,.81l.28,.9,.13-.86-.41-.03h0Zm3.86,.18l-.52,.1,.58,.9-.49,.26-.35,.71,.49,.13,.03-.49,.38-.1,.22,.52h.22l.26-.2,.32,.2,.2-.42-.33-.32,.13-.39-.61,.2-.16-.39,.26-.26-.55-.13-.08-.32h0Zm-7.11,.1l-1.67,.49-.3,.74v.93l-.06,.35-.13,1-.07,.61,.67,.77,.49-.24,.22-.41,.36,.88,.52,.76,.8-.02,.28-.3,.55-.22,.86-.58h.23l.22,1.03,.35,.71,.32-.11-.03,.39-.3,.22,.03,.3-.26-.1-.41,.28,.41,.19-.26,.33-.57-.11-.26,.22,.54,.2-.45,.19,.42,.55-.1,.74,.35,.49,.51-.07,.11-.49-.26-.35,.22-.55,.45-.64-.22-.45-.33-.13,.78-.13-.22-.51,.06-.39v-.28l.67,.53,.49-.79,.41-.13,.52-.2,.1-.58,.03-.57-1.26,.51,.22,.31,.07,.26-.2,.13-.39-.07-.08-.55-.03-.41,.64-.07-.13-.67-.47,.13-.61,.58-.42-.19,.3-.9-.43-.13-.41,.58-.45-.52-.67,.3-.67-.26,.22-.32,.28-.03,.03-.58,.71,.16,.1-.83-.71-.61,.22-.22-.49-.41-.25,.06-1.23-.8h0Zm4.73,1.65l-.36,.36-.12,.31-.55-.45-.26,1.16,1.12,.22,.26-.16-.03-.6,.3-.77-.35-.07h0Zm-6.78,3.76l-.55,.26-.45,1.22,.6,.13,.36,.93,.53,1.26,1.1,.2-.38-.49,.5-.41,.55-.39-.45-.45-.12-.55v-.31l-.84-.68-.33-.09-.09-.41-.45-.2h0Zm2.86,2.22l-.22,.26,.03,.25,.39,.07,.36,.03-.07-.26-.19-.17,.35-.19h-.64Zm-.42,.96l-.54,.03-.03,.45,.22,.13,.74-.19-.39-.43h0Zm-101.31,125.08l-1.34,.17-.75,1.17,1,.68,1.09-2.02Zm.13,2.52l-.46,.88,.5,.28,.41-.82-.46-.35h0Zm23.15,.13l-1.07,1.42,.46,.9,.42,.68,.69-.73-.38-.75,.47-.13,.22-1.21-.82-.17h0Zm-.75,3.02l-.49,.5-.42,2.19,.8,1.5,.5-3.02-.3-.41-.09-.75h0Zm.77,.17l-.27,.38,.31,.42,.19-.44s-.23-.36-.23-.36Zm-.04,2l-.25,1.19,.16,.5,.6-.47,.04-.83-.55-.39h0Zm-2.72,.06l-.58,.69,.5,.39,.44,.08-.36-1.17h0Zm-.04,1.42l-.96,.6-.63,.94,.8,.47,1.32-.22,.02-1.38-.55-.41h0Zm-.33,2.69l-1.02,.42-2.13,1.57-2.91,2.33-1.79,1.45-1.79,3.29,1.83,.83-.88,.41-1.07,.02-1.26,.63-1.76,2.65,.19,3.52,.47,1.18,1.79,.71,1.19,.17,.79-1.69,.28-2.09,.73-.3,.55-1.06h.63l-.21,.47,.5-.5,.25-1.32,.71-1.42,.17-1.61,.63-.19,1.38-2.21,3.23-5.19-.13-.98-.38-1.12v.02Zm-13.8,.08l-1.26,1.06-.44,.46-1.19,.38-.56,1.56-.94,1.46,.56,1.18,.31,1,1-.88,.5-.25,.88-1.76,.31-.93,1.45-2.65-.63-.63h.01Zm0,10.88l-2.27,.38-2.71,2.52-1.32,2.65-.56-.25,.44-2.57-1,.13-1.07,1.06-1.38-.04-.56,.8-.13,1.89-.82,.88,.5,.63,.06,1.46-1.32,.88,.13,1.13-.94,.93,1.32,1.38,1.89-1.56,2.21-3.4,.31-1,2.83,.25-.19,.8-2.21,1.51-.31,1.09,.88,.25,1.26,3.07-1.26,.83-1.38,2.69,1.95,.88,1.32-.75,.75-1.76,.63-.04,.82,.17,2.33-.75,.63,.21,.75-1.26,1.26-1-.38-2.02-.82-1.26,.25-1.26-1.07-1.09-.38-2.57-.44-5.87h0Zm29.21,2.34l-1.19,1.13,1.57,2.9,1.13,.55,.19,3.65,1.32,.25,1.19,2.6,.88-.33-.63-1.31,.88-.75-.69-3.98-.88-.17-.88-1.13,.13-1-1.19-.88-1.83-1.51h0Zm.25,6.41l-.31,.88,.25,1.13,.69-.58-.63-1.43h0Zm7.71,1.21l-1.09,1.84v.77l.96-.58,.17,.49,.61-1.06-.11-1.45-.55-.02h0Zm-25.21,1.98l-.56,.58,.31,.68,.69-.8-.44-.46h0Zm14.48,1.47l-.94,.04-.28,.33,.35,.5-1-.17-.44,.9-1.13,.56-1.19,3.29,1.42,2.77,.28,1.06-.54,.88-.16,1.45,.87,.52,.46,1.94,1.76,1.42,1.57,.38,2-.47,.77,.27,.88-.71,.23-.65-.42-1.5,.52-.98-1.51-1.09,.41-.65,1.1-.63-.77-1.09-1.57-.74,1.04-1.23-.21-2.06-.63-1.94-1.18-1.34-1.67-1.09v.02Zm-15.36,.04l-.94,1.71,.38,1.38,1.38-2.27-.82-.83h0Z"/>
</svg>