<?xml version="1.0" encoding="UTF-8"?>
<svg id="svg2" xmlns="http://www.w3.org/2000/svg" viewBox="0 0 590.53 964.93">
  <defs>
    <style>
      .cls-1 {
        fill: none;
        stroke: #231f20;
        stroke-miterlimit: 1;
        stroke-width: .75px;
      }
    </style>
  </defs>
  <rect id="shetlands-orkneys-frame" class="cls-1" x="390.06" y=".38" width="180" height="275"/>
  <path id="seat-653" class="cls-1" d="M414.26,795.67h0l1-1.9,2.7,1.85,3.35-.8,1.25-1.7,1.15,.2,.6-.4-1.3-1.9-.35-2.5,1.3-.65,3.1,.25-.3-.7,.65-1.3-1.5-.6,.35-.7-.6-.15v-1.6l1.4-.7-.95-1-1.95-1.15-.7-1-1.15-.15-.7,.95,.35,1.35,1.3,.55,.3,1.7-2.55-1.2-1.05,1.25-1.45-.25-.3,.7-.9-.05-.15,1.9-3.05-.45-.15,.8,1.1,1.15-.3,.85-1.75-.75-1.45-1.9-1.05,.85v.9l.8,.3-.3,1.4,1.8,.6-1.65,1.55,.2,1.55,2.55,1.6,.35,1.25Z"/>
  <g id="g3214">
    <path id="scotland" class="cls-1" d="M544.83,10.69l-.88,.84,.25,1.16-1.25,1.5-1.53,.34,.25,4.5-1,3.44,.78,1.97-1.53,.34,.59,3.44,1.5,1.56,1.75-1.97,2.69,1.41,1.41-.78-1.75-1.66,1.22-3.5,1.62-2.09-2.59-.66,2.91-.25-1.66-3.25,2.25,.78,.41-2.09-.66-1.09,1.56-.94-1.97-2.16-1.25,.53-.25-1.09-1.69,4.06-1.16,.03,.41-3.12-.44-1.25Zm-284.12,5.19l-1.53,1.09-.59,2,3.59,2.75-.22,1.16-1.03,1.56-5.06-2.12-3.78,1.66-1.5-1.28,1-1.62-7.25-.09-3.62,2.66-4.12,2.25-5.62,.66-3.5-1.06-2.5,.75-1.03-3.53-1.47,1.09-3,3.19-3.34-.34-1.28,2-2.25-.75-1.88,2.34-1.25,.41-.19-1.44-4.56-.22-1.94,3-3.94,1,1.62-3.5-.12-2.34-1.56,.66,.31-1.41-3-2-4.88-.19-.38,4.03-1.5,2.5-1.25-.09-.66-3.69-2.84-.88-2.06-2.94-1.69-2.25-2.88,4.44-.03-3.78-6.84-1.91-3.47-1.69-.59,5.25-2.56,3.53-3.44,2.31-.31,4.75,1.62,1.03,1.62,.41-1.25,1.59-2.28,2.41,.41,1.25,1,1,1.28,.06,2.56,3.59-1.5,.31-2.47-2.38-2.88-2.12-.62,2.53-1.38,2.25,1,1.41-1.66,.41,.53,1.44,.06,1.75,1.31-.5,.38,1.75-.09,2.22,1.66,1.88,4.81,2.97-2.38,.09-2.75-2.25-1.62,.66-2.31,.78-2.69-.19-1.91-1.81-1.09,1.12,1.5,1.19-3.41,2.41-.47-1.75-1.03-1.34-1.22-.06-.84-1.5-1.53,3.5,1.88,3,1.5,1.09,.88,2.5,.75,1.75,3,1.75-2.72,.56,2.06,1.91-2.41,.03,1.59,1.06-.94,3-.59,1.69-1.88-1.75-1.25,.34-.75,2.06-1.5-4-1.94-1.31-1.69,1.66,.25,2.75,2,1.5-.81,1.34,1.69,1.06,2.38,1,1.5,1.84,1,3.25,4.59,2.41,2.66,.34-1.5,2.41,1.75,3.25-3.97-1.66-3.66,.66-3.25-3.31-2.59,.72,3.09,4.94-4.25-2.59-1.34,4.25-1.66,1.81-4.09-2.06-.94-5.34-3.31-.91-2.34,3.75,.44,3.34,2.25,1,1,1.66-.62,3,1,1.75-2-.75-.72,.94,1.22,2.31-3.88-3.56-.75-3.84,.31-3.34-4.5-.81-3.16,1.16-.91,11.91,3.25,2.16,3.72,.34,.16,1.75,.38,2.34-3.09-1.84-3.03,1-2.38,6.09,3.88,2.09,1.38,4.25,2.47,1.12,.78,2.78-4.28,.72-2.22-3.56-3.12-.69-2.5,11.44,.62,3.44,2.88,.16-1,4.91-.62,3.09,1.75,2.16,3.88-.75,6.94-4.09,.94,1.19-2.5,1.66,3,1.75,5.06-3.66,3.56-3,.12,2.16-5.5,5-3,.25-4.38,1.34-3,1.41-1.5,3.5,2.5,1,2.09-.44,2.41,1.19,3.88-.41,2.12-1.25,.88-.34-.75,2.5,6.25,5.19-2.5,1.97-5.25-6.66-3.25,1-3.25,.84-1.38,2.41,1.88,1.25-3,3.09-1.5,2.5,1.62,2.41,3.25-.09,3.25,3.78,3.84,1.47-1.59,1.69-3.22-1.41-4.44-3.69-4.34,1-4.88,5,3.41,4.25,2.09-.5,2,1.09-1.28,.97,.91,2.78,3.12,.25,5.72-1.28,.59,1.44-7.56,2-4.38-2.25-1.38-3.16-5.84,.84-.91,4.41-3.62,4.41,2.5,1.59-.62,1.16-1.75-.59-1.75,1.09-.09,1.5,1.97,.5,4.12-.66,5.06-.78,.66,1.19-3.47,2.09,3.12,1.5-1.75,.66-3.88,1.25-3-.5,.16,2.69,7.09,2.81-8.59-.09,.22,1.69,1.94,1.16,.06,2-1.81-.5,.31-1.41-1.12-.5-1.12,.91-2.88-3.66-3.62,1.16-4.25,.09-4.75,1.59-2.5,1.41-1.38,2,2.25,3.59,2.12,.66,2.62-1.09,2.5,.5,2,1.09,2.81,.06,.66,1.28,2.66-1.09,.25,.91,5.5,.25,3.75-2.66,1.75,.16-4.56,3.56-3.31,1.19,.12,1.34h-1.62l-.88-1.59-5.25,.59-.25,2.5,5.75,8.41,6.75,1.84,1.25,1.5,3.94,1.56,.81,1.59,8-5.66,4.53-6.78,8.09-5.97,4-4.09,3-.5,7.25-11.75,1.75-.5v1.34l-8.12,12.75,2.75,.66,1.28,.84-4.41,.66-1.38,1.94-1.38-.84-2.88,2.41,1.5,1.25-1.88,1.91-3.84,4.59,.84,1.09-1.19,.75-1.16-.25-.66,1.41,1.62,.75,2.25,1.94-2,1.25-2.12-1.75-1.5,1.06-1.5,3.31,.91,.88,1.91-1.84,1.19,1.75-.5,1.75,2.38,.16,1.25-.91,3.94,1.47,1.81-.22,1.38,1.5,2-.59,2.66-4.56,1.34-.59,2.31-3.03,1.25-2.62,.81-.28-2,3.75-2.91,4.75-2.56,3.19-2.34,1h-1.81l-1.34-1-2.5-1-1.34,.31-2.81-.16-4.19,.34-1.66,1.81v2.19l-2.34,1.81-1.5,4,3,1.34-2.16,.84-2.34-.84-1.66,3.5-.16,2.66-.69,3.84,2.84-.84,2.5-.5,1,.84-4.84,2.16,1.19,2-1.5,2.19-3.84,6.81,1.34,.19,1.66-2.5,3.34-3,.81,.66-4,7.34,.34,2.5-2.34,.81-2.5,5.34-5.5,7.84,1.5,1.66,1.69-4.34,2.16-1.31,1.5-3.19,2.66-1.16-.5,2-5,6.16-2.5,5.5,.5,2.19,6.5-5.34-3.31,5.66-1.5,2.5-1.84,6.34,2.84,2.16,.5,2.5,6.16-2.66-2.16,2.84-3.34,1.81-1.16,3.84-4,2.84,1,3-2.5,7.66-1.5,1.34,.16,4.81-1.34,11.19-1.5,.31-3.16,3.69-.34,5.81-.5,2.69,2.5,2,3-.5,5.19-.84,3.81-1.34,2.69-3.5v-4.5l-2.69-2.66,1.34-1.16,.84-4.34,2-1.16,.81-5,1.69-5.34,1.66,.5-.84-7,1.5-4.66,3.5-6.84,3.84-2.34,1.66-1.16-3.5-9-1.66-.66,.34-2.5-1.19-6.84-1.31-3.5,1-5.84,1.81,3.34,3.69-1.84,.31-3,5.5-4.66,6-6.34,2.5-.81,6-9.5,.69,2.16,6.16-3.16-8.16,6.16-1.69,4-6.16,3.84-4.66,5.81-3.34,5.5-2.66,3.5,.16,3.84-.84,5,1.84,3.84,.34,2.31,1.66,.69,2.5,1.81,1.5,1.34,.5-2.34-2.34-5.31,3-5,.5-3.34,1.19,4.5,3.66,2.84,1.84,.31-1.69-11,3.19,5.84,.66,8.66,3.5,.84,3.66-7.84,1.5-2.81-2.81-3.34,3.5,.84-.34-7.19,1.84-3.81-1.69-2.5,.19-6,2,5.66,1.31,.84,3.69-7.19,3.66-3.5-.16,1.84-6.34,9.34-2.66,5.31,2.66,7.84,3.34-.66-.5-2.5-2.84-3.84,.16-2.34,3.34,4.5,1.66,2.19,2.69,1.81,.31,2.84,2,3,2.69-.16,1.06-1.41v1.38l-.5,.25-.41,.62,.06,.81-1.16-.31-2.34-.12-1.41-.72-.66-2-1.34-.5-1.5-.66-2-1.34-.75,1.66-.25,.59-1.06-.59-3.62,1.94-.41,3.06,.66,.59-1.75,1.84,.44,1.97-.16,6.09,1.84,4.91-.09,1.78-.16,1.25-.59-.12-.59-.91-.34,.5,.78,.91-.34,1.38-.66,.22-1.19,.66-.09,2.75,2.44,1.5,2.72,4.03-.41,1.16,1.44-.09,.5,1.03,1.31-.25,.75,.16,.34,.91,3.16,2,.16,.19,.09,.16,1.34,1.59,.69,2.06-.12,2.41-1.47-.34-.19,.44,1.34,.59,2.06,2.56,.38,2.75-.34,1.19-.19,.72-1.09,.75-.5,1.78-.66,.84-3.16,1.22-2.59,1.69-1.06,1.66-.5,4.44-4.53,3.62,.34,4.62-1.56,3.31,.22,.91-.62-.16,.22,2.06-3.31,2.94-2.03,3.69-3.22,2.12-1.5,5.78-2.78,4.09-.62,2.81,1.16,3.09,.47,2.59,.75,.5,1.44,4.56-.16,1.59-1.16,.75-.88-.44-.31,.5-2.06-2.5-.5-3.91,.97-.41-2.16-5.66-2.5,1.12-1.19-.22-.75,.81-1.22,2.53,.47,1.16-.81,3.81,.19,2.34,2.16,4.34-.03,1.59,4.09,4.75,1.44,.66,.59,1.97,1.97,1.03,.69,2.09-.41,1,1.12,.66-.47,1.59,2.22,.81-.66,1.16,1.09,2-1.59,1.03,.34,2.81,2.81,2.56,3.62,1.09,.56-.41-1.56-.25-.34-1.59,.22-1.75,1-1.34-2.41-2.22-.56-4.59-2.44-6.75,1.94-3.25,5.06-2.34,1.25,.44h2.25l.94,2.5,4.56,1.09,2.19,2.72,4.47,2.69,1.69,4.31,1.66,.59,.03,1,1.75,1.44,7.5,4,1.97-1.44-.06-1,.47,.5,.59-1.34-.06-1-1-.59,.97-4.88-1-.62,.69-.5-.56-1.72,1.47,.34,.34-.94v-1.75l-.81-1.16-.5-1.03-.12-1.56-.97-1.31-.53-1.25,.59-.62,3.19,2.94,4.09,1.94,2.75,.81,.72,1.69,1.78,.62,.06,1.78,1.19,1.34,1.31,.5,1.06-1.28-.16,1.09,.78,.09,.12,.97,.88,.38,.38-1.03-1-.41,1.03-.34v-2.41l1.22,.69,.53,1.62,1.09,.94,2.41,.09,2.84-.41,1.31-1.5,7.5-3.12,.25-.88,1.09-1.25,2.16-1.5,1.5-.25,.44,.41,1.41-.03,.75-.47,2.16,.34,.69,.25,.66,.75,1.16-.09,1.5-1.66,.84-.62,2.66-2.88,1.06-1.03,.69-.66,1.09-.66,1.09-.41,1.38-.25,2.12-.28,.97-.16,.78-1.16,.38-.78,2-1.66,2.38,.09,1.12-.59,2.62,.25,4.06,.03,2.25,.12,1.06,.69,.53-.09,1.97-1.34,1.69,.09,1-.59,1.19-1.16,.88-.75-.38-1.16,1.56-2.94-1.75-1.22,.16-.66,5.84,.5,1.41-1.09-.22-1.09,1.62-1,1.12,.06,.66-1.75,2.16-1.47,.69-1.53,.91-.41,.09-1.31,2.56-.34,3.31-2.81,1.84-.59,.84-1.69,.41-1.5,1.09-2.06,2.19-.25,.12-2.28,1.12-.25-2.12-1.41,1.25-.25,1.09-2.31,2.25-1.44,.91-2.31,2.44-.53,2-3.16,2.75-.75h1.81l.94,1.19,1.31-.09,2.59-1.94-.56-.66,1-.91-.91-1.94,.81-1.22,1.19,.34,3.25-2.78,1.88,.5,2.25-1.81,.34-1.78,2.16-.88-2.91-.69-.06-1.56-1.66-2.19,.31-1.44-1-3.62-2.94-2.69-.06-2.56-1.66-1.84,.5-.91-1,.31-.69-.66,.66-1.19,1.34-.47,4.28,.66-.84-1.19,1.81-1.31v-1.28l3.19-3.25-.53-1.47,1.5-.34,.34-1.69,1.66-.06,.69-2.41,1.41-.25-.06-3.28,3.22-2-2.16-3.47-.25-1.5-.5-2.09-.47,.59-.12-.84-.75,.25-1.41-.94-.81-3.66-2.19,.16-2.97-1.88-2.19,1-4.34-.69-2.22-1.56-1.62-1.34-.62-1.69-1,.16-1.59-1.91h-1.19l-2.91-1.97-.31-.19-1.5,.19-.62,.91-1.38-1.69-.28,1.44-1.16,.16-.81-1,.97,.25,.25-1.09,.53,.78-.5-1,.56-.78-1.94-1.06-.38-1.59-2.03-1.31-9.75-.5-1.56,2.41-1.69,.34-1.75,1.47-.66,.91-.34,1.38-.22,1.22-.12,1.16-.31,.34-3.09,.28-2.47,2.41h-2.25l-.19,.41-1.69,.19-2.38-1.12-1.75-1.66-.28-.31-1.97-1.91-1,1.22-1.25-.06v.06l-.53-.81-1.5,.59-.25-.09-.56-.25-1.19-.66-1-1-.81-.12-2.28-.16-2.31,1.25-1.56-.34,.12-.5-.75,.34-.56-.09-4.94-1.38-4.91-1.69-2.16-1.31-2-.62-1.34,.03-.84-.28-.31-.12-.66-1.12-1-1.56-2.16-1.34-2-3.34,2.5,2.59,1.38,.75,3.12,3.25,3.47,.16,1.34,.19h.81l.94,.56,.91,.09,1.03,.09,1.56-.19,1,.84,2.59,.5,.41,1.09,.81,.25-.41-.34,.66-.25,1.59,.78,1.28,1.22,.22-1.81-.16-.25,1.16-.03,.91-.06,1.09-1.44,1.03,.62,1.72-2.09,.69,.31-.03-.66,1-.25,1.03-.19,.91,.78,1.19-1.09,2.62,.19,1.62-6.03,1.56-.34,.59-.62,4.25-4.34,1.22-.44,.53-.31,1.31-1.59-1.09-.56,1.09,.22,1.5-1.41,1.75-.84,3.09,.75,1.09,1-.44,.53h.94l-.19,.66,1.84,.41,1.25-.66,.34,.72,1.91-1.91,4.19-1.47,4.12-3.03,1.03-1.59,1.66-.66,1.06-1.72-2.72-1.5-1.84-2.84h-1.19l-.56-.84-5.34-.81-1.72-1.25-.84-2.5-.19-1.38,2.25-5.38,2.5-2.12-5.5-.5h-2.72l-2.34,.09-4.19,3.28-3,.5-1.5,1.38-9.97,5.09-1.78,.91-3.72-.31,.97-.5-.09-.5,3-1.16,1.53,.09,6.66-3.75,2-.5,.66-1.84,1.84-1.5,.66-.66h.84l2-.59,.84-.41,.84-.44h.06l2.75-.84,2.75,.59,1.91-1.25,2.66-.69,3.62,1.84,1.16-3.41,1.66-1.19,.09,.09,3.06-2.31,1.91-2.53,4.12-1.81v-1l1-.56,.22-1.25,2.28-3.09-.12-.78-1.16-.22-.56-2.34,1.72-2.16,.88,.09,1.22-1.25,.69-2.19-1.16-.16,.16-.19,1.81-5.41,1.44-2.06h1.5l1.06-1.44,2.53-1.59,1.62-2.81,.75-.25,.12-1.75,.75,.16,1.75-2,1.22-2.31-.22-1.19,1.22-1.56-.22-4.34,.56-.19-1.09-1.84,1.91-1.31,1-4.25,4.12-5.44,.41-1.97,.34-.75h.06l.31-.66,.78-.12,.47-.47,.28-.5,1-.69,.31-1.41v-1.16l-.47-.59-.12-.19-.38-.41-.78-.91-.09-1-.56-.31-.59-.75,.16-.62,.75-3.22,4.19-10.28-.25-1.5,.41,1.03,4.59-6.09,2.06-1.69,1-.97-.41-1.16,.94-1.75,.59,.72,1.38-1.91-.25-.84,2.5-3.5,.09-.84-1.22-1,.75-.88-.5-1.03,1.25-.59-.09,1.03,.31-1.03-1.81-1.16-.41-4.25-1.28-1.25,.09-4.91-3.69-2.84-.22,.44-1.75-4.41-1.28-.62-.66,.62-2.41-.62-.44-1.97-2.38,.75-.84-.66-3.59-.38-4.25,3.25-1.25-.91h-3.06l-1.94-1.84-1.75,1.09,.09,.94-1.19,.84-.97-.69-2.03,.84-1.81-.66-1.16,.56-2.94-.44-1.34,2.03-.06-1.78h-1.84l-1.25-1.38-.56,.56-3.19-.31-1.69-1.12-.97,.78-1.75-1.09-1.53,1.19-1-1.34-1.22,.16-.94-.84-.75,.34-1.22,.44-1.09-.62-.09-.88-1.69,.06-2.66,.84-.59,1.16-5.12,2.44-4.75-1.38-.38,.44,.03-.56-3.94-1.28-5.81-3.16,.47,.94-1-1.12,.25-.75-1.41,.38-2.31-.5-5.66,1.31-1.19,.84-2.31-.09,.5,.91-.5,1.84-1.88,1.56-5.62,.03,2.22,1.81,.28,1.16-.53,.59-1.84-.84-.16-.72,.28-1.16-1.38-.88-4.22,.78-.44,.31,1.91-.41-.75,1.06-2.38,1.19,1.25-1-.69-.06-1.75,1.5-2.09,.72-1.81,1.75,2.91-1.91-1.25,1.66-4.09,2.09-3.72,.31-4.28-2,2.91,1.69-.97,.25-2.34-1.75-.31,.91-2.44,.16-1.09,.84,1.69,.69,.34,1.84-3.69,2.62-.69,2.09-2.06-.34-.16,1.88-1.75,1.72-.84,.09-1.69-1.41-.91,.06-3.06,1.44-2.44-.44-2.66,.5-2.09-2,2.28,.16,2.62,.19,5.53-.44,2.56-3.91,.34-.91,.84-2.19,2.06-1.22,2.91,.5-1.25-1.78,.69-1.91,6.06-6.47,.03-.5-2.25-.5-2.84,1.91-3.09-.41-1.09-1.03-4,.59h-.56l-.19,.25-.56,.31-1.06,1-1.44,1.09-.41,.53-2.03,1.41-2.56,1.91-1.5,1.44,4.09-6,3.22-1.19,.25-1.34,4.19-1.72,2.69,.41,3.47-2.91,2.41-.09,1.88,2.75,1.88,.41,2-2.41,3.12-5.25,7.12-8.69,1.62-3.41-2.75,.75-.75,2.34-2.03,1.5-2.59-1-3.5-1.25-3.66,1.97-4.47-1.47-3.12,.5-2.22-2.41-5,.38-2.78-2.97,3.25,1.91,5.12-.66,6.62,2,3.12-.09,.62-4.91,1-1.25-.72-2.94,1.34-4.16,8.22-3.56,1.78-4.84,4.31-1.75,14-11,5.56-7.94,2-2.66,9.28-3.66,6.66-7.09,2.91-7.69,.69-3.91-4.41-.31-.25-4.34,2.75-3.25,.72-4.66,1.69-.66,1.16-5-7.59,.66-1.81-2.53-2.16,.78-4.75,.97-1.88-.47-1.88-2.84Zm274.25,7.25l-3,.94-.34,11-.91,.47-.38-4.06-1.91,3.06-.06,6.03,1.31,6,1.91,4,1.5,.06-.47-1.16,.06-1.94,2.84,2.03,1.84,.12,.06-4.31-.91-2.16,1.66-.19,.69-2.81-1.69-1.5-.91-1.28,1.34-1.81-.5-2.31,2.25,.25-.25-4.94-.59-4.19-3.56-1.31ZM95.58,27.19l-.88,.75,.62,1.12-1.88,1.47-1.75,.44-1.09,1.66-8.59,6.34-1.69-.09-1.72,3.34-4.28,2.16-1.75-1.06-2.38,2.41-2.62,.72-4.22,1.75-1.25,1.88,2.97,.72-2.31,.94,1.56,4.34,2.03,2.38,.16,.88-1.16-.53v1.44l1.47,.09,1.53,1.22-1.94,1.66-1.34-1.97-3.75-1.94-2.16,.75-.91,.41,.34,1.59-1.09,1.28-.19-2.69-2.31-.06-1.25-1.78,2.09-.25,.41-1.41-1.5-.16-.81-1.84-1.09,1.31-2.44-1.72-.31-1.16-1.94,3.25-.25,1.97,.91,.78,1.03,.25-1.34,1.97-.41-1.66-1.78-.56-1.22,.56,.72,2.69-1.66,1.97-1.59,1.53,1.94,5.47,1.44,1.53,2.38-1.28,.69,.75-2,1.5-.56,1.66,1.62,.69-.75,1-.97,1.44-1.16-.62-.94,1.84-1.31,.59,.62,.75,.78-.84,.41,3.09,1.25-.31,1.94,2.16h2.56l3.25,1.41,2.5,1.59,1.06,1,.09,2.09-1.31-.09-2.84-1.03-1.56,.88-.28,1.31,1.44,1.31-.41,.5h-.88l-1.81,.53-.81-.53-.78,2.09-1.81,1.44-2.09,1.16-.84-.91-1.22-1-1.62,.34,.59,2.31,2.03,1.19,2.25,3.66,3.47,5.34,2-1.53,2.59-2.34,1.44-1.88,.56-1.28,1.25-.91,.66-1.16,1,.59,1.5,.72,.19-2.97,2,.88,1.47,.25-.12-1.72-.94-1.16-.81-1.78-1.69-.72,.56-1.38-.41-1.38h1.84l2.44,1.88,3.38,.25,.19-1.75-2.41-1.91,2.09-.75-3.12-7.41,4.94,8.25,2.34,.16,1.47,.16,1.69-.12,.75-1.19,1.31,.16,1.69-1.31,.91,.25,.53-2.19,1.16-.41,.06-2.56-7.59-2.12,8.53-.91,2.81,1.84,1.41-1.69,.62-2.75-4.69-.88,3.69-.59,.75-1.78-.53-2.06-1.41-.66-1.75,.66-1.84-.84-1.09,.69-5.22-.66,6.5-1.28,1.72-1.97,2.03-.75,1.81,.47,.19-1.56-1.19-.5,1.03-.53-.62-3.12,1.44-1.03,1.31,.16,1.28-1.22h1.75l1.91,2.59,2.09-.38,1-1.56,2.22-1.66,1.94-4.25-1.41-1-1.69,1.72-2.22,2.44-1.44,.25-1.56,1.19-1.28-.5-1.81-1.44-1.44,.91-1.41-.75,1-1.34,2.59-.56,.22-2.81,1.62-.12,1.31-2.47,1.66,.09,2.78-4.5,2.12-.34-1.75-1.66-.91-1.62,1.5-4,1.28-.91-.19-1.75-.66-1.72,.34-2.25-1.53-1.38-.5-2.25-2.59-1.75Zm450.62,7l-1.59,1.09-.44-1-2.06,.03-.41,1.47,.47,1.53,2.78,4.66,1.88-1.03-2.16-2.31,2.09-.56,.69,1.31,.91-.59,1.25,2,2.09-3.72-.84-1.5-1.03,.75-.38,1-1.09-2.62-2.16-.5Zm-24.34,.75l-1.5,.19,.16,2.44-1.84-.34-2.47-.75-.59,1.5-.16,2.81-2.62,2.66v1.88l-1.5-.19-.56-2.25-1.69,1.5-1.56,3.75h-1.09l-.97,2.09,.22,1.5,3-.41,2.44-.19,1.5,1.91,1.72-2.66,.75,4.34,1.5,4.34,2.25,.56,.78-2.25,2.06-3.41-.75-7.53-1.16-.56v-1.69l2.66-.97-1.31-3.19,1.5-1.5-.75-3.59Zm17.22,.59l-.91,2.19,.84,.25,1.75-1.59-1.69-.84Zm-17.16,13.69l.44,1.56,.97-1.06-1.41-.5Zm4.91,.5l-1.66,1.56-1.34-.91-.62,1.81,1,2.75-1.84,.44-1.53,3.16-1.22,1.69h-2.03l.25,1.06,.75,.66,1.5-1.12,.84,1.12-.91,1.28h3.19l1.41,2.22-3.16-.66-.09,2.03-1.19-.69-.81,2.84,2.5,1.5-2.34,2-1.16-2.34-1.34-1.5-2.34,.19,.84,1.31-1.84,.19-1.81-1.5-1.69,1.31-.66,1.69-2.84-1.5-4,.16-1.31,2.16,1,3.69,1.81,2.81,2.34,1.19,2.5-1.84,.34,3,1.81-2.66,1.5-.5-.16,2-2,1.16-.34,2h1.5l.69,1.84,2.5,2.16,.81-5.5,1.19,3,1-1v-3.84l.66,1,1.5-1,1.5,.34,2-3.66v11.5l1.84,3.81-2.69,9.84-1.5,2.5-1.5,5.5-1,3.5,2.19,1.84h1.5l2.31,4.16,.34-3.34-.84-3.81,1.5-4.5-.81-3.5,3.66,1.31-.66-3.16-.5-3,1.66-2.34-1.16-4.31,1.5-3.34,2.66-2.66v-4.19l-3.84,1.19,2.19-5.19-1.5-.5-.5-2.66v-1.34l2,2.5,1.16-.66,1.84-1.66-2-.84,.66-2.16,2.16-.84,.5-2.5-3.16-.34-1,.34-1-3,2.84,.5,3-1.5-.19-3.16-3,1.31v-2.31l-1.66,.5-.34-1.5-3.66-1,2.5-1.5,.5-2.34-1.5-2.66-1.19-1.59Zm-468.75,3.06l.78,3.66,1.06,.12-1.31,.56,.5,1.16,2.34-.31,2.38,1.06v-2.06l-2.66-1.78-.72-1.97-2.38-.44Zm478.28,1.44l-2.28,3.5-1.22-1.44-.53,1.66,.88,.88,1.97-.34,1.84-3.5-.66-.75Zm8.25,7l-1.28,.31-1.97,.19-2.94,3.84-.41,1.72,2.69,.03,3.41-4.69,.5-1.41Zm-28.75,.31l-2.34,1.84,2.25,2.59,2.31-.75-.22-2.59-2-1.09Zm-16.59,4.5l.94,2.44,2.81-.19,.19-1.91-3.94-.34Zm14.25,.19l.19,2.16,2.25-.56-2.44-1.59Zm4.09,0l-.44,1.31,.91,.19,.94-1.28-1.41-.22Zm-432.34,4.41l-2.34,.91,2.5,.41-.16-1.31Zm-43.06,5.19l-2.5,1.16,1.06,1.72,1.56,.25,.53,.94,1.31-1.31-.56-2.09-1.41-.66Zm99,6.81l-.69,2,1.31,.66,1-.59-1.22-.5,.41-1.06-.81-.5Zm393.97,.06l-2.31,.94v2.19l.56,4.38,2.5,1.94,1.41-7.06-2.16-2.38Zm4.44,3.78l-1.84,.66,.84,1.59,1.34-.75-.34-1.5Zm-490.5,2.91l-1.94,.09-1.59,1.97h-1.81l.16,1.69,2.59-1.16,1.31,1.06,1.53-1.84-.25-1.81Zm474.06,.34l-.84,1.41-1.41,.56,.84,1.09-1.56,2.5-.59,3.78,2.25-3.12-.09,2.59,2.06-7.06-.66-1.75Zm-457.16,5.5l-.5,1.41,2.19,1.44,1.72-.38-.91-1.72-2.5-.75Zm462.84,3.22l-.16,1,1.66,.19-1.5-1.19Zm-493.94,3.44l-2.75,1.31,1.84,1.62,2.34-1.28-1.44-1.66Zm3.25,5.69l-2.47,.41-1.84,3,2.09,.41,2.22-1.31,.91-1.59-.91-.91Zm-9.34,4.06l-1.72,1.16v1.19l-1.28,.66-.66,1.41-.81,2.09-1.28-.66-2.22-2.59h-3l.41,.5-.94,2.5-1.31,2.44-1.56,.16,1.97,2.47,1.44,1.59,2.75,.34,2.97,5.25-.12,2.94,1.41-.25,1.22-1.69,.78,1.84,1.56,1.31,1.53,.66,3,1.12,1.06-.5-1.69-2.59-.41-1.28,2.09,.25,3.09,.78,1.31-3v-1.84l-1.81-.41-7.69-.09,6.5-.91,2.75,.66,1.16-.56,.94-2.84-2.75,.16-.16-1.59v-1.16l-1.94-.66,.28-1.28-1.03-1.22,1.03-1,1.41-1.28,.66-1.62-1.81-2.03-1.69,.75-1.06,1.44-1.69,.66,1.19,1.31-1.19,.88-1.69,.41-.5-.91-1.56-.53,.09-1.16,.81-1.84,.16-1.41Zm-6.12,2.31l-.53,.78,1.28,.97,1.41-1.56-2.16-.19Zm61.91,.28l-.16,2.84-1.53,1.72-1.84,.28-1.31,1.97,1.44,3.41,.25,2.44h1.72l-1.06,2.75-1.28,.66,1.19,2.34-.16,1.84-1.19-.91-.75,1.97-1.59,1.28,.12-2.19-2.09,1.56-4.44-5.62-1.56-4.44-3.25-2.25-1.59,6.06,1.59,.88,3.75,4.16-.25,1.47-1.53-1.47-2.75-.09,.78,4.84,2.22,3.25-.66,.91-1.31-1.94-1.03,.62-1.47-2.34-3.09-6.41-2,1.16,.94,5.09-3.12-.34-.56,3.5,2.5,.81,.5,2.75-.75,.75,1.16,1.69,1.28,.16,3.81,2.19,2.66,2.41,1.41-.69-.25-4.97,2.34-1.53,.66,3.09,1.94-2.84,.66,2.59,.69,4.06,3.34-1.06,.72,2.25-3.16,.41-1.94,1.41-.66,2.34,1,.69,5.91,11.09,3.38-1.59-1.69,4.22,6.41-.81h2.25l.25-2.19,3,.62,.41,6.16,1.44,.75,3.25-5.34,.16-4.81,2.03,3.12,.56,3,4.94-.12-4.03,3.5-2.34,4.62-2.12,3.62,.66,4.88,4.59-1.62,2.75-2.84,3.66-5.09,2.34-.5,.66-4.34-.25-2.09,2.22,.78,5.5-3.41,1.03-3.5v-3.12l-3.16-.16-1.53-1.06-7.22,3h-2.34l-1.19-2.44-3.91-.66-1.44-2.09-3.41,1.69,2-2.75-.56-2.09-3.25-.66,.09-2.34-1.69-3.66,1.31-1.94-.66-1.59-3.75,.78,.34-2.09,2.91-1.16,.91-10.5,.78-6.91-3-5.5-2.25-.5-2.19-5.88-2.09-1.31-1.97-.66Zm-44.03,2l-.81,.31,.19,.94-2.25-.53-1.09,1.03v.91l.25,1,1.41,.31,1.41-.62-.31,1.16,1.22,1.5,2.53-3.53-.84-.75-1,.12-.69-1.84Zm65.34,12.66l-2.09,5.59,1.28,1.84,1.72-5.75-.91-1.69Zm-71.75,4.19l.25,1.06,.28,.84-.28,1.41,.84,.31,1.16-1.12-.75-.84,.66-.66-.47-.94-1.69-.06Zm-8.41,.31l-2.44,.56-.22,1.34-1.78,.28-.22,1.12,.09,1.34,.62,2.75,5.5,3.25,1.78,.25,1.34-.47,.81-.53,1.81-.66,.28-1.16-.78-1.03-1.97-.47,.22,1.09-2.06-1.09,.84-1.44,1,.25,1.66,.16,.59-.72,.81-.5-2.31-1.59-1.44-.44-1.75-.56-2.41-1.75Zm78.31,4.09l-2.38,1.47,.66,2.5-.34,1-1.84-.5-1.97,4.59-.12,7.44,1.44,2.59,3.91-2.88-1.31-3-.41-5.12,3-6.25-.62-1.84Zm-81.47,4.66l-.09,1.25-3.09,1.44,1.5,4.38-.06,5-1.66,1.25-.69,4.03-1.91,1.31,1.25,.69,.81,11.34,.59,.47-.19,1.41,1.25,1.5,3.12,.09,1.25-.66,4,1.81,.31-1.06,.94-1.34-.75-.97-1.09,.5,.09-1.34-1.75-1.03-3.12,.44-.72-.69,.06-1.22,2.28-.28,2,.88,1.66-1.5-.25-1.88-.94-1.16,.41-1.5-.5-.75-1.22-.41-.19-1.06,1.69,.22,1.56-2.5-.25-1.22,1.59-2.03,1.44-.09,.81-1.72-.19-.78-1.31,.09-.44-2.34-1.47-.72,1.47-1.03-1.88-1.12,1.56-.34-3.34-2.34,1.75-.31-2.66-1.34,2.06-.5-1.75-.53-3.97-2.31Zm11.25,1.31l-1.78,.34-.91,1.34,2.41-.06,.28-1.62Zm68.66,13.78l-1.31,2.22,2.12,2.62h3.25l.38-2.09-2.34-2.34-2.09-.41Zm-14,16.66l-2.56,1.5,2.56,2.41,.84-1.59,.97-.56,.53-.91-.75-.75-1.59-.09Zm-61.94,4.06l-2.66,.19-.06,2.94,1,1,.84-1,.88-3.12Zm-11.75,2.59l-.06,3.59-1.66,1.34-2.78-.16,1.03,2.72h-1l.06,1.41-1.75,.34-.75,1.44,2.84,1.56,.66-1.5,.69,.19,.5,1.16,1.84,.19,1.22-.62-.81-.75,1-.41,.5-1.25,.84-.16-.25-1.44-1-1.38,1.88-.09-2.41-2.16,1.16-.84,.44-1.19-1.06-.72-.09-1.19-1.03-.09Zm4.38,0l-1.12,1.84,1.12,.16,.91-.91-.91-1.09Zm49.88,2.44l-3.56,.97-.06,1.88,1.66,.41,2.41-1.03,2.56,1.78,1.25-1.34-.81-1.81-3.44-.84Zm-48,2.5l-.66,.25,1.53,1.31,.31-.81-1.19-.75Zm61.03,.06l-3.03,.66-4.16,3.25,.16,2.78,3.5,2.84,2.34,3.66,3.16,.22,1.88-3,1-4.47-.88-2.69-3.97-3.25Zm-63.78,1.91l-.66,.34,.19,1.34,.97,.31,.09-1.22-.59-.78Zm-11.06,4.62l-.41,1.5,1.81,.72-.34,.75-.97-.22,1,1.47,2.59-.97-1.59-.38,.59-.72h2.22l-3.09-.94,.25-.66-2.06-.56Zm459.5,2.12l-2.69,.69-.88,2.44,1.56,1.56,1.16-.69-.31-1.62,1.47-1-.31-1.38Zm-28.25,.09l-1.69,6.75,2.28-.16-.16-3.41,.72-2.03-1.16-1.16Zm-4.41,2.44l-.91,2-1.53,2-1.59,.47-2.16-.88,2,2.72,.16,3.03,3.03,2.41,1.41-1.69-.69-1.72,3.12,1.56,1.31,2.44-.16,2.88,2.84-2.16-2.12-2.72-.41-1.88-2.91-1.88-2.56-1.44,1.25-.84,1.16-2.84-1.25-1.47Zm-423.78,.72l-1.47,.38,1,2.06,1.56-.81-1.09-1.62Zm82.28,1.09l-2.28,.66,.78,1.5-1.78,.38-1.06,2.88,1.81,2,2.69,.69,1.34-4.84-1.5-3.25Zm372,4.09l-1.84,.56-.44,2-4,1.75-2.62,1.38,.16-2.25,.75-.12,1.41-2.16-1-.16-2,1.56-1.84-.56,1.28,2.44-.59,1.25-5.28,5.91,1,2.16,3.28-4.91,1.31,.16,1.16-.69,.12,1.59,2.56-1.47,1.16,1,1.16-3.12,2-2,2.88,.25-.88-2.88,.28-1.69ZM2.92,204.72l-1.84,.59-.72,2.25,1.31,.88,1.19-.88,.47-1.59-.41-1.25Zm83.25,3.41l-2.09,.5h-.81l.56,1.59,1.78,1.47,1.75-1.62-1.19-1.94Zm-84.91,.91l-.91,.44,1.25,.66,1.59-.34-1.94-.75Zm444,.75l-1.41,1.16,.09,4.84-1.12,.75-1.25-.84,.12,2.38,1.41,1.47,.59,1.84,2.88-.84-1.31-4.84,1.16-2.91-1.16-3Zm-17.75,5.16l-2.44,2.12,1.59,2.91,3.41,3,3.59-1-.47-3.59,1.31-1-.84-.84-1.72,.41-1.88,.28-1.41-1.84-1.16-.44Zm7.59,3.59l1.25,4,.59-3.84-1.84-.16Zm17.22,.84l-2.31,.44,2.56,4-2.16,1.16-1.56,3.16,2.16,.59,.16-2.16,1.69-.44,1,2.31h1l1.16-.88,1.44,.88,.88-1.88-1.47-1.44,.59-1.75-2.75,.91-.69-1.75,1.16-1.16-2.47-.56-.38-1.44Zm-31.72,.44l-7.44,2.16-1.31,3.31v4.16l-.28,1.53-.56,4.47-.31,2.75,3,3.44,2.16-1.06,1-1.84,1.59,3.91,2.31,3.41,3.59-.09,1.25-1.31,2.47-1,3.84-2.59h1.03l1,4.59,1.56,3.16,1.44-.47-.12,1.75-1.31,1,.16,1.31-1.16-.44-1.84,1.28,1.84,.84-1.16,1.47-2.53-.47-1.16,1,2.41,.88-2,.84,1.88,2.44-.44,3.31,1.56,2.16,2.28-.31,.47-2.16-1.16-1.53,1-2.47,2-2.84-1-2-1.47-.59,3.47-.56-1-2.28,.28-1.75v-1.25l3,2.38,2.16-3.53,1.84-.59,2.31-.88,.44-2.59,.16-2.53-5.59,2.28,1,1.41,.31,1.16-.88,.59-1.75-.31-.38-2.44-.16-1.84,2.84-.31-.56-3-2.12,.59-2.75,2.56-1.88-.84,1.31-4-1.91-.59-1.84,2.59-2-2.31-3,1.31-3-1.16,1-1.44,1.25-.16,.16-2.56,3.16,.72,.44-3.72-3.16-2.75,1-1-2.16-1.84-1.12,.25-5.47-3.56Zm-351.5,4.66l-4,2.81-2.16,1.84-2.5,2.5-3.34,2.16-3.66,4h2.5l2.31-1.66,2.34,.66,3.34-1.66,2-3.5,1.31,.34,3.5-5.19,.69-1.81-2.34-.5Zm372.59,2.66l-1.59,1.59-.53,1.41-2.47-2-1.16,5.16,5,1,1.16-.72-.16-2.69,1.31-3.44-1.56-.31Zm-352.59,2.34l-4.34,2.31,1.34,4.69-3.84-2.5-4,.66,2,3.16-3.16,2.34,2.34,3.5,4.16-.34,5,3.84,.84,2.34,7.16-2.5,.66,2.16-3.5,2.84-4.66,.31-1.84,4.34-3,2.5,.69,2.16,2.31-.16,6-.84,2.84-1.5,.34,1.84-3.5,2-6.69,1.66-5-.81,.5,2.66-2.16-.34,.66-1-1.81-1.5-3.19-.5-1.5,2.5,1.19,1.84,1,3.66,3.66,1,1.34-2,6.16,.34,1.16-1.16,3.19-.5,1.66,1.16,3.84-3,3.66-.66,3.34-2.69,1.81,.69-2.81,2.81,3.5,1.69,7.81-5.69,.34-1.5-1.66-.31-3.5,1,2.66-2.84-.16-1.34,2-.16-.34,1.66,2.16,1.5,1.69-1.31-.19-2.34,.69-.84-.34-3-2.84-2.31-3.66-2.19-4-2.5-4.66-.81-2.69-1-.31-1.5-1.5-5.34-2.5-3.34-1.5-2.31-2.69-2-2.16-.5Zm-36.84,9l-2,1.16-3.16,.16-3.16,1.19-4.5-.69-2.19,2.19,.34,6,1.5-.84,2,2.16,1.84-.31,1.31-4.34,3.69,.66,1.66-4.16,2,.5,2.16-2.34-1.5-1.31Zm79.75,3.84l-2.44,.41-2.81,4.41-3.75,1.69-1.56,4.06,5.56-3.56,5-7Zm279.44,1.56l-2.44,1.16-2,5.44,2.69,.59,1.62,4.16,2.38,5.59,4.91,.88-1.69-2.16,2.25-1.84,2.44-1.75-2-2-.53-2.47v-1.41l-3.75-3.03-1.47-.41-.41-1.84-2-.91Zm-327.78,2.5l-1.41,.56-1.81-.25-1.62-.12-.31,1.91,4.16,1.5,3.5,.31,1.69,.16,.06-1.75-1.97-.38-2.28-1.94Zm340.53,7.41l-1,1.16,.16,1.12,1.72,.31,1.59,.16-.31-1.16-.84-.75,1.56-.84h-2.88Zm-297.19,3.28l-1.56,1.41-2.19,.22-1.31,3.03,1.5,1,4.12-5.28-.56-.38Zm295.31,1l-2.41,.16-.16,2,1,.59,3.31-.84-1.75-1.91Zm-349.22,4.56l-2.66,.34-1.5,2.31,2,1.34,2.16-4Zm.25,5l-.91,1.75,1,.56,.81-1.62-.91-.69Zm45.97,.25l-2.12,2.81,.91,1.78,.84,1.34,1.38-1.44-.75-1.5,.94-.25,.44-2.41-1.62-.34Zm-1.5,6l-.97,1-.84,4.34,1.59,2.97,1-6-.59-.81-.19-1.5Zm1.53,.34l-.53,.75,.62,.84,.38-.88-.47-.72Zm-.09,3.97l-.5,2.38,.31,1,1.19-.94,.09-1.66-1.09-.78Zm-5.41,.12l-1.16,1.38,1,.78,.88,.16-.72-2.31Zm-.09,2.81l-1.91,1.19-1.25,1.88,1.59,.94,2.62-.44,.03-2.75-1.09-.81Zm-.66,5.34l-2.03,.84-4.22,3.12-5.78,4.62-3.56,2.88-3.56,6.53,3.62,1.66-1.75,.81-2.12,.03-2.5,1.25-3.5,5.25,.38,7,.94,2.34,3.56,1.41,2.38,.34,1.56-3.34,.56-4.16,1.44-.59,1.09-2.09h1.25l-.41,.94,1-1,.5-2.62,1.41-2.81,.34-3.19,1.25-.38,2.75-4.38,6.41-10.31-.25-1.94-.75-2.22Zm-27.41,.16l-2.5,2.09-.88,.91-2.38,.75-1.12,3.09-1.88,2.91,1.12,2.34,.62,2,2-1.75,1-.5,1.75-3.5,.62-1.84,2.88-5.25-1.25-1.25Zm0,21.59l-4.5,.75-5.38,5-2.62,5.25-1.12-.5,.88-5.09-2,.25-2.12,2.09-2.75-.09-1.12,1.59-.25,3.75-1.62,1.75,1,1.25,.12,2.91-2.62,1.75,.25,2.25-1.88,1.84,2.62,2.75,3.75-3.09,4.38-6.75,.62-2,5.62,.5-.38,1.59-4.38,3-.62,2.16,1.75,.5,2.5,6.09-2.5,1.66-2.75,5.34,3.88,1.75,2.62-1.5,1.5-3.5,1.25-.09,1.62,.34,4.62-1.5,1.25,.41,1.5-2.5,2.5-2-.75-4-1.62-2.5,.5-2.5-2.12-2.16-.75-5.09-.88-11.66Zm58,4.66l-2.38,2.25,3.12,5.75,2.25,1.09,.38,7.25,2.62,.5,2.38,5.16,1.75-.66-1.25-2.59,1.75-1.5-1.38-7.91-1.75-.34-1.75-2.25,.25-2-2.38-1.75-3.62-3Zm.5,12.75l-.62,1.75,.5,2.25,1.38-1.16-1.25-2.84Zm15.31,2.41l-2.16,3.66v1.53l1.91-1.16,.34,.97,1.22-2.09-.22-2.88-1.09-.03Zm-50.06,3.94l-1.12,1.16,.62,1.34,1.38-1.59-.88-.91Zm28.75,2.91l-1.88,.09-.56,.66,.69,1-2-.34-.88,1.78-2.25,1.12-2.38,6.53,2.81,5.5,.56,2.09-1.06,1.75-.31,2.88,1.72,1.03,.91,3.84,3.5,2.81,3.12,.75,3.97-.94,1.53,.53,1.75-1.41,.47-1.28-.84-2.97,1.03-1.94-3-2.16,.81-1.28,2.19-1.25-1.53-2.16-3.12-1.47,2.06-2.44-.41-4.09-1.25-3.84-2.34-2.66-3.31-2.16Zm-30.5,.09l-1.88,3.41,.75,2.75,2.75-4.5-1.62-1.66Z"/>
    <path id="wales" class="cls-1" d="M180.7,587.47l-1.62,.72v1.09l-1.75-1.06-1,1.16-1,.19-.16-.84-1.34,1.16-2.31-.19-.69,.75,1.25,3-1.12,3.88-1,.62,1.41,1.62-.34,1.72,1.91-.66-.59,.81-.88-.16-1.03,1.41-1.31-2-.91,.28-.59-1.28-.28-.56-.31,.5-1.25-.66-.91,.09-1.25-.53-.16,1.09-1.19,.69,1.44,.97-.69,1.03,.34,.75,2.06-.59,2.19,1.06-.59,1.03,1.06,1.47-.31,1.03,1,.75,2.81-.5-.97-1.59,1.06-.84-.41,.94,.75,.56-.44,.5,2.09,2.06-.06,1.03,1.59,1.72-.53,2.12,1.03,.12,.12,1.03,1.28-.5,1.41,3,3.91-3.53,.75-.72-.84,2.81-2.22,.53,.75,2.16-.59,1,1.19-1.03,4.56,2.12-1.56-.88,1-2,.97,1,1.25-.25,4-3.41,1.75-.66,1.16-3.25,2.12-1,.75-.94,3.97-2.12,2-3.88,2.09-2.12-5.16-1.09-1.66,1.5-4,1.25-.62-.69,.69-1.66-.91-.59-.34-2.09-.56-.25,.31-1.91-2.25-.41-.75-1.16-1.25,.72,1.81-2.81-1.12-2.94-.38,.62-2.16-.84-.56,.56-.19-.72-1.22,.56-.69-1.09-1.84-.31-.47,.56-.12-.72-1.38-.34Zm72.72,10.06l-3.5,.34-7.75,2.41-1.91,1.59-6.59,2.34-6.41-.5-1.56-.75-.5-1.53-1.69-.56-.59-1-2.84,.5-.91-1.69-3-.22,2.19,2.31,1.31,4.19-1.22-1.59-2.75,.66-2.5,1.75-5.38,2-.12,.53-5.44,2.22-.31-1.22-1.03,.41-.41-.5-.09,.59-.5-.62-5.16,2.78-.75,2.31-.16,.66-2.16,1.28-2.34,2.91-2.25,1.69-.19,2.25,.5-.12-.97,1.62-.12-.69-.06-.06-.66-1.59,.97-.78-1.12-.22-.69,.97,.41,6.03-1.16,2.81-3.84,3.69-1.81-.16-2.41,3.47-3.25,2.75-2.88,.09-.22-1.09-.25,1.03-3.16,1.66-1.03,1.81-1.22-.06-1.34,2.97-1.41,.38-.5,1.66-2,.56,.22,1.84-3.22,4.19,2.31,1.75,.84-2.25,1.84,.41,.25,.72,1.88-1.31,1.09,.75,2.94-2.66,4.22,2.81-.47,1.5,.97,1,.88-1.59,1.91-.16,.09-1.5-.84-.31,.16-1.59-.59,.06,.94-1.56,1.5-.84-.34-1.09,1.31-1.47,4.09-1.09-1.16-.16,.59-.19v.19l.22-.28,.75-.91,4.19,.5,.75-1.81,3.5-.16,3-.78,4.34,1.5,1.41-1.09,.09-.47,1.34,.06,.41,1.28,2.59-1.38-1,1.03,.16,.84-.44,.72-2.66,.25-.91-.22,.31-.38-1.06,.5,1.72,5-.72,2.59,.84-.5,.56,.59-.69-.44-1.41,1.28,.44-.84-1.28,1.16,.09,.75,3.91,5.91,1.88,4.12,3.41-.88-2.94,2.44,.16-1.25-.66,.75,.03,2.31-2.53,2-2.47,6.19,1.88,.81-1.72-.41,3.81,7.5,7.09-2.09,1.25,.34-.56,.66-.28-.5-2,2.19-2.09,.94-1.66-.09-.09,.75-.88-1.59-.03,5.75-2.16,4.41-.75,2.94,.09,1.72-3.59,8.19-4.69,6.25-3.91,2-4.16,3.25-1.75,.34-.69-1-1.12,.31-4.62,4.84-1,.25-.41-.69-.41,1.44-3.31,2.66-1.84,.09-1.41-1.25-1.03,.69-3.91-.19-3.06,.81-.28,2.84,.84,.91-.94-.81-1.16,.56v-.06l1.16-.5-2.66-1.75-3.41,5.5-1.44,1.06-2.06,.25-1.16,1.12,.16,1.97,1.81,.75-3-.59-1.38,.38-2-1.84-.75,2.72-3.53,.78,.09,.72-1.34-.66,.66-.47-.88,.06,.72-1.06,.91,.22-1.16-.5-.25-1.06-2,.56-3.59-1.31,.19,.56-1.25,1.09,1.09,1.25-1.59,1.09,1,.97-.44,1.84-1.25-.16-.25,.91-2.66-.22-.56,1.47-2.84-.41-.19,.94-1,.38,.12,.69-1.75,.19-1.62,1.56-2-.06-1.75,1.22,.69-.09,.5,1-1.44,1.09,.59,.78-.91,1.25,.25,.66,2.31-.5v-.53l4.38-.16,1,.78,.91-.75-.41,.72,1.06,.03-.19,.66,3.25-.03,1.03,2.12-.03,1.75,.84,1.97-.5,3.91-.72,.62-2.84-.53-1.84,1.94-1.16-.28-.66,2.34-2.88-.59,1.69,1.75-.34,.59,1.25-.66,.91,.75-.22,.59,1.09,.34-.12,2.12,.78,1.03,.47-.78,.84,.03v-1.5l.53-.03-1.25-.56-.28-.91,.69-.91,.47,1.16,2.19-.41,.56,.81,.69-.69,.09-.72,1.22,1.91,1.28,.06,.22,.78,.62-.19-.53-.91,2.69,.31,.41-.75,.16,1.19,2,.59,2.59-.44,.09-1.59,.25,1.09,1.41,.5,1.81-.59,.53-1.5-.03-.91-1.66-1.56,1-.09-1.06-1.75,1.09,.16-1-1.06-1.59,.66-.69-.44,.91-1.75-.38,2,1.25-.81,.97,.19,.78,.62,3.06-2-1.34,1.94-1.16,.19,.5,.75-.94,.66-.25,1.5,1.75,.91-.88,.06-.12,1.38,3.62-.5-1.53,.88-.5-.38,1,.91-.06,1.16,1.25,.31-1.09-.12,.31,.62-.47-.75-.5,.59,.31-.81-1.59-1.66-3.16,1.91,1.94,.66-2.03,.06-.06-.97-.81-.44-.62,.94-1.25-.5-3.25,1.25-1.38-.91-1.59,.06-.41,.66,.97,.78-.59,.5-1.88-.44-.53-.56,.5-.59-2.31-.34,.47,.66-1.25,.41,.03,1.19,.72-.31,3.25,1.38,.88,2.5-.75,2.19,3.5,1.44,2.22-.09,1.75,1.5,1.5,.16,.28-1.66,1.81,.22-.5-.75,.44-1.12,2.56-1.12,.09-.91,3.25,.28,2.09,1.22,.31-.81,1.44-.09v-1.06l3.06,.31-.16-.75,1.47-1.41-.56-.28,.34-1.31,1.22-1.16-1.16-1.53,1.53-1.72,3.16-.59,1.34-.44,2.16,.5,1.34-.81,7.72,1.19,1.91-1.19-2.75-1.75-.25-2.16,1,1.09,3,1.5,1.88-1.94,.75-1.25,3-1.59-2.88,1.66-.91,3.59,.66,1.75,2.69,.34,.41-.31-.31,1.06-1.19-.25-2.59-.25-.22,.56,4.16,5.75,2.81,.94,1.38-.56-1.38-.38,1.84,.03-.16-.69,.59,.53,3.22-.5,3.34,3.25,.78-.75,3.41,.12,.72-3.12,.5,2.38-.97,.75,.81,1-.81-.56-1.5,.44-.94,.75,.41,.31-3.31,.94-.41,1.12-.19-.56-1.75,.56,.25-.62-1.75-.78,.34,.94-1.06-.34,.56,.81-1.66-.97,.84-1.19-.84-.75-1.41,2.5-3.75,1.69h.66l1.09,3.09-.09,1.25-1.25,.72,2,.19,2.56,2.09,2.28,.75-.09-.78,.97-.41,2.84,.84,.44-.44-1-1.09,.34-.72,3.31-1.41,.41,1.12,2.53,.94,2.12-1.34,.62,.78,.97-.5,2,.41,.5-.25-1.81-1.44,.25-1.25,.34-.75,2.62-1.47,1.78-.03,.09,.75,2.5-1.59,.97,.53,2.75-.69-1,1,2.53,3.44,.88-.19-1.22,.59,1-.19,.31,1.19,.53,.16,1.75,3.78,.81,3.47,1,.59,.91,2.09,2.78,.81,1.22-.81,1.41,1.41,.5,1.19,2.75,2.22,.75,1.28,1.44,2.72,9.84,1.69,.66,.72,4.41,.09,2.09-1.22,1.41,.75,.41-.84,.34,.91,3.75-1.91,2.5,.41,1.25-.66-.09-1.5,.28-2.75-1.16-.28h.41l.25,.03,.06-2,.84,.34,.19,1.25,1.62-1.69-.31-.66,1.84-2.16,2.16-.94,.69-.16,5.31-3.53,.34-1.31,.09-.09,1.31-.66-.66,1.34,1.91,.91,2.69-.75-.75,.75,1.22,.34,5.69-2.28,4.25-2.56,2.34-.44,.97-.12,1.09-2.25,1.94-.78,.62-1.22-.56-.94-.16-1.56-.69-.19,.94-1.94-1.34,.12,.19-.59,1.81-.53-1.06-.81,.16-1.5-.94-.69,1.03-.5-1.28-2.81,1.03-.56,.72-1.88-1.22-1.66,.75-2.81-.53-.94,1.25-.81-.09-1.28,.75-.41-1.06-1.06-1.84,.22-.31-1.22-1.09,.56-.41-1-1.28,1.28-2.66-3.19,.69-1.59-2.25-1.09-1.25-1.66-1.03-.09-.38-1.25-1.38,.34,1.19-.84-2.25-1.31-5.06,2.94-1.28,.12-.31-2.47h-2.16l-1.12-3.28-2.75-2.88v-.03l-2.12-4.34,.91-1.91-.25-1.09-2.34-3.12,.25-2.69,1.19-.25,.06-1.19-2.5-1.25,.44-1.12,2.88-.62,1.44-1.25-.81-.81-1,.91-1.53-1,1.91-2.22-.47-2.03,2-1.09v-2.5l1.91-.22-.25-1.34,.84-.69,2.06-.81,1.91,.56,1.84-1.06-4.22-1.16,.88-4.59,2.28-.84,.84-2.16-1.28-.59-4.47,1.09-1.34-.44-3.28-3.25-2.97-1.22-1.59-2.41-2.66-1.28-1.03-2.34,.28-1.16h-.03l2.34-2.47,1.16,.25,4.62-2.62,5.47-.22-.16-2.44,2.06,.16,.53-3.31-1.34-2.5-1.44,.41-1.62,1.75-1.78,.41-.47,.69,.88,.66-.31,.5-3.09,.75-.34-.75,1.69-.81-1.81-4.84h1.5l1.91-1.44-.28-1.12,1.38-2.09,.91-.19-1.53-1.16,2.12-.66,.47-2,.44-1.03h-.5l-.03-1.75,1.62-1.66,.12-1.91,1.34,.44,1.53-.69-.03,1.25,1.16-.09-.25-1.75-.56-.41-.84,.25-.72-.31,.31-.84-1.94-.91,.75-.69-.41-1-1.22,.34-.25-.69-.5,.34-.69-.69-.41,.44-.34-.56-.41,.5-.94-.84,.16-2-2.12,1.31-2.78-1.41,.53-1.16-.88-.09h-.12l.06-1.31,1.16-2.53-.81-.56,2.41-2.16-1.66-1.25,1.16-.69-.59-.84,2.03-.09,.31-2.66,.94-1.31,1.31,.56,2.59-.31,1.81-2.75,1.84-.53,.5-1.06,.94,1.94,2.06,1.41,2.75-1.44,.25,.59,2.81,.5,2.59,5.19,3.03-3.12,1.75-.06,.38-3.5-.75-1.41,.53-1.53-2.16-.25-.44-.97-1.5-.09-.91,.66-2.16-.84-.5-2.25-1.09-.62,.34-1.53-.94-.91,.75-.94-.84-.38,.69-.34-1.28-1.53,.38-.75-1.69-1.16,.94-1.41,.47-1.84-1.5,1.03-2.59-1.09-1.38-1.25-1.78-2.59,3.16-.91,1.53-1.28-.09-1.38-1.69-2.38-5-4.16-2.47-.34-2.28-.31,1.38,1.16,1.25-.22-1.03,.38,.41,.34-.88-.31-.84-.28,.72,.59,.59,.53,1.09,1.16,2.84,1.5-2.91-1.19-2.12-1.56-2.91-2.09,.25-.56-4.59-4-3.62-2.25-.19-1.25-.41,.72-.78-.34-1.88-1.72-.03-1.94Zm-36.75,194.34l-.16-.25-1.16-.16,1.31,.41Zm-27.97,2.94l-.03,.06,.09,.06-.06-.12Zm-30.94-142.28l-.06,.03v.06l.12-.06-.06-.03Zm-3.94,6.41l-.62,2.44,1.62-2.16-1-.28Zm-39.97,95.78l-1.25,.09,.41,.81-.81,.56,.72,1.09,.66-.06,.28-2.5Zm29.91,13v.06l.09-.06h-.09Zm-.41,1.06h0Zm-28.16,.5l-1,.78,1.41,1.06,.84-.84,.06,.53,.81-.38-2.12-1.16Zm39.66,12.91l.34,1.12,1.38,.25,.62-.78-2.34-.59Z"/>
    <g id="england">
      <path id="south-west" class="cls-1" d="M354.7,734.19l-1.44,.69-1.56,3-.44-.75-.84,1.41-1-.72-.47,.75-1.38,.25,.75,.75v1.06l1.94,1.09,.59,1.41-.91,2.59-1.53-.59-3.5-3.5-1.22,1.59-1.34-.84-2.19,.19-3.66,3.41-.75,.09-.75-1.19-1.66,.44-1.78-.5-2.06,1.72-.59-.75,.75-2.34,1.59-1.12-1.19-.88-1.88-.47-.62,.31-.66,.59,.25,2.16-.72,.34,1.56,2.5-1.09-.34-.31,1-2.41-.56-2.09,3.16-1.28-.25-2,.19-.81-1.03-.94,.03,.03-3.25-1.78-.84,.09-.84-2.91,1-.34,1.69-.97,.25-1.59-.34,.16-1.75-1.91-.16-.16-1-.88,.12-.88,1.28,1.38,1.75-1.62,1.47,.16,1.88-.59,.38,2.41,1-.06,2.59,1.22,1,.5,2.41-1.75,.44-1.47,1.34-1.41-.53-1.59,2.62-3.28-.09-.16,1.31-1.25-.75-1.66,1.91-.75-.47-.94,1.84-.75,.38,.09,1.28-1.25,.81,.53,1-.75,2.75,1.22,1.66-.72,1.88-1.03,.56,1.28,2.81-1.03,.5,.94,.69-.16,1.5,1.06,.81-1.81,.53-.19,.66,1.34-.19-.94,1.94,.69,.19,.16,1.62,.56,.88-.62,1.25,2.66,.62-2.44,3.44-.75,3.19-3.06,3.91,1.31,1.81-2.06-1.22-.25,1.16-2.78-.28-1.81,1.03-5.5,5.75-.5,2.09-2.16,1.81-1.5,.5,.16-.75-3,1,1.19,.59,.06,.91-.34,1.19-1.91,.81,.81,.75-.25,4.06-.56-.97-2.81-.91,1.66,.97-.78,5.94,1.28,2.31,.25,2.16h0l-1.19,1.78-.84,1.75-1.66,.59,1.5-1.19,.75-2.19-.66-.06-1.59,1.66-1.66,.19-3.84-1.09-3.34,1.16-1.5-.22-5.16,2.31-8.75-.44-2.72-2.81-1.78-.09-1.75-1.75-3.22-1-2.44-.06-2.94,1.66-.72-.81-6.16-1.19-3.28-.56-1.16-.94-1.84,1.59-2.47-.5-2.94,1.16-2.31-.94-2.25,1.34-4.84,.19-.69,1-3.34-1.25-.66,.72-1.72-.25-3.88,1.53-1.62-.41-.75,1.16-1.28,.22,1.28,1.09-.44,2.91-.44,.75-2.72,.09,1.56,1.09-.16,1.41,1.19,.34,.41,4.59,1.66,1.22,.66-.16,.03,1.94-1.28,1.62,.53-2.28-1.34,.25,.16-1.03-.66-.41-1.44,2.56-1.41,.34-3.06,4.16-2.69,.94-2.44-.16-3.41-2.69-3.09-.97-3.81-.19-.69,1.44v4.75l-1.38,2.81,.31,1.19-.59,.25-1.09,2.41,.62,7.31,.66,.78-.84,.12-.41,5.12-5.03,3.31-.16,.94-1.31,.12-.16,2.53-1.88,1.25v.91l-3.22,1.19-.66,1.38-.5-.62-1.53,.72-.25,1.66,.53,.19-.94,3.31-1.84,2.59-2.56,.53-1.16-.75-1.44,.31,.16,.69-1.31,.72-1.59-.31-.66-1.16-1.19,.81,1.34,1.25-1.16,1.19,.25,2.16-.59-.5-1-.78,.09-1.41-2.5,2.84-3.66-.94-.25,.44,1.06,.75-.5,2.59,.59,.66-.78-.06-1.06,1.22,.81,.44-.16,1.56-.56,3.78-1,1.81-.75,.06,.81,.25-2.09,1.03-1.06-1.25-.19,1.34-1.72,.12,1.16,.38-1.19,.5-.62-.53-.09,.78-.78-.44,.19,1.81-.94-.12,.69,1.56-.66,3.19-1.94,.5-1.47,2.16-2.44,.09-.06,2-1.25,1.97h-.28l-1.59,.78-.88,1.38-.94-.16-2.41,2.34-2.59,.09-.44-.69-1.16,.34-.16,2-2.81,3.09-.12-.16-2.25-.75-.38-2.12-.69,.44-.91-.59-2.84,.25-3.81,2.84-.62-.56-2.16,2.72h-3.06l-2.84,4.16,1.34,4.09-2.09,2.19,.34,1.25,1.25,.5,.47,1.81,.84,.41,1.78-.97,.75,.47,1.31-1.16,2.94,.09,1.06-1.16,.59,.34,1.66-3.09-1.06-2,1.31-.75,.59-1.28,4.25,.5,2.31,2.09-.06,.91,1-.31-.19-.41,2.41,.34,1.38,1.41,1.72-.25,1.19,1.16,.34-.31,2.47,3.22-.22,1.44,1.41,1.16-.41,.44,.72,.88-.84,2.28,.84,.47,.5,2.34,1.84,.53,.19,1.25,2.16-.28v-1.75l1.81-2.84,2.84-.25,1.44,.62,.75-1.25-.28-1.19,1.94-.84,.91-1.91-.66-1.66-.78-.16,.28-1.84-2.59-.44-.5-.84-1.06,.53-.34-.59-.75,.19,.22,1-.47-.88-1.75,.69-1.91-.5,3.38-.25-.72-.69,.47-1.41v1.75l1.34-.22,.5-1.34,.5,.16-.75,1.09,2.03-.34,.81,.5,1.31-1-.97-2.16,2.06-1.59,1-.44,.84,.5,1.31-2.25,.38,1.84,.56,1.03,2-1.28,.75-3.66,1.19-1.81,1.72-.44,1,1.19,4.09-4.12,3.25,.69,.75,1.34,.44-1.25,1.25-.75-.28-.91,1.28-.84-1.25-.94v-.91l.66-.94-.19-1.22,1.25-1.09,.78,.19-.88-2.38,.75-1.12,2.12-.62,.03-.06,1.38-.19,.09-.91,.72,.09,.91,1.09-.31,1.97,.84,.69,.41-1h1l1.56-1.59,.09,.44,.53,.06-1.12,.44,.34,.59,1.84-.38,.56,.53,1.44-.91,2.75,1.06,2.59-.66,.31-.75,1.66,.56,1.69-1.56-.91-1.16,.34-.78,.56,1.59,1-1.06,3.5-.38,7.25,1.12,3.91,2.97,.03,2.16,1-.72,1.56,.09-.84-1.69,2.19-1-.03-1.75-2.66,1.19,.84-1.34-.59-.53,.78-.88-.19-1.12-.75-.31,.5-.31-2.19-.44,.5-.16,1.5-1.53-.66-.81,.41-1.16h-.88l1.66-1.03,.06-1.12,.94,1.31,1.06,1.25,.41-.5,.59-.94-.56,.94-.44,.59,.25,.25-1.91-.5-.94,2.66,.75,.81,.84,1.69-.22,.56-.09,.5,1.22,.38,.03,.47,1-.66,1.34,.34,.16-.78,1.09,.94,1.16-2.31,1.16-.34-1.81,2.22-.25,.94,.75,.34-2.34-.59,.56,1.66,.44,2.75,5.97,.84-2.88,.59,1.62,1.47h2.09l.5-.88,1.53-.5,2.22,.41,1-.84-.16,.84,.31,.97,1.44-.06,1.94,1.69,1,.06-.12,.84,1.62,1.47-.12,2-.88,.03,3.38,2.81,2.25,.78,.69-.59-.06-1.5,1.47-.69-.59,1.59,2.19,.81,1.09,1.38,2.91-2.12,1.69,.53,1.16-.44-1.28-1.59,1.44-6.06,2.06-2.84,2.34-.75,1.09-1.06-.59-1.44,1.94,1.5,1.84-1.22-.19-1.28,1-2.25,.81-.22-.5-.84,1.5-1.19-2.16-.66,.53,.66-.44,.44-.56-.78-2.44-.47-.06-3.91,1.56-2.19,1.34,1,2.47-1-2.38-2.06,.5-3.78,.97-2.31-.97-.53,.97,.12,1.94-2.28,.34-1.97,2.88-3.25-1.38,1-.44-5-1.16-1.84v-1.94h.06l.78,.78,.47-1.03,.09,.59-.06,.66,2.25,4.78-.78,1.25,4.5,1.38,.91-1.5,3.38-1.22,1.75-3.28,1.47-1.25,5.03-1.16,6.06,.03,1.16-1.78,4.41,.41,4.38-1.62,.41-.44,2.59-1.66,10.31,2.59,9.25,5.72,8.56,6.94-7.47-6.28,3.56,1.62,.16,.91h.88l-.25,.66,2.16,.81,2.06,2.88v.06l1.09,.81,1.5-1.91,1.25,.53-1.31-.84,.72-.66-.81-.34,.72-1.34,1.12-1.06,1.12,.22,5,.16,1,.75,6.09,1.03,2.66-.75,.75,.91,2.03-.09,.81,.78,.78-.44,1.41,1.44,3.56,.66,.59,1.84,2-1.38,5.19-.56,.5-1.44-.84-.22v-.94l2.25-2.66-1.75-.41,.5-3.09-.53-.66-1.72,1.66-.75-.5,.5-.81-1.19,1.12-.22-1.06-.38-.16-.5-.53-.75,.09-.31,.44,.09-.75-1.53,1.16-.38-.41,1.97-1.03-.59-1.62,1.03,.06-.59-.66-1.94,.84-.81,1.47-1.09-.06,.66-1.94,1.03-.09-1-.25,.59-.91,1.5,.25-.03-1.34-.41,.38-.34-.62,1.94-.06-1,1.16,3.66,1.16-1.69-2,.03-.75,1-.47,.84,1.97-.53,.75,2.28-.31,.75,.69-.28,.5,1.28,.66-.94,1.75,3.19-2.94,3.97-1.09,.91-.16,5.69,1.03,.56-1.12,.09-.38,2.03-1.28,1.22-.06,.75-1.59-4.34,.44,.34-1.75-.66-1.69-2.56,1.59-.12-1.53-1.25-1.5,.19-.47-.66-1.28,.59-.56-.03-1.81,.91-.69-.81-.69-.41-2.38-1.5,1-1.44-.34-.22-.84,.66-2.25-.28-.31v-.03l.44-.75,1.19,.16,.56-.91,.41-2.56-2.16-.5-2.19,1.59-3.25-4.84-2.41-1.84-.09-1.25,.5,.84,1.5-1.69,2.84-.22,.84-.75v2.41l1.44-2.19,1.22-.56,1.41,2.59,1.03-.59,3.22,1.47,2.38,.09,2.06,2.41,.91,.53,1.03,.5,1.88-1.53,.78,.5,.25-.47,1.09-2.16-1.12-.5-.66-1.75,1.59-.34-.59-.5,.41-.34,.78,.19-.53-1,.38-.69-2.28-1-.16-.94,.44-4-.62-1.56,.75-2.75-2.56-1.06,.59-3.12-.19-.38-1.06-2.09,.25-1.34-1.75-1.41,.31-1.19,3.84-.34,1.75-3.88,2.06-.28,2.19,1.16,.66-.41,.41-1.31-.72-.03-.16-2.22,1.38-.66,.19-1-1-2.19,.41-2.44,2.03,1,.81-2-1-.97,.34-1.44-1.25-.25-2.91-2.56,.22-1.59-.66,.19-.59-.75,.41-.75,2.59-.25,.19-2.53-2.41-2.31-1.69-2.94-.09-3.22-1.25,.75-3.06-5.84-.53-.5-1.47,.75-1-1.5,.06-.09v-2.31l1.59-1.19-.44-.69,.88-1.38-2.25-2-.5-2.03,.97-1.81,1.66,.91,.88-.41-.59-1.34-1.94-1.5-.72-1.44,.62-1.81-.97-3.34-1.25-1.34,2.5-2.31,.34-1.44-.62-1.91,.69-1.72-.75-1.62,1.34-1.31,.56-2.16,1.75-.28-.84-2.5,2-1.72-1.16-1.94-1.56-.22-.5-.69-.25-2.59-.25-.56,3.47-4-.41-1.03-2.66,.84-2.06-.91,.38-1.34-1.12-.84,.22-1.47-.75,.72-1.22-.75,.16-2.91-.66,.94-.78-.41-1.22-1.88Zm-16.38,156.25h.12l-.03-.06-.06-.06-.09,.06,.06,.06Zm16.75-5.22l.38,.75,.5-.75,1,.75v.22l-.25,.62-1.19-.28-.44-1.31Zm-14.22,3.66l-.94,.5,1.44,.69,.81-.5-1.31-.69Zm-3.28,.34l.25,1,.44-.34-.69-.66Zm-4.75,.56l-.56,.94-.03-.03,.59-.91Zm-28.62,9.91l3.66,4.09-.66,5.09,1.97-2.44,1-1.47-.91-1.91,.44-.28-2.62-.25-2.88-2.84Z"/>
      <path id="west-midlands" class="cls-1" d="M341.58,612.44l-1.66,1.38-.84,2.22-1.16,.5-1.84-.41-.81,1.81-1.31,.62-2.34,.16-1.91-2.03,.12,3.38-.97-.34-3.66,4.81-2.34,2.75-.44-.41-1.84,1.5-.88,.19-1.44-.28-2.06,2.69-2.34,.81-.09,2.5,.91,1.25-.81,.78,.31,1-3.91,1.25,.16,1.88-3.09,1.12-2.66-1.69-.56,2.94-2.03-1.94-1.72,1-.69-.81,.19-1.84-.75,.06-.09-1-.94,.19-.72-1.09-2.78,1.16-1.62-1.06-1.84,1.22-.53,1.53,.75,1.47-.38,3.44-1.75,.06-3.03,3.12-2.59-5.19-2.81-.44-.25-.66-2.75,1.44-2.06-1.41-.94-1.94-.5,1.06-1.84,.53-1.81,2.75-2.59,.31-1.31-.56-.94,1.31-.31,2.66-2.03,.09,.59,.91-1.16,.62,1.66,1.31-2.41,2.09,.81,.56-1.16,2.53-.06,1.31h.12l.88,.09-.53,1.16,2.78,1.41,2.12-1.31-.16,2,.94,.84,.41-.5,.34,.56,.41-.5,.69,.75,.5-.34,.25,.69,1.22-.41,.41,1.06-.75,.69,1.94,.91-.31,.84,.72,.31,.84-.25,.56,.41,.25,1.75-1.16,.09,.03-1.25-1.53,.69-1.34-.5-.12,1.97-1.62,1.66,.03,1.75h.5l-.44,1.03-.47,2-2.12,.66,1.53,1.16-.91,.19-1.38,2.09,.28,1.12-1.91,1.44h-1.5l1.81,4.84-1.69,.81,.34,.75,3.09-.75,.31-.5-.88-.66,.47-.69,1.78-.47,1.62-1.69,1.44-.41,1.34,2.44-.53,3.38-2.06-.16,.19,2.44-5.5,.16-4.62,2.69-1.16-.25-2.34,2.47-.25,1.16,1,2.34,2.69,1.28,1.59,2.41,2.97,1.22,3.28,3.25,1.31,.44,4.44-1.09,1.34,.59v.06l-.84,2.09-2.28,.84-.88,4.59,4.22,1.16-1.84,1.06-1.91-.56-2.06,.81-.84,.69,.25,1.34-1.91,.22v2.5l-2,1.09,.47,2.09-1.91,2.16,1.53,1,1-.91,.81,.81-1.44,1.25-2.88,.62-.44,1.12,2.5,1.25-.06,1.25-1.19,.19-.25,2.69,2.34,3.12,.31,1.12-.91,1.91,2.06,4.34,2.75,2.88,1.12,3.28h2.16l.31,2.47,1.28-.12,5.12-2.94,2.19,1.31-1.19,.84,1.38-.34,.38,1.25,1.03,.09,1.31,1.66,2.19,1.09-.69,1.59,2.66,3.19,1.28-1.28,.41,1,1.16-.56,.25,1.22,1.84-.22,1.06,1.06,.94-1.84,.75,.5,1.66-1.91,1.25,.75,.16-1.34,3.28,.12,1.59-2.62,1.41,.5,1.47-1.31,1.78-.44-.53-2.41-1.22-1,.06-2.59-2.41-1,.59-.41-.16-1.84,1.62-1.47-1.38-1.75,.88-1.28,.88-.12,.16,1,1.91,.16-.16,1.75,1.59,.34,.97-.25,.34-1.69,2.91-1-.09,.84,1.78,.84-.03,3.25,.94-.03,.81,1.03,2-.19,1.28,.25,2.09-3.16,2.41,.56,.31-1,1.09,.34-1.59-2.5,.75-.34-.25-2.16,.66-.59,.62-.31,1.88,.47,1.19,.88-1.59,1.16-.75,2.31,.59,.75,2.06-1.72,1.78,.5,1.66-.44,.75,1.19,.75-.09,3.66-3.41,2.19-.19,1.34,.84,1.22-1.59,3.5,3.5,1.53,.59,.97-2.66-.66-1.38-1.94-1.06v-1.09l-.75-.72,1.38-.25,.47-.78,1,.75,.84-1.41,.44,.75,1.56-3,1.44-.69,1.22,1.88,.78,.41,.66-.94-.16,2.91,1.22,.75,.75-.72-.22,1.47,1.12,.84-.38,1.34,2.06,.91,2.66-.84,.41,1.03-3.47,3.97,.25,.59,3.66,3.5,1.41-1.66-.59-.69,1.34,.44,2.03-.91-.5-1.16,1.06-.53,.94,.5,.31-.56,1.69-6.78-.28-1.41,1.59-3.25,2.06,.41-.47-1.66,1.91-.59,2.69,2.59,1.88-.81-.91-1.75-1.5-.16,1.78-1.88,1.22,.09,1.16-3.66,1.12-2.41,2.16-.19,1.81-.81-.47-1.84-.94-.66-.66-1.78,1.22,.34,.78-1.34,1.47-.66,1.09-1.47-.5-2.19-.72-.41,1.62-2.69-3.75-1.41,.19-.66,2.69-1.75,3.12-.75,.19-.53-2.06-3.88-2.38-4.25-.25-.44-4.41-5.81-1.31-.78-6.19-3.59-2.81-1.91-4.25-2-.28-1.34-2.25-1.47,.38-2-.78-.66-.31-1.59,1.59-.75,.31-1.25-.69-1.66-2.47-2.03,.16-.75-.69-.66-.41,.41-2.09-.66-1.31,.44-.16-2.53-3.34-.97,1-1.44-.31-.94,2.06-3.56,1.06,.59,.75-.78,.75,.75,.5-.56,.53,.41-.19-.75,1.66-1.31-.22-1.03-1.19-.66,1.59-1.75-2.69-2.5-4.25-1.06-.81,.34-.09-.59-1.41,.75-1.31-.94-2.12-1.66-.72,.41-.91-.66-.62,.59-1.41-.69,.16-1.06-1.66-2.59,.03-1.16,1.62-1.59,.25-3.5,4.19-2.44,.34-3.41-1.44-1.5-.41-.56,.59-1.03-.66-.41-.53-2.81,.69-.5-.03-1.03-2.5-3.62,.34-2.5-3.81-4-1.94-.34-3.5-1.66-.34-1.38Z"/>
      <path id="north-west" class="cls-1" d="M295.92,397.62l-.84,1.69-1.88,.66-3.28,2.75-2.56,.34-.09,1.38-.91,.38-.69,1.5-2.16,1.5-.66,1.75-1.16-.03-1.59,1,.22,1.09-1.41,1.09-5.81-.5-.16,.59,1.72,1.25-1.56,2.91,.34,1.22-.84,.75v.94l-1.34,1.34-1.69-.09,.62,.56-1.34,.59,.81,.66-.66,.12,.31,.47-1.47,.19,.22,1,.78,.06-.91,.34,3.56-.31-2.84,1.06-2.31-.56-1.91-2-2.88-.38-1,.94-2.41,.31-1.81,2.44,.25,.75,2.16,1,1.31-.84,.28,1-.91,1.16-1.53-.16,.34,1.91-3.59-2.38v-.03l.03-.41-1.78,.91-2,2.44-2.66,7.31-.16,4.91-4.41,4.19h-.19l-.66,2.69-3.41,4.5-.53-.12,.78,4.38-.5,1.31-2.75,8.16-1.59,.75,.16,1.16,.94,1.75,1.72,1.03,5.16,7.41,4.59,8,.78,.41-.03,6.03,6.41,10.56,1.19,.09,.81-.91,2.12,.62,.97-1.22-.75-1.44,1.19-1.34-.34-.5,.94-1.56-.44-.31,.56-.12-.41-.91,.94,.34,1,3.06,.59-.56-1.09,1.81-.66,3.44-.53-.25,.34,1.16-2.56,1.03,.47,1.41h.78l-.38,5,1.34,2.16,1.69-1.56,1.31,2.31-.31,.91,.41-.5,1.34,1.66-1.41-1.91,1.97-1.66,2.5-2.44,1.75-3.72,1.09-.84v-2l.31-1.69,1.59-1.66-.41,1.53,1.81,2.22,.28-.34-.09,.88,.91-.09-.59,.72,.34,1.62-.25-.09v1.41l-.59-.09-.81,1.44,1.41-.16,2-1.84,1.53-1.66,.81,1.12-.16-1.75,1.91-2.97,4.09-1.16-1.44,1.47,.44,1.41-.78,.25,.38,2.34,1.72,.53,.94,3,1.09,.06v-.94l.81,.19-1.09,2.34-1.22,.91-.12,1.09,.59,.09-1.81,1.25-2,.31-1.84,3.81-1.16,.88,1.31,1.16,.34,3.25,.91-.41,.19,.56,.34-1.91,.97,.34,.5-.12,1.53,1-1.75-.38-1.5,2.22,.47,1,1.66,.5-.75,.53-.25-.44-.66,.91-1-.22,1.03,.75-.78,.47,.44,.69-.59,.47,.19-1-.78-.06,.5,.5-1.22,.34-1.03-.84,.44-.59-5.28,2.16-.06,2.44,.41-.31,.34,.81-.69-.16,.12,.84,1.03,1.88-1.91-2.25,.09-2.91-2.81,.75-.66,11.09-.09,4.66,.5,2.09,2.16,2.09,2.66,.56,2.28-.56-.78,.66,3.28,.06,2.72-.5,4.19-1.5-4.53,1.94-3.31,.81-.91,.09,.25,.53-.84-.53-.66,1.44,.84,.81-1.28-.09,.5,.69-.59,.16-1,.53,.12-.62-4.84,6.69-2.91,5.31-.78,1.38-.5,3,1.78,2.62,.88-.06,.34-.75-.5,2.84,1.78,4.75,1.81,2.56,1.44,5.69,3.47,2.81,3.44,3,2.75,.84,.66-.5-.41-.66,3.09,1.56,.5-.75-.03-.25,1.25-1.84-.31-.62,1.97,.88,.38-.75,2.31-.75,1.19,.53,.75-1.16-.75,1.5-1.59-.34-1.28,1.25-.22,.06-2.03,.09-.66,1.34,.66,1.81-2.47,1.91-2.66-1.25-1.12,.19,.53,.84-1.03,.5,.62,.31-2,.03-3.38-2-4.31-6.53-1.09-3.75-1.72-4.5-7.09,3.53-3.44,2.41,.84,2.47,3.09,3.44,.34-.25,2.41,3.41-.59,1.84,.69,.41,.47-.47,.16,1,1.03,.47-1.53-.31,.59,.75-.56,.75-.59-.66,.44,1.12,4.38,1.34,5,4.16,1.69,2.44,.09,1.31-1.53,1.28-3.16,.91,1.78,2.59,1.31,1.25,2.66,1.09,1.5-1.03-.47,1.84-.94,1.41,1.69,1.16-.38,.75,1.28,1.53-.69,.34,.84,.38-.75,.94,.94,.91-.34,1.53,1.09,.62,.5,2.25,2.16,.84,.91-.66,1.5,.09,.44,.97,2.16,.25,1.84-1.22,1.66,1.06,2.75-1.16,.72,1.09,.94-.19,.09,1,.75-.06-.19,1.84,.69,.81,1.72-1,2.03,1.94,.56-2.94,2.66,1.69,3.09-1.12-.16-1.81,3.91-1.31-.31-1,.81-.78-.91-1.25,.09-2.5,2.34-.81,2.06-2.69,1.44,.28,.88-.19,1.84-1.5,.44,.41,2.34-2.75,3.66-4.81,.97,.31-.12-3.34,1.91,2.03,2.34-.16,1.31-.62,.81-1.81,1.84,.41,1.16-.5,.84-2.22-.16-1,1-.88-1.66-1.56-.66-1.69,.56-6.38-.81-1.5,.62-1.44-.31-1.75-1.19-.19-.22-.72-.19-.59,.78,.06,1.12-1.25,.78-3.16-1.41-.06-.84-1.53,.84-1.12,.62,.47-.25-.59,1.78-2.38-.5-1.88,.91-.91,.19-1.75,.5-.59,.81,.62,1.91-.62,.28-.38-.59-.84,1.09-1.91-.19-1.44-1.94-1.09-.38-1.22-4-4.78-.84,.09-.25-.94-.25-.56h-.03l.09-.75-.75-.5,.25-2.34-1.09-1.16,.19-1.19-2,.59-.69,.91-1.66-.16-1-1.56-.56,.84-.41-.44,.22-1.16-1.09-.75-.72-2.59,1.81-1.41,1.03-2.03-.44-2.81,.75-.84-.25-1.22,1.06-.75,3.28-2.12,.97-.47,.03-2.25-2.25-2.16-.59,.22,.5-1.06-1.31-1.44-1.38-3.56-2.5-.44-.56-1.09-.69,.25,.19-1.22-.31-.66-.75-1.88-1.88,.88-.41-1.09,.69-.75-.59-.34-4.16,.75-1.59-2.16-1.31,.5-.78-.59v-1.75l.78,.16-.25-.84-.84-.22-.28-2.34-.81-.94-3.31,1.19-2.12-.31-.72-.59,.41-1.66v-1.53l-2.91-2.22-.94,.06v-.81l-2.59-2.75,.28-2.84,1.72-.5,4.75-7.5,1.62,.41,2-.25,.47-1.5,1.53-.09,.06-.91,.66-.16,1.53,1.34,.75-.38,.47-1.75,.25-1.41-.66-1.06,.56-.78-.38-2.66,.88-1.41-3.91-3.56,1.66-.34,1.78-1.78,1.25-.06,.34-1.56-.84-.69-.16-2.44,.97-2.16,1.41-.16,.19-.69,1.19-.5,3.81,.28,.81-1.34,.78,.56,.34-1.72-.84-6.59-1.59-.06-.75-2.03-6-4.91-1.31-3.91,2.38-2.03-.31-1.47-2.16-.75-1.53-1.66-.25-1.28,1.88-3.16-.38-.59,.62-3.5,.91-1.06-.25-1.91-.69-.44-.25-1.16-1.34-.16-2.56-2.75-1.41-2.69-.69,1.5-2.41,.91-2.19,2.59-2.47,.41-2.09-1.84-.94-2.47,.59-.84-2-3.34,1.84-1.34,.66-2.5,1.34-1.06-1.41-1.31-.03-1.88-1.72-.62-.34-.84,1.81-1.75,.03-3.16,2.91-1.78,2.75-.75-1.31-2.47,.75-.62-.53-.75,.91-.88-1-.84-1.88,.84-1.53,.22-.72-1.72-.78,.12-.81-1.06-.28-2.16-3-.75-1.91-2.66-.34-1.25,.53-1-.94-1.44Zm-37.22,112.94l-1.53,1,.44,3.81,3.59,6.59,2.41,.09,.06-.88-.09,.5-.31-.5-1.69,.34-.31-1.47-.84-.25,.19-1.44-1.78-1.84-.06-3.16-.91-2,.84-.81Zm6.91,90.75l.84,2.81,.88-.81-1.72-2Z"/>
      <path id="north-east" class="cls-1" d="M336.95,329.81l-3.19,1.97v3.34l-1.34,.25-.75,2.41-1.66,.03-.31,1.72-1.5,.34,.5,1.44-3.12,3.25v1.31l-1.88,1.31,.88,1.19-4.31-.66-1.31,.47-.69,1.19,.75,.66,.94-.31-.44,.91,1.66,1.84v2.56l3,2.69,1,3.59-.31,1.47,1.59,2.19,.12,1.56,2.84,.69-2.16,.84-.31,1.81-2.28,1.81-1.81-.5-3.28,2.78-1.22-.28-.75,1.12,.91,1.97-1,.91,.56,.62-2.62,1.97-1.28,.09-.97-1.19h-1.84l-2.75,.75-2,3.12-2.41,.56-.88,2.31-2.25,1.44-1.16,2.31-1.25,.25,2.19,1.38-1.16,.25-.09,2.31-2.25,.19-1.03,2.12-.41,1.5,.94,1.38-.53,1,.34,1.25,1.84,2.72,3,.69,.34,2.16,.81,1.06,.75-.06,.69,1.66,1.56-.16,1.91-.91,1,.84-.97,.88,.56,.78-.75,.59,1.28,2.47-2.75,.78-2.88,1.75-.06,3.16-1.75,1.81,.34,.84,1.72,.56v1.94l1.38,1.25-1.28,1.09-.66,2.47-1.84,1.38,2,3.31-.59,.84,.88,2.47,2.16,1.84,2.41-.34,2.25-2.62,2.41-.94,.69-1.44,1.34,2.62,2.62,2.75,1.28,.22,.31,1.09,.69,.44,.22,1.97-.91,1-.66,3.5,.44,.59-1.94,3.16,.25,1.28,1.56,1.66,2.19,.75,.31,1.5-2.38,2.06,1.25,3.84,6.06,4.91,.75,2.09h1.59l.81,6.66-.34,1.66,3-.62,4.75-2.34-.12,.97,3.06,.88,1.69,1.72,1.75-.25,5.31-3.09,.09-2.38,1.16-.53,3,2.59,1.06-2.44-.25-2.75,2.94,.44,.75-1.59,1.56,.69,.88,.31,1.62-.16,.19,1.09,1.34-.09,.06,1.19,1.34-.62,.69,.34-.09,.69,1.34-.25-.03,.66-.66,.31,.84-.12-.25,.88,1.75,1.34,.66,1.5h1.59l-.66-.5,.25-1.06,.81,.16,.16,.94,1.25-1.25-.47,1.16,1.5,.22,.5,1.44-.28,.19,.03,.38,.75,.5-.12-1.25,.53-.41-.59-1.06,.31-1.84-1.06-.91,1.06-.28,1.38,1.34,.62,.69-.31,.59,1.25,.22,.31-1.75,.78,.84,.84-.94,.72,.84-.16,1.53,.56,.66,1.19-.69,.09,.91,1.97-1.47,.78,.16,1.22-1.59,1.53,.28v-1.5l.91-.03,.5-.97,.25-.19,5.34,1.09,1.81,.31,1.5-.97,3.69,1.38,.81-.91,1.28-.09,2.31,.59,1,1,3.69-1.06,3.22,.75-.66-1.41,.25-3,1.34-2.03,1.72-.31,.75-1.09-1.31,.31-2.84-1.41-2.72,.03-1.94-1.59-2.16,.22-1.53-.47-1.16-.44-3.31-2.5-4.16-1.25-1.12-1.16,.09,1.06-1.22,.25,.38,1.44-.72,1.09-2.28,2.5,2.28-3.16-.16-1.34-.69,.16-1.75-.16,.75-1.09,1.56,.06-.56-.12,.25-1.25,.69-.38-1.69-1.31-.94-2.19,.69-1.47-.56-.53,1.47,.75-.25-.81-4.09-2.5-3.81-5.16-1.34-7.41-1.72-2.5-.5-1.84-.38-2.25,.59-.78,.09-.06-.19-1.44-1.12,.78,.47-1.19,.69,.16-.91-.5,.16-1.97-.75,.81-1.75-.16,1.75,.09,1.41-2.25-.5-1.5-1.25-.94-2-2.22,.69-1.19-1.09,.91-.34-.56-1.56,2.66h-.03l-5.09,.06,1.84-.5,3.03-.16,.56-1.59,.91-1,1.69-.16-1.75-1.75-2.03-4.75-.62-1.22-1.62-2.5,.28-1.19-1.84-2.66,2.25,2.97-2.56-4.75-.84-.16,.97-.16,.62-2.06,.97-.44-1.22-2.34-.5-2.22-1.69-1.94-1.31-3.31,1.47-5.03-1.16-1.41-2.19-1.06,2,.47-1.12-.59-1.25-4.22-.38,.47-.56-1.06,.25-.5,.59,.91,1.81-2.31,.28-2.66-1.09-1,.09-5.69-1.44-.66,.19-2.53-1.69-2.12,.34-1.03,.84-.22-1.69-2.38,.41-.47-5.22-4.19-1.19-.16-1.75,1.66-.94-1.41,1.28-1-1.19-2.06-1.81,1.16-1.69-1-1.81-2.53-.19-1.81-.81-.16,.09-1.16-4.69-4.25-2-3.03,.56-.41-3.12-5.06Zm15.66,13.66l-4.59,.06,.81,.75,1.62-.41,.81,1.56,1.5,.03-.16-2Zm-32.91,104.97l-.94,.38v-.03l.94-.34Z"/>
      <path id="yorkshire-and-humber" class="cls-1" d="M416.08,465.88l-.72,1.09-1.69,.31-1.34,2.03-.25,2.97,.59,1.44-3.22-.75-3.69,1.06-.94-1-2.31-.59-1.31,.09-.78,.91-3.72-1.38-1.5,.97-1.78-.31-5.34-1.09-.31,.16-.44,.94-.91,.09-.06,1.5-1.5-.34-1.19,1.66-.84-.16-1.91,1.47-.09-.91-1.25,.69-.5-.69,.09-1.5-.66-.84-.91,.88-.75-.84-.28,1.81-1.31-.25,.34-.56-.66-.69-1.34-1.34-1.03,.28,1,.91-.25,1.81,.59,1.09-.59,.41,.12,1.19-.69-.44-.09-.38,.34-.25-.5-1.38-1.5-.22,.41-1.16-1.22,1.25-.19-.94-.75-.16-.25,1,.66,.56-1.66-.06-.59-1.5-1.75-1.28,.19-.91-.78,.09,.62-.25,.06-.66-1.41,.25,.16-.69-.75-.34-1.34,.62v-1.19l-1.34,.06-.22-1.06-1.59,.09-.91-.25-1.59-.69-.69,1.59-2.97-.44,.25,2.75-1.09,2.44-2.94-2.59-1.16,.5-.09,2.41-5.31,3.09-1.75,.19-1.69-1.66-3.06-.94,.09-.91-4.78,2.34-2.97,.62-.78-.56-.81,1.41-3.81-.34-1.19,.5-.19,.69-1.41,.16-.97,2.16,.16,2.44,.84,.69-.34,1.56-1.25,.06-1.75,1.78-1.69,.34,3.91,3.56-.88,1.41,.38,2.66-.56,.78,.66,1.06-.25,1.41-.41,1.75-.81,.38-1.53-1.34-.66,.22-.06,.84-1.53,.09-.47,1.5-2,.31-1.62-.47-4.75,7.5-1.72,.5-.28,2.84,2.59,2.75v.81l.94-.06,2.91,2.22v1.53l-.41,1.66,.72,.59,2.12,.31,3.31-1.19,.81,.94,.28,2.34,.84,.22,.25,.84-.78-.09v1.69l.78,.59,1.38-.5,1.53,2.16,4.16-.75,.59,.34-.69,.75,.41,1.09,1.88-.88,.75,1.88,.31,.66-.19,1.22,.69-.25,.56,1.09,2.5,.44,1.38,3.56,1.31,1.44-.5,1.06,.59-.22,2.25,2.16-.03,2.25-.97,.47-3.28,2.12-1.06,.75,.25,1.22-.75,.84,.44,2.81-1.03,2.03-1.81,1.41,.72,2.59,1.09,.81-.22,1.09,.41,.44,.56-.84,1,1.56,1.66,.16,.69-.91,2-.59-.19,1.19,1.09,1.16-.25,2.34,.75,.5-.09,.75,.28,.59,.25,.91,.84-.09,4,4.78,.38,1.22,1.94,1.09,.19,1.44,1.06,.5,1.31-.75,2.09,2.25,1.25-.09,.19,.81,1.22,.25-.62,.53,.91,.38-.28,2.38,2.12,1.81,1.5,.25-.03,3.94,1.03,1.12,1.66,.09v1.09l3.31,1.31-.59,2.84,4.78,2.25-1.41,.28-1.34,2.5,.34,.47,1.25-.66,.47,.44,.19,.75,.91-1.09,.31,1.06,1.25-.47v1l1.59,.22,2.28-1.41,1.31-.16,.91,.16,.84-.5-.31-.94,1.16-.75,1.41,.28,.59-.84,1.59,.81-.12,1.78,1.75,.34,.38-.5,1.25,.41,.88-1.44,.19,.34,.59-.94,.84,.12v.06l.72,.66-.47,1.25,.91,.59,2.56,.81,.78-.75,1.81,.44,.25-.81,3.94-3.28-.12-.56-1.06,.16-.34-1.41,1.53,.22-.53-1.47,1-.69-.25-1.56,1.19-.78v-1.16l.5,.16,1.34-2.16,3.66-.66,.06,.66,1.03-.16,1.22-1.16,.59-3.78,2.09-1.47,1.09-2,2.38,2.97-1.25,1.09,.25,.53,2.75-.12,.09-.56,4.94,1.19,.84-1.09-.03-1.28,.84-.38,.19-2.09,1.06-.19,.75-2.16,7.44,.66-.53,3,.34,2.94,4.16-.03,6.09-1.97-.94-.59,.28-1.75-.5-.91,5.41-1.53-.25-1.62-.91-.19-.59-1.31-4.56,1.12,.66-.97,1.56-.41v-.69l1.03-.31,1.38-1.84,.62,1.22,4.62,.34,.84,.03,2.19-4.03-.53-2.06,1.03,.09,2.91,2.06-.16,1,1.06-.19,.84,1.94,1.75-.41,.56,.84-2.06,3.47,.66,.03,.44,2.22-.34,2.78,1.44,.16,.5,1.72,1.81,.28,.34,2.06,1.22,1.16,.75,.25,2.44-2-1.75-2,1.16-.91-.41-.91,1.31-.41,.59-3.19,1.19-.22,.47,.75,3.19-.94,.5-.5-1.31-1.81-3.34-3.62-.59-.62-.75-.12-.44,.75-.91-.41-1.25-.97-6.16-5.12-6.06-8.16-6,1.44-.38,.59-5-.03-1.16,.94-1.31,1.16-1,.31-4.03-1.72-1.72-2.28-5.25,2.19,.59,2.56-.88-1.38-.06-1.44-1.75-.66,2-.09,1.44-1.91,3.06-.84-.41-.56,3.09,.75,1.97,1.88,5.19-.97h.66l1,.31,7.41-2.81,2.94-.53,2.59,.09,.31-1.56-.09,2.66,.5,.44,.66,2,7.59,7.38,3.91,1,5.62-2.38,3.12,.88,2.84,1.78,1.28,1.66,.06,.66,.09-.59-.25-1.75-2-4.5-18.16-25.47-2.34-6.25-1.66-5.19-.12-5.41,.84-2.25,.78-.19,1.12-2.12,4.03-.75,1.81-1.34-1.16-1.28-7.09-2.91-.59-.09-3.31-1.91-1.5-2.97,.5-1.53,1.16,.09-2.84-1.16-4.38-2.34,.25-.5-2-2.16,.72-1.53-1.47-.62-.69-4.09-1.06-.91-2.09-5.34-1.75-1.94-2.03-.91-.72-1.84,.72-1.56-4.38-4.5-1.53-.5-3.72-.66-.75-2.03-2.19-1.59-1.84,.69-1.97-3.16-.88-.34Zm-45.22,135.44l.5,.72h-.03l-.47-.72Z"/>
      <path id="east-midlands" class="cls-1" d="M449.08,568.72l.53,2.06-2.19,4.03-.84-.03-4.62-.34-.62-1.22-1.38,1.84-1.03,.31v.69l-1.56,.41-.66,.91,4.56-1.06,.59,1.31,.91,.19,.25,1.62-5.41,1.5,.5,.94-.34,1.75,1,.56-6.09,2-4.16,.03-.34-2.94,.53-3.06-7.44-.59-.75,2.09-1.06,.22-.19,2.09-.84,.41,.03,1.28-.84,1.06v.03l-4.94-1.19-.09,.5-2.75,.19-.31-.53,1.31-1.09-2.38-2.97-1.09,2-2.16,1.47-.53,3.78-1.22,1.16-1.03,.16-.06-.66-3.66,.66-1.34,2.16-.5-.16v1.16l-1.19,.78,.25,1.56-1,.69,.53,1.47-1.53-.22,.34,1.41,1.06-.16,.12,.56-3.94,3.28-.25,.81-1.81-.44-.78,.78-2.56-.84-.91-.59,.47-1.25-.72-.66-.84-.19-.59,.94-.19-.34-.88,1.41-1.25-.38-.38,.5-1.75-.38,.12-1.75-1.59-.81-.59,.84-1.41-.28-1.16,.75,.31,.94-.84,.5-.91-.16-1.31,.16-2.28,1.41-1.59-.22v-1l-1.25,.47-.31-1.09-.91,1.12-.19-.75-.47-.44-1.25,.69-.34-.5,1.34-2.5,1.41-.28-4.78-2.25,.59-2.84-3.31-1.31v-1.09l-1.66-.09-1.03-1.12,.03-3.94-1.5-.25-2.12-1.81,.28-2.38-.91-.38,.62-.53-1.22-.25-.19-.81-1.25,.09-2.09-2.25-1.31,.75-1.06-.5-1.09,1.91,.59,.84-.28,.38-1.91,.62-.81-.59-.5,.56-.19,1.75-.91,.91,.5,1.88-1.78,2.38,.25,.59-.62-.47-.84,1.16,.84,1.5,1.41,.06-.78,3.19-1.12,1.22-.84-.06,.25,.59,.22,.72,1.19,.19,.31,1.75-.62,1.44,.81,1.5-.56,6.38,.66,1.69,1.66,1.56-1.06,.88,.22,1,1.66-1.34,.34,1.34,3.5,1.66,1.94,.34,3.81,4-.34,2.5,2.5,3.62,.03,1.03-.69,.5,.53,2.81,.66,.41-.59,1.03,.41,.56,1.44,1.5-.34,3.41-4.19,2.44-.25,3.5-1.62,1.59-.03,1.16,1.66,2.59-.16,1.06,1.41,.69,.62-.59,.91,.66,.72-.41,2.12,1.66,1.31,.94,1.41-.75,.09,.59,.81-.34,4.25,1.06,2.75,2.5-1.66,1.75,1.19,.66,.22,1.03-1.66,1.31,.19,.75-.53-.41-.5,.56-.75-.75-.75,.78-1.06-.59-2.06,3.56,.31,.94-1,1.44,3.34,.97,.16,2.53,1.31-.44,2.09,.66,.41-.41,.69,.66-.16,.75,2.47,2.03,.69,1.62-.31,1.25-1.59,.78,.31,1.59,.78,.66-.38,2,2.25,1.47,.28,1.34,4.25,2,2.81,1.91,6.19,3.59,1.31,.78,4.41,5.81,.25,.44,2.38,4.25,2.06,3.88-.19,.53-3.12,.81-2.75,1.69-.19,.66,3.81,1.41-1.62,2.69,.66,.41,.56,2.19-1.09,1.47-1.47,.66-.84,1.34-1.16-.34,.59,1.78,1,.66,.41,1.84-1.75,.81-2.16,.19-1.12,2.47,5.62,7.69-1.62-.06-3.25,1.22,.19,.75,1.41,.19-1.06,2.97,2.41,4-.69,2.69,.44,1.16,2.75-.81,3.06,.97,1.38-.56,.81-1.25,2-.44,1.25-2.12-1.44-.59,.94-2.5,4-2,2.41-.19-1.06-1.06,5,.31,1.06-1.22,.78,.62,.75,3.53,1.5,2.31,1.22-1.06,.66,.31,.59-1.25,1.25-1.22-.72-1.09,1.56-.34,.56-.91-1.12-2.09-1.53-.91-.16-1.28-1.06-.25,.41-1.31h.06l3.5-.75-.25-1.19,1.19,.09,.41-1.59,1.06,.59,.53-1.59,1.22-.62,.25,.88,.78-.41,2.97-2.75,2.5-.41,2-3.59-1.22-4.47,2.91-1.19,1.59,.59,1.47,2.09,1.69-.44,.56-1.44-.75-2.12,1.78-2.75-.41-.28,3.66-.66-.09-1.75-1.16-.19,.41-.91-1.44-1.22,.62-1.5-.5-.59,3.75-.84,1.56-1.94-.09-.88,.41-.09,3.19-2.34-.66-.41,1.16-2.53,.81-.75-1.25-2.47,.28-1.84-4.03-2.09,.84-1.34-.09-1-1.22-1.22,.81-.53-.56-1.62-.66-.38-3.53,1.03-1.31-1.41,1.72-3.44-.22-1.09-1.44-1.31h0l1.25-.94,1.5-.09,.03-.56,3.16,.59,3.66-1.59,.94-1.44,3.06,.44,2,2,3.56-1.91,.88,1.72,.88-.91,2.59,.91,2.5-2.31,1,.56,1.53-.97,2.16,1,.06,.41,3.5-.44,1.78-1.91-.44-3.56,1.25-1.41,1.69,.31,2.88-1.81,2.5-.12,1.09,.5,5.53-4.31-1.84-1.19,1.31-2.88-3.34-.62-.56,3.59,.41-4.72-2.75-5-1.72-.88-1.75-.75h-2.09l-2.25-1.16-1.28,.41,.28-.81-1.03,.69,1.19-1.84-.59-.94,1,.59,1.69-1.5h-2.41l2.47-.19,.91-2.56-.5-.09,4.44-6.09,2.66-2.47,1.16-.75,4.84-4.59-.75-.09,2.09-.81-1-.53,2.06,.5,.69-.88,.75-10.44-.59-1.75-.75-3.34-6.72-14.41-1.03-3.59-2.09-1.22,1-.44-1.66-1.75,.84,.16-1.06-.75,.41-.66-2.34-3.19,.69,.25-.28-.62-1.09-1.25-.16,1.31-1.06-.25,.5-1.19-1.78-.91,.59,1.19-.31,.66-.75-.59-.53-.09-.97-1,.56-1.25-.56-.25-.09,.62-2.59-1.59,.59,1.31,.59-.31-.09,1-2.5-1.84-.5,.5-3.19,.94-.47-.75-1.19,.22-.59,3.19-1.31,.41,.41,.91-1.16,.91,1.75,2-2.44,2-.75-.25-1.22-1.16-.34-2.09-1.81-.25-.5-1.72-1.44-.19,.34-2.75-.44-2.22-.59-.09,2-3.41-.56-.88-1.75,.44-.84-1.94-1.06,.19,.16-1-2.91-2.09-1.03-.06Z"/>
      <path id="east-england" class="cls-1" d="M516.92,635.19l-.75,.09-.16,1.03,1.09-.75,1.09,.75,2.41-.25-3.69-.88Zm-.75,.09l-1.47,.19,1.38-.03,.09-.16Zm19.41-.06l-.31,.31-.16,.78,1.66-.75-1.19-.34Zm1.19,.34l2.66,.97-1.09,.41-.22,.94-2.16-.16,.06-.69-3.16,.69-1.09-.69-.09,.53-2.72,.16,1.88-.41-.81-.69h-.16l.09,.06-.53,.5-.03-.03,.47-.53-1.59-.94-.91,2.34,.81-1.31,.69,.25v-.03l.28,.12-.28-.09v.75l-.28,.59-1.31-.25v-1.75l-2.06-.25,1.12-.28-1.62,.25,.06,.78-2.16-.69-2,.09,.66,.09-.19,.72-1.72,1v-1.25l-1.53-.16-.91-.41-1.31,.81,.91,.03-1.41,.12,.41-.66-3.56,.41,.41,.25-.59,.28,.06-.53-1.81-.25,.94,.94-.88,.25-.31-.84-.91,1.03-.69-1.34-1.41,.25-3.44,3.66-2.5,7.59,.19,3.31-.81,.53-.25-.75-.75,.72,.62,.28-1.12,.25,.06,.5h-1.06l-1.28,1.72,.44,.78-.53,.06-.41,1.25,.53,1.94-.53-1.38-2.81-2.5-2.69,.03-1.25,.59-1.31,2.88,1.84,1.25-5.53,4.25-1.09-.47v-.03l-2.47,.12-2.84,1.81-1.75-.31-1.19,1.41,.38,3.56-1.75,1.91-3.5,.44-.09-.41-2.09-1-1.59,.97-.97-.56-2.53,2.31-2.59-.91-.88,.91-.88-1.72-3.56,1.91-2-2-3.06-.44-.94,1.44-3.66,1.59-3.16-.59v.56l-1.53,.09-1.25,.94,1.44,1.31,.22,1.09-1.72,3.44,1.31,1.41,3.53-1.03,.66,.38,.56,1.62-.81,.53,1.22,1.22,.09,1-.84,1.34,4.03,2.09-.28,1.84,1.25,2.47-.81,.75-1.16,2.53,.66,.41-3.19,2.34-.41,.16,.09,.84-1.56,1.91-3.75,.84,.5,.59-.62,1.5,1.44,1.22-.41,.91,1.16,.19,.09,1.75-3.66,.66,.41,.28-1.78,2.75,.75,2.12-.56,1.44-1.69,.44-1.47-2.09-1.66-.59-2.84,1.19,1.22,4.47-2,3.59,1.69,.66,1.06,.75-.16,2.91-.72,.25,.47,1.59,1.84,.44,1.09,2.5-.91,2.06-1.69,1.25-2.44,3.53,1.75,1.25,.19,1.5-.69,.56,.5,.84-1.22,1.22,1.16,3-.5,.34-.56,1.5-.69-.06,.16,1.34-.84,.22-1.25,3.59,.69,1,1.31-.19,1.44,1.59,2.16,.09,.78,1.06,1.72,.53,3.19,4.22-.41,.75-.62-.22-.25-.5-1.66,2.72-3.47-1.41-1,.75-1.34-.25-1.94-2.72,.53-.88-.62-.97-1.41,.09-1.91,1.72,1.5,2.59,1-.31,1.66,2.22-.31,.84,1.22,2.59,4.12,2.22,1.75-.5,1,1.75,.62-.47,.62,.59,.25,1.22-.78,1.25,1.28,1.59-.09,1.81,1.5-.22-.03,.34,.94-.12,.41,.75-.59,.84-.47-.25-.09,1.03-.94-.25,.38,1.25-.53,1.25,1.25,3.56,1.5,.56v-3.38l2.91,1.97,1.09-.91,2.5,.69,1.75-.53,.69-.31,.34-.34,3.12-1.91,.75,.34,.62,.16,2.22-1.03,.44,.28,.41-1.53,2.59-.66,.56-1,.84,.66,.59-.5,.66-.5,.59-1.66,3.06-.22,.84-.34,6.44,1.06,.06,3.78,2.56,.91-.22,.97,1.34,1.38,2.22,1.12,1.09-.06,.19-.94,2.47-.91,.59-.25,4-.34,.25,.03,1.59-.78,2,1.5,.81,1-.66,.75,1.06,.19,1.5,3.81,1.53-.22,1.56,2.72h-.81l-3.84,1.03-.09,1.56-.66,.03-.34-1.19-.25,1.09-.56-.03,.41,1.25-1.06,.19,.25,.75-1.12,.56-.16,.53,4.91,2.97,1.09-1.22,1.69-.19,1.31,2.25,1.25,.09,5.09-1.34,.66-3.97-.34-.38,1-.62,3.59,.06,2.19-.91-1.28-.28-1.12-2.31-.09-.5-.94-.69,1,.59,.78,1.41,.81,1.25,.75-.31,.94,1.16,1.38,.16,4.28-1.66-1.25,.25,.84-.59-2.25-.41,.22-.59-1.09-.16-1.75-.81,4.44,.56,1.19-.41,3.06,.56,5.56,.84,1.34,.34,4.09-3.94-2.25-.5-.69-1.81-.88,.69,.66-1.5-2,.38,2.84-1.66-.94-1.22,1.06,1.06,3.09-.16-.09-1.78-5.62-.75-1.44-1.31-1.75,.75-1.06-.5-.38-.81,2-.34,1.03,.09,2.31,1.97,.53-.47,3.91,.75,3.06-.25,2.16-1.59-.22-2.69,.91-2.5-.84-2.06,.66-3.09-1.41-1.75-2.34,.44-2.88,3.22-2.25-.5-1.75,.41,.22,1.09-1.97,.66-.59,1.34-1.28,.41v-.72l.69,.25,.16-1.03,1.19-.91-3.94-.41-1.75-1.84,1.28,.75,.5-1.56,1.5,.84,1.16-.38,.25-.38,.25-.75,1,.38,.09-.56,.88,.81,.19-.97,1.5,.66,2.31-.25-.12-.81,.66,.38,1.75-1.56-1.53-.69h-1.25l-.12-.56,1.06,.19-1.41-.38,1.47-.41,.19,.66,2.34,.19-1.25-1.34-.66-1.41,1.81,1.84,.16-.84,.44-2.41,.5,.5,1.72-.75-.5-.19,2.69-.66-1.81-.94,1.38-.06-.81-1.19,2.06,1.62-.5-3.09,1.03,.75-.53,1,.84,1.47,2.19,1.12,2.25-.84-.25-.75,.75-.28-.09,.59-.75,.94-.31,.66-2.12,.09,1.38,1.22,.16,1.69-.69-1.56,.75,1.88,3.69-.56,2.56-.34,6.84-4.91,3.25-4.56,.19-1.59-1.59-.25,.09,1.22-.03-.12h-.09l.03-.03-.03-.06,.09,.06-.06-.16-.19-.34-.25-.06-.06,.06-.16-.09h-.09l-.16-.06-.03,.06-.06,.09v.03l-.03,.12v.12l.25,.06,.03,.06h.22l.19,.19v.16l.16,.09-.06,.06-.69,.03-.16,.84-.06-.69-.84,.09-.25,.75-.41-1.91-1.03,.38,.75-1.22-1.06,1.09h-2l2.09-.84-.78-.66,.91-.62,1.03-.06-1.09-.59,.91-.84,.34,.19v-.06l.06,.12,1.03,.5,.34-2.38,1.81-1.94,1-.16-.44-1.5-.81,1.16-2.16-.91-1.28,1.06h-.66l.09-.59-2.06,.59-.5-.09-.75-.66-3.38,1-3.91-.47-1-1.44,1.09,1.16,1.44-1.22,3,.47,2.16-1.97,1.72,1.56,1.53-.09,.66,.28,1.5-1,2.19,.5-.62-3.44-3.81-.81-2.75-1.78-1.34-2.09,1.75,1.28,2.53,1.5,2.88,.97,.03-.72,1.56,1.06,.25,2.59,2.59,1.91,.06,2,1.59-2.75,2.84-2.5,.16-1.22-2.09-1.75,1.84,.66,.5,1.31,2.34-2.06,1.91-4.44-.75,.09,3.25-3.06,.44,.06,.59-.66,2.16-.69-4.03,2.59-1.62,2.16,1.62-1.91,6.25-3.84,2.09-10.81,.16-9.34,2.12-4.41,.56-.25,3.16-9.66v-4.88l1.41-3.06,.34-1-1.81-5.5-.75-3.56,.41-.78-.31-.59,.41,.44-.59-8.09-2.66-7.41-2-2.81-6.53-6.19-10.56-8.41-5.81-3.69-5-1.84-9.12-.88-9.06-2.5Zm20.81,116.88l-.06-.06,.09,1.56,1-.47-1.03-1.03Zm2.19,1.59l.56,.94,.44-.28-1-.66Zm-.16,.44l-2,.09-.28,.72,1.28,.66,1-1.47Zm.09,.09l-.03,.12-.09,.19,.03,.16-.03,.16-.16,.03-.16-.09v.09h.06l-.06,.06,.5,.09,.09,.06v-.5l-.03-.22-.12-.16Zm.5,1.72v.16h-.25l.22-.12,.03-.03Zm-20.09,7.03l-1.69,.75,.03-.5-2.88,3.12,.38,.59,3.16-.41,2.59-1.31,1.06-1.34-2.66-.91Zm-16.34,9.16l-.84,1.25,1.44-.03-.59-1.22Zm2.31,.56l1.19,.66,1.06-.47-2.25-.19Zm14.25,10.84l-5.62,.91-.5,2.16-1.88,.19,.59,1.34-.97,.66-.38,1.25,1,.34-.25-.59,1.62,1,4.41-3.91,1.97-3.34Zm-8.75,3.06l-1.25,1.09,.88,2.25,1.06-2.22-.09-1.03-.59-.09Z"/>
      <path id="south-east" class="cls-1" d="M428.58,724.38l-2.5,.41-2.97,2.75-.78,.41-.25-.88-1.22,.62-.53,1.59-1.06-.59-.41,1.59-1.19-.09,.25,1.19-3.5,.75-.47,1.31,1.12,.25,.09,1.28,1.53,.91,1.12,2.09-.56,.91-1.56,.34,.72,1.09-1.25,1.22-.59,1.25-.66-.31-1.22,1.06-1.5-2.31-.75-3.53-.78-.62-1.06,1.16-5-.25,1.06,1.06-2.41,.19-4,1.97-.94,2.53,1.44,.59-1.25,2.12-2,.44-.81,1.25-1.38,.56-3.06-.97-2.75,.81-.44-1.16,.69-2.69-2.34-4.06,1-2.91-1.41-.19-.19-.75,3.25-1.25,1.62,.09-5.62-7.75-1.16,3.66-1.22-.09-1.78,1.88,1.5,.16,.91,1.75-1.88,.81-2.69-2.59-1.91,.53,.47,1.72-2.06-.41-1.59,3.25,.28,1.41-1.62,6.78-.38,.56-.94-.5-1.06,.53,.56,1.16-2.09,.91-1.34-.44,.59,.69-1.41,1.66-3.66-3.5,.25,2.59,.5,.69,1.56,.22,1.19,1.94-2.03,1.72,.84,2.5-1.75,.28-.56,2.16-1.34,1.25,.75,1.69-.69,1.72,.62,1.91-.28,1.44-2.56,2.25,1.31,1.41,.91,3.34-.62,1.81,.72,1.44,1.94,1.5,.66,1.34-.94,.41-1.66-.94-.97,1.84,.5,2.03,2.25,2-.88,1.38,.44,.69-1.59,1.19v2.31l-.06,.09,1,1.5,1.47-.75,.53,.5,3.06,5.84,1.25-.75,.09,3.22,1.69,2.94,2.41,2.31-.16,2.53-2.62,.25-.41,.75,.59,.75,.66-.19-.22,1.59,2.91,2.56,1.25,.25-.34,1.44,1.06,.97-.88,2-2-1-.38,2.44,.94,2.19-.19,1-1.38,.62,.16,2.25,.72,.03-.41,1.31-.59,.34-2.25-1.09-2.06,.28-1.75,3.88-3.91,.34-.25,1.19,1.72,1.41-.22,1.34,1.06,2.09,.19,.38-.59,3.12,2.56,1.06-.75,2.75,.62,1.56-.44,4,.16,.94,2.28,1-.38,.69,.53,1-.78-.19-.41,.34,.59,.5-1.59,.34,.66,1.75,1.12,.5-1.12,2.16h.03l-.25,.47-.84-.5-1.81,1.53-1.03-.5-.91-.53-2.09-2.41-2.34-.09-3.22-1.5-1.03,.59-1.41-2.56-1.22,.56-1.44,2.19v-2.41l-.84,.75-2.84,.22-1.5,1.69-.5-.84,.09,1.31,2.41,1.78,3.25,4.84,2.19-1.59,2.16,.5-.41,2.56-.56,.91-1.19-.16-.44,.75,.28,.34-.66,2.25,.22,.84,1.44,.34,1.5-1,.41,2.38,.81,.69-.91,.69,.03,1.81-.59,.56,.66,1.28-.19,.47,1.25,1.5,.12,1.53,2.56-1.59,.66,1.69-.34,1.75,4.34-.44-.75,1.59,3.5,.56,5.16,2.19-.81-.69,1.66-.5,1.69-1.59-.75-.31,1.09-.56-.62-2.09,1.09,1.06h1.25l7.03-2.31,.47-.28-.56-.56,3.34-.19,2.72-3.47-.22-.59,.12,.59-.81-.09-.09-.81,.53-.09-1.38-.19,.28-1.22-.5-.75-1.28,.22,.53-.59-1.66-.62-3.12-4.5-4.16-1.62,.53-.47-.25-1.5,.72,1.84,1.09,.81,.81-.44-.31-.47,.06,.03,.25,.44,2.69,1.94,.09-.5,.31,1.25,.44-2.59,1.16-.59-.91,.88,.09,1.62,1.25,1,3.62,3.38-.25-2.94,1.12-.41-.38,4.25,4.28,2.5,2.09,.81,1.88,2.25,3.28,1.66,2-1.75-2,.53,1.66-1.28-.5-.88-.91,.25,.91-.5-1.56-2.09-.78,.25,.28-1.34-1.59-.34,1.5-.66,1.84,.84,1,.09-.34-.88,1-.25-.19,.94,1.19,1,.5-1.06,2.66,.47-2.25-.31-.56,1.31-1.09-.22,.56,1.22,.19,.66-1.5,.34,.16,1.66,1.44,1.5,4.06-1.12-.06-1-.88,.66-.06-2.09v-2.44l.5-.38,.84,1,.06-2.88,.25,1.03,1.28-.09,1.38,.94,.5-.78,2.88-.16-.12,1.41,1-.34,.53,.59-.09-1.34,1.31,.12,.19,2.22,1.09,.75,.75-1.72-.41-1.44,.81,.06-.09,1.28h.69l-1.19,1.56,1.78,.94,1.62-1.41,.34-1.78,.44,.34-1.19,2.84-1.31,.59-2.34-.84-1.81,2.81-.75,.19,.22-.94-.31,.94,5.22,2.84,4,3.31,2.12-3.81-.53,.72-.75-1.16-1,.19,.34-.94,1.44-.16,.62,1.25,3.5-2.19,11-2.66,1.34-.25,6-.25,5.19-1,5.66-1.81,2.09,.16,2.22-.34,4.03,.5,1.47,.31,2.12,1.12,.97-.44,3.75,1.25,4.78,1.69,2,.72-.03-.72,4.5,2.5,1.84-.12,4.69,2,3.12,.03,5.25-6.78,2.59-2.41,8.59-2.81,7.25-2.03,2.56-1.38,1.38-.12,4.22-4.66,3.03-1.72-.19-.38,5.75,.62,8.25,1,.5-.75-1.41-5.38,1.84-6.06,5.38-4.69,8.19-1.72-.66-.41,2.31-2.25,3.25-.38,2.25-1.38,1.78,.12-.84-1.12,4.31-2.38,1.34-2.62-.16-7.59-.16-.44-2.53-7.84-1.41,1.19-.25-.09-.06-.66,1.22-.66,.09-1.25,.81-.53,2.5,.5,.59-.88,.16,.62,1.09-3.56,.34-2.09-.59-1.09-.5-.22-.72-.44-7.44,1.78-6.19,.41-9.66,1.66-3.34,.41-1.41,1.59-4.16,.81-3.16,.44-.53,.66,.09-.81-2.25-1.16-3.5-.12-3.31-.38-.69,1,.41-3.19-2.66-1.75-.72-1.44,1-.66-1.12-.06,.88-.44-2.12,.5,.69,1.19-.66,.16,.47,1.25,1.12,.66-.28,.59-1.25,.5,.5-1.41-1.09,.09-1.12,2.12-.78-2-1.34-.31-.38,.66-1.03,.09-.47,1.06-1.19-.75-2.34-.88-1.72-1.62-.03,.06-1.06,1.38,.97-1.75,5.12-.66,1-.69-.5-.56,1.12-1.94,1.44-.41,.69,.59,.22-.53,.59,1.62,2.41-.34,.66-.84-.25-1.81-1.47-1.34-1.94,.09-.81-.53-3.03,.41-2.06-.97-.19,.56-.56-.5-1.41,.34-.5-.59-5.34,.69-.66,1.72,.66,.28-.91,.09,.34,.91-5.19,1.47-3.91-.66-.69-1.56-2.81,1.31-3.94-2.81-.91,2.91-2.06,1.25-.5,1.66-.59-.25-.41,2.41,.97,1.78-1,.06,.41,2.44-.97,2.81-1.28,.03,.03,1.62-2.25,1.53,.16,2.5-3,.09-.66-1.59-1.19,1.75-1-4.03-.91-.47-.19,.41-.62-.84-1.03-.06-.84,.72-.06,1.09-1.84,.34-.81,2-2.25,1.66-.91-1.5h-1.25l-.12-2.22-2.22-2.09-.66-.25-1.53,1.56-.66-.75,.84-.75-.41-1.5-1.59-1.06v-1.41l-1.09,.06-1.81,1.94-1.12,3-1.22,.97-.44-.09-.06-2.25,1.5-3.38-.75-1.62-.69,.25-2.22-2.16-2.09,.28,.22-1.12-.41-.38-1.84-.94-1.41,.19-.47-1-.69,.22-.19-1.97-3.5-1.34,.38-1.28,.91-1.5,.47-1.38-.66-1.09-.31-2.34,1.25-2.16-.91-2.16-.78-2.38-1.5-.56-1.41,1.44,1.34-1.44-1.19-3.56,.53-1.25-.44-1.25,1,.25,.09-1.03,.41,.25,.66-.84-.41-.75-.94,.12,.03-.34-1.5,.22,.09-1.81-1.34-1.59,.84-1.25-.25-1.22-.62-.59-.62,.47-1-1.75-1.75,.53-4.12-2.25-1.22-2.59,.31-.84-1.66-2.22-1,.31-1.5-2.59,1.91-1.72,1.41-.09,.62,.97-.53,.88,1.94,2.72,1.34,.25,.97-.72,3.5,1.38,1.66-2.72,.25,.5,.62,.22,.41-.75-3.19-4.22-1.72-.53-.78-1.06-2.16-.09-1.44-1.59-1.31,.19-.69-1,1.25-3.59,.84-.22-.16-1.34,.69,.06,.56-1.5,.5-.34-1.16-3,1.22-1.25-.5-.81,.69-.56-.19-1.5-1.75-1.25,2.44-3.53,1.69-1.25,.91-2.06-1.09-2.5-1.84-.44-.47-1.59,.72-.25,.16-2.91-1.06-.75-1.69-.66Zm-41.91,151.34l.09,.22,.19-.16,.06-.16,.06-.41-.22,.59-.19-.09Zm-17.59,11.5l1.03,.47-.44-.31-.59-.16Zm157.38-83.78l.38,1.09-.88,1.5,.88,.84-1,.69-.75-.53,.69,1.41,2.34,1.34,.22,2.03,2.53-.19h.06l2.44,.66,1.25-.16,2.72,1,3.59-2.25-3.56-4.56-5.28-.78-2.38-1.41-3.25-.69Zm-5.28,2.75l-.34,.53,2,.31-.38-.84h-1.28Zm1.78,1.19l-1.69,.56,.5,1h1.59l-.41-1.56Zm-8.62,.75l-.22,.56,1.5-.12-1.28-.44Zm-103.91,65.25l-1.22,.84-.5,3.16-2.09,.25,.25,1.06,5.84,.88v-1.03l-1.5,.66,.5-.66-1.03-.06,.94-1.44-1.16-.22-.28-.62,.69-.06,.47,.19,.38-1.78-1.28-1.16Zm2.03,.44l-.12,1.62,2.12,1.28,.25-1.5-.28-1.16-1.97-.25Zm-10.84,1.16l-.28,.81,.5-.16-.22-.66Zm-14.03,6.06l-1.41,.25-2.25,2.84-3.91,1.5,1.66,.31-1.22,.19-.75,1.19,.16-1.19-.59-.41,.34-.03-.69-.22-3.06,1.91-2.16,.41-.25,.28,.06-.38h-1.25l-1.81,3.12-2.62,1.72,7.03-.47,2.59,2.5,4.12,1.81,6.59,5.66,7.59-2.56,1.75-5.78,1.75-1.31,2.5-.41,1.91-2.03-.84-1.16-1.81,.09,.34-.66,.31,.16-.81-2.56-3.5-1.25-3.53-.12-.62,.44,.41-.75-1.75-.59-.59-.91-2-1.56-1.09,.22,.66,3.78-1.25-4.03Zm-17.5,6.03l.12,.66,.16,.06-.28-.72Z"/>
      <path id="london" class="cls-1" d="M467.76,778.47l-.84,.34-3.06,.22,1,.66v.03l-1-.69-.59,1.66-.66,.5-.59,.5-.84-.66-.56,1-2.59,.66-.41,1.53-.44-.28-2.22,1.03-.62-.16-.75-.34-3.12,1.91-.34,.34-.69,.31-1.75,.53-2.5-.69-1.09,.91-2.91-1.97v3.38l.78,2.38,.91,2.16-1.25,2.16,.31,2.34,.66,1.09-.47,1.38-.91,1.5-.38,1.28,3.5,1.34,.19,1.97,.69-.22,.47,1,1.41-.19,1.84,.94,.41,.38-.22,1.12,2.09-.28,2.22,2.16,.69-.25,.75,1.62-1.5,3.38,.06,2.25,.44,.09,1.22-.97,1.12-3,1.81-1.94,1.09-.06v1.41l1.56,1.06,.44,1.5-.84,.75,.66,.75,1.53-1.56,.66,.25,2.22,2.09,.12,2.22h1.25l.91,1.5,2.25-1.66,.81-2,1.84-.34,.06-1.09,.84-.72,1.03,.06,.56,.84,.25-.41,.91,.47,1,4.03,1.16-1.75,.69,1.59,3-.09-.16-2.5,2.25-1.53-.03-1.62,1.28-.03,.97-2.81-.41-2.44,1-.06-.97-1.78,.41-2.41,.59,.25,.5-1.66,2.06-1.25,.91-2.91-.5-1,.16-.59,1.12-.5-.25-.75,1.06-.19-.41-1.25,.56,.03,.25-1.09,.34,1.19,.69-.03,.06-1.56,3.84-1.03h.81l-1.56-2.72-1.5,.22-1.53-3.81-1.06-.19,.69-.75-.84-1-2-1.5-1.59,.78-.25-.03-3.94,.34-.66,.25-2.47,.91-.19,.94-1.09,.06-2.22-1.16-1.34-1.34,.22-.97-2.56-.91-.06-3.78-6.44-1.06Z"/>
    </g>
  </g>
</svg>