<?xml version="1.0" encoding="UTF-8"?>
<svg id="Layer_1" data-name="Layer 1" xmlns="http://www.w3.org/2000/svg" viewBox="0 0 283.46 283.46">
  <defs>
    <style>
      .cls-1 {
        fill: none;
        stroke: #010101;
        stroke-miterlimit: 1;
        stroke-width: .75px;
      }
    </style>
  </defs>
  <path id="north-west" class="cls-1" d="M147.2,43.76l-.76,1.52-1.69,.59-2.96,2.48-2.31,.31-.08,1.24-.82,.34-.62,1.35-1.95,1.35-.59,1.58-1.04-.03-1.44,.9,.2,.99-1.27,.99-5.24-.45-.14,.54,1.55,1.13-1.41,2.62,.31,1.1-.76,.68v.85l-1.21,1.21-1.52-.08,.56,.51-1.21,.54,.73,.59-.59,.11,.28,.42-1.32,.17,.2,.9,.7,.06-.82,.31,3.21-.28-2.57,.96-2.09-.51-1.72-1.8-2.59-.34-.9,.85-2.17,.28-1.64,2.2,.23,.68,1.95,.9,1.18-.76,.25,.9-.82,1.04-1.38-.14,.31,1.72-3.24-2.14v-.03l.03-.37-1.61,.82-1.8,2.2-2.4,6.6-.14,4.43-3.97,3.78h-.17l-.59,2.42-3.07,4.06-.48-.11,.7,3.95-.45,1.18-2.48,7.36-1.44,.68,.14,1.04,.85,1.58,1.55,.93,4.65,6.68,4.14,7.22,.7,.37-.03,5.44,5.78,9.53,1.07,.08,.73-.82,1.92,.56,.87-1.1-.68-1.3,1.07-1.21-.31-.45,.85-1.41-.39-.28,.51-.11-.37-.82,.85,.31,.9,2.76,.54-.51-.99,1.64-.59,3.1-.48-.23,.31,1.04-2.31,.93,.42,1.27h.7l-.34,4.51,1.21,1.95,1.52-1.41,1.18,2.09-.28,.82,.37-.45,1.21,1.49-1.27-1.72,1.78-1.49,2.26-2.2,1.58-3.35,.99-.76v-1.8l.28-1.52,1.44-1.49-.37,1.38,1.64,2,.25-.31-.08,.79,.82-.08-.54,.65,.31,1.47-.23-.08v1.27l-.54-.08-.73,1.3,1.27-.14,1.8-1.66,1.38-1.49,.73,1.01-.14-1.58,1.72-2.68,3.69-1.04-1.3,1.32,.39,1.27-.7,.23,.34,2.11,1.55,.48,.85,2.71,.99,.06v-.85l.73,.17-.99,2.11-1.1,.82-.11,.99,.54,.08-1.64,1.13-1.8,.28-1.66,3.44-1.04,.79,1.18,1.04,.31,2.93,.82-.37,.17,.51,.31-1.72,.87,.31,.45-.11,1.38,.9-1.58-.34-1.35,2,.42,.9,1.49,.45-.68,.48-.23-.39-.59,.82-.9-.2,.93,.68-.7,.42,.39,.62-.54,.42,.17-.9-.7-.06,.45,.45-1.1,.31-.93-.76,.39-.54-4.76,1.95-.06,2.2,.37-.28,.31,.73-.62-.14,.11,.76,.93,1.69-1.72-2.03,.08-2.62-2.54,.68-.59,10.01-.08,4.2,.45,1.89,1.95,1.89,2.4,.51,2.06-.51-.7,.59,2.96,.06,2.45-.45,3.78-1.35-4.09,1.75-2.99,.73-.82,.08,.23,.48-.76-.48-.59,1.3,.76,.73-1.16-.08,.45,.62-.54,.14-.9,.48,.11-.56-4.37,6.03-2.62,4.79-.7,1.24-.45,2.71,1.61,2.37,.79-.06,.31-.68-.45,2.57,1.61,4.28,1.64,2.31,1.3,5.13,3.13,2.54,3.1,2.71,2.48,.76,.59-.45-.37-.59,2.79,1.41,.45-.68-.03-.23,1.13-1.66-.28-.56,1.78,.79,.34-.68,2.09-.68,1.07,.48,.68-1.04-.68,1.35-1.44-.31-1.16,1.13-.2,.06-1.83,.08-.59,1.21,.59,1.64-2.23,1.72-2.4-1.13-1.01,.17,.48,.76-.93,.45,.56,.28-1.8,.03-3.04-1.8-3.89-5.89-.99-3.38-1.55-4.06-6.4,3.19-3.1,2.17,.76,2.23,2.79,3.1,.31-.23,2.17,3.07-.54,1.66,.62,.37,.42-.42,.14,.9,.93,.42-1.38-.28,.54,.68-.51,.68-.54-.59,.39,1.01,3.95,1.21,4.51,3.75,1.52,2.2,.08,1.18-1.38,1.16-2.85,.82,1.61,2.34,1.18,1.13,2.4,.99,1.35-.93-.42,1.66-.85,1.27,1.52,1.04-.34,.68,1.16,1.38-.62,.31,.76,.34-.68,.85,.85,.82-.31,1.38,.99,.56,.45,2.03,1.95,.76,.82-.59,1.35,.08,.39,.87,1.95,.23,1.66-1.1,1.49,.96,2.48-1.04,.65,.99,.85-.17,.08,.9,.68-.06-.17,1.66,.62,.73,1.55-.9,1.83,1.75,.51-2.65,2.4,1.52,2.79-1.01-.14-1.64,3.52-1.18-.28-.9,.73-.7-.82-1.13,.08-2.26,2.11-.73,1.86-2.42,1.3,.25,.79-.17,1.66-1.35,.39,.37,2.11-2.48,3.3-4.34,.87,.28-.11-3.02,1.72,1.83,2.11-.14,1.18-.56,.73-1.64,1.66,.37,1.04-.45,.76-2-.14-.9,.9-.79-1.49-1.41-.59-1.52,.51-5.75-.73-1.35,.56-1.3-.28-1.58-1.07-.17-.2-.65-.17-.54,.7,.06,1.01-1.13,.7-2.85-1.27-.06-.76-1.38,.76-1.01,.56,.42-.23-.54,1.61-2.14-.45-1.69,.82-.82,.17-1.58,.45-.54,.73,.56,1.72-.56,.25-.34-.54-.76,.99-1.72-.17-1.3-1.75-.99-.34-1.1-3.61-4.31-.76,.08-.23-.85-.23-.51h-.03l.08-.68-.68-.45,.23-2.11-.99-1.04,.17-1.07-1.8,.54-.62,.82-1.49-.14-.9-1.41-.51,.76-.37-.39,.2-1.04-.99-.68-.65-2.34,1.64-1.27,.93-1.83-.39-2.54,.68-.76-.23-1.1,.96-.68,2.96-1.92,.87-.42,.03-2.03-2.03-1.95-.54,.2,.45-.96-1.18-1.3-1.24-3.21-2.26-.39-.51-.99-.62,.23,.17-1.1-.28-.59-.68-1.69-1.69,.79-.37-.99,.62-.68-.54-.31-3.75,.68-1.44-1.95-1.18,.45-.7-.54v-1.58l.7,.14-.23-.76-.76-.2-.25-2.11-.73-.85-2.99,1.07-1.92-.28-.65-.54,.37-1.49v-1.38l-2.62-2-.85,.06v-.73l-2.34-2.48,.25-2.57,1.55-.45,4.28-6.77,1.47,.37,1.8-.23,.42-1.35,1.38-.08,.06-.82,.59-.14,1.38,1.21,.68-.34,.42-1.58,.23-1.27-.59-.96,.51-.7-.34-2.4,.79-1.27-3.52-3.21,1.49-.31,1.61-1.61,1.13-.06,.31-1.41-.76-.62-.14-2.2,.87-1.95,1.27-.14,.17-.62,1.07-.45,3.44,.25,.73-1.21,.7,.51,.31-1.55-.76-5.95-1.44-.06-.68-1.83-5.41-4.43-1.18-3.52,2.14-1.83-.28-1.32-1.95-.68-1.38-1.49-.23-1.16,1.69-2.85-.34-.54,.56-3.16,.82-.96-.23-1.72-.62-.39-.23-1.04-1.21-.14-2.31-2.48-1.27-2.42-.62,1.35-2.17,.82-1.97,2.34-2.23,.37-1.89-1.66-.85-2.23,.54-.76-1.8-3.02,1.66-1.21,.59-2.26,1.21-.96-1.27-1.18-.03-1.69-1.55-.56-.31-.76,1.64-1.58,.03-2.85,2.62-1.61,2.48-.68-1.18-2.23,.68-.56-.48-.68,.82-.79-.9-.76-1.69,.76-1.38,.2-.65-1.55-.7,.11-.73-.96-.25-1.95-2.71-.68-1.72-2.4-.31-1.13,.48-.9-.85-1.3,.12-.04Zm-33.57,101.88l-1.38,.9,.39,3.44,3.24,5.95,2.17,.08,.06-.79-.08,.45-.28-.45-1.52,.31-.28-1.32-.76-.23,.17-1.3-1.61-1.66-.06-2.85-.82-1.8,.76-.73h0Zm6.23,81.86l.76,2.54,.79-.73-1.55-1.8h0Z"/>
</svg>