<?xml version="1.0" encoding="UTF-8"?>
<svg id="Layer_1" data-name="Layer 1" xmlns="http://www.w3.org/2000/svg" viewBox="0 0 283.46 283.46">
  <defs>
    <style>
      .cls-1 {
        fill: none;
        stroke: #010101;
        stroke-miterlimit: 1;
        stroke-width: .75px;
      }
    </style>
  </defs>
  <path id="london" class="cls-1" d="M140.18,121.75l-.76,.31-2.76,.2,.9,.59v.03l-.9-.62-.54,1.49-.59,.45-.54,.45-.76-.59-.51,.9-2.34,.59-.37,1.38-.39-.25-2,.93-.56-.14-.68-.31-2.82,1.72-.31,.31-.62,.28-1.58,.48-2.26-.62-.99,.82-2.62-1.78v3.04l.7,2.14,.82,1.95-1.13,1.95,.28,2.11,.59,.99-.42,1.24-.82,1.35-.34,1.16,3.16,1.21,.17,1.78,.62-.2,.42,.9,1.27-.17,1.66,.85,.37,.34-.2,1.01,1.89-.25,2,1.95,.62-.23,.68,1.47-1.35,3.04,.06,2.03,.39,.08,1.1-.87,1.01-2.71,1.64-1.75,.99-.06v1.27l1.41,.96,.39,1.35-.76,.68,.59,.68,1.38-1.41,.59,.23,2,1.89,.11,2h1.13l.82,1.35,2.03-1.49,.73-1.8,1.66-.31,.06-.99,.76-.65,.93,.06,.51,.76,.23-.37,.82,.42,.9,3.64,1.04-1.58,.62,1.44,2.71-.08-.14-2.26,2.03-1.38-.03-1.47,1.16-.03,.87-2.54-.37-2.2,.9-.06-.87-1.61,.37-2.17,.54,.23,.45-1.49,1.86-1.13,.82-2.62-.45-.9,.14-.54,1.01-.45-.23-.68,.96-.17-.37-1.13,.51,.03,.23-.99,.31,1.07,.62-.03,.06-1.41,3.47-.93h.73l-1.41-2.45-1.35,.2-1.38-3.44-.96-.17,.62-.68-.76-.9-1.8-1.35-1.44,.7-.23-.03-3.55,.31-.59,.23-2.23,.82-.17,.85-.99,.06-2-1.04-1.21-1.21,.2-.87-2.31-.82-.06-3.41-5.81-.96h0Z"/>
</svg>