<?xml version="1.0" encoding="UTF-8"?>
<svg id="Layer_1" data-name="Layer 1" xmlns="http://www.w3.org/2000/svg" viewBox="0 0 283.46 283.46">
  <defs>
    <style>
      .cls-1 {
        fill: #fac7c8;
        stroke: #010101;
        stroke-miterlimit: 1;
        stroke-width: .75px;
      }
    </style>
  </defs>
  <path id="wales" class="cls-1" d="M107.65,52.5l-1.47,.65v.99l-1.58-.96-.9,1.04-.9,.17-.14-.76-1.21,1.04-2.09-.17-.62,.68,1.13,2.71-1.01,3.5-.9,.56,1.27,1.47-.31,1.55,1.72-.59-.54,.73-.79-.14-.93,1.27-1.18-1.8-.82,.25-.54-1.16-.25-.51-.28,.45-1.13-.59-.82,.08-1.13-.48-.14,.99-1.07,.62,1.3,.87-.62,.93,.31,.68,1.86-.54,1.97,.96-.54,.93,.96,1.32-.28,.93,.9,.68,2.54-.45-.87-1.44,.96-.76-.37,.85,.68,.51-.39,.45,1.89,1.86-.06,.93,1.44,1.55-.48,1.92,.93,.11,.11,.93,1.16-.45,1.27,2.71,3.52-3.19,.68-.65-.76,2.54-2,.48,.68,1.95-.54,.9,1.07-.93,4.12,1.92-1.41-.79,.9-1.8,.87,.9,1.13-.23,3.61-3.07,1.58-.59,1.04-2.93,1.92-.9,.68-.85,3.58-1.92,1.8-3.5,1.89-1.92-4.65-.99-1.49,1.35-3.61,1.13-.56-.62,.62-1.49-.82-.54-.31-1.89-.51-.23,.28-1.72-2.03-.37-.68-1.04-1.13,.65,1.64-2.54-1.01-2.65-.34,.56-1.95-.76-.51,.51-.17-.65-1.1,.51-.62-.99-1.66-.28-.42,.51-.11-.65-1.24-.31h-.02Zm65.6,9.09l-3.16,.31-6.99,2.17-1.72,1.44-5.95,2.11-5.78-.45-1.41-.68-.45-1.38-1.52-.51-.54-.9-2.57,.45-.82-1.52-2.71-.2,1.97,2.09,1.18,3.78-1.1-1.44-2.48,.59-2.26,1.58-4.85,1.8-.11,.48-4.91,2-.28-1.1-.93,.37-.37-.45-.08,.54-.45-.56-4.65,2.51-.68,2.09-.14,.59-1.95,1.16-2.11,2.62-2.03,1.52-.17,2.03,.45-.11-.87,1.47-.11-.62-.06-.06-.59-1.44,.87-.7-1.01-.2-.62,.87,.37,5.44-1.04,2.54-3.47,3.33-1.64-.14-2.17,3.13-2.93,2.48-2.59,.08-.2-.99-.23,.93-2.85,1.49-.93,1.64-1.1-.06-1.21,2.68-1.27,.34-.45,1.49-1.8,.51,.2,1.66-2.9,3.78,2.09,1.58,.76-2.03,1.66,.37,.23,.65,1.69-1.18,.99,.68,2.65-2.4,3.81,2.54-.42,1.35,.87,.9,.79-1.44,1.72-.14,.08-1.35-.76-.28,.14-1.44-.54,.06,.85-1.41,1.35-.76-.31-.99,1.18-1.32,3.69-.99-1.04-.14,.54-.17v.17l.2-.25,.68-.82,3.78,.45,.68-1.64,3.16-.14,2.71-.7,3.92,1.35,1.27-.99,.08-.42,1.21,.06,.37,1.16,2.34-1.24-.9,.93,.14,.76-.39,.65-2.4,.23-.82-.2,.28-.34-.96,.45,1.55,4.51-.65,2.34,.76-.45,.51,.54-.62-.39-1.27,1.16,.39-.76-1.16,1.04,.08,.68,3.52,5.33,1.69,3.72,3.07-.79-2.65,2.2,.14-1.13-.59,.68,.03,2.09-2.28,1.8-2.23,5.58,1.69,.73-1.55-.37,3.44,6.77,6.4-1.89,1.13,.31-.51,.59-.25-.45-1.8,1.97-1.89,.85-1.49-.08-.08,.68-.79-1.44-.03,5.19-1.95,3.97-.68,2.65,.08,1.55-3.24,7.39-4.23,5.64-3.52,1.8-3.75,2.93-1.58,.31-.62-.9-1.01,.28-4.17,4.37-.9,.23-.37-.62-.37,1.3-2.99,2.4-1.66,.08-1.27-1.13-.93,.62-3.52-.17-2.76,.73-.25,2.57,.76,.82-.85-.73-1.04,.51v-.06l1.04-.45-2.4-1.58-3.07,4.96-1.3,.96-1.86,.23-1.04,1.01,.14,1.78,1.64,.68-2.71-.54-1.24,.34-1.8-1.66-.68,2.45-3.19,.7,.08,.65-1.21-.59,.59-.42-.79,.06,.65-.96,.82,.2-1.04-.45-.23-.96-1.8,.51-3.24-1.18,.17,.51-1.13,.99,.99,1.13-1.44,.99,.9,.87-.39,1.66-1.13-.14-.23,.82-2.4-.2-.51,1.32-2.57-.37-.17,.85-.9,.34,.11,.62-1.58,.17-1.47,1.41-1.8-.06-1.58,1.1,.62-.08,.45,.9-1.3,.99,.54,.7-.82,1.13,.23,.59,2.09-.45v-.48l3.95-.14,.9,.7,.82-.68-.37,.65,.96,.03-.17,.59,2.93-.03,.93,1.92-.03,1.58,.76,1.78-.45,3.52-.65,.56-2.57-.48-1.66,1.75-1.04-.25-.59,2.11-2.59-.54,1.52,1.58-.31,.54,1.13-.59,.82,.68-.2,.54,.99,.31-.11,1.92,.7,.93,.42-.7,.76,.03v-1.35l.48-.03-1.13-.51-.25-.82,.62-.82,.42,1.04,1.97-.37,.51,.73,.62-.62,.08-.65,1.1,1.72,1.16,.06,.2,.7,.56-.17-.48-.82,2.42,.28,.37-.68,.14,1.07,1.8,.54,2.34-.39,.08-1.44,.23,.99,1.27,.45,1.64-.54,.48-1.35-.03-.82-1.49-1.41,.9-.08-.96-1.58,.99,.14-.9-.96-1.44,.59-.62-.39,.82-1.58-.34,1.8,1.13-.73,.87,.17,.7,.56,2.76-1.8-1.21,1.75-1.04,.17,.45,.68-.85,.59-.23,1.35,1.58,.82-.79,.06-.11,1.24,3.27-.45-1.38,.79-.45-.34,.9,.82-.06,1.04,1.13,.28-.99-.11,.28,.56-.42-.68-.45,.54,.28-.73-1.44-1.49-2.85,1.72,1.75,.59-1.83,.06-.06-.87-.73-.39-.56,.85-1.13-.45-2.93,1.13-1.24-.82-1.44,.06-.37,.59,.87,.7-.54,.45-1.69-.39-.48-.51,.45-.54-2.09-.31,.42,.59-1.13,.37,.03,1.07,.65-.28,2.93,1.24,.79,2.26-.68,1.97,3.16,1.3,2-.08,1.58,1.35,1.35,.14,.25-1.49,1.64,.2-.45-.68,.39-1.01,2.31-1.01,.08-.82,2.93,.25,1.89,1.1,.28-.73,1.3-.08v-.96l2.76,.28-.14-.68,1.32-1.27-.51-.25,.31-1.18,1.1-1.04-1.04-1.38,1.38-1.55,2.85-.54,1.21-.39,1.95,.45,1.21-.73,6.96,1.07,1.72-1.07-2.48-1.58-.23-1.95,.9,.99,2.71,1.35,1.69-1.75,.68-1.13,2.71-1.44-2.59,1.49-.82,3.24,.59,1.58,2.42,.31,.37-.28-.28,.96-1.07-.23-2.34-.23-.2,.51,3.75,5.19,2.54,.85,1.24-.51-1.24-.34,1.66,.03-.14-.62,.54,.48,2.9-.45,3.02,2.93,.7-.68,3.07,.11,.65-2.82,.45,2.14-.87,.68,.73,.9-.73-.51-1.35,.39-.85,.68,.37,.28-2.99,.85-.37,1.01-.17-.51-1.58,.51,.23-.56-1.58-.7,.31,.85-.96-.31,.51,.73-1.49-.87,.76-1.07-.76-.68-1.27,2.26-3.38,1.52h.59l.99,2.79-.08,1.13-1.13,.65,1.8,.17,2.31,1.89,2.06,.68-.08-.7,.87-.37,2.57,.76,.39-.39-.9-.99,.31-.65,2.99-1.27,.37,1.01,2.28,.85,1.92-1.21,.56,.7,.87-.45,1.8,.37,.45-.23-1.64-1.3,.23-1.13,.31-.68,2.37-1.32,1.61-.03,.08,.68,2.26-1.44,.87,.48,2.48-.62-.9,.9,2.28,3.1,.79-.17-1.1,.54,.9-.17,.28,1.07,.48,.14,1.58,3.41,.73,3.13,.9,.54,.82,1.89,2.51,.73,1.1-.73,1.27,1.27,.45,1.07,2.48,2,.68,1.16,1.3,2.45,8.88,1.52,.59,.65,3.97,.08,1.89-1.1,1.27,.68,.37-.76,.31,.82,3.38-1.72,2.26,.37,1.13-.59-.08-1.35,.25-2.48-1.04-.25h.37l.23,.03,.06-1.8,.76,.31,.17,1.13,1.47-1.52-.28-.59,1.66-1.95,1.95-.85,.62-.14,4.79-3.19,.31-1.18,.08-.08,1.18-.59-.59,1.21,1.72,.82,2.42-.68-.68,.68,1.1,.31,5.13-2.06,3.83-2.31,2.11-.39,.87-.11,.99-2.03,1.75-.7,.56-1.1-.51-.85-.14-1.41-.62-.17,.85-1.75-1.21,.11,.17-.54,1.64-.48-.96-.73,.14-1.35-.85-.62,.93-.45-1.16-2.54,.93-.51,.65-1.69-1.1-1.49,.68-2.54-.48-.85,1.13-.73-.08-1.16,.68-.37-.96-.96-1.66,.2-.28-1.1-.99,.51-.37-.9-1.16,1.16-2.4-2.88,.62-1.44-2.03-.99-1.13-1.49-.93-.08-.34-1.13-1.24,.31,1.07-.76-2.03-1.18-4.57,2.65-1.16,.11-.28-2.23h-1.95l-1.01-2.96-2.48-2.59v-.03l-1.92-3.92,.82-1.72-.23-.99-2.11-2.82,.23-2.42,1.07-.23,.06-1.07-2.26-1.13,.39-1.01,2.59-.56,1.3-1.13-.73-.73-.9,.82-1.38-.9,1.72-2-.42-1.83,1.8-.99v-2.26l1.72-.2-.23-1.21,.76-.62,1.86-.73,1.72,.51,1.66-.96-3.81-1.04,.79-4.14,2.06-.76,.76-1.95-1.16-.54-4.03,.99-1.21-.39-2.96-2.93-2.68-1.1-1.44-2.17-2.4-1.16-.93-2.11,.25-1.04h-.03l2.11-2.23,1.04,.23,4.17-2.37,4.93-.2-.14-2.2,1.86,.14,.48-2.99-1.21-2.26-1.3,.37-1.47,1.58-1.61,.37-.42,.62,.79,.59-.28,.45-2.79,.68-.31-.68,1.52-.73-1.64-4.37h1.35l1.72-1.3-.25-1.01,1.24-1.89,.82-.17-1.38-1.04,1.92-.59,.42-1.8,.39-.93h-.45l-.03-1.58,1.47-1.49,.11-1.72,1.21,.39,1.38-.62-.03,1.13,1.04-.08-.23-1.58-.51-.37-.76,.23-.65-.28,.28-.76-1.75-.82,.68-.62-.37-.9-1.1,.31-.23-.62-.45,.31-.62-.62-.37,.39-.31-.51-.37,.45-.85-.76,.14-1.8-1.92,1.18-2.51-1.27,.48-1.04-.79-.08h-.11l.06-1.18,1.04-2.28-.73-.51,2.17-1.95-1.49-1.13,1.04-.62-.54-.76,1.83-.08,.28-2.4,.85-1.18,1.18,.51,2.34-.28,1.64-2.48,1.66-.48,.45-.96,.85,1.75,1.86,1.27,2.48-1.3,.23,.54,2.54,.45,2.34,4.68,2.73-2.82,1.58-.06,.34-3.16-.68-1.27,.48-1.38-1.95-.23-.39-.87-1.35-.08-.82,.59-1.95-.76-.45-2.03-.99-.56,.31-1.38-.85-.82,.68-.85-.76-.34,.62-.31-1.16-1.38,.34-.68-1.52-1.04,.85-1.27,.42-1.66-1.35,.93-2.34-.99-1.24-1.13-1.61-2.34,2.85-.82,1.38-1.16-.08-1.24-1.52-2.14-4.51-3.75-2.23-.31-2.06-.28,1.24,1.04,1.13-.2-.93,.34,.37,.31-.79-.28-.76-.25,.65,.54,.54,.48,.99,1.04,2.57,1.35-2.62-1.07-1.92-1.41-2.62-1.89,.23-.51-4.14-3.61-3.27-2.03-.17-1.13-.37,.65-.7-.31-1.69-1.55-.03-1.75,.13-.14Zm-33.15,175.32l-.14-.23-1.04-.14,1.18,.37Zm-25.23,2.65l-.03,.06,.08,.06-.06-.11h0Zm-27.91-128.36l-.06,.03v.06l.11-.06-.06-.03h0Zm-3.55,5.78l-.56,2.2,1.47-1.95-.9-.25h-.01Zm-36.06,86.4l-1.13,.08,.37,.73-.73,.51,.65,.99,.59-.06,.25-2.26h0Zm26.98,11.74v.06l.08-.06h-.08Zm-.37,.96h0Zm-25.4,.45l-.9,.7,1.27,.96,.76-.76,.06,.48,.73-.34-1.92-1.04Zm35.77,11.64l.31,1.01,1.24,.23,.56-.7-2.11-.54Z"/>
</svg>