<?xml version="1.0" encoding="UTF-8"?>
<svg id="Layer_1" data-name="Layer 1" xmlns="http://www.w3.org/2000/svg" viewBox="0 0 283.46 283.46">
  <defs>
    <style>
      .cls-1 {
        fill: #fac7c8;
        stroke: #010101;
        stroke-miterlimit: 1;
        stroke-width: .75px;
      }
    </style>
  </defs>
  <path id="south-east" class="cls-1" d="M130.26,61.6l-2.26,.37-2.68,2.48-.7,.37-.23-.79-1.1,.56-.48,1.44-.96-.54-.37,1.44-1.07-.08,.23,1.07-3.16,.68-.42,1.18,1.01,.23,.08,1.16,1.38,.82,1.01,1.89-.51,.82-1.41,.31,.65,.99-1.13,1.1-.54,1.13-.59-.28-1.1,.96-1.35-2.09-.68-3.19-.7-.56-.96,1.04-4.51-.23,.96,.96-2.17,.17-3.61,1.78-.85,2.28,1.3,.54-1.13,1.92-1.8,.39-.73,1.13-1.24,.51-2.76-.87-2.48,.73-.39-1.04,.62-2.42-2.11-3.66,.9-2.62-1.27-.17-.17-.68,2.93-1.13,1.47,.08-5.07-6.99-1.04,3.3-1.1-.08-1.61,1.69,1.35,.14,.82,1.58-1.69,.73-2.42-2.34-1.72,.48,.42,1.55-1.86-.37-1.44,2.93,.25,1.27-1.47,6.12-.34,.51-.85-.45-.96,.48,.51,1.04-1.89,.82-1.21-.39,.54,.62-1.27,1.49-3.3-3.16,.23,2.34,.45,.62,1.41,.2,1.07,1.75-1.83,1.55,.76,2.26-1.58,.25-.51,1.95-1.21,1.13,.68,1.52-.62,1.55,.56,1.72-.25,1.3-2.31,2.03,1.18,1.27,.82,3.02-.56,1.64,.65,1.3,1.75,1.35,.59,1.21-.85,.37-1.49-.85-.87,1.66,.45,1.83,2.03,1.8-.79,1.24,.39,.62-1.44,1.07v2.09l-.06,.08,.9,1.35,1.32-.68,.48,.45,2.76,5.27,1.13-.68,.08,2.9,1.52,2.65,2.17,2.09-.14,2.28-2.37,.23-.37,.68,.54,.68,.59-.17-.2,1.44,2.62,2.31,1.13,.23-.31,1.3,.96,.87-.79,1.8-1.8-.9-.34,2.2,.85,1.97-.17,.9-1.24,.56,.14,2.03,.65,.03-.37,1.18-.54,.31-2.03-.99-1.86,.25-1.58,3.5-3.52,.31-.23,1.07,1.55,1.27-.2,1.21,.96,1.89,.17,.34-.54,2.82,2.31,.96-.68,2.48,.56,1.41-.39,3.61,.14,.85,2.06,.9-.34,.62,.48,.9-.7-.17-.37,.31,.54,.45-1.44,.31,.59,1.58,1.01,.45-1.01,1.95h.03l-.23,.42-.76-.45-1.64,1.38-.93-.45-.82-.48-1.89-2.17-2.11-.08-2.9-1.35-.93,.54-1.27-2.31-1.1,.51-1.3,1.97v-2.17l-.76,.68-2.57,.2-1.35,1.52-.45-.76,.08,1.18,2.17,1.61,2.93,4.37,1.97-1.44,1.95,.45-.37,2.31-.51,.82-1.07-.14-.39,.68,.25,.31-.59,2.03,.2,.76,1.3,.31,1.35-.9,.37,2.14,.73,.62-.82,.62,.03,1.64-.54,.51,.59,1.16-.17,.42,1.13,1.35,.11,1.38,2.31-1.44,.59,1.52-.31,1.58,3.92-.39-.68,1.44,3.16,.51,4.65,1.97-.73-.62,1.49-.45,1.52-1.44-.68-.28,.99-.51-.56-1.89,.99,.96h1.13l6.34-2.09,.42-.25-.51-.51,3.02-.17,2.45-3.13-.2-.54,.11,.54-.73-.08-.08-.73,.48-.08-1.24-.17,.25-1.1-.45-.68-1.16,.2,.48-.54-1.49-.56-2.82-4.06-3.75-1.47,.48-.42-.23-1.35,.65,1.66,.99,.73,.73-.39-.28-.42,.06,.03,.23,.39,2.42,1.75,.08-.45,.28,1.13,.39-2.34,1.04-.54-.82,.79,.08,1.47,1.13,.9,3.27,3.04-.23-2.65,1.01-.37-.34,3.83,3.86,2.26,1.89,.73,1.69,2.03,2.96,1.49,1.8-1.58-1.8,.48,1.49-1.16-.45-.79-.82,.23,.82-.45-1.41-1.89-.7,.23,.25-1.21-1.44-.31,1.35-.59,1.66,.76,.9,.08-.31-.79,.9-.23-.17,.85,1.07,.9,.45-.96,2.4,.42-2.03-.28-.51,1.18-.99-.2,.51,1.1,.17,.59-1.35,.31,.14,1.49,1.3,1.35,3.66-1.01-.06-.9-.79,.59-.06-1.89v-2.2l.45-.34,.76,.9,.06-2.59,.23,.93,1.16-.08,1.24,.85,.45-.7,2.59-.14-.11,1.27,.9-.31,.48,.54-.08-1.21,1.18,.11,.17,2,.99,.68,.68-1.55-.37-1.3,.73,.06-.08,1.16h.62l-1.07,1.41,1.61,.85,1.47-1.27,.31-1.61,.39,.31-1.07,2.57-1.18,.54-2.11-.76-1.64,2.54-.68,.17,.2-.85-.28,.85,4.71,2.57,3.61,2.99,1.92-3.44-.48,.65-.68-1.04-.9,.17,.31-.85,1.3-.14,.56,1.13,3.16-1.97,9.92-2.4,1.21-.23,5.41-.23,4.68-.9,5.1-1.64,1.89,.14,2-.31,3.64,.45,1.32,.28,1.92,1.01,.87-.39,3.38,1.13,4.31,1.52,1.8,.65-.03-.65,4.06,2.26,1.66-.11,4.23,1.8,2.82,.03,4.74-6.12,2.34-2.17,7.75-2.54,6.54-1.83,2.31-1.24,1.24-.11,3.81-4.2,2.73-1.55-.17-.34,5.19,.56,7.44,.9,.45-.68-1.27-4.85,1.66-5.47,4.85-4.23,7.39-1.55-.59-.37,2.09-2.03,2.93-.34,2.03-1.24,1.61,.11-.76-1.01,3.89-2.14,1.21-2.37-.14-6.85-.14-.39-2.28-7.08-1.27,1.07-.23-.08-.06-.59,1.1-.59,.08-1.13,.73-.48,2.26,.45,.54-.79,.14,.56,.99-3.21,.31-1.89-.54-.99-.45-.2-.65-.39-6.71,1.61-5.58,.37-8.71,1.49-3.02,.37-1.27,1.44-3.75,.73-2.85,.39-.48,.59,.08-.73-2.03-1.04-3.16-.11-2.99-.34-.62,.9,.37-2.88-2.4-1.58-.65-1.3,.9-.59-1.01-.06,.79-.39-1.92,.45,.62,1.07-.59,.14,.42,1.13,1.01,.59-.25,.54-1.13,.45,.45-1.27-.99,.08-1.01,1.92-.7-1.8-1.21-.28-.34,.59-.93,.08-.42,.96-1.07-.68-2.11-.79-1.55-1.47-.03,.06-.96,1.24,.87-1.58,4.62-.59,.9-.62-.45-.51,1.01-1.75,1.3-.37,.62,.54,.2-.48,.54,1.47,2.17-.31,.59-.76-.23-1.64-1.32-1.21-1.75,.08-.73-.48-2.73,.37-1.86-.87-.17,.51-.51-.45-1.27,.31-.45-.54-4.82,.62-.59,1.55,.59,.25-.82,.08,.31,.82-4.68,1.32-3.52-.59-.62-1.41-2.54,1.18-3.55-2.54-.82,2.62-1.86,1.13-.45,1.49-.54-.23-.37,2.17,.87,1.61-.9,.06,.37,2.2-.87,2.54-1.16,.03,.03,1.47-2.03,1.38,.14,2.26-2.71,.08-.59-1.44-1.07,1.58-.9-3.64-.82-.42-.17,.37-.56-.76-.93-.06-.76,.65-.06,.99-1.66,.31-.73,1.8-2.03,1.49-.82-1.35h-1.13l-.11-2-2-1.89-.59-.23-1.38,1.41-.59-.68,.76-.68-.37-1.35-1.44-.96v-1.27l-.99,.06-1.64,1.75-1.01,2.71-1.1,.87-.39-.08-.06-2.03,1.35-3.04-.68-1.47-.62,.23-2-1.95-1.89,.25,.2-1.01-.37-.34-1.66-.85-1.27,.17-.42-.9-.62,.2-.17-1.78-3.16-1.21,.34-1.16,.82-1.35,.42-1.24-.59-.99-.28-2.11,1.13-1.95-.82-1.95-.7-2.14-1.35-.51-1.27,1.3,1.21-1.3-1.07-3.21,.48-1.13-.39-1.13,.9,.23,.08-.93,.37,.23,.59-.76-.37-.68-.85,.11,.03-.31-1.35,.2,.08-1.64-1.21-1.44,.76-1.13-.23-1.1-.56-.54-.56,.42-.9-1.58-1.58,.48-3.72-2.03-1.1-2.34,.28-.76-1.49-2-.9,.28-1.35-2.34,1.72-1.55,1.27-.08,.56,.87-.48,.79,1.75,2.45,1.21,.23,.87-.65,3.16,1.24,1.49-2.45,.23,.45,.56,.2,.37-.68-2.88-3.81-1.55-.48-.7-.96-1.95-.08-1.3-1.44-1.18,.17-.62-.9,1.13-3.24,.76-.2-.14-1.21,.62,.06,.51-1.35,.45-.31-1.04-2.71,1.1-1.13-.45-.73,.62-.51-.17-1.35-1.58-1.13,2.2-3.19,1.52-1.13,.82-1.86-.99-2.26-1.66-.39-.42-1.44,.65-.23,.14-2.62-.96-.68-1.52-.59h.12Zm-37.8,136.52l.08,.2,.17-.14,.06-.14,.06-.37-.2,.54-.17-.08h0Zm-15.87,10.36l.93,.42-.39-.28-.54-.14h0Zm141.97-75.58l.34,.99-.79,1.35,.79,.76-.9,.62-.68-.48,.62,1.27,2.11,1.21,.2,1.83,2.28-.17h.06l2.2,.59,1.13-.14,2.45,.9,3.24-2.03-3.21-4.12-4.76-.7-2.14-1.27-2.93-.62h-.01Zm-4.76,2.49l-.31,.48,1.8,.28-.34-.76h-1.15Zm1.61,1.07l-1.52,.51,.45,.9h1.44l-.37-1.41h0Zm-7.78,.68l-.2,.51,1.35-.11-1.16-.39h.01Zm-93.73,58.85l-1.1,.76-.45,2.85-1.89,.23,.23,.96,5.27,.79v-.93l-1.35,.59,.45-.59-.93-.06,.85-1.3-1.04-.2-.25-.56,.62-.06,.42,.17,.34-1.61-1.16-1.04h0Zm1.83,.39l-.11,1.47,1.92,1.16,.23-1.35-.25-1.04-1.78-.23h-.01Zm-9.78,1.03l-.25,.73,.45-.14-.2-.59h0Zm-12.66,5.47l-1.27,.23-2.03,2.57-3.52,1.35,1.49,.28-1.1,.17-.68,1.07,.14-1.07-.54-.37,.31-.03-.62-.2-2.76,1.72-1.95,.37-.23,.25,.06-.34h-1.13l-1.64,2.82-2.37,1.55,6.34-.42,2.34,2.26,3.72,1.64,5.95,5.1,6.85-2.31,1.58-5.22,1.58-1.18,2.26-.37,1.72-1.83-.76-1.04-1.64,.08,.31-.59,.28,.14-.73-2.31-3.16-1.13-3.19-.11-.56,.39,.37-.68-1.58-.54-.54-.82-1.8-1.41-.99,.2,.59,3.41-1.13-3.64h.03Zm-15.79,5.45l.11,.59,.14,.06-.25-.65Z"/>
</svg>