<?xml version="1.0" encoding="UTF-8"?>
<svg id="Layer_1" data-name="Layer 1" xmlns="http://www.w3.org/2000/svg" viewBox="0 0 283.46 283.46">
  <defs>
    <style>
      .cls-1 {
        fill: #fac7c8;
        stroke: #010101;
        stroke-miterlimit: 1;
        stroke-width: .75px;
      }
    </style>
  </defs>
  <path id="north-east" class="cls-1" d="M124.51,74.63l-2.88,1.78v3.02l-1.21,.23-.68,2.17-1.49,.03-.28,1.55-1.35,.31,.45,1.3-2.82,2.93v1.18l-1.69,1.18,.79,1.07-3.89-.59-1.18,.42-.62,1.07,.68,.59,.85-.28-.39,.82,1.49,1.66v2.31l2.71,2.42,.9,3.24-.28,1.32,1.44,1.97,.11,1.41,2.57,.62-1.95,.76-.28,1.64-2.06,1.64-1.64-.45-2.96,2.51-1.1-.25-.68,1.01,.82,1.78-.9,.82,.51,.56-2.37,1.78-1.16,.08-.87-1.07h-1.66l-2.48,.68-1.8,2.82-2.17,.51-.79,2.09-2.03,1.3-1.04,2.09-1.13,.23,1.97,1.24-1.04,.23-.08,2.09-2.03,.17-.93,1.92-.37,1.35,.85,1.24-.48,.9,.31,1.13,1.66,2.45,2.71,.62,.31,1.95,.73,.96,.68-.06,.62,1.49,1.41-.14,1.72-.82,.9,.76-.87,.79,.51,.7-.68,.54,1.16,2.23-2.48,.7-2.59,1.58-.06,2.85-1.58,1.64,.31,.76,1.55,.51v1.75l1.24,1.13-1.16,.99-.59,2.23-1.66,1.24,1.8,2.99-.54,.76,.79,2.23,1.95,1.66,2.17-.31,2.03-2.37,2.17-.85,.62-1.3,1.21,2.37,2.37,2.48,1.16,.2,.28,.99,.62,.39,.2,1.78-.82,.9-.59,3.16,.39,.54-1.75,2.85,.23,1.16,1.41,1.49,1.97,.68,.28,1.35-2.14,1.86,1.13,3.47,5.47,4.43,.68,1.89h1.44l.73,6-.31,1.49,2.71-.56,4.28-2.11-.11,.87,2.76,.79,1.52,1.55,1.58-.23,4.79-2.79,.08-2.14,1.04-.48,2.71,2.34,.96-2.2-.23-2.48,2.65,.39,.68-1.44,1.41,.62,.79,.28,1.47-.14,.17,.99,1.21-.08,.06,1.07,1.21-.56,.62,.31-.08,.62,1.21-.23-.03,.59-.59,.28,.76-.11-.23,.79,1.58,1.21,.59,1.35h1.44l-.59-.45,.23-.96,.73,.14,.14,.85,1.13-1.13-.42,1.04,1.35,.2,.45,1.3-.25,.17,.03,.34,.68,.45-.11-1.13,.48-.37-.54-.96,.28-1.66-.96-.82,.96-.25,1.24,1.21,.56,.62-.28,.54,1.13,.2,.28-1.58,.7,.76,.76-.85,.65,.76-.14,1.38,.51,.59,1.07-.62,.08,.82,1.78-1.32,.7,.14,1.1-1.44,1.38,.25v-1.35l.82-.03,.45-.87,.23-.17,4.82,.99,1.64,.28,1.35-.87,3.33,1.24,.73-.82,1.16-.08,2.09,.54,.9,.9,3.33-.96,2.9,.68-.59-1.27,.23-2.71,1.21-1.83,1.55-.28,.68-.99-1.18,.28-2.57-1.27-2.45,.03-1.75-1.44-1.95,.2-1.38-.42-1.04-.39-2.99-2.26-3.75-1.13-1.01-1.04,.08,.96-1.1,.23,.34,1.3-.65,.99-2.06,2.26,2.06-2.85-.14-1.21-.62,.14-1.58-.14,.68-.99,1.41,.06-.51-.11,.23-1.13,.62-.34-1.52-1.18-.85-1.97,.62-1.32-.51-.48,1.32,.68-.23-.73-3.69-2.26-3.44-4.65-1.21-6.68-1.55-2.26-.45-1.66-.34-2.03,.54-.7,.08-.06-.17-1.3-1.01,.7,.42-1.07,.62,.14-.82-.45,.14-1.78-.68,.73-1.58-.14,1.58,.08,1.27-2.03-.45-1.35-1.13-.85-1.8-2,.62-1.07-.99,.82-.31-.51-1.41,2.4h-.03l-4.6,.06,1.66-.45,2.73-.14,.51-1.44,.82-.9,1.52-.14-1.58-1.58-1.83-4.28-.56-1.1-1.47-2.26,.25-1.07-1.66-2.4,2.03,2.68-2.31-4.28-.76-.14,.87-.14,.56-1.86,.87-.39-1.1-2.11-.45-2-1.52-1.75-1.18-2.99,1.32-4.54-1.04-1.27-1.97-.96,1.8,.42-1.01-.54-1.13-3.81-.34,.42-.51-.96,.23-.45,.54,.82,1.64-2.09,.25-2.4-.99-.9,.08-5.13-1.3-.59,.17-2.28-1.52-1.92,.31-.93,.76-.2-1.52-2.14,.37-.42-4.71-3.78-1.07-.14-1.58,1.49-.85-1.27,1.16-.9-1.07-1.86-1.64,1.04-1.52-.9-1.64-2.28-.17-1.64-.73-.14,.08-1.04-4.23-3.83-1.8-2.73,.51-.37-2.82-4.57-.02-.07Zm14.12,12.32l-4.14,.06,.73,.68,1.47-.37,.73,1.41,1.35,.03-.14-1.8h0Zm-29.68,94.68l-.85,.34v-.03l.85-.31Z"/>
</svg>