<?xml version="1.0" encoding="UTF-8"?>
<svg id="Layer_1" data-name="Layer 1" xmlns="http://www.w3.org/2000/svg" viewBox="0 0 283.46 283.46">
  <defs>
    <style>
      .cls-1 {
        fill: #fac7c8;
        stroke: #010101;
        stroke-miterlimit: 1;
        stroke-width: .75px;
      }
    </style>
  </defs>
  <path id="east-england" class="cls-1" d="M150.61,65.64l-.68,.08-.14,.93,.99-.68,.99,.68,2.17-.23-3.33-.79h0Zm-.68,.09l-1.32,.17,1.24-.03,.08-.14h0Zm17.51-.06l-.28,.28-.14,.7,1.49-.68-1.07-.31h0Zm1.07,.32l2.4,.87-.99,.37-.2,.85-1.95-.14,.06-.62-2.85,.62-.99-.62-.08,.48-2.45,.14,1.69-.37-.73-.62h-.14l.08,.06-.48,.45-.03-.03,.42-.48-1.44-.85-.82,2.11,.73-1.18,.62,.23v-.03l.25,.11-.25-.08v.68l-.25,.54-1.18-.23v-1.58l-1.86-.23,1.01-.25-1.47,.23,.06,.7-1.95-.62-1.8,.08,.59,.08-.17,.65-1.55,.9v-1.13l-1.38-.14-.82-.37-1.18,.73,.82,.03-1.27,.11,.37-.59-3.21,.37,.37,.23-.54,.25,.06-.48-1.64-.23,.85,.85-.79,.23-.28-.76-.82,.93-.62-1.21-1.27,.23-3.1,3.3-2.26,6.85,.17,2.99-.73,.48-.23-.68-.68,.65,.56,.25-1.01,.23,.06,.45h-.96l-1.16,1.55,.39,.7-.48,.06-.37,1.13,.48,1.75-.48-1.24-2.54-2.26-2.42,.03-1.13,.54-1.18,2.59,1.66,1.13-4.99,3.83-.99-.42v-.03l-2.23,.11-2.57,1.64-1.58-.28-1.07,1.27,.34,3.21-1.58,1.72-3.16,.39-.08-.37-1.89-.9-1.44,.87-.87-.51-2.28,2.09-2.34-.82-.79,.82-.79-1.55-3.21,1.72-1.8-1.8-2.76-.39-.85,1.3-3.3,1.44-2.85-.54v.51l-1.38,.08-1.13,.85,1.3,1.18,.2,.99-1.55,3.1,1.18,1.27,3.19-.93,.59,.34,.51,1.47-.73,.48,1.1,1.1,.08,.9-.76,1.21,3.64,1.89-.25,1.66,1.13,2.23-.73,.68-1.04,2.28,.59,.37-2.88,2.11-.37,.14,.08,.76-1.41,1.72-3.38,.76,.45,.54-.56,1.35,1.3,1.1-.37,.82,1.04,.17,.08,1.58-3.3,.59,.37,.25-1.61,2.48,.68,1.92-.51,1.3-1.52,.39-1.32-1.89-1.49-.54-2.57,1.07,1.1,4.03-1.8,3.24,1.52,.59,.96,.68-.14,2.62-.65,.23,.42,1.44,1.66,.39,.99,2.26-.82,1.86-1.52,1.13-2.2,3.19,1.58,1.13,.17,1.35-.62,.51,.45,.76-1.1,1.1,1.04,2.71-.45,.31-.51,1.35-.62-.06,.14,1.21-.76,.2-1.13,3.24,.62,.9,1.18-.17,1.3,1.44,1.95,.08,.7,.96,1.55,.48,2.88,3.81-.37,.68-.56-.2-.23-.45-1.49,2.45-3.13-1.27-.9,.68-1.21-.23-1.75-2.45,.48-.79-.56-.87-1.27,.08-1.72,1.55,1.35,2.34,.9-.28,1.49,2-.28,.76,1.1,2.34,3.72,2,1.58-.45,.9,1.58,.56-.42,.56,.54,.23,1.1-.7,1.13,1.16,1.44-.08,1.64,1.35-.2-.03,.31,.85-.11,.37,.68-.54,.76-.42-.23-.08,.93-.85-.23,.34,1.13-.48,1.13,1.13,3.21,1.35,.51v-3.04l2.62,1.78,.99-.82,2.26,.62,1.58-.48,.62-.28,.31-.31,2.82-1.72,.68,.31,.56,.14,2-.93,.39,.25,.37-1.38,2.34-.59,.51-.9,.76,.59,.54-.45,.59-.45,.54-1.49,2.76-.2,.76-.31,5.81,.96,.06,3.41,2.31,.82-.2,.87,1.21,1.24,2,1.01,.99-.06,.17-.85,2.23-.82,.54-.23,3.61-.31,.23,.03,1.44-.7,1.8,1.35,.73,.9-.59,.68,.96,.17,1.35,3.44,1.38-.2,1.41,2.45h-.73l-3.47,.93-.08,1.41-.59,.03-.31-1.07-.23,.99-.51-.03,.37,1.13-.96,.17,.23,.68-1.01,.51-.14,.48,4.43,2.68,.99-1.1,1.52-.17,1.18,2.03,1.13,.08,4.6-1.21,.59-3.58-.31-.34,.9-.56,3.24,.06,1.97-.82-1.16-.25-1.01-2.09-.08-.45-.85-.62,.9,.54,.7,1.27,.73,1.13,.68-.28,.85,1.04,1.24,.14,3.86-1.49-1.13,.23,.76-.54-2.03-.37,.2-.54-.99-.14-1.58-.73,4,.51,1.07-.37,2.76,.51,5.02,.76,1.21,.31,3.69-3.55-2.03-.45-.62-1.64-.79,.62,.59-1.35-1.8,.34,2.57-1.49-.85-1.1,.96,.96,2.79-.14-.08-1.61-5.07-.68-1.3-1.18-1.58,.68-.96-.45-.34-.73,1.8-.31,.93,.08,2.09,1.78,.48-.42,3.52,.68,2.76-.23,1.95-1.44-.2-2.42,.82-2.26-.76-1.86,.59-2.79-1.27-1.58-2.11,.39-2.59,2.9-2.03-.45-1.58,.37,.2,.99-1.78,.59-.54,1.21-1.16,.37v-.65l.62,.23,.14-.93,1.07-.82-3.55-.37-1.58-1.66,1.16,.68,.45-1.41,1.35,.76,1.04-.34,.23-.34,.23-.68,.9,.34,.08-.51,.79,.73,.17-.87,1.35,.59,2.09-.23-.11-.73,.59,.34,1.58-1.41-1.38-.62h-1.13l-.11-.51,.96,.17-1.27-.34,1.32-.37,.17,.59,2.11,.17-1.13-1.21-.59-1.27,1.64,1.66,.14-.76,.39-2.17,.45,.45,1.55-.68-.45-.17,2.42-.59-1.64-.85,1.24-.06-.73-1.07,1.86,1.47-.45-2.79,.93,.68-.48,.9,.76,1.32,1.97,1.01,2.03-.76-.23-.68,.68-.25-.08,.54-.68,.85-.28,.59-1.92,.08,1.24,1.1,.14,1.52-.62-1.41,.68,1.69,3.33-.51,2.31-.31,6.17-4.43,2.93-4.12,.17-1.44-1.44-.23,.08,1.1-.03-.11h-.08l.03-.03-.03-.06,.08,.06-.06-.14-.17-.31-.23-.06-.06,.06-.14-.08h-.08l-.14-.06-.03,.06-.06,.08v.03l-.03,.11v.11l.23,.06,.03,.06h.2l.17,.17v.14l.14,.08-.06,.06-.62,.03-.14,.76-.06-.62-.76,.08-.23,.68-.37-1.72-.93,.34,.68-1.1-.96,.99h-1.8l1.89-.76-.7-.59,.82-.56,.93-.06-.99-.54,.82-.76,.31,.17v-.06l.06,.11,.93,.45,.31-2.14,1.64-1.75,.9-.14-.39-1.35-.73,1.04-1.95-.82-1.16,.96h-.59l.08-.54-1.86,.54-.45-.08-.68-.59-3.04,.9-3.52-.42-.9-1.3,.99,1.04,1.3-1.1,2.71,.42,1.95-1.78,1.55,1.41,1.38-.08,.59,.25,1.35-.9,1.97,.45-.56-3.1-3.44-.73-2.48-1.61-1.21-1.89,1.58,1.16,2.28,1.35,2.59,.87,.03-.65,1.41,.96,.23,2.34,2.34,1.72,.06,1.8,1.44-2.48,2.57-2.26,.14-1.1-1.89-1.58,1.66,.59,.45,1.18,2.11-1.86,1.72-4-.68,.08,2.93-2.76,.39,.06,.54-.59,1.95-.62-3.64,2.34-1.47,1.95,1.47-1.72,5.64-3.47,1.89-9.75,.14-8.43,1.92-3.97,.51-.23,2.85-8.71v-4.4l1.27-2.76,.31-.9-1.64-4.96-.68-3.21,.37-.7-.28-.54,.37,.39-.54-7.3-2.4-6.68-1.8-2.54-5.89-5.58-9.53-7.58-5.24-3.33-4.51-1.66-8.23-.79-8.18-2.26h.01Zm18.77,105.43l-.06-.06,.08,1.41,.9-.42-.93-.93h.01Zm1.97,1.44l.51,.85,.39-.25-.9-.59h0Zm-.14,.38l-1.8,.08-.25,.65,1.16,.59,.9-1.32h-.01Zm.08,.08l-.03,.11-.08,.17,.03,.14-.03,.14-.14,.03-.14-.08v.08h.06l-.06,.06,.45,.08,.08,.06v-.45l-.03-.2-.11-.14Zm.45,1.55v.14h-.23l.2-.11,.03-.03Zm-18.13,6.34l-1.52,.68,.03-.45-2.59,2.82,.34,.54,2.85-.37,2.34-1.18,.96-1.21-2.4-.82h-.01Zm-14.74,8.25l-.76,1.13,1.3-.03-.54-1.1h0Zm2.09,.51l1.07,.59,.96-.42-2.03-.17h0Zm12.85,9.78l-5.07,.82-.45,1.95-1.69,.17,.54,1.21-.87,.59-.34,1.13,.9,.31-.23-.54,1.47,.9,3.97-3.52,1.78-3.02h0Zm-7.89,2.76l-1.13,.99,.79,2.03,.96-2-.08-.93-.54-.08h0Z"/>
</svg>