<?xml version="1.0" encoding="UTF-8"?>
<svg id="Layer_1" data-name="Layer 1" xmlns="http://www.w3.org/2000/svg" viewBox="0 0 360 496.06">
  <defs>
    <style>
      .cls-1 {
        fill: #f25d55;
      }

      .cls-2 {
        fill: #fff;
      }

      .cls-3, .cls-4 {
        fill: #fdfefe;
      }

      .cls-5 {
        fill: #687cf2;
      }

      .cls-6 {
        fill: #c2e8fb;
      }

      .cls-7 {
        fill: #d1c1c1;
      }

      .cls-8 {
        fill: #6d8cf2;
      }

      .cls-9 {
        fill: #606060;
      }

      .cls-4 {
        stroke: #231f20;
        stroke-miterlimit: 10;
        stroke-width: .25px;
      }
    </style>
  </defs>
  <g>
    <polygon class="cls-1" points="8.18 258.92 6.32 258.41 6.31 258.42 5.94 259.77 7.58 260.42 7.27 261.1 6.4 260.9 7.3 262.22 9.64 261.35 8.2 261.01 8.74 260.36 10.74 260.36 7.95 259.51 8.18 258.92"/>
    <polygon class="cls-1" points="9.07 263.27 7.75 263.61 8.65 265.47 10.06 264.74 9.07 263.27 9.07 263.27"/>
    <polygon class="cls-1" points="2.38 269.84 2.39 269.85 2.39 269.84 2.38 269.84"/>
    <polygon class="cls-1" points=".73 270.38 .08 272.41 1.26 273.2 2.33 272.41 2.75 270.97 2.39 269.85 .73 270.38"/>
    <polygon class="cls-1" points=".9 273.73 .08 274.12 1.21 274.71 2.65 274.4 .9 273.72 .9 273.73"/>
    <polygon class="cls-1" points="16.28 254.25 16.29 254.26 16.29 254.25 16.28 254.25"/>
    <polygon class="cls-1" points="21.27 248.49 22.17 249.39 22.93 248.49 23.72 245.67 21.33 245.84 21.27 248.49"/>
    <polygon class="cls-1" points="18.18 252.7 19.56 253.88 19.84 253.15 18.77 252.47 18.18 252.7"/>
    <polygon class="cls-1" points="20.14 213.4 20.15 213.41 20.15 213.37 20.14 213.4"/>
    <polygon class="cls-1" points="17.08 248.01 16.07 249.67 17.08 249.81 17.9 248.99 17.08 248 17.08 248.01"/>
    <polygon class="cls-1" points="22.96 205.48 22.97 205.49 22.99 205.48 22.96 205.48"/>
    <polygon class="cls-1" points="27.95 225.03 27.56 222.92 26.24 222.27 27.56 221.34 25.87 220.33 27.28 220.02 24.26 217.91 25.84 217.63 23.44 216.42 25.3 215.97 23.72 215.49 20.15 213.41 20.07 214.5 17.28 215.8 18.63 219.75 18.57 224.26 17.08 225.39 16.46 229.03 14.74 230.21 15.87 230.83 16.6 241.06 17.14 241.48 16.97 242.75 18.1 244.1 20.92 244.18 22.05 243.59 25.66 245.23 25.94 244.27 26.79 243.06 26.11 242.19 25.12 242.64 25.2 241.43 23.62 240.5 20.8 240.89 20.15 240.27 20.21 239.17 22.27 238.92 24.07 239.71 25.56 238.36 25.33 236.67 24.48 235.63 24.85 234.28 24.4 233.6 23.3 233.23 23.13 232.27 24.65 232.47 26.06 230.21 25.83 229.11 27.27 227.28 28.57 227.2 29.3 225.65 29.13 224.95 27.95 225.03"/>
    <polygon class="cls-1" points="15.7 254.56 15.87 255.77 16.74 256.05 16.82 254.95 16.29 254.26 15.7 254.56"/>
    <polygon class="cls-1" points="14.14 253.67 15.83 253.59 13.66 251.64 14.7 250.88 15.09 249.81 14.13 249.16 14.05 248.09 13.13 248.01 13.07 251.25 11.58 252.46 9.07 252.32 10 254.77 9.1 254.77 9.16 256.04 7.58 256.35 6.9 257.65 9.47 259.06 10.06 257.71 10.68 257.88 11.13 258.92 12.79 259.09 13.89 258.53 13.16 257.85 14.06 257.48 14.51 256.35 15.27 256.21 15.04 254.91 14.14 253.67"/>
    <polygon class="cls-1" points="20.59 207.2 18.98 207.45 18.78 208.46 18.86 209.67 19.42 212.15 24.38 215.08 25.99 215.31 27.2 214.89 27.93 214.41 29.57 213.82 29.82 212.78 29.12 211.85 27.34 211.43 27.54 212.42 25.68 211.43 26.44 210.13 27.34 210.36 28.83 210.5 29.37 209.85 30.1 209.4 28.01 207.96 26.71 207.57 25.13 207.06 22.97 205.49 20.79 205.99 20.59 207.2"/>
    <polygon class="cls-1" points="30.29 214.54 30.29 214.56 30.3 214.55 30.29 214.54"/>
    <polygon class="cls-1" points="27.87 216.07 30.04 216.01 30.29 214.56 28.69 214.86 27.87 216.07"/>
    <polygon class="cls-1" points="32.51 206.11 32.09 205.26 30.57 205.2 30.8 206.16 31.05 206.92 30.8 208.19 31.56 208.47 32.6 207.46 31.92 206.7 32.51 206.11"/>
    <polygon class="cls-1" points="129.84 414.82 131.22 415.3 132.8 414.03 133.22 412.87 132.46 410.19 133.39 408.44 130.68 406.49 131.41 405.33 133.38 404.2 132 402.25 129.18 400.93 131.04 398.73 130.67 395.04 129.54 391.57 127.43 389.17 124.44 387.22 124.44 387.26 122.75 387.34 122.24 387.93 122.86 388.83 121.06 388.52 120.27 390.13 118.24 391.14 116.1 397.03 118.64 401.99 119.15 403.88 118.19 405.46 117.91 408.05 119.46 408.98 120.28 412.45 123.44 414.99 126.26 415.67 129.84 414.82"/>
    <polygon class="cls-1" points="132.68 370.14 129.41 367.43 129.4 367.42 127.26 369.45 130.08 374.64 132.11 375.63 132.45 382.17 134.82 382.62 136.96 387.27 138.54 386.68 137.41 384.34 138.99 382.99 137.75 375.86 136.17 375.55 134.59 373.52 134.82 371.72 132.68 370.14"/>
    <polygon class="cls-1" points="95.24 390.41 95.92 392.89 98.4 388.83 96.93 387.34 96.93 387.34 95.24 390.41"/>
    <polygon class="cls-1" points="98.5 384.63 98.5 384.64 97.49 385.68 98.05 386.89 99.29 385.45 98.5 384.63"/>
    <polygon class="cls-1" points="130.98 381.49 129.85 378.92 129.29 380.5 129.74 382.53 130.98 381.49"/>
    <polygon class="cls-1" points="38.7 176.57 40.73 179.87 43.86 184.69 45.66 183.31 48 181.2 49.3 179.51 49.81 178.35 50.94 177.53 51.53 176.49 52.43 177.03 53.78 177.68 53.9 175.92 37.4 175.81 38.7 176.57"/>
    <polygon class="cls-1" points="80.36 244.09 81.23 243.58 81.71 242.76 81.03 242.08 79.59 242 79.6 242.01 77.29 243.36 79.6 245.53 80.36 244.09"/>
    <polygon class="cls-1" points="78.57 274.65 77.5 272.9 77.49 272.91 75.6 273.36 74.87 273.36 75.38 274.8 76.99 276.12 78.57 274.65"/>
    <polygon class="cls-1" points="93.31 360.91 94.44 360.57 96.92 356.62 102.7 347.32 102.47 345.57 101.79 343.57 101.8 343.6 99.97 344.36 96.16 347.18 90.94 351.35 87.73 353.94 84.52 359.83 87.79 361.32 86.21 362.05 84.29 362.08 82.03 363.21 78.87 367.95 79.21 374.26 80.06 376.37 83.27 377.64 85.41 377.95 86.82 374.93 87.33 371.18 88.63 370.64 89.62 368.75 90.75 368.75 90.38 369.6 91.28 368.7 91.73 366.33 93 363.79 93.31 360.91"/>
    <polygon class="cls-1" points="72.32 307.7 70.85 307.59 70.57 309.31 74.32 310.66 77.48 310.94 79 311.08 79.06 309.5 77.28 309.16 75.22 307.41 75.23 307.42 73.96 307.93 72.32 307.7"/>
    <polygon class="cls-1" points="83.29 264.25 83.3 264.27 83.3 264.26 83.29 264.25"/>
    <polygon class="cls-1" points="80.01 382.56 80.46 380.3 78.54 378.35 77.86 373.75 77.07 363.23 77.08 363.22 73.02 363.9 68.17 368.41 65.8 373.15 64.79 372.7 65.58 368.1 63.78 368.33 61.86 370.22 59.38 370.14 58.37 371.58 58.14 374.96 56.67 376.54 57.57 377.67 57.68 380.29 55.31 381.87 55.54 383.9 53.85 385.56 56.22 388.04 59.6 385.25 63.55 379.16 64.11 377.36 69.18 377.81 68.84 379.25 64.89 381.96 64.33 383.91 65.91 384.36 68.17 389.86 65.91 391.35 63.43 396.17 66.93 397.75 69.3 396.4 70.65 393.24 71.78 393.16 73.25 393.47 77.42 392.12 78.55 392.49 79.9 390.23 82.16 388.43 81.48 384.82 80.01 382.56"/>
    <polygon class="cls-1" points="71.1 253.12 67.35 256.05 67.49 258.56 70.65 261.13 72.76 264.43 75.61 264.63 77.3 261.92 78.2 257.89 77.41 255.47 73.83 252.54 73.83 252.53 71.1 253.12"/>
    <polygon class="cls-1" points="83.43 271.55 84.64 267.18 83.3 264.27 81.24 264.85 81.94 266.2 80.33 266.54 79.37 269.13 81.01 270.93 83.43 271.55"/>
    <polygon class="cls-1" points="112.92 318.33 110.95 318.53 109.77 321.26 111.12 322.16 114.84 317.4 114.33 317.06 112.92 318.33"/>
    <polygon class="cls-1" points="184.09 177.53 186.17 178.75 190.79 178.16 196.77 179.96 199.59 179.88 199.97 176.91 199.93 176.91 199.84 177.64 184.09 177.53"/>
    <polygon class="cls-1" points="318.23 215.3 316.59 214.26 316.22 210.43 315.06 209.3 315.14 204.87 311.81 202.3 311.61 202.69 310.03 198.72 308.87 198.16 308.28 198.72 306.11 198.16 305.72 196.38 303.58 197.06 302.82 196.47 299.58 196.13 295.75 199.06 294.62 198.24 291.86 198.24 290.11 196.58 288.53 197.57 288.61 198.42 287.54 199.18 286.67 198.56 284.84 199.32 283.2 198.73 282.16 199.24 279.51 198.85 278.3 200.68 278.24 199.07 276.58 199.07 275.45 197.83 274.94 198.34 272.06 198.06 270.54 197.05 269.67 197.75 268.09 196.76 266.71 197.83 265.81 196.62 264.71 196.76 263.86 196 263.18 196.31 262.08 196.7 261.09 196.14 261.01 195.35 259.49 195.41 257.09 196.17 256.55 197.21 251.93 199.41 247.65 198.17 247.31 198.56 247.34 198.05 243.79 196.89 238.55 194.04 238.97 194.89 238.07 193.88 238.3 193.2 237.03 193.54 234.94 193.09 229.84 194.27 228.77 195.03 226.68 194.95 227.13 195.77 226.68 197.43 224.99 198.84 219.92 198.87 221.92 200.51 222.17 201.55 221.69 202.09 220.03 201.33 219.89 200.68 220.14 199.64 218.9 198.85 215.09 199.55 214.7 199.83 216.42 199.46 215.74 200.42 213.6 201.49 214.73 200.59 214.11 200.53 212.53 201.88 210.64 202.53 209 204.11 211.62 202.39 210.49 203.88 206.8 205.77 203.45 206.05 199.59 204.25 202.21 205.77 201.34 206 199.23 204.42 198.95 205.24 196.75 205.38 195.76 206.14 197.28 206.76 197.59 208.42 194.26 210.79 193.64 212.68 191.78 212.37 191.64 214.06 190.06 215.61 189.3 215.69 187.78 214.42 186.96 214.48 184.2 215.78 182 215.39 179.6 215.84 177.71 214.04 179.77 214.18 182.14 214.35 187.13 213.96 189.44 210.44 189.75 209.62 190.51 207.65 192.37 206.55 194.99 207 193.86 205.39 194.48 203.67 199.95 197.83 199.98 197.38 197.95 196.93 195.38 198.65 192.59 198.28 191.6 197.35 187.99 197.89 187.48 197.89 187.31 198.12 186.8 198.4 185.84 199.3 184.54 200.29 184.17 200.77 182.34 202.04 180.03 203.76 178.68 205.06 182.37 199.65 185.27 198.58 185.5 197.37 189.28 195.82 191.7 196.19 194.83 193.57 197 193.49 198.69 195.97 200.38 196.34 202.18 194.17 205 189.43 211.43 181.59 212.9 178.52 210.42 179.2 209.74 181.31 207.91 182.66 205.57 181.76 202.41 180.63 199.11 182.41 195.08 181.09 192.26 181.54 190.26 179.37 185.75 179.71 183.71 177.53 123.22 177.12 123.87 176.4 123.35 176.39 123.3 176.44 123.2 176.39 116.14 176.34 116.98 177.73 116.42 180.44 117.32 182.02 115.52 181.34 114.87 182.19 115.97 184.28 112.47 181.07 111.79 177.6 111.91 176.31 105.06 176.27 104.34 185.63 107.27 187.58 110.62 187.89 110.76 189.47 111.1 191.58 108.31 189.92 105.58 190.82 103.44 196.32 106.94 198.21 108.18 202.04 110.41 203.05 111.11 205.56 107.25 206.21 105.25 203 102.43 202.38 100.17 212.7 100.73 215.8 103.32 215.94 102.42 220.37 101.86 223.16 103.44 225.11 106.94 224.43 113.2 220.74 114.05 221.81 111.79 223.3 114.5 224.88 119.07 221.58 122.28 218.87 122.39 220.82 117.43 225.33 114.72 225.56 110.77 226.77 108.06 228.04 106.71 231.2 108.97 232.1 110.86 231.71 113.03 232.78 116.53 232.41 118.45 231.28 119.24 230.97 118.56 233.23 124.2 237.91 121.94 239.69 117.2 233.69 114.27 234.59 111.34 235.35 110.1 237.52 111.79 238.65 109.08 241.44 107.73 243.7 109.2 245.87 112.13 245.79 115.06 249.2 118.53 250.52 117.09 252.04 114.19 250.77 110.19 247.44 106.27 248.34 101.87 252.85 104.94 256.68 106.83 256.23 108.63 257.22 107.47 258.09 108.29 260.6 111.11 260.83 116.27 259.67 116.81 260.97 109.99 262.77 106.04 260.74 104.8 257.89 99.53 258.65 98.71 262.62 95.44 266.59 97.7 268.03 97.14 269.07 95.56 268.53 93.98 269.52 93.9 270.87 95.68 271.32 99.4 270.73 103.97 270.03 104.56 271.1 101.43 272.99 104.25 274.34 102.67 274.93 99.17 276.06 96.46 275.61 96.6 278.03 103 280.57 95.25 280.49 95.45 282.01 97.2 283.05 97.26 284.85 95.62 284.4 95.9 283.13 94.89 282.68 93.88 283.5 91.29 280.2 88.02 281.24 84.19 281.32 79.91 282.76 77.65 284.03 76.41 285.83 78.44 289.07 80.36 289.66 82.73 288.67 84.99 289.12 86.79 290.11 89.33 290.17 89.92 291.33 92.32 290.34 92.55 291.16 97.51 291.39 100.89 288.99 102.47 289.13 98.35 292.34 95.36 293.41 95.47 294.62 94 294.62 93.21 293.18 88.47 293.72 88.24 295.98 93.43 303.56 99.52 305.22 100.65 306.57 104.2 307.98 104.93 309.42 112.15 304.32 116.24 298.2 123.54 292.82 127.15 289.13 129.86 288.68 136.4 278.08 137.98 277.63 137.98 278.84 130.65 290.34 133.13 290.93 134.29 291.69 130.32 292.28 129.08 294.03 127.84 293.27 125.25 295.44 126.6 296.57 124.91 298.29 121.44 302.43 122.2 303.42 121.13 304.1 120.09 303.87 119.5 305.14 120.97 305.82 123 307.57 121.2 308.7 119.28 307.12 117.93 308.08 116.58 311.07 117.4 311.86 119.12 310.2 120.19 311.78 119.74 313.36 121.88 313.5 123.01 312.68 126.56 314 128.2 313.8 129.44 315.15 131.24 314.61 133.64 310.49 134.85 309.95 136.94 307.22 138.07 304.85 138.8 304.6 137 307.98 134.38 312.26 132.07 315.14 129.96 316.04 128.32 316.04 127.11 315.14 124.85 314.24 123.64 314.52 121.1 314.38 117.32 314.69 115.83 316.33 115.83 318.3 113.72 319.94 112.37 323.55 115.08 324.76 113.13 325.52 111.02 324.76 109.53 327.92 109.39 330.32 108.77 333.79 111.34 333.03 113.6 332.58 114.5 333.34 110.13 335.29 111.2 337.09 109.85 339.06 106.38 345.21 107.59 345.38 109.08 343.12 112.1 340.41 112.83 341 109.22 347.62 109.53 349.88 107.42 350.61 105.16 355.43 100.2 362.51 101.55 364 103.07 360.08 105.02 358.9 106.37 356.02 108.77 354.98 108.32 356.78 103.81 362.33 101.55 367.29 102 369.26 107.86 364.44 104.87 369.54 103.52 371.8 101.86 377.52 104.43 379.47 104.88 381.73 110.43 379.33 108.48 381.9 105.46 383.54 104.42 387.01 100.81 389.58 101.71 392.29 99.45 399.2 98.1 400.41 98.24 404.75 97.03 414.84 95.68 415.12 92.83 418.45 92.52 423.69 92.07 426.11 94.33 427.91 97.04 427.46 101.72 426.7 105.16 425.49 107.58 422.33 107.58 418.27 105.16 415.87 106.37 414.83 107.13 410.91 108.93 409.87 109.66 405.36 111.18 400.54 112.67 400.99 111.91 394.68 113.26 390.48 116.42 384.31 119.89 382.2 121.38 381.16 118.22 373.04 116.73 372.45 117.04 370.19 115.97 364.02 114.79 360.86 115.69 355.59 117.33 358.61 120.66 356.95 120.94 354.24 125.9 350.04 131.31 344.32 133.57 343.59 138.98 335.02 139.6 336.97 145.15 334.12 137.79 339.67 136.27 343.28 130.72 346.75 126.52 351.99 123.5 356.95 121.1 360.11 121.24 363.58 120.48 368.09 122.14 371.56 122.45 373.65 123.94 374.27 126.2 375.91 127.55 377.12 128 375.01 125.89 370.22 128.6 365.71 129.05 362.69 130.12 366.75 133.42 369.32 135.08 369.6 133.56 359.68 136.44 364.95 137.03 372.76 140.19 373.52 143.49 366.44 144.84 363.9 142.3 360.88 145.46 361.64 145.15 355.16 146.81 351.72 145.29 349.46 145.46 344.05 147.26 349.15 148.44 349.91 151.77 343.43 155.07 340.27 154.93 341.93 149.21 350.36 146.81 355.15 149.21 362.23 152.23 361.64 151.78 359.38 149.21 355.91 149.35 353.8 152.37 357.86 153.86 359.83 156.28 361.47 156.56 364.04 158.36 366.75 160.78 366.61 161.74 365.34 161.74 366.58 161.29 366.81 160.92 367.37 160.98 368.1 159.94 367.82 157.83 367.71 156.56 367.06 155.97 365.26 154.76 364.81 153.41 364.22 151.61 363.01 150.93 364.5 150.7 365.04 149.74 364.5 146.47 366.25 146.1 369.01 146.69 369.55 145.11 371.21 145.5 372.99 145.36 378.49 147.02 382.92 146.94 384.53 146.8 385.66 146.26 385.55 145.72 384.73 145.41 385.18 146.11 386 145.8 387.24 145.21 387.44 144.14 388.03 144.06 390.51 146.26 391.86 148.71 395.5 148.34 396.54 149.64 396.46 150.09 397.39 151.27 397.16 151.95 397.3 152.26 398.12 155.11 399.92 155.25 400.09 155.33 400.23 156.54 401.67 157.16 403.53 157.05 405.7 155.73 405.39 155.56 405.78 156.77 406.32 158.63 408.63 158.97 411.11 158.66 412.18 158.49 412.83 157.5 413.51 157.05 415.12 156.46 415.88 153.61 416.98 151.27 418.5 150.31 419.99 149.86 423.99 145.77 427.26 146.08 431.43 144.67 434.42 144.87 435.24 144.31 435.1 144.51 436.96 141.52 439.61 139.69 442.94 136.79 444.86 135.44 450.08 132.93 453.77 132.37 456.31 133.41 459.1 133.83 461.44 134.51 461.89 135.81 466.01 135.67 467.45 134.63 468.13 133.84 467.74 133.56 468.19 131.7 465.93 131.25 462.41 132.12 462.04 130.17 456.94 127.91 457.95 126.84 457.75 126.16 458.48 125.06 460.76 125.48 461.8 124.75 465.24 124.92 467.35 126.87 471.27 126.84 472.71 130.53 476.99 131.83 477.58 132.37 479.36 134.15 480.29 134.77 482.18 134.4 483.08 135.41 483.67 134.99 485.11 136.99 485.84 136.4 486.88 137.39 488.68 135.95 489.61 136.26 492.15 138.8 494.46 142.07 495.45 142.58 495.08 141.17 494.85 140.86 493.41 141.06 491.83 141.96 490.62 139.79 488.62 139.28 484.48 137.08 478.39 138.83 475.46 143.4 473.35 144.53 473.74 146.56 473.74 147.41 476 151.53 476.99 153.5 479.44 157.53 481.86 159.05 485.75 160.54 486.29 160.57 487.19 162.15 488.49 168.92 492.1 170.7 490.8 170.64 489.9 171.06 490.35 171.6 489.14 171.54 488.24 170.64 487.7 171.51 483.3 170.61 482.74 171.23 482.29 170.72 480.74 172.04 481.05 172.35 480.2 172.35 478.62 171.62 477.58 171.17 476.65 171.06 475.24 170.19 474.06 169.71 472.93 170.25 472.37 173.13 475.02 176.82 476.77 179.3 477.5 179.95 479.02 181.56 479.58 181.62 481.19 182.69 482.4 183.87 482.85 184.83 481.69 184.69 482.68 185.39 482.76 185.5 483.63 186.29 483.97 186.63 483.04 185.73 482.67 186.66 482.36 186.66 480.19 187.76 480.81 188.24 482.28 189.23 483.13 191.4 483.21 193.97 482.84 195.15 481.49 201.92 478.67 202.15 477.88 203.14 476.75 205.09 475.4 206.44 475.17 206.83 475.54 208.1 475.51 208.78 475.09 210.73 475.4 211.35 475.63 211.94 476.31 212.98 476.23 214.33 474.74 215.09 474.18 217.49 471.59 218.45 470.66 219.07 470.07 220.06 469.48 221.05 469.11 222.29 468.88 224.21 468.63 225.08 468.49 225.78 467.45 226.12 466.75 227.92 465.26 230.06 465.34 231.07 464.8 233.44 465.03 237.1 465.06 239.13 465.17 240.09 465.79 240.57 465.71 242.35 464.5 243.87 464.58 244.77 464.04 245.84 463 246.63 462.32 246.29 461.28 247.7 458.63 246.12 457.53 246.26 456.94 251.53 457.39 252.8 456.4 252.6 455.41 254.07 454.51 255.08 454.57 255.67 452.99 257.62 451.67 258.24 450.29 259.06 449.92 259.14 448.74 261.45 448.43 264.44 445.89 266.1 445.35 266.86 443.83 267.23 442.48 268.22 440.62 270.19 440.39 270.3 438.33 271.31 438.1 269.39 436.83 270.52 436.6 271.51 434.51 273.54 433.21 274.36 431.12 276.56 430.64 278.36 427.79 280.84 427.11 282.48 427.11 283.33 428.18 284.51 428.1 286.85 426.35 286.34 425.76 287.24 424.94 286.42 423.19 287.15 422.09 288.22 422.4 291.15 419.89 292.84 420.34 294.87 418.7 295.18 417.09 297.13 416.3 294.51 415.68 294.45 414.27 292.96 412.3 293.24 411 292.34 407.73 289.69 405.31 289.63 403 288.14 401.34 288.59 400.52 287.69 400.8 287.07 400.21 287.66 399.14 288.87 398.72 292.73 399.31 291.97 398.24 293.61 397.06 293.61 395.9 296.49 392.97 296.01 391.65 297.36 391.34 297.67 389.82 299.16 389.76 299.78 387.59 301.05 387.36 300.99 384.4 303.89 382.6 301.94 379.47 301.71 378.12 301.26 376.23 300.84 376.77 300.73 376.01 300.05 376.24 298.78 375.39 298.05 372.09 296.08 372.23 293.4 370.54 291.43 371.44 287.51 370.82 285.51 369.41 284.04 368.2 283.48 366.68 282.58 366.82 281.14 365.1 280.07 365.1 277.45 363.32 277.17 363.15 275.82 363.32 275.26 364.14 274.02 362.62 273.77 363.92 272.73 364.06 272 363.16 272.87 363.39 273.1 362.4 273.58 363.1 273.13 362.2 273.64 361.5 271.89 360.54 271.55 359.1 269.72 357.92 260.92 357.47 259.51 359.64 257.99 359.95 256.41 361.27 255.82 362.09 255.51 363.33 255.31 364.43 255.2 365.47 254.92 365.78 252.13 366.03 249.9 368.2 247.87 368.2 247.7 368.57 246.18 368.74 244.04 367.73 242.46 366.24 242.21 365.96 240.43 364.24 239.53 365.34 238.4 365.28 238.4 365.34 237.92 364.61 236.57 365.15 236.34 365.07 235.83 364.84 234.76 364.25 233.86 363.35 233.13 363.24 231.07 363.1 228.98 364.23 227.57 363.92 227.68 363.47 227 363.78 226.49 363.7 222.04 362.46 217.61 360.94 215.66 359.76 213.86 359.2 212.65 359.23 211.89 358.98 211.61 358.87 211.02 357.86 210.12 356.45 208.17 355.24 206.37 352.22 208.63 354.56 209.87 355.24 212.69 358.17 215.82 358.31 217.03 358.48 217.76 358.48 218.61 358.99 219.43 359.07 220.36 359.15 221.77 358.98 222.67 359.74 225.01 360.19 225.38 361.18 226.11 361.41 225.74 361.1 226.33 360.87 227.77 361.57 228.93 362.67 229.13 361.03 228.99 360.8 230.03 360.77 230.85 360.71 231.84 359.41 232.77 359.97 234.32 358.08 234.94 358.36 234.91 357.77 235.81 357.54 236.74 357.37 237.56 358.07 238.63 357.08 241 357.25 242.47 351.81 243.88 351.5 244.42 350.94 248.25 347.02 249.35 346.63 249.83 346.35 251.01 344.91 250.02 344.4 251.01 344.6 252.36 343.33 253.94 342.57 256.73 343.25 257.72 344.15 257.33 344.63 258.18 344.63 258.01 345.22 259.67 345.59 260.8 345 261.11 345.65 262.83 343.93 266.61 342.61 270.33 339.88 271.26 338.44 272.75 337.85 273.71 336.3 271.26 334.95 269.6 332.38 268.53 332.38 268.02 331.62 263.2 330.89 261.65 329.76 260.89 327.5 260.72 326.26 262.75 321.41 265.01 319.49 260.05 319.04 257.6 319.04 255.49 319.12 251.71 322.08 249 322.53 247.65 323.77 238.66 328.37 237.05 329.19 233.7 328.91 234.57 328.46 234.49 328.01 237.2 326.97 238.58 327.05 244.58 323.67 246.38 323.22 246.97 321.56 248.63 320.21 249.22 319.62 249.98 319.62 251.78 319.08 252.54 318.71 253.3 318.32 253.36 318.32 255.84 317.56 258.32 318.1 260.04 316.97 262.44 316.35 265.71 318.01 266.75 314.94 268.24 313.87 268.32 313.95 271.08 311.86 272.8 309.58 276.52 307.94 276.52 307.04 277.42 306.53 277.62 305.4 279.68 302.61 279.57 301.91 278.53 301.71 278.02 299.6 279.57 297.65 280.36 297.73 281.46 296.6 282.08 294.63 281.04 294.49 281.18 294.32 282.82 289.44 284.12 287.58 285.47 287.58 286.43 286.28 288.71 284.84 290.18 282.3 290.86 282.07 290.97 280.49 291.65 280.63 293.23 278.83 294.33 276.74 294.13 275.67 295.23 274.26 295.03 270.34 295.54 270.17 294.55 268.51 296.27 267.33 297.17 263.5 300.89 258.59 301.26 256.81 301.57 256.13 301.63 256.13 301.91 255.54 302.61 255.43 303.03 255.01 303.28 254.56 304.18 253.94 304.46 252.67 304.46 251.63 304.04 251.09 303.93 250.92 303.59 250.55 302.89 249.73 302.81 248.83 302.3 248.55 301.76 247.87 301.9 247.31 302.58 244.41 306.36 235.14 306.13 233.79 306.5 234.72 310.64 229.22 312.5 227.7 313.4 226.83 313.03 225.79 313.88 224.21 314.42 224.86 315.66 223.14 315.43 222.38 317.69 219.22 317.77 218.46 316.67 217.56 317.35 216.77 316.9 215.84 318.03 215.3 317.95 216.23 318.23 215.3"/>
    <polygon class="cls-1" points="183.71 177.53 183.24 177.03 184.09 177.53 199.84 177.64 199.93 176.91 123.87 176.4 123.22 177.12 183.71 177.53"/>
    <polygon class="cls-1" points="116.64 304.13 114.1 308.1 110.72 309.62 109.31 313.28 114.33 310.07 118.84 303.76 116.64 304.13"/>
    <polygon class="cls-1" points="141.71 385.77 143.43 384.73 143.74 385.6 144.84 383.71 144.64 381.12 143.66 381.09 141.71 384.39 141.71 385.77"/>
    <polygon class="cls-1" points="31.95 182.57 30.29 185.28 32.18 185.65 34.18 184.47 35 183.03 34.18 182.21 34.18 182.2 31.95 182.57"/>
    <polygon class="cls-1" points="45.1 301.33 42.25 301.47 39.4 302.54 35.34 301.92 33.37 303.89 33.68 309.3 35.03 308.54 36.83 310.49 38.49 310.21 39.67 306.29 43 306.88 44.49 303.13 46.29 303.58 48.24 301.47 46.9 300.3 45.1 301.33"/>
    <polygon class="cls-1" points="66.74 327.22 65.93 326.61 65.11 328.18 66.01 328.69 66.74 327.22"/>
    <polygon class="cls-1" points="76.06 188.21 76.07 188.22 76.07 188.2 76.06 188.21"/>
    <polygon class="cls-1" points="57.44 297.29 59.24 294.13 60.42 294.44 63.58 289.76 64.2 288.12 62.09 287.67 62.1 287.66 58.49 290.2 56.54 291.86 54.28 294.12 51.26 296.07 47.96 299.68 50.22 299.68 52.31 298.19 54.42 298.78 57.44 297.29"/>
    <polygon class="cls-1" points="51.19 214.38 53.45 215.11 53.9 217.59 53.22 218.27 54.26 219.79 55.42 219.93 58.86 221.9 61.26 224.07 62.53 223.45 62.3 218.97 64.41 217.59 65 220.38 66.75 217.81 67.34 220.15 67.96 223.81 70.98 222.85 71.63 224.88 68.78 225.25 67.03 226.52 66.44 228.63 67.34 229.25 72.67 239.26 75.71 237.82 74.19 241.63 79.97 240.9 82 240.9 82.23 238.93 84.94 239.49 85.31 245.04 86.61 245.72 89.54 240.9 89.68 236.56 91.51 239.38 92.02 242.09 96.47 241.98 92.83 245.14 90.72 249.31 88.8 252.58 89.39 256.98 93.53 255.51 96.01 252.94 99.31 248.34 101.42 247.89 102.01 243.97 101.78 242.08 103.78 242.78 108.74 239.71 109.67 236.55 109.67 233.73 106.82 233.59 105.44 232.63 98.93 235.34 96.82 235.34 95.75 233.14 92.23 232.55 90.93 230.66 87.86 232.18 89.66 229.7 89.15 227.81 86.22 227.22 86.3 225.11 84.78 221.81 85.96 220.06 85.37 218.62 81.99 219.32 82.3 217.43 84.92 216.39 85.74 206.92 86.44 200.69 83.73 195.73 81.7 195.28 79.73 189.98 77.84 188.8 76.07 188.22 75.93 190.77 74.55 192.32 72.89 192.57 71.71 194.35 73.01 197.42 73.24 199.62 74.79 199.62 73.83 202.1 72.67 202.69 73.74 204.8 73.6 206.46 72.53 205.64 71.85 207.42 70.41 208.58 70.52 206.61 68.63 208.02 64.63 202.95 63.22 198.95 60.29 196.92 58.85 202.39 60.29 203.18 63.67 206.93 63.44 208.25 62.06 206.93 59.58 206.85 60.28 211.22 62.28 214.15 61.69 214.97 60.51 213.22 59.58 213.78 58.26 211.67 55.47 205.89 53.67 206.93 54.52 211.53 51.7 211.22 51.19 214.38"/>
    <polygon class="cls-1" points="93.41 206.47 94.57 208.13 96.12 202.94 95.3 201.42 93.41 206.47"/>
    <polygon class="cls-1" points="90.12 213.2 88.34 217.34 88.23 224.05 89.53 226.39 93.05 223.8 91.87 221.09 91.5 216.47 94.21 210.83 93.65 209.17 93.64 209.17 91.5 210.49 92.09 212.75 91.78 213.65 90.12 213.2"/>
    <polygon class="cls-1" points="32.77 191.58 32.77 192.4 33 193.3 34.27 193.58 35.54 193.02 35.26 194.06 36.36 195.41 38.64 192.22 37.88 191.54 36.98 191.65 36.36 189.99 36.35 190 35.62 190.28 35.79 191.13 33.76 190.65 32.77 191.58"/>
    <polygon class="cls-1" points="92.24 226.98 92.23 226.98 91.05 228.98 92.97 231.35 95.9 231.35 96.24 229.46 94.13 227.35 92.24 226.98"/>
    <polygon class="cls-1" points="34.41 200.51 32.77 200.14 25.84 200.06 31.7 199.24 34.18 199.83 35.22 199.32 36.07 196.75 33.59 196.89 33.45 195.45 33.45 194.41 31.7 193.82 31.95 192.66 31.02 191.56 31.95 190.66 33.22 189.5 33.81 188.03 32.17 186.2 30.65 186.88 29.69 188.18 28.17 188.77 29.24 189.95 28.17 190.74 26.65 191.11 26.2 190.29 24.79 189.81 24.87 188.77 25.6 187.11 25.74 185.87 24.2 186.9 24.2 187.97 23.04 188.56 22.45 189.83 21.72 191.72 20.56 191.13 18.56 188.79 15.85 188.79 16.22 189.24 15.37 191.5 14.19 193.7 12.78 193.84 14.56 196.07 15.86 197.51 18.34 197.82 21.02 202.56 20.91 205.21 22.18 204.98 23.28 203.46 23.98 205.12 25.39 206.3 26.77 206.89 29.48 207.9 30.44 207.45 28.92 205.11 28.55 203.95 30.44 204.18 33.23 204.88 34.41 202.17 34.41 200.51"/>
    <polygon class="cls-1" points="22.17 188.11 20.22 187.94 20.22 187.95 19.74 188.65 20.9 189.52 22.17 188.11"/>
    <polygon class="cls-1" points="30.43 179.72 32.54 178.56 31.25 177.08 28.77 178.25 30.43 179.72"/>
    <polygon class="cls-1" points="25.74 185.84 25.74 185.87 25.75 185.86 25.74 185.84"/>
    <polygon class="cls-1" points="46.89 300.29 46.9 300.3 46.9 300.29 46.89 300.29"/>
    <polygon class="cls-1" points="77.06 343.73 77.08 343.75 77.08 343.74 77.06 343.73"/>
    <polygon class="cls-1" points="99.54 341.54 100.98 342.39 103.35 342 103.38 339.52 102.39 338.79 102.39 338.78 100.67 339.85 99.54 341.54"/>
    <polygon class="cls-1" points="74.03 346.45 71.89 347.13 70.88 349.92 69.19 352.54 70.2 354.65 70.76 356.45 72.56 354.87 73.46 354.42 75.04 351.26 75.6 349.6 78.19 344.86 77.08 343.75 74.82 345.63 74.03 346.45"/>
    <polygon class="cls-1" points="102.47 336.23 102.47 336.24 101.43 337.48 102.33 338.18 103.12 338.32 102.47 336.23"/>
    <polygon class="cls-1" points="65.92 326.6 65.93 326.61 65.93 326.6 65.92 326.6"/>
    <polygon class="cls-1" points="65.17 250.97 62.07 250.21 58.86 251.08 58.8 252.77 60.29 253.14 62.46 252.21 64.77 253.82 65.9 252.61 65.17 250.97"/>
    <polygon class="cls-1" points="61.95 324.49 63.75 325.7 65.7 322.09 63.3 322.4 61.95 324.49"/>
    <polygon class="cls-1" points="106.3 330.98 107.06 332.19 108.3 330.89 107.62 329.54 108.47 329.31 108.86 327.14 107.4 326.84 105.48 329.37 106.3 330.98"/>
    <polygon class="cls-1" points="107.34 336.13 107.35 336.14 107.35 336.13 107.34 336.13"/>
    <polygon class="cls-1" points="105.18 333.14 104.42 337.06 105.86 339.74 106.76 334.33 106.22 333.6 106.05 332.25 106.05 332.24 105.18 333.14"/>
    <polygon class="cls-1" points="107.39 326.83 107.4 326.84 107.4 326.83 107.39 326.83"/>
    <polygon class="cls-1" points="76.22 294.26 77.43 298.49 73.96 296.23 70.35 296.82 72.15 299.67 69.3 301.78 71.41 304.94 75.16 304.63 79.67 308.1 80.43 310.21 86.89 307.95 87.48 309.9 84.32 312.47 80.12 312.75 78.46 316.67 75.75 318.93 76.37 320.88 78.46 320.74 83.87 319.98 86.44 318.63 86.75 320.29 83.59 322.09 77.56 323.58 73.05 322.85 73.5 325.25 71.55 324.94 72.14 324.04 70.5 322.69 67.62 322.24 66.27 324.5 67.34 326.16 68.24 329.46 71.54 330.36 72.75 328.56 78.3 328.87 79.34 327.83 82.22 327.38 83.71 328.42 87.18 325.71 90.48 325.12 93.5 322.7 95.14 323.32 92.6 325.86 95.76 327.38 102.81 322.25 103.12 320.9 101.63 320.62 98.47 321.52 100.87 318.95 100.73 317.74 102.53 317.6 102.22 319.09 104.17 320.44 105.69 319.26 105.52 317.15 106.14 316.39 105.83 313.68 103.26 311.59 99.96 309.62 96.35 307.36 92.15 306.63 89.73 305.73 89.45 304.38 88.1 299.56 85.84 296.54 84.49 294.45 82.07 292.65 80.12 292.2 80.14 292.17 76.22 294.26"/>
    <polygon class="cls-1" points="107.85 333.2 107.43 332.55 106.95 333.23 107.51 333.99 107.85 333.2"/>
    <polygon class="cls-1" points="107.18 339.17 108.25 338.32 108.33 336.83 107.35 336.14 106.9 338.27 107.18 339.17"/>
  </g>
  <polygon class="cls-6" points="57.06 176.24 57.05 176.16 56.58 176.16 57.06 176.24"/>
  <g>
    <polygon class="cls-5" points="250.26 84.17 251.7 83.77 251.51 82.33 252.04 81.93 251.7 81.59 251.01 81.75 250.26 81.86 249.7 81.12 249.24 80.94 249.23 80.95 248.25 81.8 248.89 82.97 250.26 84.17"/>
    <polygon class="cls-5" points="250.25 77.39 251.47 78.36 252.03 77.68 251.75 76.99 253.01 77.62 253.54 78.6 253.48 79.75 254.62 78.88 253.77 77.79 253.61 77.04 252.44 76.29 251.41 75.71 251.91 75.37 252.37 74.23 251.88 73.65 251.52 74.44 250.9 75.24 250.26 75.43 249.39 75.08 250.19 76.17 250.25 77.39"/>
    <polygon class="cls-5" points="251.87 73.64 251.88 73.65 251.88 73.64 251.87 73.64"/>
    <polygon class="cls-5" points="247.15 98.28 246.18 98.34 246.12 99.14 246.52 99.38 247.85 99.04 247.15 98.27 247.15 98.28"/>
    <polygon class="cls-5" points="255.14 91.99 255.54 92.55 255.67 93.01 255.32 93.25 254.62 93.12 254.47 92.14 254.41 91.4 255.55 91.27 255.32 90.07 254.47 90.31 253.37 91.34 252.62 91 253.15 89.39 252.38 89.15 251.64 90.19 250.84 89.26 249.64 89.79 248.44 89.33 248.84 88.75 249.34 88.69 249.4 87.66 250.67 87.95 250.85 86.46 249.58 85.36 249.98 84.96 249.11 84.22 248.66 84.32 246.46 82.89 246.46 82.91 243.47 83.78 242.94 85.11 242.94 86.78 242.83 87.4 242.6 89.19 242.47 90.29 243.67 91.67 244.54 91.24 244.94 90.5 245.58 92.07 246.51 93.44 247.95 93.4 248.45 92.87 249.44 92.47 250.98 91.43 251.39 91.43 251.79 93.28 252.42 94.55 253 94.36 252.95 95.06 252.42 95.46 252.48 95.99 252.02 95.81 251.28 96.32 252.02 96.66 251.56 97.25 250.54 97.06 250.08 97.46 251.05 97.81 250.25 98.15 251 99.13 250.82 100.46 251.45 101.33 252.37 101.2 252.56 100.33 252.1 99.71 252.5 98.72 253.3 97.58 252.9 96.78 252.31 96.54 253.7 96.31 253.3 95.39 253.41 94.69 253.41 94.19 254.61 95.14 255.48 93.72 256.22 93.48 257.15 93.13 257.33 92.09 257.39 91.07 255.14 91.99"/>
    <polygon class="cls-5" points="242.73 97.13 243.68 99.38 245.65 99.73 244.97 98.86 245.87 98.12 246.85 97.42 246.05 96.62 245.84 95.63 245.84 95.07 244.33 93.85 243.74 93.69 243.58 92.95 242.78 92.59 242.78 92.58 241.8 93.04 241 95.22 242.08 95.46 242.73 97.13"/>
    <polygon class="cls-5" points="247.9 96.56 247.5 97.02 247.56 97.47 248.25 97.6 248.89 97.66 248.76 97.2 248.42 96.9 249.05 96.56 247.9 96.56"/>
    <polygon class="cls-5" points="253.83 73.94 254.12 73.12 253.66 72.66 253.65 72.66 252.97 75.37 253.89 75.31 253.83 73.94"/>
    <polygon class="cls-5" points="293.7 9.76 294.04 9.86 294.74 9.22 294.06 8.88 293.7 9.76"/>
    <polygon class="cls-5" points="289.1 14.61 289.1 14.61 289.14 14.58 289.1 14.61"/>
    <polygon class="cls-5" points="284.73 19.33 283.79 20.07 284.69 21.11 285.62 20.81 285.53 19.77 284.73 19.33"/>
    <polygon class="cls-5" points="252.28 82.4 252.78 84 253.02 82.46 252.28 82.4"/>
    <polygon class="cls-5" points="289.94 34.16 289.88 34.56 290.55 34.64 289.95 34.16 289.94 34.16"/>
    <polygon class="cls-5" points="285.25 21.75 285.61 21.83 285.99 21.32 285.43 21.23 285.43 21.22 285.25 21.75"/>
    <polygon class="cls-5" points="291.55 28.21 291.55 29.09 291.78 30.85 292.78 31.63 293.34 28.79 292.47 27.84 292.48 27.83 291.55 28.21"/>
    <polygon class="cls-5" points="286.23 34.41 287.13 33.15 287.09 34.19 287.92 31.35 287.66 30.65 287.66 30.66 287.32 31.22 286.76 31.45 287.1 31.89 286.47 32.89 286.23 34.41"/>
    <polygon class="cls-5" points="288.08 16.68 287.34 16.86 286.72 18.13 286.23 18.81 285.41 18.81 285.51 19.24 285.81 19.5 286.41 19.05 286.75 19.5 286.39 20.01 287.67 20.01 288.23 20.9 286.96 20.64 286.92 21.46 286.44 21.18 286.11 22.32 287.11 22.92 286.17 23.72 285.71 22.78 285.17 22.18 284.23 22.26 284.57 22.79 283.83 22.87 283.1 22.27 282.42 22.8 282.16 23.48 281.02 22.88 279.41 22.94 278.88 23.81 279.28 25.29 280.01 26.42 280.95 26.9 281.95 26.16 282.09 27.36 282.82 26.29 283.42 26.09 283.36 26.89 282.56 27.35 282.42 28.15 283.02 28.15 283.3 28.89 284.3 29.76 284.63 27.55 285.11 28.75 285.51 28.35 285.51 26.81 285.77 27.21 286.37 26.81 286.97 26.95 287.77 25.48 287.77 30.1 288.51 31.63 287.43 35.58 286.83 36.58 286.23 38.79 285.83 40.2 286.71 40.94 287.31 40.94 288.24 42.61 288.38 41.27 288.04 39.74 288.64 37.93 288.31 36.52 289.78 37.05 289.52 35.78 289.32 34.58 289.99 33.64 289.53 31.91 290.13 30.57 291.2 29.5 291.2 27.82 289.66 28.3 290.54 26.22 289.94 26.02 289.74 24.95 289.74 24.41 290.54 25.41 291 25.15 291.74 24.48 290.94 24.14 291.2 23.27 292.07 22.93 292.27 21.93 291 21.79 290.6 21.93 290.2 20.73 291.34 20.93 292.54 20.33 292.46 19.06 291.26 19.59 291.26 18.66 290.59 18.86 290.45 18.26 288.98 17.86 289.98 17.26 290.18 16.32 289.58 15.25 289.1 14.61 288.47 15.21 287.93 14.85 287.68 15.58 288.08 16.68"/>
    <polygon class="cls-5" points="296.09 19.77 296.29 19.21 296.28 19.2 295.77 19.33 294.98 19.41 293.8 20.95 293.64 21.64 294.72 21.64 296.09 19.77"/>
    <polygon class="cls-5" points="297.42 10.43 297.78 10.19 298.28 10.99 299.12 9.5 298.78 8.9 298.37 9.2 298.22 9.6 297.78 8.55 296.91 8.35 296.92 8.34 296.28 8.78 296.1 8.38 295.27 8.38 295.11 8.98 295.3 9.6 296.42 11.47 297.17 11.06 296.3 10.13 297.14 9.9 297.42 10.43"/>
    <polygon class="cls-5" points="293.86 30.25 294.4 29.95 294.26 29.35 293.52 29.61 293.86 30.25"/>
    <polygon class="cls-5" points="294.63 5.94 295.23 6.57 295.93 5.78 297.01 6.34 297.57 6.03 296.87 5.36 297.36 3.95 298.01 3.11 296.97 2.85 298.14 2.75 297.47 1.44 298.37 1.75 298.53 .91 298.27 .47 298.9 .09 298.11 -.78 297.61 -.57 297.51 -1.01 296.83 .62 296.37 .62 296.53 -.62 296.36 -1.09 296.02 -.76 296.12 -.3 295.62 .3 295 .44 295.1 2.25 294.7 3.63 295.01 4.42 294.39 4.56 294.63 5.94"/>
    <polygon class="cls-5" points="291.05 14.93 291.65 14.96 291.46 14.5 291.49 13.72 292.63 14.54 293.37 14.59 293.4 12.86 293.04 11.99 293.71 11.91 293.99 10.78 293.31 10.18 292.95 9.67 293.49 8.94 293.29 8.01 294.19 8.11 294.09 6.13 293.85 4.45 292.42 3.92 292.4 3.9 291.2 4.28 291.06 8.7 290.7 8.89 290.55 7.26 289.78 8.49 289.75 10.91 290.28 13.32 291.05 14.93"/>
    <polygon class="cls-5" points="291.56 17.22 291.35 17.89 291.7 18.24 292.49 18.1 293.23 16.69 292.97 16.39 292.05 17.8 291.56 17.22"/>
    <polygon class="cls-5" points="257.68 80.66 258.08 81.53 259.4 79.56 259.93 79.62 260.39 79.34 260.44 79.98 261.47 79.39 261.93 79.79 262.39 78.53 263.19 77.73 264.34 77.83 263.99 76.68 264.1 76.02 263.39 76.24 263.21 77.04 261.6 77.74 260.55 78.29 260.61 77.39 260.91 77.34 261.47 76.47 261.07 76.41 260.27 77.04 259.53 76.81 260.04 77.79 259.8 78.29 257.68 80.66"/>
    <polygon class="cls-5" points="257.8 86.25 258.67 86.49 258.73 85.62 259.41 85.44 259.81 86.37 260.21 86.37 260.67 86.02 261.25 86.37 261.6 85.62 261.01 85.04 261.25 84.34 260.15 84.7 259.87 84 260.33 83.54 259.34 83.31 259.19 82.73 258.27 82.91 259.3 84.52 258.43 84.98 257.8 86.25"/>
    <polygon class="cls-5" points="264.1 76 264.1 76.02 264.13 76.01 264.1 76"/>
    <polygon class="cls-5" points="284.77 21.86 283.79 21.22 283.87 22.09 284.77 21.86"/>
    <polygon class="cls-5" points="254.94 85.84 254.93 85.85 254.29 86.49 254.08 87.05 253.09 86.25 252.63 88.32 254.64 88.72 255.1 88.43 255.04 87.35 255.57 85.97 254.94 85.84"/>
    <polygon class="cls-5" points="255.5 82.79 255.74 83.53 256.89 83.19 256.36 81.24 256.82 80.07 256.36 78.87 256.36 78.88 255.8 79.34 255.84 81.29 255.39 81.59 254.89 81.25 254.94 82.2 255.5 82.79"/>
    <polygon class="cls-5" points="287.17 14.38 287.35 15.01 287.74 14.58 287.18 14.38 287.17 14.38"/>
    <polygon class="cls-5" points="264.66 74.23 264.53 73.58 265.12 73.18 264.99 72.63 265 72.62 263.92 72.9 263.57 73.88 264.2 74.51 264.66 74.23"/>
    <polygon class="cls-5" points="281.84 15.22 282.82 15.14 283.42 15.91 284.11 14.84 284.41 16.58 285.01 18.32 285.91 18.55 286.22 17.65 287.05 16.28 286.75 13.26 286.29 13.03 286.29 12.35 287.36 11.96 286.83 10.68 287.43 10.08 287.13 8.64 286.54 8.72 286.6 9.7 285.86 9.56 284.87 9.26 284.63 9.86 284.57 10.99 283.52 12.06 283.52 12.81 282.92 12.73 282.69 11.83 282.01 12.43 281.38 13.94 280.94 13.94 280.55 14.78 280.64 15.38 281.84 15.22"/>
    <polygon class="cls-5" points="279.58 22.04 279.66 21.27 278.08 21.13 278.07 21.14 278.45 22.12 279.58 22.04"/>
  </g>
  <g>
    <polygon class="cls-8" points="200.02 175.56 200.92 174.43 200.27 171.78 201.48 168.03 208.89 164.82 210.5 160.45 214.39 158.87 227.02 148.95 232.04 141.79 233.84 139.39 242.21 136.09 248.21 129.69 250.83 122.76 251.45 119.24 247.48 118.96 247.25 115.04 249.73 112.11 250.38 107.91 251.9 107.32 252.94 102.81 246.09 103.4 244.45 101.12 242.5 101.82 238.22 102.69 236.53 102.27 234.84 99.7 234.8 99.6 233.42 100.59 232.88 102.39 236.12 104.87 235.92 105.91 234.99 107.32 230.42 105.4 227.01 106.89 225.66 105.73 226.56 104.26 220.02 104.18 216.75 106.58 213.03 108.61 207.96 109.2 204.8 108.24 202.54 108.92 201.61 105.73 200.29 106.72 197.58 109.6 194.56 109.29 193.4 111.09 191.37 110.41 189.68 112.52 188.55 112.89 188.38 111.59 184.26 111.39 182.51 114.1 178.96 115 180.43 111.84 180.32 109.73 178.91 110.32 179.19 109.05 176.48 107.25 172.08 107.08 171.74 110.72 170.39 112.98 169.26 112.9 168.67 109.57 166.1 108.78 164.24 106.13 162.72 104.1 160.13 108.1 160.1 104.69 153.93 102.97 150.8 101.45 150.26 106.19 147.95 109.38 144.85 111.47 144.57 115.75 146.04 116.68 147.51 117.05 146.38 118.49 144.32 120.66 144.69 121.79 145.59 122.69 146.75 122.75 149.06 125.99 147.71 126.27 145.48 124.13 142.89 122.21 142.33 124.49 141.09 126.52 141.99 127.79 140.5 128.16 140.98 129.46 141.04 131.04 142.22 130.59 142.56 132.17 142.48 134.17 143.97 135.86 148.31 138.54 146.17 138.62 143.69 136.59 142.22 137.18 140.13 137.88 137.71 137.71 135.99 136.07 135 137.08 136.35 138.15 133.28 140.32 132.86 138.74 131.93 137.53 130.83 137.47 130.07 136.12 128.69 139.28 130.38 141.99 131.73 142.98 132.52 145.24 133.2 146.82 135.91 148.4 133.46 148.91 135.32 150.63 133.15 150.66 134.59 151.62 133.74 154.33 133.2 155.85 131.51 154.27 130.38 154.58 129.7 156.44 128.35 152.83 126.6 151.65 125.08 153.14 125.31 155.62 127.11 156.97 126.38 158.18 127.9 159.14 130.04 160.04 131.39 161.7 132.29 164.63 136.43 166.8 138.83 167.11 137.48 169.28 139.06 172.21 135.48 170.72 132.18 171.31 129.25 168.32 126.91 168.97 129.7 173.42 125.87 171.08 124.66 174.91 123.22 176.5 199.84 177.02 200.02 175.56"/>
    <polygon class="cls-8" points="53.79 136.41 52.61 136.92 53.06 137.96 55.17 137.68 57.31 138.64 57.31 136.78 54.91 135.17 54.26 133.39 52.13 133 52.83 136.3 53.79 136.41"/>
    <polygon class="cls-8" points="37.92 156.6 38.4 157.45 39.58 156.27 39.07 154.38 37.8 153.79 37.81 153.78 35.55 154.82 36.51 156.37 37.92 156.6"/>
    <polygon class="cls-8" points="119.75 174.72 118.9 169.9 115.91 169.08 113.8 172.46 114.19 175.48 116.22 176.38 116.28 176.48 123.34 176.53 119.75 174.72"/>
    <polygon class="cls-8" points="85.91 109.91 85.94 109.93 85.96 109.91 85.91 109.91"/>
    <polygon class="cls-8" points="40.85 167.88 39.21 167.88 39.35 169.4 41.69 168.36 42.87 169.32 44.25 167.66 44.02 166.02 42.29 166.1 40.85 167.88"/>
    <polygon class="cls-8" points="76.66 149.1 74.55 149.92 76.81 150.29 76.67 149.11 76.66 149.1"/>
    <polygon class="cls-8" points="127.12 159.92 127.12 159.93 126.5 161.73 127.68 162.32 128.58 161.78 127.48 161.33 127.85 160.37 127.12 159.92"/>
    <polygon class="cls-8" points="56.1 173.65 55.37 172.04 53.85 171.39 54.36 170.15 53.99 168.91 55.65 168.91 57.85 170.6 60.89 170.83 61.06 169.25 58.89 167.53 60.78 166.85 57.96 160.17 62.41 167.61 64.52 167.75 65.84 167.89 67.36 167.78 68.04 166.71 69.22 166.85 70.74 165.67 71.56 165.9 72.04 163.93 73.08 163.56 73.14 161.25 66.29 159.33 73.99 158.51 76.53 160.17 77.8 158.65 78.36 156.17 74.13 155.38 77.46 154.84 78.14 153.23 77.66 151.37 76.39 150.78 74.81 151.37 73.15 150.61 72.16 151.23 67.45 150.64 73.31 149.48 74.86 147.7 76.69 147.02 78.33 147.44 78.5 146.03 77.43 145.58 78.36 145.1 77.8 142.28 79.1 141.35 80.28 141.49 81.44 140.39 83.02 140.39 84.74 142.73 86.63 142.39 87.53 140.98 89.53 139.49 91.28 135.66 90.01 134.76 88.49 136.31 86.49 138.51 85.19 138.74 83.78 139.81 82.62 139.36 80.98 138.06 79.68 138.88 78.41 138.2 79.31 136.99 81.65 136.48 81.85 133.94 83.32 133.83 84.5 131.6 85.99 131.68 88.5 127.62 90.42 127.31 88.84 125.82 88.02 124.35 89.37 120.74 90.53 119.92 90.36 118.34 89.77 116.79 90.08 114.76 88.7 113.52 88.25 111.49 85.94 109.93 85.17 110.59 85.73 111.6 84.04 112.92 82.46 113.31 81.47 114.8 73.72 120.52 72.2 120.44 70.65 123.46 66.79 125.41 65.21 124.45 63.07 126.62 60.7 127.27 56.89 128.85 55.76 130.54 58.44 131.19 56.35 132.04 57.76 135.96 59.59 138.1 59.73 138.89 58.69 138.41 58.69 139.71 60.01 139.79 61.39 140.89 59.64 142.38 58.43 140.6 55.05 138.85 53.1 139.53 52.28 139.9 52.59 141.34 51.6 142.5 51.43 140.08 49.34 140.02 48.21 138.41 50.1 138.18 50.47 136.91 49.12 136.77 48.39 135.11 47.4 136.29 45.2 134.74 44.92 133.7 43.17 136.63 42.94 138.41 43.76 139.11 44.69 139.34 43.48 141.12 43.11 139.63 41.5 139.12 40.4 139.63 41.05 142.05 39.56 143.83 38.12 145.21 39.87 150.14 41.17 151.52 43.31 150.36 43.93 151.04 42.13 152.39 41.62 153.88 43.09 154.5 42.41 155.4 41.54 156.7 40.5 156.14 39.65 157.8 38.47 158.34 39.03 159.02 39.73 158.26 40.1 161.05 41.23 160.77 42.98 162.72 45.29 162.72 48.22 163.99 50.48 165.43 51.44 166.33 51.52 168.22 50.34 168.14 47.77 167.21 46.36 168 46.11 169.18 47.41 170.36 47.04 170.81 46.25 170.81 44.61 171.29 43.88 170.81 43.18 172.7 41.54 174 39.65 175.04 38.89 174.22 37.79 173.32 36.32 173.63 36.86 175.72 37.38 176.03 53.88 176.14 53.94 175.22 55.74 176.01 56.58 176.16 57.05 176.16 56.95 174.69 56.1 173.65"/>
    <polygon class="cls-8" points="60.81 173.86 62.36 173.52 61.54 171.97 59.29 171.29 58.84 172.56 60.81 173.86"/>
    <polygon class="cls-8" points="112.06 174.8 108 174.07 105.15 175.11 105.05 176.48 111.9 176.53 112.06 174.8"/>
  </g>
  <path class="cls-2" d="M279.06,234.24c.63-.73,1.12-1.63,1.48-2.7,.3-1,.49-2.27,.57-3.8,.08-1.53,.11-3.53,.11-6,0-4.33-.23-7.6-.68-9.8-.25-1.13-.57-2.1-.95-2.9-.38-.8-.82-1.6-1.32-2.4-.71-1.13-1.75-2.25-3.14-3.35s-3.14-1.65-5.26-1.65c-1.62,0-3.13,.4-4.54,1.2s-2.65,1.87-3.71,3.2-1.89,2.93-2.5,4.8c-.61,1.87-.91,3.83-.91,5.9v5.9h7.72v-5.8c0-1.07,.29-2.17,.87-3.3s1.55-1.7,2.92-1.7c1.16,0,2.08,.47,2.76,1.4,.68,.93,1.02,2.13,1.02,3.6v9.2c0,2.67-.44,4.37-1.33,5.1-.88,.73-2.49,1.1-4.81,1.1v9c1.26,0,2.28,.07,3.07,.2,.78,.13,1.4,.47,1.86,1,.81,.87,1.21,2.7,1.21,5.5v10.2c0,1.73-.34,3.12-1.02,4.15s-1.6,1.55-2.76,1.55-2.08-.52-2.76-1.55c-.68-1.03-1.02-2.35-1.02-3.95v-5.3h-7.72v5.8c0,2.8,.37,5.17,1.1,7.1s1.65,3.5,2.76,4.7,2.35,2.07,3.71,2.6,2.65,.8,3.86,.8c2.42,0,4.38-.62,5.87-1.85s2.71-2.78,3.67-4.65c.4-.8,.73-1.57,.98-2.3,.25-.73,.45-1.63,.61-2.7,.15-1,.26-2.27,.34-3.8s.11-3.47,.11-5.8c0-2.53-.03-4.62-.08-6.25s-.23-3.05-.53-4.25c-.3-1.13-.77-2.13-1.4-3s-1.55-1.8-2.76-2.8c1.11-.87,1.98-1.67,2.61-2.4h0Z"/>
  <path class="cls-4" d="M306.31,235.11c.06-.07,.11-.14,.17-.21l-.36-.89,.19,1.1h0Z"/>
  <path class="cls-7" d="M301.89,247.53l-.14,.56,.54,.68,.51,.28,.08,.9,.7,.82,.34,.37,.11,.17,.42,.54v1.04l-.28,1.27-.9,.62-.25,.45-.42,.42-.7,.11-.25,.52v2.56c0,1.4-.38,2.58-1.14,3.55s-1.64,1.45-2.65,1.45c-.25,0-.48-.03-.72-.09l-.89,3.8-1.72,1.18,.99,1.66-.51,.17,.16,3.14c.83,.22,1.73,.34,2.69,.34,2.27,0,4.19-.62,5.75-1.85s2.78-2.72,3.63-4.45c.4-.8,.74-1.57,1.02-2.3,.28-.73,.49-1.63,.64-2.7,.15-1.07,.26-2.32,.34-3.75s.11-3.25,.11-5.45c0-2.67-.03-4.92-.08-6.75s-.2-3.38-.45-4.65c-.25-1.27-.64-2.37-1.17-3.3-.45-.79-1.05-1.59-1.77-2.38l-3.33,8.17-.68,2.9h.02Z"/>
  <path class="cls-3" d="M308.84,230.14c.25-1.13,.4-2.43,.45-3.9,.05-1.47,.08-3.27,.08-5.4,0-1.93-.04-3.58-.11-4.95-.08-1.37-.24-2.55-.49-3.55s-.56-1.9-.91-2.7-.78-1.63-1.29-2.5c-1.01-1.73-2.27-3.08-3.79-4.05-1.51-.97-3.16-1.45-4.92-1.45s-3.41,.48-4.92,1.45-2.78,2.32-3.79,4.05c-.5,.87-.92,1.7-1.25,2.5s-.62,1.7-.87,2.7-.43,2.18-.53,3.55c-.1,1.37-.15,3.02-.15,4.95,0,2.13,.02,3.93,.08,5.4,.05,1.47,.2,2.77,.45,3.9,.25,1.13,.64,2.15,1.17,3.05s1.25,1.85,2.16,2.85c-.91,.93-1.63,1.87-2.16,2.8-.53,.93-.92,2.03-1.17,3.3s-.4,2.82-.45,4.65c-.05,1.83-.08,4.08-.08,6.75,0,2.2,.04,4.02,.11,5.45,.08,1.43,.19,2.68,.34,3.75s.37,1.97,.64,2.7c.28,.73,.62,1.5,1.02,2.3,.86,1.73,2.07,3.22,3.63,4.45,.9,.71,1.93,1.21,3.07,1.51l-.16-3.14,.51-.17-.99-1.66,1.72-1.18,.89-3.8c-.72-.18-1.36-.63-1.93-1.36-.76-.97-1.14-2.15-1.14-3.55v-14c0-1.4,.38-2.58,1.14-3.55s1.64-1.45,2.65-1.45,1.89,.48,2.65,1.45c.76,.97,1.14,2.15,1.14,3.55v11.44l.25-.52,.7-.11,.42-.42,.25-.45,.9-.62,.28-1.27v-1.04l-.42-.54-.11-.17-.34-.37-.7-.82-.08-.9-.51-.28-.54-.68,.14-.56,.68-2.9,3.33-8.17c-.13-.14-.25-.28-.39-.42,.29-.31,.55-.62,.79-.93l-.19-1.1,.36,.89c.47-.59,.87-1.16,1.2-1.71,.53-.9,.92-1.92,1.17-3.05h0Zm-7.19-2.9c0,1.4-.38,2.58-1.14,3.55s-1.64,1.45-2.65,1.45-1.89-.48-2.65-1.45c-.76-.97-1.14-2.15-1.14-3.55v-10.4c0-1.4,.38-2.58,1.14-3.55s1.64-1.45,2.65-1.45,1.89,.48,2.65,1.45c.76,.97,1.14,2.15,1.14,3.55v10.4Z"/>
  <rect class="cls-9" x="313.54" y="268.34" width="3.86" height="5.1"/>
  <path class="cls-9" d="M321.15,273.44l6.78-30.8h-4.24v4.1h-3.41v-8.9h11.51v5.1l-6.55,30.5h-4.09Z"/>
  <path class="cls-9" d="M341.09,273.44v-5.3h-7.68v-4.8l5.56-25.5h4.09l-5.79,25.5h3.82v-10.15h3.86v10.15h1.85v4.8h-1.85v5.3h-3.86Z"/>
  <path class="cls-9" d="M353.02,252.84c1.16,0,1.96-.18,2.4-.55,.44-.37,.66-1.22,.66-2.55v-4.6c0-.73-.17-1.33-.51-1.8s-.8-.7-1.38-.7c-.68,0-1.17,.28-1.46,.85-.29,.57-.44,1.12-.44,1.65v2.9h-3.86v-2.95c0-1.03,.15-2.02,.45-2.95,.3-.93,.72-1.73,1.25-2.4s1.15-1.2,1.85-1.6c.71-.4,1.46-.6,2.27-.6,1.06,0,1.94,.27,2.63,.82s1.22,1.11,1.57,1.68c.25,.4,.47,.8,.66,1.2s.35,.88,.47,1.45c.23,1.1,.34,2.73,.34,4.9,0,1.23-.02,2.23-.06,3s-.13,1.4-.28,1.9c-.18,.53-.42,.98-.74,1.35-.32,.37-.75,.77-1.31,1.2,.61,.5,1.07,.97,1.38,1.4,.32,.43,.55,.93,.7,1.5,.15,.6,.24,1.31,.26,2.12,.03,.82,.04,1.86,.04,3.12,0,1.17-.02,2.13-.06,2.9s-.09,1.4-.17,1.9c-.08,.53-.18,.98-.3,1.35-.13,.37-.29,.75-.49,1.15-.48,.93-1.09,1.71-1.83,2.33-.75,.62-1.72,.92-2.93,.92-.61,0-1.25-.13-1.93-.4s-1.3-.7-1.85-1.3c-.56-.6-1.02-1.38-1.38-2.35-.37-.97-.55-2.15-.55-3.55v-2.9h3.86v2.65c0,.8,.17,1.46,.51,1.97,.34,.52,.8,.78,1.38,.78s1.04-.26,1.38-.78,.51-1.21,.51-2.07v-5.1c0-1.4-.2-2.32-.61-2.75-.23-.27-.54-.43-.93-.5-.39-.07-.9-.1-1.53-.1v-4.5h.03Z"/>
  <polygon class="cls-7" points="232.05 141.9 230.49 144.12 223.44 167.71 232.01 167.71 240.95 136.7 233.85 139.5 232.05 141.9"/>
  <path class="cls-7" d="M225.78,105.84l1.35,1.16,3.41-1.49,4.57,1.92,.93-1.41,.2-1.04-3.24-2.48,.54-1.8,1.38-.99,.04,.1,1.69,2.57,1.69,.42,2.25-.46c-.79-1.13-1.7-2.1-2.76-2.87-1.65-1.2-3.53-1.8-5.63-1.8s-4,.58-5.67,1.76c-1.66,1.15-2.98,2.79-3.98,4.89l4.13,.05-.9,1.47h0Z"/>
  <path class="cls-2" d="M242.83,130.2c.17-.81,.34-1.74,.49-2.78,.1-.98,.17-2.16,.23-3.56,.05-1.4,.07-3.17,.07-5.32,0-2.28-.03-4.15-.07-5.61-.05-1.46-.13-2.71-.23-3.76-.15-.98-.35-1.82-.6-2.54-.25-.71-.55-1.46-.9-2.24-.36-.75-.78-1.42-1.23-2.06l-2.25,.46-1.69-.42-1.69-2.57-.04-.1-1.38,.99-.54,1.8,3.24,2.48-.2,1.04-.93,1.41-4.57-1.92-3.41,1.49-1.35-1.16,.9-1.47-4.13-.05s-.03,.05-.04,.08c-.35,.78-.64,1.53-.86,2.24-.23,.72-.39,1.56-.49,2.54-.15,1.04-.25,2.29-.3,3.76-.05,1.46-.08,3.33-.08,5.61,0,2.73,.02,4.99,.08,6.78,.05,1.79,.15,3.27,.3,4.44,.1,1.17,.25,2.13,.45,2.88s.48,1.45,.83,2.1c.65,1.3,1.55,2.37,2.7,3.22s2.4,1.27,3.76,1.27c.85,0,1.54-.08,2.07-.24,.53-.16,.91-.37,1.17-.63l.15,.19-1.67,5.58,1.56-2.22,1.8-2.4,7.1-2.8,1.13-3.91c.25-.91,.46-1.77,.64-2.58l-.02-.02Zm-6.88-4.73c0,1.5-.38,2.7-1.13,3.61-.75,.91-1.63,1.37-2.63,1.37s-1.88-.45-2.63-1.37c-.75-.91-1.13-2.11-1.13-3.61v-12.88c0-1.5,.38-2.7,1.13-3.61s1.63-1.37,2.63-1.37,1.88,.46,2.63,1.37,1.13,2.11,1.13,3.61v12.88Z"/>
  <rect class="cls-9" x="247.75" y="162.74" width="3.83" height="4.98"/>
  <path class="cls-9" d="M254.43,142.06c0-.94,.02-1.75,.08-2.41,.05-.67,.14-1.24,.26-1.73s.27-.93,.43-1.32c.16-.39,.37-.8,.62-1.22,.5-.85,1.13-1.5,1.88-1.98,.75-.47,1.56-.71,2.44-.71s1.69,.24,2.44,.71,1.38,1.13,1.88,1.98c.25,.42,.46,.83,.64,1.22s.33,.83,.45,1.32c.12,.49,.21,1.07,.24,1.73,.04,.67,.06,1.47,.06,2.41,0,1.04-.01,1.92-.04,2.63-.03,.72-.1,1.35-.23,1.9-.12,.55-.32,1.05-.58,1.49s-.62,.9-1.07,1.39c.45,.46,.81,.91,1.07,1.37,.26,.46,.46,.99,.58,1.61s.2,1.37,.23,2.27c.03,.89,.04,1.99,.04,3.29,0,1.07-.02,1.96-.06,2.66s-.09,1.31-.17,1.83c-.08,.52-.18,.96-.32,1.32s-.31,.73-.51,1.12c-.43,.85-1.03,1.57-1.8,2.17-.78,.6-1.73,.9-2.86,.9s-2.08-.3-2.85-.9c-.78-.6-1.38-1.32-1.8-2.17-.2-.39-.37-.76-.51-1.12s-.24-.8-.32-1.32-.13-1.13-.17-1.83-.06-1.58-.06-2.66c0-1.3,0-2.4,.04-3.29s.1-1.65,.23-2.27c.12-.62,.32-1.15,.58-1.61,.26-.45,.62-.91,1.07-1.37-.45-.49-.81-.95-1.07-1.39-.26-.44-.46-.93-.58-1.49-.12-.55-.2-1.19-.23-1.9-.02-.71-.04-1.59-.04-2.63h.01Zm7.59-1.95c0-.68-.19-1.26-.56-1.73-.38-.47-.81-.71-1.32-.71s-.94,.24-1.31,.71c-.38,.47-.56,1.05-.56,1.73v5.07c0,.68,.19,1.26,.56,1.73,.38,.47,.81,.71,1.31,.71s.94-.24,1.32-.71,.56-1.05,.56-1.73v-5.07Zm0,13.66c0-.68-.19-1.26-.56-1.73-.38-.47-.81-.71-1.32-.71s-.94,.24-1.31,.71c-.38,.47-.56,1.05-.56,1.73v6.83c0,.68,.19,1.26,.56,1.73,.38,.47,.81,.71,1.31,.71s.94-.24,1.32-.71,.56-1.05,.56-1.73v-6.83Z"/>
  <path class="cls-9" d="M272.95,147.62c1.15,0,1.95-.18,2.39-.54s.66-1.19,.66-2.49v-4.49c0-.71-.17-1.3-.51-1.76-.34-.46-.79-.68-1.37-.68-.68,0-1.16,.28-1.45,.83s-.43,1.09-.43,1.61v2.83h-3.83v-2.88c0-1.01,.15-1.97,.45-2.88,.3-.91,.71-1.69,1.24-2.34s1.14-1.17,1.84-1.56c.7-.39,1.45-.58,2.25-.58,1.05,0,1.92,.27,2.61,.8,.69,.54,1.21,1.08,1.56,1.63,.25,.39,.47,.78,.66,1.17s.34,.86,.47,1.41c.23,1.07,.34,2.67,.34,4.78,0,1.2-.02,2.18-.06,2.93s-.13,1.37-.28,1.85c-.17,.52-.42,.96-.73,1.32s-.75,.75-1.3,1.17c.6,.49,1.06,.94,1.37,1.37,.31,.42,.54,.91,.7,1.46,.15,.59,.24,1.28,.26,2.07,.03,.8,.04,1.81,.04,3.05,0,1.14-.02,2.08-.06,2.83s-.09,1.37-.17,1.85c-.08,.52-.18,.96-.3,1.32s-.29,.73-.49,1.12c-.48,.91-1.08,1.67-1.82,2.27-.74,.6-1.71,.9-2.91,.9-.6,0-1.24-.13-1.92-.39-.68-.26-1.29-.68-1.84-1.27-.55-.59-1.01-1.35-1.37-2.29-.36-.94-.54-2.1-.54-3.46v-2.83h3.83v2.58c0,.78,.17,1.42,.51,1.93,.34,.5,.79,.76,1.37,.76s1.03-.25,1.37-.76c.34-.5,.51-1.18,.51-2.02v-4.98c0-1.37-.2-2.26-.6-2.68-.23-.26-.53-.42-.92-.49-.39-.06-.9-.1-1.52-.1v-4.37Z"/>
  <path class="cls-9" d="M282.38,142.06c0-.94,.02-1.75,.08-2.41,.05-.67,.14-1.24,.26-1.73s.27-.93,.43-1.32c.16-.39,.37-.8,.62-1.22,.5-.85,1.13-1.5,1.88-1.98,.75-.47,1.56-.71,2.44-.71s1.69,.24,2.44,.71,1.38,1.13,1.88,1.98c.25,.42,.46,.83,.64,1.22s.33,.83,.45,1.32c.12,.49,.21,1.07,.24,1.73,.04,.67,.06,1.47,.06,2.41,0,1.04-.01,1.92-.04,2.63-.03,.72-.1,1.35-.23,1.9-.12,.55-.32,1.05-.58,1.49s-.62,.9-1.07,1.39c.45,.46,.81,.91,1.07,1.37,.26,.46,.46,.99,.58,1.61s.2,1.37,.23,2.27c.03,.89,.04,1.99,.04,3.29,0,1.07-.02,1.96-.06,2.66s-.09,1.31-.17,1.83c-.08,.52-.18,.96-.32,1.32s-.31,.73-.51,1.12c-.43,.85-1.03,1.57-1.8,2.17-.78,.6-1.73,.9-2.86,.9s-2.08-.3-2.85-.9c-.78-.6-1.38-1.32-1.8-2.17-.2-.39-.37-.76-.51-1.12s-.24-.8-.32-1.32c-.08-.52-.13-1.13-.17-1.83s-.06-1.58-.06-2.66c0-1.3,.01-2.4,.04-3.29s.1-1.65,.23-2.27c.12-.62,.32-1.15,.58-1.61,.26-.45,.62-.91,1.07-1.37-.45-.49-.81-.95-1.07-1.39s-.46-.93-.58-1.49c-.12-.55-.2-1.19-.23-1.9-.02-.71-.04-1.59-.04-2.63h.01Zm7.59-1.95c0-.68-.19-1.26-.56-1.73-.38-.47-.81-.71-1.32-.71s-.94,.24-1.31,.71c-.38,.47-.56,1.05-.56,1.73v5.07c0,.68,.19,1.26,.56,1.73,.38,.47,.81,.71,1.31,.71s.94-.24,1.32-.71,.56-1.05,.56-1.73v-5.07Zm0,13.66c0-.68-.19-1.26-.56-1.73-.38-.47-.81-.71-1.32-.71s-.94,.24-1.31,.71c-.38,.47-.56,1.05-.56,1.73v6.83c0,.68,.19,1.26,.56,1.73,.38,.47,.81,.71,1.31,.71s.94-.24,1.32-.71,.56-1.05,.56-1.73v-6.83Z"/>
</svg>