<?xml version="1.0" encoding="UTF-8"?>
<svg id="Layer_1" data-name="Layer 1" xmlns="http://www.w3.org/2000/svg" viewBox="0 0 283.46 283.46">
  <defs>
    <style>
      .cls-1 {
        fill: none;
        stroke: #010101;
        stroke-miterlimit: 1;
        stroke-width: .75px;
      }
    </style>
  </defs>
  <path id="east-midlands" class="cls-1" d="M172.19,64.57l.48,1.86-1.97,3.64-.76-.03-4.17-.31-.56-1.1-1.24,1.66-.93,.28v.62l-1.41,.37-.59,.82,4.12-.96,.54,1.18,.82,.17,.23,1.47-4.88,1.35,.45,.85-.31,1.58,.9,.51-5.5,1.8-3.75,.03-.31-2.65,.48-2.76-6.71-.54-.68,1.89-.96,.2-.17,1.89-.76,.37,.03,1.16-.76,.96v.03l-4.45-1.07-.08,.45-2.48,.17-.28-.48,1.18-.99-2.14-2.68-.99,1.8-1.95,1.32-.48,3.41-1.1,1.04-.93,.14-.06-.59-3.3,.59-1.21,1.95-.45-.14v1.04l-1.07,.7,.23,1.41-.9,.62,.48,1.32-1.38-.2,.31,1.27,.96-.14,.11,.51-3.55,2.96-.23,.73-1.64-.39-.7,.7-2.31-.76-.82-.54,.42-1.13-.65-.59-.76-.17-.54,.85-.17-.31-.79,1.27-1.13-.34-.34,.45-1.58-.34,.11-1.58-1.44-.73-.54,.76-1.27-.25-1.04,.68,.28,.85-.76,.45-.82-.14-1.18,.14-2.06,1.27-1.44-.2v-.9l-1.13,.42-.28-.99-.82,1.01-.17-.68-.42-.39-1.13,.62-.31-.45,1.21-2.26,1.27-.25-4.31-2.03,.54-2.57-2.99-1.18v-.99l-1.49-.08-.93-1.01,.03-3.55-1.35-.23-1.92-1.64,.25-2.14-.82-.34,.56-.48-1.1-.23-.17-.73-1.13,.08-1.89-2.03-1.18,.68-.96-.45-.99,1.72,.54,.76-.25,.34-1.72,.56-.73-.54-.45,.51-.17,1.58-.82,.82,.45,1.69-1.61,2.14,.23,.54-.56-.42-.76,1.04,.76,1.35,1.27,.06-.7,2.88-1.01,1.1-.76-.06,.23,.54,.2,.65,1.07,.17,.28,1.58-.56,1.3,.73,1.35-.51,5.75,.59,1.52,1.49,1.41-.96,.79,.2,.9,1.49-1.21,.31,1.21,3.16,1.49,1.75,.31,3.44,3.61-.31,2.26,2.26,3.27,.03,.93-.62,.45,.48,2.54,.59,.37-.54,.93,.37,.51,1.3,1.35-.31,3.07-3.78,2.2-.23,3.16-1.47,1.44-.03,1.04,1.49,2.34-.14,.96,1.27,.62,.56-.54,.82,.59,.65-.37,1.92,1.49,1.18,.85,1.27-.68,.08,.54,.73-.31,3.83,.96,2.48,2.26-1.49,1.58,1.07,.59,.2,.93-1.49,1.18,.17,.68-.48-.37-.45,.51-.68-.68-.68,.7-.96-.54-1.86,3.21,.28,.85-.9,1.3,3.02,.87,.14,2.28,1.18-.39,1.89,.59,.37-.37,.62,.59-.14,.68,2.23,1.83,.62,1.47-.28,1.13-1.44,.7,.28,1.44,.7,.59-.34,1.8,2.03,1.32,.25,1.21,3.83,1.8,2.54,1.72,5.58,3.24,1.18,.7,3.97,5.24,.23,.39,2.14,3.83,1.86,3.5-.17,.48-2.82,.73-2.48,1.52-.17,.59,3.44,1.27-1.47,2.42,.59,.37,.51,1.97-.99,1.32-1.32,.59-.76,1.21-1.04-.31,.54,1.61,.9,.59,.37,1.66-1.58,.73-1.95,.17-1.01,2.23,5.07,6.93-1.47-.06-2.93,1.1,.17,.68,1.27,.17-.96,2.68,2.17,3.61-.62,2.42,.39,1.04,2.48-.73,2.76,.87,1.24-.51,.73-1.13,1.8-.39,1.13-1.92-1.3-.54,.85-2.26,3.61-1.8,2.17-.17-.96-.96,4.51,.28,.96-1.1,.7,.56,.68,3.19,1.35,2.09,1.1-.96,.59,.28,.54-1.13,1.13-1.1-.65-.99,1.41-.31,.51-.82-1.01-1.89-1.38-.82-.14-1.16-.96-.23,.37-1.18h.06l3.16-.68-.23-1.07,1.07,.08,.37-1.44,.96,.54,.48-1.44,1.1-.56,.23,.79,.7-.37,2.68-2.48,2.26-.37,1.8-3.24-1.1-4.03,2.62-1.07,1.44,.54,1.32,1.89,1.52-.39,.51-1.3-.68-1.92,1.61-2.48-.37-.25,3.3-.59-.08-1.58-1.04-.17,.37-.82-1.3-1.1,.56-1.35-.45-.54,3.38-.76,1.41-1.75-.08-.79,.37-.08,2.88-2.11-.59-.37,1.04-2.28,.73-.68-1.13-2.23,.25-1.66-3.64-1.89,.76-1.21-.08-.9-1.1-1.1,.73-.48-.51-1.47-.59-.34-3.19,.93-1.18-1.27,1.55-3.1-.2-.99-1.3-1.18h0l1.13-.85,1.35-.08,.03-.51,2.85,.54,3.3-1.44,.85-1.3,2.76,.39,1.8,1.8,3.21-1.72,.79,1.55,.79-.82,2.34,.82,2.26-2.09,.9,.51,1.38-.87,1.95,.9,.06,.37,3.16-.39,1.61-1.72-.39-3.21,1.13-1.27,1.52,.28,2.59-1.64,2.26-.11,.99,.45,4.99-3.89-1.66-1.07,1.18-2.59-3.02-.56-.51,3.24,.37-4.26-2.48-4.51-1.55-.79-1.58-.68h-1.89l-2.03-1.04-1.16,.37,.25-.73-.93,.62,1.07-1.66-.54-.85,.9,.54,1.52-1.35h-2.17l2.23-.17,.82-2.31-.45-.08,4-5.5,2.4-2.23,1.04-.68,4.37-4.14-.68-.08,1.89-.73-.9-.48,1.86,.45,.62-.79,.68-9.42-.54-1.58-.68-3.02-6.06-13-.93-3.24-1.89-1.1,.9-.39-1.49-1.58,.76,.14-.96-.68,.37-.59-2.11-2.88,.62,.23-.25-.56-.99-1.13-.14,1.18-.96-.23,.45-1.07-1.61-.82,.54,1.07-.28,.59-.68-.54-.48-.08-.87-.9,.51-1.13-.51-.23-.08,.56-2.34-1.44,.54,1.18,.54-.28-.08,.9-2.26-1.66-.45,.45-2.88,.85-.42-.68-1.07,.2-.54,2.88-1.18,.37,.37,.82-1.04,.82,1.58,1.8-2.2,1.8-.68-.23-1.1-1.04-.31-1.89-1.64-.23-.45-1.55-1.3-.17,.31-2.48-.39-2-.54-.08,1.8-3.07-.51-.79-1.58,.39-.76-1.75-.96,.17,.14-.9-2.62-1.89-.93-.06v.13Z"/>
</svg>