<?xml version="1.0" encoding="UTF-8"?>
<svg id="Layer_1" data-name="Layer 1" xmlns="http://www.w3.org/2000/svg" viewBox="0 0 283.46 283.46">
  <defs>
    <style>
      .cls-1 {
        fill: #fac7c8;
        stroke: #010101;
        stroke-miterlimit: 1;
        stroke-width: .75px;
      }
    </style>
  </defs>
  <path id="south-west" class="cls-1" d="M257.89,38.04l-1.3,.62-1.41,2.71-.39-.68-.76,1.27-.9-.65-.42,.68-1.24,.23,.68,.68v.96l1.75,.99,.54,1.27-.82,2.34-1.38-.54-3.16-3.16-1.1,1.44-1.21-.76-1.97,.17-3.3,3.07-.68,.08-.68-1.07-1.49,.39-1.61-.45-1.86,1.55-.54-.68,.68-2.11,1.44-1.01-1.07-.79-1.69-.42-.56,.28-.59,.54,.23,1.95-.65,.31,1.41,2.26-.99-.31-.28,.9-2.17-.51-1.89,2.85-1.16-.23-1.8,.17-.73-.93-.85,.03,.03-2.93-1.61-.76,.08-.76-2.62,.9-.31,1.52-.87,.23-1.44-.31,.14-1.58-1.72-.14-.14-.9-.79,.11-.79,1.16,1.24,1.58-1.47,1.32,.14,1.69-.54,.34,2.17,.9-.06,2.34,1.1,.9,.45,2.17-1.58,.39-1.32,1.21-1.27-.48-1.44,2.37-2.96-.08-.14,1.18-1.13-.68-1.49,1.72-.68-.42-.85,1.66-.68,.34,.08,1.16-1.13,.73,.48,.9-.68,2.48,1.1,1.49-.65,1.69-.93,.51,1.16,2.54-.93,.45,.85,.62-.14,1.35,.96,.73-1.64,.48-.17,.59,1.21-.17-.85,1.75,.62,.17,.14,1.47,.51,.79-.56,1.13,2.4,.56-2.2,3.1-.68,2.88-2.76,3.52,1.18,1.64-1.86-1.1-.23,1.04-2.51-.25-1.64,.93-4.96,5.19-.45,1.89-1.95,1.64-1.35,.45,.14-.68-2.71,.9,1.07,.54,.06,.82-.31,1.07-1.72,.73,.73,.68-.23,3.66-.51-.87-2.54-.82,1.49,.87-.7,5.36,1.16,2.09,.23,1.95h0l-1.07,1.61-.76,1.58-1.49,.54,1.35-1.07,.68-1.97-.59-.06-1.44,1.49-1.49,.17-3.47-.99-3.02,1.04-1.35-.2-4.65,2.09-7.89-.39-2.45-2.54-1.61-.08-1.58-1.58-2.9-.9-2.2-.06-2.65,1.49-.65-.73-5.55-1.07-2.96-.51-1.04-.85-1.66,1.44-2.23-.45-2.65,1.04-2.09-.85-2.03,1.21-4.37,.17-.62,.9-3.02-1.13-.59,.65-1.55-.23-3.5,1.38-1.47-.37-.68,1.04-1.16,.2,1.16,.99-.39,2.62-.39,.68-2.45,.08,1.41,.99-.14,1.27,1.07,.31,.37,4.14,1.49,1.1,.59-.14,.03,1.75-1.16,1.47,.48-2.06-1.21,.23,.14-.93-.59-.37-1.3,2.31-1.27,.31-2.76,3.75-2.42,.85-2.2-.14-3.07-2.42-2.79-.87-3.44-.17-.62,1.3v4.28l-1.24,2.54,.28,1.07-.54,.23-.99,2.17,.56,6.6,.59,.7-.76,.11-.37,4.62-4.54,2.99-.14,.85-1.18,.11-.14,2.28-1.69,1.13v.82l-2.9,1.07-.59,1.24-.45-.56-1.38,.65-.23,1.49,.48,.17-.85,2.99-1.66,2.34-2.31,.48-1.04-.68-1.3,.28,.14,.62-1.18,.65-1.44-.28-.59-1.04-1.07,.73,1.21,1.13-1.04,1.07,.23,1.95-.54-.45-.9-.7,.08-1.27-2.26,2.57-3.3-.85-.23,.39,.96,.68-.45,2.34,.54,.59-.7-.06-.96,1.1,.73,.39-.14,1.41-.51,3.41-.9,1.64-.68,.06,.73,.23-1.89,.93-.96-1.13-.17,1.21-1.55,.11,1.04,.34-1.07,.45-.56-.48-.08,.7-.7-.39,.17,1.64-.85-.11,.62,1.41-.59,2.88-1.75,.45-1.32,1.95-2.2,.08-.06,1.8-1.13,1.78h-.25l-1.44,.7-.79,1.24-.85-.14-2.17,2.11-2.34,.08-.39-.62-1.04,.31-.14,1.8-2.54,2.79-.11-.14-2.03-.68-.34-1.92-.62,.39-.82-.54-2.57,.23-3.44,2.57-.56-.51-1.95,2.45h-2.76l-2.57,3.75,1.21,3.69-1.89,1.97,.31,1.13,1.13,.45,.42,1.64,.76,.37,1.61-.87,.68,.42,1.18-1.04,2.65,.08,.96-1.04,.54,.31,1.49-2.79-.96-1.8,1.18-.68,.54-1.16,3.83,.45,2.09,1.89-.06,.82,.9-.28-.17-.37,2.17,.31,1.24,1.27,1.55-.23,1.07,1.04,.31-.28,2.23,2.9-.2,1.3,1.27,1.04-.37,.39,.65,.79-.76,2.06,.76,.42,.45,2.11,1.66,.48,.17,1.13,1.95-.25v-1.58l1.64-2.57,2.57-.23,1.3,.56,.68-1.13-.25-1.07,1.75-.76,.82-1.72-.59-1.49-.7-.14,.25-1.66-2.34-.39-.45-.76-.96,.48-.31-.54-.68,.17,.2,.9-.42-.79-1.58,.62-1.72-.45,3.04-.23-.65-.62,.42-1.27v1.58l1.21-.2,.45-1.21,.45,.14-.68,.99,1.83-.31,.73,.45,1.18-.9-.87-1.95,1.86-1.44,.9-.39,.76,.45,1.18-2.03,.34,1.66,.51,.93,1.8-1.16,.68-3.3,1.07-1.64,1.55-.39,.9,1.07,3.69-3.72,2.93,.62,.68,1.21,.39-1.13,1.13-.68-.25-.82,1.16-.76-1.13-.85v-.82l.59-.85-.17-1.1,1.13-.99,.7,.17-.79-2.14,.68-1.01,1.92-.56,.03-.06,1.24-.17,.08-.82,.65,.08,.82,.99-.28,1.78,.76,.62,.37-.9h.9l1.41-1.44,.08,.39,.48,.06-1.01,.39,.31,.54,1.66-.34,.51,.48,1.3-.82,2.48,.96,2.34-.59,.28-.68,1.49,.51,1.52-1.41-.82-1.04,.31-.7,.51,1.44,.9-.96,3.16-.34,6.54,1.01,3.52,2.68,.03,1.95,.9-.65,1.41,.08-.76-1.52,1.97-.9-.03-1.58-2.4,1.07,.76-1.21-.54-.48,.7-.79-.17-1.01-.68-.28,.45-.28-1.97-.39,.45-.14,1.35-1.38-.59-.73,.37-1.04h-.79l1.49-.93,.06-1.01,.85,1.18,.96,1.13,.37-.45,.54-.85-.51,.85-.39,.54,.23,.23-1.72-.45-.85,2.4,.68,.73,.76,1.52-.2,.51-.08,.45,1.1,.34,.03,.42,.9-.59,1.21,.31,.14-.7,.99,.85,1.04-2.09,1.04-.31-1.64,2-.23,.85,.68,.31-2.11-.54,.51,1.49,.39,2.48,5.38,.76-2.59,.54,1.47,1.32h1.89l.45-.79,1.38-.45,2,.37,.9-.76-.14,.76,.28,.87,1.3-.06,1.75,1.52,.9,.06-.11,.76,1.47,1.32-.11,1.8-.79,.03,3.04,2.54,2.03,.7,.62-.54-.06-1.35,1.32-.62-.54,1.44,1.97,.73,.99,1.24,2.62-1.92,1.52,.48,1.04-.39-1.16-1.44,1.3-5.47,1.86-2.57,2.11-.68,.99-.96-.54-1.3,1.75,1.35,1.66-1.1-.17-1.16,.9-2.03,.73-.2-.45-.76,1.35-1.07-1.95-.59,.48,.59-.39,.39-.51-.7-2.2-.42-.06-3.52,1.41-1.97,1.21,.9,2.23-.9-2.14-1.86,.45-3.41,.87-2.09-.87-.48,.87,.11,1.75-2.06,.31-1.78,2.59-2.93-1.24,.9-.39-4.51-1.04-1.66v-1.75h.06l.7,.7,.42-.93,.08,.54-.06,.59,2.03,4.31-.7,1.13,4.06,1.24,.82-1.35,3.04-1.1,1.58-2.96,1.32-1.13,4.54-1.04,5.47,.03,1.04-1.61,3.97,.37,3.95-1.47,.37-.39,2.34-1.49,9.3,2.34,8.34,5.16,7.72,6.26-6.74-5.67,3.21,1.47,.14,.82h.79l-.23,.59,1.95,.73,1.86,2.59v.06l.99,.73,1.35-1.72,1.13,.48-1.18-.76,.65-.59-.73-.31,.65-1.21,1.01-.96,1.01,.2,4.51,.14,.9,.68,5.5,.93,2.4-.68,.68,.82,1.83-.08,.73,.7,.7-.39,1.27,1.3,3.21,.59,.54,1.66,1.8-1.24,4.68-.51,.45-1.3-.76-.2v-.85l2.03-2.4-1.58-.37,.45-2.79-.48-.59-1.55,1.49-.68-.45,.45-.73-1.07,1.01-.2-.96-.34-.14-.45-.48-.68,.08-.28,.39,.08-.68-1.38,1.04-.34-.37,1.78-.93-.54-1.47,.93,.06-.54-.59-1.75,.76-.73,1.32-.99-.06,.59-1.75,.93-.08-.9-.23,.54-.82,1.35,.23-.03-1.21-.37,.34-.31-.56,1.75-.06-.9,1.04,3.3,1.04-1.52-1.8,.03-.68,.9-.42,.76,1.78-.48,.68,2.06-.28,.68,.62-.25,.45,1.16,.59-.85,1.58,2.88-2.65,3.58-.99,.82-.14,5.13,.93,.51-1.01,.08-.34,1.83-1.16,1.1-.06,.68-1.44-3.92,.39,.31-1.58-.59-1.52-2.31,1.44-.11-1.38-1.13-1.35,.17-.42-.59-1.16,.54-.51-.03-1.64,.82-.62-.73-.62-.37-2.14-1.35,.9-1.3-.31-.2-.76,.59-2.03-.25-.28v-.03l.39-.68,1.07,.14,.51-.82,.37-2.31-1.95-.45-1.97,1.44-2.93-4.37-2.17-1.66-.08-1.13,.45,.76,1.35-1.52,2.57-.2,.76-.68v2.17l1.3-1.97,1.1-.51,1.27,2.34,.93-.54,2.9,1.32,2.14,.08,1.86,2.17,.82,.48,.93,.45,1.69-1.38,.7,.45,.23-.42,.99-1.95-1.01-.45-.59-1.58,1.44-.31-.54-.45,.37-.31,.7,.17-.48-.9,.34-.62-2.06-.9-.14-.85,.39-3.61-.56-1.41,.68-2.48-2.31-.96,.54-2.82-.17-.34-.96-1.89,.23-1.21-1.58-1.27,.28-1.07,3.47-.31,1.58-3.5,1.86-.25,1.97,1.04,.59-.37,.37-1.18-.65-.03-.14-2,1.24-.59,.17-.9-.9-1.97,.37-2.2,1.83,.9,.73-1.8-.9-.87,.31-1.3-1.13-.23-2.62-2.31,.2-1.44-.59,.17-.54-.68,.37-.68,2.34-.23,.17-2.28-2.17-2.09-1.52-2.65-.08-2.9-1.13,.68-2.76-5.27-.48-.45-1.32,.68-.9-1.35,.06-.08v-2.09l1.44-1.07-.39-.62,.79-1.24-2.03-1.8-.45-1.83,.87-1.64,1.49,.82,.79-.37-.54-1.21-1.75-1.35-.65-1.3,.56-1.64-.87-3.02-1.13-1.21,2.26-2.09,.31-1.3-.56-1.72,.62-1.55-.68-1.47,1.21-1.18,.51-1.95,1.58-.25-.76-2.26,1.8-1.55-1.04-1.75-1.41-.2-.45-.62-.23-2.34-.23-.51,3.13-3.61-.37-.93-2.4,.76-1.86-.82,.34-1.21-1.01-.76,.2-1.32-.68,.65-1.1-.68,.14-2.62-.59,.85-.7-.37-1.1-1.69,.08,.1Zm-14.77,140.95h.11l-.03-.06-.06-.06-.08,.06,.06,.06Zm15.11-4.71l.34,.68,.45-.68,.9,.68v.2l-.23,.56-1.07-.25-.39-1.18h0Zm-12.83,3.29l-.85,.45,1.3,.62,.73-.45-1.18-.62Zm-2.96,.31l.23,.9,.39-.31-.62-.59h0Zm-4.28,.51l-.51,.85-.03-.03,.54-.82h0Zm-25.82,8.94l3.3,3.69-.59,4.6,1.78-2.2,.9-1.32-.82-1.72,.39-.25-2.37-.23-2.59-2.57Z"/>
</svg>